<svg width="73" height="73" viewBox="0 0 73 73" fill="none" xmlns="http://www.w3.org/2000/svg">
<path d="M72.9818 73V72.997H72.9999V46.14C72.9999 33.0014 70.1999 22.8804 54.9948 22.8804C47.6852 22.8804 42.7799 26.9325 40.7773 30.774H40.5659V24.107H26.149V72.997H41.1609V48.7885C41.1609 42.4144 42.357 36.251 50.171 36.251C57.8703 36.251 57.9851 43.5251 57.9851 49.1973V73H72.9818Z" fill="#1A3453"/>
<path d="M1.08724 23.9714H16.341V71.9118H1.08724V23.9714Z" fill="#1A3453"/>
<path d="M8.71645 0C3.90456 0 0 3.88635 0 8.67581C0 13.4653 3.90456 17.4329 8.71645 17.4329C13.5283 17.4329 17.4329 13.4653 17.4329 8.67581C17.4299 3.88635 13.5253 0 8.71645 0V0Z" fill="#1A3453"/>
</svg>
