<svg width="64" height="50" viewBox="0 0 64 50" fill="none" xmlns="http://www.w3.org/2000/svg">
<g clip-path="url(#clip0_215_18356)">
<path d="M0 4.07801V15.721C0 19.2671 4.32089 21.1584 6.96143 18.6761L19.564 7.0331C22.3246 4.49173 20.5242 0 16.7434 0H4.14085C1.86038 0 0 1.83215 0 4.07801Z" fill="#1A3453"/>
<path d="M59.6522 -1.54137e-05H47.0496C43.3289 -1.54137e-05 41.4685 4.49171 44.2291 7.03308L56.8317 18.6761C59.4722 21.0993 63.7931 19.2671 63.7931 15.721V4.078C63.7931 1.83214 61.9327 -1.54137e-05 59.6522 -1.54137e-05Z" fill="#1A3453"/>
<path d="M34.7471 28.4279L56.8317 48.877C59.4722 51.3002 63.7931 49.4681 63.7931 45.922V34.1607C63.7931 33.0378 63.313 31.974 62.4728 31.2057L34.7471 5.49643C33.1268 4.01889 30.6663 4.01889 29.046 5.49643L1.32027 31.2057C0.480099 31.974 0 33.0378 0 34.1607V45.922C0 49.4681 4.32089 51.3593 6.96143 48.877L29.046 28.4279C30.6663 26.9503 33.1268 26.9503 34.7471 28.4279Z" fill="#1A3453"/>
</g>
<defs>
<clipPath id="clip0_215_18356">
<rect width="63.1518" height="49.4974" fill="white" transform="scale(1.01015)"/>
</clipPath>
</defs>
</svg>
