<svg width="73" height="73" viewBox="0 0 73 73" fill="none" xmlns="http://www.w3.org/2000/svg">
<g clip-path="url(#clip0_107_72835)">
<path d="M14.3381 54.6192V48.7531L24.2453 54.4888L36.4989 43.0174V69.0888L14.3381 54.6192Z" fill="#0093EB"/>
<path d="M2.48063 39.1075L15.3861 27.3753L36.5039 40.4111L24.2503 51.8825L2.48063 39.1075Z" fill="#0093EB"/>
<path d="M15.3822 27.375L0 15.6429L22.1608 3.91083L37.8036 14.3393L15.3822 27.375Z" fill="#0093EB"/>
<path d="M58.6618 54.7493L36.501 69.0885V43.0171L49.1457 53.9671L58.6618 47.9707V54.7493Z" fill="#0093EB"/>
<path d="M49.1457 51.3595L36.501 40.4095L57.7493 26.8523L70.5243 37.8023L49.1457 51.3595Z" fill="#0093EB"/>
<path d="M57.7469 26.8536L37.8022 14.3393L53.445 3.91083L72.9986 15.6429L57.7469 26.8536Z" fill="#0093EB"/>
</g>
<defs>
<clipPath id="clip0_107_72835">
<rect width="72.6503" height="72.6503" fill="white" transform="scale(1.00481)"/>
</clipPath>
</defs>
</svg>
