<svg width="315" height="24" viewBox="0 0 315 24" fill="none" xmlns="http://www.w3.org/2000/svg">
<path d="M294.296 12.6828C293.866 12.7029 293.433 12.7167 293.013 12.7468C292.74 12.7656 292.623 12.7104 292.441 12.6815C292.38 12.6715 292.315 12.6514 292.259 12.6539C291.834 12.674 291.409 12.6966 290.985 12.7192C290.855 12.7681 290.772 12.8334 290.573 12.8573C290.378 12.8799 290.148 12.8799 289.932 12.8912C289.646 12.905 289.36 12.9188 289.074 12.9313C288.931 12.9376 288.814 12.9615 288.766 13.0066C288.757 13.0142 288.853 13.033 288.905 13.0443C289.078 13.0819 289.247 13.1246 289.438 13.1535C289.62 13.1811 289.845 13.1359 290.04 13.1711C290.478 13.2501 290.482 13.2489 290.816 13.2338C291.102 13.22 291.388 13.205 291.674 13.1949C291.73 13.1924 291.795 13.2112 291.856 13.2213C292.038 13.2489 292.155 13.3117 292.424 13.2878C292.627 13.269 292.853 13.2652 293.065 13.2552C293.243 13.2916 293.407 13.333 293.598 13.3619C293.776 13.3895 293.828 13.4108 293.732 13.4472C293.646 13.4811 293.524 13.4949 293.364 13.4974C293.221 13.4987 293.078 13.51 292.935 13.5163C292.861 13.52 292.792 13.5225 292.722 13.5263C292.45 13.5401 292.449 13.5401 291.951 13.4598C291.756 13.4284 291.535 13.4723 291.349 13.4422C291.223 13.4221 291.115 13.392 290.993 13.3707C290.941 13.3619 290.859 13.3606 290.794 13.3631C290.577 13.3719 290.361 13.3782 290.153 13.3945C290.005 13.4058 289.919 13.4409 289.936 13.4761C289.94 13.4899 290.044 13.51 290.105 13.5112C290.244 13.5138 290.391 13.4962 290.525 13.505C290.655 13.5137 290.79 13.5388 290.885 13.5665C291.08 13.6242 291.301 13.5727 291.487 13.5878C291.682 13.6041 291.843 13.6543 292.029 13.6845C292.077 13.692 292.168 13.6794 292.241 13.6757C292.454 13.6669 292.666 13.6594 292.879 13.6506C293.056 13.687 293.247 13.7196 293.407 13.761C293.698 13.8363 294.01 13.8652 294.387 13.8288C294.599 13.8087 294.807 13.8163 294.976 13.8652C295.149 13.9154 295.349 13.9104 295.57 13.9004C295.773 13.8903 295.981 13.8627 296.189 13.8978C296.64 13.9757 296.644 13.9794 297.177 13.9493C297.338 13.9405 297.459 13.938 297.58 13.9669C297.693 13.9932 297.814 14.0158 297.931 14.0409C298.144 14.0322 298.36 14.0234 298.573 14.0133C298.846 13.9995 298.997 14.0171 299.062 14.0874C299.101 14.1301 299.119 14.169 299.214 14.1978C299.327 14.233 299.448 14.2317 299.613 14.2217C299.769 14.2129 299.881 14.1991 299.946 14.1539C299.972 14.1351 300.024 14.1175 300.072 14.1024C300.111 14.0911 300.172 14.0736 300.206 14.0761C300.271 14.0811 300.358 14.0949 300.38 14.1112C300.592 14.2631 300.592 14.2644 300.809 14.3083C301.047 14.3573 301.294 14.4012 301.511 14.4564C301.706 14.5054 301.901 14.484 302.113 14.484C302.273 14.484 302.377 14.5167 302.364 14.5493C302.356 14.5681 302.295 14.5957 302.243 14.5982C301.818 14.6234 301.389 14.6447 300.96 14.6623C300.908 14.6648 300.844 14.6422 300.783 14.6309C300.661 14.6083 300.553 14.5731 300.423 14.5656C300.293 14.5581 300.141 14.5769 299.998 14.5832C299.855 14.5895 299.704 14.6058 299.574 14.5958C299.444 14.5857 299.34 14.5493 299.218 14.5255C299.162 14.5142 299.084 14.4978 299.036 14.5016C298.72 14.5317 298.486 14.4903 298.261 14.4351C298.213 14.4238 298.131 14.4163 298.07 14.4188C297.567 14.4401 297.069 14.4652 296.566 14.489C296.363 14.4991 296.198 14.4552 296.155 14.3811C296.133 14.3397 296.09 14.2983 296.09 14.2568C296.09 14.1815 295.851 14.1401 295.678 14.1489C295.392 14.1614 295.102 14.1715 294.82 14.1903C294.59 14.2054 294.395 14.1903 294.239 14.1451C294.057 14.0937 293.849 14.1037 293.641 14.1175C293.485 14.1275 293.442 14.169 293.45 14.2732C293.459 14.3573 293.385 14.3836 293.104 14.3974C292.748 14.415 292.389 14.4326 292.029 14.4464C291.973 14.4489 291.908 14.4275 291.851 14.4162C291.73 14.3937 291.622 14.3572 291.492 14.3497C291.362 14.3409 291.21 14.3598 291.067 14.3673C290.924 14.3736 290.772 14.3911 290.642 14.3824C290.512 14.3736 290.404 14.3359 290.287 14.3121C290.231 14.3008 290.161 14.2844 290.105 14.287C289.819 14.297 289.533 14.3121 289.247 14.3259C288.926 14.3409 288.926 14.3409 288.471 14.2631C288.263 14.228 288.055 14.2556 287.852 14.2656C287.635 14.2757 287.431 14.2807 287.262 14.2305C287.15 14.1978 287.024 14.1778 286.89 14.184C286.53 14.1991 286.175 14.2179 285.815 14.233C285.754 14.2355 285.672 14.2292 285.624 14.2179C285.395 14.1652 285.169 14.1238 284.849 14.1501C284.571 14.1727 284.272 14.174 283.995 14.1953C283.843 14.2066 283.774 14.2468 283.804 14.2782C283.821 14.2945 283.913 14.3133 283.973 14.3133C284.112 14.3146 284.264 14.2957 284.394 14.3033C284.662 14.3183 284.797 14.4238 285.148 14.3949C285.356 14.3773 285.572 14.3711 285.789 14.366C285.845 14.3648 285.906 14.3886 285.967 14.4012C286.14 14.4351 286.292 14.479 286.543 14.4564C286.751 14.4388 286.972 14.4338 287.184 14.4238C287.522 14.4075 287.522 14.4087 287.96 14.4853C288.168 14.5217 288.376 14.4928 288.58 14.484C288.731 14.4778 288.874 14.4652 288.996 14.4828C289.182 14.5091 289.316 14.5694 289.546 14.5656C289.763 14.5618 289.975 14.5443 290.192 14.538C290.326 14.5342 290.452 14.5543 290.56 14.5882C290.673 14.6221 290.794 14.6372 290.941 14.6296C291.154 14.6196 291.37 14.607 291.587 14.6008C291.648 14.5995 291.717 14.6108 291.774 14.6208C291.895 14.6434 292.012 14.6698 292.129 14.6936C292.341 14.6861 292.558 14.6836 292.766 14.6685C292.926 14.6573 293.039 14.6623 293.169 14.6874C293.334 14.7213 293.468 14.7815 293.737 14.7527C293.871 14.7388 294.027 14.7426 294.161 14.7301C294.326 14.7137 294.439 14.72 294.556 14.7577C294.777 14.8292 295.054 14.8305 295.34 14.8028C295.652 14.7727 295.886 14.8079 296.12 14.8631C296.367 14.9209 296.367 14.9196 296.558 15.0589C296.614 15.0991 296.774 15.1179 296.909 15.1104C297.134 15.0978 297.329 15.1041 297.494 15.1518C297.667 15.2033 297.875 15.197 298.087 15.1832C298.369 15.1644 298.651 15.148 298.88 15.2208C298.993 15.256 299.114 15.2648 299.266 15.256C299.695 15.2334 300.128 15.2196 300.549 15.192C300.804 15.1744 300.952 15.2146 301.125 15.2485C301.359 15.2949 301.615 15.3363 301.615 15.4355C301.615 15.4518 301.675 15.4706 301.727 15.4832C301.84 15.5095 301.962 15.5321 302.079 15.5572C302.252 15.5949 302.421 15.6263 302.659 15.6062C302.867 15.5899 303.088 15.5849 303.3 15.5736C303.513 15.5623 303.708 15.556 303.899 15.6037C304.12 15.6577 304.354 15.7091 304.605 15.7493C304.783 15.7782 305.017 15.7292 305.207 15.7681C305.324 15.792 305.437 15.8196 305.563 15.8397C305.615 15.8484 305.697 15.8422 305.766 15.8397C305.909 15.8346 306.057 15.8309 306.195 15.8183C306.356 15.8045 306.477 15.807 306.598 15.8359C306.711 15.8623 306.824 15.8987 306.954 15.9062C307.149 15.9175 307.365 15.8673 307.56 15.925C307.66 15.9539 307.786 15.9815 307.916 15.9903C308.046 15.9991 308.197 15.9802 308.336 15.9815C308.397 15.9815 308.47 16.0016 308.505 16.0179C308.527 16.0267 308.496 16.0505 308.466 16.0631C308.427 16.0782 308.371 16.0982 308.314 16.1008C307.885 16.1234 307.456 16.1422 307.027 16.1635C306.772 16.1761 306.772 16.1761 306.256 16.097C306.135 16.0782 306 16.0819 305.849 16.0907C305.645 16.102 305.437 16.1234 305.225 16.1008C304.947 16.0154 304.605 16.0079 304.241 16.0405C304.089 16.0543 303.951 16.0543 303.838 16.0305C303.6 15.9828 303.348 15.9388 303.136 15.8824C302.971 15.8384 302.893 15.8346 302.824 15.8949C302.802 15.9137 302.781 15.9338 302.785 15.9514C302.811 16.0141 302.858 16.0756 302.885 16.1384C302.893 16.156 302.859 16.1761 302.837 16.1949C302.768 16.2476 302.677 16.2438 302.525 16.1999C302.373 16.156 302.191 16.1271 301.948 16.1472C301.741 16.1648 301.515 16.1623 301.307 16.1811C300.986 16.2087 300.761 16.1685 300.531 16.1146C300.484 16.1033 300.401 16.097 300.341 16.0995C299.695 16.1284 299.054 16.161 298.408 16.1899C298.269 16.1961 298.144 16.1773 298.035 16.1434C297.923 16.1095 297.797 16.092 297.658 16.0982C297.086 16.1246 296.514 16.1485 295.942 16.1811C295.708 16.1949 295.522 16.1786 295.362 16.1346C295.24 16.102 295.128 16.092 294.976 16.0957C294.811 16.0995 294.694 16.1121 294.612 16.1485C294.534 16.1836 294.59 16.2049 294.764 16.2325C294.95 16.2627 295.123 16.3016 295.301 16.3367C295.444 16.3317 295.587 16.3217 295.726 16.3229C295.786 16.3229 295.843 16.3455 295.903 16.3581C296.077 16.3945 296.237 16.4309 296.484 16.4108C296.692 16.3932 296.913 16.3895 297.125 16.3782C297.42 16.3643 297.42 16.3644 297.897 16.4434C298.018 16.4635 298.148 16.4623 298.304 16.451C298.438 16.4422 298.577 16.4597 298.672 16.4974C298.711 16.5125 298.698 16.5376 298.616 16.6204C298.616 16.6819 298.707 16.6543 298.737 16.6141C298.785 16.5564 298.694 16.5376 298.521 16.569C298.399 16.5915 298.339 16.6242 298.369 16.6505C298.386 16.6644 298.469 16.6819 298.616 16.6204C298.997 16.5451 299.288 16.5363 299.565 16.5162C299.73 16.5049 299.834 16.5099 299.964 16.5426C300.12 16.5815 300.276 16.6229 300.531 16.6028C300.809 16.5803 301.103 16.5777 301.385 16.5589C301.645 16.5413 301.779 16.5966 301.944 16.6292C302.144 16.6681 302.364 16.6242 302.546 16.6468C302.737 16.6694 302.871 16.7246 303.092 16.7346C303.413 16.7007 303.617 16.7635 303.86 16.8049C304.05 16.8363 304.276 16.8087 304.479 16.7949C304.709 16.7798 304.9 16.7936 305.06 16.8388C305.242 16.8903 305.446 16.879 305.654 16.8677C306.139 16.8426 306.156 16.8388 306.438 16.9079C306.642 16.9581 306.837 16.9355 307.04 16.9292C307.218 16.9631 307.391 16.9995 307.578 17.0296C307.625 17.0371 307.716 17.0246 307.79 17.0208C308.002 17.0108 308.219 17.0007 308.431 16.9907C308.574 16.9844 308.726 16.9656 308.856 16.9731C308.986 16.9819 309.094 17.0183 309.211 17.0422C309.328 17.066 309.45 17.0899 309.562 17.115C309.736 17.1526 309.9 17.184 310.143 17.1652C310.351 17.1489 310.568 17.1438 310.784 17.1325C311.057 17.1187 311.049 17.1225 311.556 17.1978C311.829 17.2392 312.11 17.189 312.388 17.184C312.526 17.1815 312.661 17.1953 312.756 17.2317C312.795 17.2468 312.782 17.2719 312.795 17.2932C312.08 17.3271 311.361 17.356 310.654 17.3974C310.381 17.4137 310.238 17.3685 310.091 17.3309C309.848 17.2706 309.528 17.3585 309.298 17.2807C309.159 17.2342 308.96 17.2079 308.722 17.2305C308.583 17.243 308.436 17.2417 308.293 17.253C307.929 17.2807 307.595 17.2819 307.305 17.1953C307.205 17.1652 307.062 17.1489 306.958 17.12C306.837 17.0886 306.72 17.071 306.577 17.0773C305.931 17.1074 305.29 17.1376 304.648 17.1702C304.592 17.1727 304.536 17.1915 304.488 17.2053C304.367 17.2405 304.406 17.2681 304.601 17.2907C304.666 17.2982 304.718 17.3145 304.778 17.3271C304.895 17.3509 305.004 17.3886 305.134 17.3974C305.264 17.4062 305.415 17.3886 305.558 17.3823C305.701 17.3761 305.853 17.3572 305.983 17.3648C306.113 17.3735 306.221 17.4099 306.343 17.4325C306.399 17.4438 306.468 17.4627 306.525 17.4614C306.811 17.4539 307.092 17.4401 307.378 17.4288C307.556 17.4627 307.708 17.5116 307.92 17.5229C308.054 17.5304 308.197 17.5166 308.336 17.5191C308.397 17.5204 308.475 17.5392 308.505 17.5556C308.522 17.5656 308.466 17.5907 308.423 17.6033C308.258 17.6509 308.033 17.6422 307.829 17.6572C307.608 17.6735 307.409 17.6685 307.24 17.6196C307.127 17.5869 307.001 17.5694 306.863 17.5756C306.503 17.592 306.148 17.6108 305.788 17.6246C305.727 17.6271 305.654 17.6158 305.597 17.607C305.142 17.5305 305.142 17.5279 304.822 17.5443C304.349 17.5681 304.349 17.5681 304.033 17.5016C303.972 17.489 303.907 17.4652 303.855 17.4664C303.353 17.4865 302.854 17.5066 302.356 17.5355C302.191 17.5443 302.079 17.5443 301.957 17.5116C301.853 17.484 301.732 17.4526 301.602 17.4451C301.467 17.4376 301.32 17.4564 301.177 17.4627C301.034 17.4689 300.882 17.4853 300.757 17.4752C300.627 17.4652 300.514 17.43 300.401 17.4049C300.284 17.3786 300.159 17.3798 299.998 17.3899C299.504 17.4187 299.5 17.415 299.01 17.3371C298.954 17.3284 298.88 17.3183 298.82 17.3208C298.46 17.3359 298.105 17.3547 297.745 17.3698C297.606 17.3761 297.472 17.3597 297.377 17.3233C297.338 17.3083 297.351 17.2832 297.325 17.2342C297.294 17.2229 297.329 17.243 297.338 17.2618C297.403 17.2593 297.481 17.2618 297.528 17.2518C297.65 17.2279 297.71 17.1966 297.68 17.1702C297.663 17.1564 297.58 17.1388 297.528 17.1388C297.433 17.1388 297.351 17.1664 297.325 17.2342C297.052 17.2756 296.761 17.2844 296.48 17.3045C296.315 17.3171 296.211 17.3108 296.081 17.2782C295.925 17.238 295.765 17.1991 295.509 17.2191C295.232 17.2417 294.937 17.2455 294.651 17.2631C294.322 17.2832 294.179 17.1702 293.901 17.1727C293.615 17.1752 293.329 17.1966 293.043 17.2116C292.792 17.2242 292.792 17.2242 292.272 17.1426C292.081 17.1125 291.856 17.1564 291.669 17.125C291.544 17.1049 291.435 17.0748 291.314 17.0535C291.262 17.0447 291.18 17.0447 291.115 17.0472C290.755 17.0622 290.391 17.0723 290.044 17.0999C289.65 17.1325 289.351 17.0974 289.069 17.0233C288.714 17.0371 288.354 17.0447 288.003 17.0685C287.748 17.0861 287.6 17.0447 287.427 17.0108C287.366 16.9995 287.314 16.9807 287.249 16.9756C287.184 16.9706 287.106 16.9807 287.037 16.9844C286.751 16.9982 286.456 17.0045 286.179 17.0271C285.837 17.056 285.707 16.953 285.442 16.9405C285.265 17.002 285.169 17.0861 284.818 17.0924C284.532 17.0974 284.246 17.1175 283.96 17.1313C283.817 17.1376 283.674 17.1451 283.531 17.1514C283.302 17.1627 283.193 17.2116 283.241 17.2869C283.267 17.3284 283.289 17.3698 283.31 17.4112C283.354 17.4853 283.245 17.548 283.063 17.5568C282.56 17.5807 282.062 17.6058 281.559 17.6271C281.425 17.6334 281.295 17.612 281.187 17.5781C281.074 17.5442 280.948 17.5292 280.81 17.5355C280.307 17.5593 279.809 17.5844 279.306 17.6058C279.25 17.6083 279.176 17.5957 279.12 17.5857C278.998 17.5631 278.881 17.5367 278.764 17.5129C278.478 17.5242 278.197 17.5317 277.915 17.5468C277.46 17.5694 277.46 17.5706 277.126 17.5016C277.066 17.489 277.005 17.4652 276.949 17.4664C276.732 17.4715 276.52 17.484 276.303 17.4953C275.666 17.5279 275.666 17.5279 275.48 17.4903C275.311 17.4551 275.159 17.4125 274.903 17.4325C274.626 17.4551 274.331 17.4627 274.045 17.4752C273.833 17.484 273.62 17.4941 273.408 17.4966C273.352 17.4978 273.291 17.474 273.231 17.4614C273.057 17.4225 272.888 17.3911 272.65 17.4125C272.511 17.425 272.364 17.4275 272.221 17.4338C271.848 17.4514 271.848 17.4514 271.237 17.376C271.176 17.3685 271.103 17.3597 271.042 17.3635C270.539 17.3861 270.041 17.4112 269.538 17.4325C269.478 17.4351 269.404 17.4275 269.343 17.4212C268.659 17.3484 268.659 17.3484 267.931 17.3836C267.653 17.3961 267.645 17.4012 267.354 17.3346C267.224 17.3058 267.116 17.292 266.964 17.3007C266.392 17.3309 265.816 17.351 265.248 17.3861C264.993 17.4012 264.845 17.3635 264.672 17.3296C264.611 17.3183 264.546 17.2932 264.494 17.2945C263.922 17.3183 263.35 17.3472 262.778 17.371C262.726 17.3735 262.661 17.3484 262.6 17.3371C262.483 17.3146 262.371 17.2807 262.241 17.2731C262.106 17.2656 261.959 17.2844 261.812 17.2907C261.452 17.307 261.452 17.3058 261.036 17.2317C260.98 17.2217 260.906 17.2079 260.85 17.2104C260.278 17.2355 259.701 17.2568 259.134 17.2932C258.809 17.3133 258.588 17.2769 258.358 17.2242C258.31 17.2129 258.228 17.2079 258.167 17.2104C257.522 17.2392 256.88 17.2719 256.235 17.3007C256.1 17.307 255.97 17.2857 255.862 17.253C255.689 17.2016 255.485 17.2078 255.268 17.2191C254.77 17.2455 254.766 17.2443 254.471 17.184C254.41 17.1715 254.358 17.1551 254.293 17.1489C254.233 17.1426 254.155 17.1464 254.09 17.1489C253.804 17.1614 253.518 17.1752 253.232 17.189C252.946 17.2028 252.655 17.2104 252.373 17.2317C252.027 17.2581 251.862 17.1765 251.619 17.1388C251.264 17.1551 250.9 17.1652 250.549 17.1915C250.28 17.2116 250.155 17.1564 249.977 17.1275C249.916 17.1175 249.851 17.0961 249.795 17.0987C249.149 17.1263 248.504 17.1564 247.862 17.1903C247.706 17.1978 247.602 17.1878 247.472 17.1576C247.182 17.0899 247.169 17.0924 246.684 17.1175C246.471 17.1288 246.267 17.1388 246.085 17.0874C245.925 17.0409 245.73 17.0296 245.501 17.0447C245.219 17.0635 244.929 17.0735 244.643 17.0861C244.357 17.0999 244.071 17.1187 243.784 17.125C243.555 17.1313 243.416 17.0723 243.234 17.0422C243.178 17.0334 243.1 17.0321 243.035 17.0346C242.749 17.0459 242.454 17.0547 242.177 17.0761C241.839 17.1024 241.652 17.0334 241.414 16.9932C241.362 16.9844 241.275 16.9895 241.21 16.9932C240.708 17.0158 240.209 17.0409 239.707 17.0648C239.529 17.0309 239.347 16.9982 239.169 16.9643C238.883 16.9769 238.597 16.9907 238.311 17.0033C238.095 17.0133 237.874 17.0171 237.67 17.0359C237.406 17.061 237.276 17.002 237.098 16.9731C237.037 16.9631 236.972 16.9417 236.916 16.9443C236.556 16.9581 236.197 16.9731 235.841 16.9945C235.503 17.0158 235.369 16.9028 235.092 16.9041C234.805 16.9053 234.511 16.9217 234.233 16.9443C233.913 16.9706 233.687 16.9304 233.458 16.8765C233.41 16.8652 233.328 16.8589 233.267 16.8614C232.907 16.8765 232.552 16.8953 232.192 16.9104C232.132 16.9129 232.058 16.9066 231.997 16.8991C231.313 16.825 231.313 16.8238 231.014 16.8388C230.801 16.8489 230.585 16.8614 230.368 16.8677C230.307 16.8702 230.234 16.8589 230.177 16.8489C229.727 16.7723 229.727 16.771 229.402 16.7861C229.116 16.7999 228.83 16.8137 228.544 16.8275C228.366 16.7936 228.184 16.761 228.006 16.7271C227.651 16.7434 227.287 16.756 226.936 16.7786C226.771 16.7886 226.663 16.7848 226.537 16.7535C226.381 16.7158 226.225 16.6719 225.965 16.6932C225.688 16.7158 225.393 16.7183 225.111 16.7371C224.773 16.7597 224.635 16.6455 224.362 16.6468C224.076 16.648 223.781 16.6643 223.504 16.6869C223.183 16.7133 222.958 16.6731 222.728 16.6192C222.68 16.6079 222.598 16.6016 222.537 16.6041C221.749 16.6405 220.964 16.6769 220.176 16.7158C219.69 16.7397 219.69 16.7409 218.767 16.6719C218.702 16.6669 218.633 16.6618 218.568 16.6643C218.282 16.6756 217.987 16.6844 217.71 16.7058C217.372 16.7321 217.185 16.6643 216.947 16.6229C216.895 16.6141 216.813 16.6192 216.743 16.6217C216.527 16.6304 216.314 16.6418 216.098 16.6518C215.812 16.6656 215.526 16.6794 215.24 16.6932C215.062 16.6606 214.88 16.6267 214.702 16.594C214.347 16.6104 213.983 16.6192 213.632 16.6455C213.363 16.6656 213.238 16.6129 213.06 16.5828C212.999 16.5727 212.934 16.5514 212.878 16.5526C212.232 16.5802 211.587 16.6091 210.945 16.6443C210.681 16.6593 210.56 16.6028 210.382 16.574C210.321 16.5652 210.252 16.5489 210.196 16.5514C209.767 16.5689 209.338 16.5903 208.909 16.6116C208.666 16.6242 208.666 16.6242 208.137 16.5464C208.077 16.5376 208.007 16.5288 207.947 16.5313C206.586 16.594 205.229 16.6606 203.869 16.7233C203.73 16.7296 203.604 16.7108 203.496 16.6769C203.383 16.643 203.258 16.6254 203.119 16.6317C202.547 16.6581 201.971 16.6819 201.403 16.7146C201.169 16.7284 200.983 16.712 200.822 16.6681C200.701 16.6355 200.588 16.6229 200.437 16.6305C200.151 16.6455 199.865 16.6581 199.579 16.6719C199.293 16.6857 199.007 16.6995 198.721 16.7133C198.435 16.7271 198.144 16.7346 197.863 16.756C197.516 16.7823 197.347 16.7045 197.109 16.6656C196.68 16.6844 196.25 16.7033 195.826 16.7233C195.254 16.7497 194.682 16.7786 194.11 16.8037C194.058 16.8062 193.993 16.7836 193.932 16.7723C193.754 16.7409 193.624 16.697 193.36 16.7108C192.077 16.7773 190.786 16.8338 189.499 16.8991C189.23 16.9129 189.113 16.8589 188.931 16.83C188.871 16.8212 188.801 16.8037 188.745 16.8062C188.03 16.8376 187.315 16.8727 186.6 16.9066C186.31 16.9204 186.31 16.9204 185.824 16.8426C185.768 16.8338 185.694 16.8225 185.633 16.825C184.702 16.8677 183.774 16.9129 182.843 16.9568C182.704 16.9631 182.578 16.9455 182.466 16.9116C182.357 16.8777 182.227 16.8589 182.093 16.8652C181.235 16.9053 180.373 16.9443 179.519 16.9882C179.289 17.0007 179.099 16.9894 178.934 16.9443C178.817 16.9116 178.7 16.8978 178.553 16.9053C177.266 16.9668 175.978 17.0259 174.691 17.0911C174.444 17.1037 174.271 17.0798 174.115 17.0384C173.989 17.0058 173.881 16.9995 173.725 17.0045C173.56 17.0108 173.461 17.0246 173.37 17.0622C173.253 17.1112 173.179 17.1727 172.902 17.1765C172.616 17.1802 172.325 17.1953 172.044 17.2166C171.775 17.238 171.649 17.1815 171.48 17.1476C171.355 17.1238 171.238 17.12 171.077 17.1313C170.93 17.1413 170.839 17.1627 170.752 17.2028C170.562 17.2882 170.544 17.2882 170.31 17.2342C170.185 17.2053 170.072 17.1827 169.933 17.1878C169.361 17.2129 168.789 17.2405 168.217 17.2694C167.888 17.2857 167.884 17.2882 167.637 17.2254C167.515 17.194 167.398 17.179 167.255 17.1865C165.682 17.2618 164.109 17.3346 162.536 17.4137C162.293 17.4263 162.129 17.3999 161.955 17.3622C161.899 17.3497 161.843 17.3321 161.778 17.3271C161.713 17.3221 161.639 17.3271 161.57 17.3296C160.426 17.3836 159.277 17.4351 158.137 17.4953C157.877 17.5091 157.739 17.4689 157.561 17.4363C157.501 17.425 157.448 17.4074 157.383 17.4024C157.318 17.3987 157.24 17.4074 157.171 17.4112C156.027 17.4652 154.879 17.5166 153.739 17.5769C153.466 17.5907 153.349 17.538 153.171 17.5104C153.111 17.5003 153.046 17.4815 152.989 17.484C152.63 17.4978 152.274 17.5166 151.915 17.533C151.057 17.5744 150.198 17.6133 149.34 17.656C149.011 17.6723 148.868 17.5606 148.591 17.5656C148.231 17.5719 147.876 17.597 147.516 17.6145C147.23 17.6284 146.944 17.6409 146.658 17.656C146.376 17.6698 146.376 17.6698 145.674 17.597C145.614 17.5907 145.54 17.5819 145.479 17.5844C144.478 17.6309 143.473 17.6773 142.476 17.7275C142.247 17.7388 142.056 17.7325 141.891 17.6861C141.774 17.6535 141.653 17.6371 141.51 17.6447C140.006 17.7162 138.507 17.7878 137.003 17.8581C136.947 17.8606 136.873 17.848 136.817 17.838C136.695 17.8154 136.578 17.789 136.461 17.7652C136.375 17.7941 136.262 17.8204 136.206 17.853C136.128 17.897 136.024 17.9095 135.859 17.9171C135.694 17.9246 135.59 17.9221 135.46 17.8894C135.304 17.8493 135.144 17.8179 134.888 17.8304C133.315 17.9095 131.742 17.9811 130.169 18.0589C129.909 18.0714 129.788 18.0162 129.606 17.9873C129.545 17.9786 129.476 17.9648 129.419 17.9673C128.774 17.9961 128.132 18.0275 127.487 18.0576C125.697 18.143 123.907 18.2246 122.122 18.315C121.797 18.3313 121.576 18.2999 121.346 18.2459C121.299 18.2346 121.216 18.2284 121.156 18.2309C118.651 18.3489 116.146 18.4681 113.646 18.5873C113.511 18.5936 113.381 18.5735 113.273 18.5409C113.16 18.507 113.035 18.4907 112.896 18.497C111.752 18.5509 110.608 18.6049 109.464 18.6602C109.178 18.674 109.173 18.6752 108.879 18.615C108.818 18.6024 108.753 18.5786 108.705 18.5811C108.606 18.5873 108.51 18.6187 108.441 18.6614C108.372 18.7066 108.263 18.7191 108.103 18.7279C107.938 18.7367 107.83 18.7329 107.704 18.7028C107.544 18.6652 107.397 18.6288 107.137 18.6413C103.848 18.802 100.558 18.9564 97.2694 19.1158C97.005 19.1283 96.8837 19.0756 96.7017 19.0468C96.641 19.038 96.5803 19.0254 96.5153 19.0229C96.446 19.0204 96.3723 19.0279 96.303 19.0317C90.9381 19.2865 85.5733 19.5426 80.2085 19.7974C79.8878 19.8124 79.8921 19.8124 79.5411 19.9279C79.4978 19.9417 79.4414 19.9605 79.3807 19.9631C77.7383 20.0434 76.0917 20.1212 74.4449 20.199C73.7299 20.2329 73.0149 20.2681 72.2999 20.3007C72.0442 20.312 72.0442 20.312 71.4332 20.4476C71.3812 20.4589 71.3205 20.4739 71.2598 20.4765C68.3997 20.6133 65.5396 20.7501 62.6751 20.8844C62.4498 20.8944 62.2678 20.917 62.1638 20.9773C62.0901 21.02 61.9948 21.0451 61.8518 21.0526C59.8497 21.148 57.8477 21.2446 55.8413 21.3375C55.603 21.3488 55.4599 21.384 55.3429 21.4367C55.3039 21.4543 55.2692 21.4743 55.2129 21.4869C55.1609 21.4982 55.0829 21.502 55.0179 21.5057C53.3018 21.5873 51.5858 21.6714 49.8654 21.7492C49.6098 21.7605 49.5057 21.807 49.38 21.8559C49.3367 21.8723 49.3063 21.8949 49.25 21.9061C49.1937 21.9162 49.1113 21.9162 49.042 21.9187C47.612 21.9865 46.1819 22.0555 44.7519 22.1233C44.4746 22.117 44.4138 22.1898 44.2795 22.2338C44.2318 22.2488 44.1973 22.2689 44.1409 22.2789C44.0802 22.289 44.0021 22.2877 43.9285 22.2902C42.7844 22.3442 41.6404 22.402 40.492 22.4522C40.2277 22.4635 40.1757 22.5275 40.0327 22.5714C39.985 22.5852 39.9374 22.6066 39.8811 22.6103C39.166 22.6467 38.451 22.6806 37.736 22.7132C37.4977 22.7245 37.4977 22.7233 37.0773 22.8476C37.0296 22.8614 36.9733 22.8764 36.9126 22.8802C35.8422 22.9329 34.7675 22.9831 33.6928 23.0346C33.5542 23.0409 33.4589 23.071 33.3895 23.1137C33.3202 23.1563 33.2205 23.184 33.0819 23.1902C32.2238 23.2317 31.3657 23.2743 30.5077 23.312C30.2693 23.322 30.1134 23.3534 30.0094 23.4099C29.9314 23.4526 29.836 23.4739 29.6844 23.4814C28.8263 23.5216 27.9683 23.5655 27.106 23.6007C26.8546 23.6107 26.7246 23.6534 26.6206 23.7061C26.5382 23.7488 26.4429 23.7639 26.2825 23.7714C24.7095 23.8442 23.1321 23.917 21.5634 23.9973C21.2991 24.0111 21.1647 23.9672 20.9914 23.9358C20.7444 23.8919 20.5148 23.8442 20.5148 23.7463C20.5148 23.7312 20.4411 23.7137 20.3891 23.7011C20.0034 23.607 20.0034 23.607 19.9427 23.5066C19.908 23.445 19.869 23.3823 19.8387 23.3195C19.7824 23.2166 19.6436 23.1902 19.245 23.2091C19.102 23.2153 18.959 23.2241 18.816 23.2291C18.6036 23.2379 18.4433 23.1965 18.4043 23.1212C18.3826 23.0798 18.3567 23.0383 18.335 22.9969C18.5517 22.9869 18.5473 22.9856 18.9286 22.8338C19.089 22.7697 19.089 22.7697 18.7814 22.7057C18.6644 22.6819 18.5517 22.6555 18.426 22.6329C18.3696 22.6229 18.296 22.6166 18.2353 22.6191C17.8757 22.6342 17.5203 22.6517 17.165 22.6693C16.593 22.6969 16.5929 22.6969 16.0122 22.5689C15.9645 22.5588 15.8909 22.54 15.8995 22.53C15.9472 22.4835 16.0642 22.4635 16.2115 22.4584C16.4282 22.4509 16.6405 22.4383 16.8529 22.4283C16.9959 22.422 17.1389 22.4145 17.2819 22.4082C17.4162 22.3605 17.555 22.3141 17.6806 22.2651C17.88 22.1898 17.8799 22.1873 17.6069 22.1346C17.4336 22.0994 17.2472 22.0681 17.0695 22.0354C16.8572 22.0455 16.6405 22.0568 16.4282 22.0655C16.1595 22.0768 16.0512 22.053 15.9818 21.9714C15.9212 21.8999 15.9948 21.8384 16.2028 21.8233C16.4152 21.8082 16.6146 21.7982 16.723 21.7342C16.827 21.6727 17.0089 21.6488 17.2343 21.6438C17.3773 21.64 17.5203 21.6313 17.6633 21.6237C17.8496 21.6137 17.9493 21.5497 17.9103 21.4781C17.8887 21.4317 17.8453 21.3928 17.6763 21.3827C16.9266 21.3388 16.9179 21.34 16.5452 21.2547C16.5105 21.2471 16.4846 21.2246 16.4976 21.2133C16.5193 21.1944 16.567 21.1668 16.619 21.1631C17.1173 21.1354 17.6156 21.1103 18.114 21.0915C18.2787 21.0852 18.4 21.0764 18.4563 21.03C18.5343 20.966 18.4997 20.907 18.348 20.8631C18.3003 20.8492 18.2223 20.8317 18.1703 20.8329C17.5982 20.8555 17.0306 20.8844 16.4586 20.907C16.4066 20.9095 16.3113 20.8882 16.2896 20.8718C16.2463 20.8417 16.3112 20.8016 16.4629 20.7877C16.6622 20.7689 16.8659 20.7677 17.0002 20.7049C17.1866 20.6158 17.4162 20.5342 17.6242 20.4488C17.6589 20.4338 17.7153 20.4049 17.7023 20.4024C17.594 20.3748 17.4683 20.3534 17.3556 20.3271C17.165 20.2831 17.1649 20.2216 17.2082 20.1626C17.2429 20.1149 17.3729 20.0961 17.5333 20.0961C17.6026 20.0961 17.6893 20.0961 17.7456 20.0848C17.8929 20.0572 17.9406 20.0221 17.8669 19.9957C17.8236 19.9806 17.7456 19.9593 17.6936 19.9618C16.7663 20.0032 15.8345 20.0434 14.9115 20.0949C14.6385 20.1099 14.5129 20.0622 14.3482 20.0283C14.2225 20.002 14.1055 19.9919 13.9495 20.0108C13.8021 20.0283 13.6592 20.0183 13.5682 19.9769C13.4945 19.943 13.6245 19.9141 13.9755 19.8815C14.0405 19.8752 14.1141 19.8714 14.1618 19.8589C14.6645 19.7233 14.6645 19.7221 15.0111 19.7045C15.3492 19.6882 15.3492 19.6869 15.5269 19.6141C15.6092 19.5802 15.7002 19.5463 15.7782 19.5112C15.8085 19.4974 15.8606 19.4723 15.8432 19.4647C15.7479 19.4258 15.6179 19.417 15.4662 19.4258C15.1282 19.4472 14.7295 19.4296 14.5519 19.5488C14.4825 19.594 14.3742 19.6066 14.2182 19.6141C12.6495 19.6869 11.0807 19.7647 9.50764 19.835C9.25196 19.8463 9.13503 19.8928 9.03536 19.9442C8.94869 19.9869 8.85333 19.9995 8.68866 20.007C8.52398 20.0145 8.39392 20.0183 8.29858 19.9769C8.24224 19.9518 8.28993 19.9166 8.41993 19.8815C8.60627 19.8313 8.57158 19.7685 8.51092 19.7095C8.46758 19.6706 8.33325 19.643 8.19024 19.6455C7.9779 19.6505 7.77428 19.6643 7.59661 19.6141C7.49261 19.5852 7.36258 19.5652 7.24557 19.54C7.02023 19.4886 6.79488 19.4359 6.47854 19.4698C6.26186 19.4572 6.11019 19.412 5.93685 19.3769C5.64651 19.3191 5.62051 19.3103 5.82851 19.2488C6.06252 19.1798 5.88048 19.0894 6.01049 19.0216C6.14916 18.9488 6.3399 18.8848 6.5089 18.8171C6.55224 18.7995 6.59125 18.7832 6.63459 18.7656C6.53492 18.7405 6.44393 18.7091 6.32693 18.6915C6.17526 18.6689 6.09725 18.6413 6.10592 18.5635C6.07558 18.5522 6.08849 18.5811 6.12316 18.5886C6.16216 18.5961 6.25757 18.5899 6.30524 18.5811C6.42658 18.5572 6.48718 18.5258 6.45685 18.4995C6.43951 18.4857 6.35724 18.4681 6.30524 18.4681C6.2099 18.4681 6.12758 18.4957 6.10158 18.5635C5.61623 18.615 5.11346 18.6401 4.61078 18.6602C4.55878 18.6627 4.49381 18.6376 4.43315 18.625C4.23381 18.5823 4.23378 18.5836 3.64876 18.571C3.58809 18.5698 3.5058 18.5522 3.47546 18.5346C3.34979 18.4581 3.35416 18.374 3.29349 18.2924C3.40616 18.2396 3.51874 18.1882 3.63575 18.1367C3.86975 18.0325 4.17317 17.9409 4.35517 17.8267C4.31617 17.7652 4.26416 17.7037 4.45483 17.6535C4.99652 17.5907 4.99222 17.5907 5.13956 17.5305C5.55991 17.3597 5.9759 17.1878 6.41358 17.0196C6.53058 16.9756 6.5306 16.9518 6.32259 16.933C6.25759 16.9279 6.18816 16.9267 6.11882 16.9292C5.90215 16.938 5.68548 16.9606 5.47314 16.9556C5.2608 16.9518 5.10479 16.8966 4.93145 16.8627C4.75378 16.8275 4.57612 16.7911 4.39844 16.7547C4.19477 16.7585 3.99113 16.7936 3.78746 16.7371C3.63146 16.6932 3.43646 16.6618 3.25879 16.6254C3.39313 16.53 3.64451 16.4572 3.83951 16.3731C4.01719 16.2966 4.02142 16.2978 4.49811 16.2388C4.72345 16.2112 4.80145 16.0694 4.61078 16.0279C4.38111 15.9777 4.13848 15.9313 3.90447 15.8836C3.7008 15.8874 3.49283 15.9213 3.29783 15.8648C3.14616 15.8221 2.97278 15.7932 2.72144 15.8095C2.29676 15.8372 1.86342 15.851 1.43441 15.8736C1.28707 15.8811 1.12668 15.8761 1.06168 15.8334C1.01835 15.8033 1.14403 15.7618 1.28703 15.7531C1.50371 15.7405 1.69869 15.7254 1.80703 15.6627C1.91103 15.5999 2.10168 15.5811 2.32703 15.5723C2.38769 15.5698 2.45708 15.5547 2.48742 15.5397C2.64342 15.4669 2.81677 15.4041 3.15045 15.4066C3.28912 15.3815 3.36275 15.3501 3.31941 15.32C3.29341 15.3037 3.20245 15.2824 3.15045 15.2849C2.79077 15.2974 2.43111 15.31 2.08009 15.3326C1.91542 15.3426 1.78968 15.3451 1.68568 15.3075C1.61201 15.2823 1.65101 15.2485 1.78968 15.2121C1.91102 15.1807 1.94572 15.1443 1.93705 15.1016C1.91539 15.0024 1.78536 14.9736 1.36934 14.9798C1.07033 14.9849 0.996659 14.9685 0.931657 14.8832C0.914323 14.8631 0.871064 14.8355 0.901399 14.8217C1.08774 14.7363 1.20908 14.6309 1.5601 14.5907C1.69877 14.5757 1.84605 14.5757 1.93272 14.543C2.01939 14.5104 2.09743 14.4727 2.18843 14.4413C2.3011 14.4037 2.37903 14.3686 2.32703 14.3447C2.24036 14.302 2.10173 14.2983 1.94139 14.3133C1.80272 14.3259 1.65539 14.3271 1.51238 14.3347C1.25671 14.3485 1.04875 14.3158 1.01841 14.2606C0.936075 14.115 0.84938 13.9706 0.775711 13.825C0.767044 13.8075 0.788652 13.7849 0.82332 13.7698C0.944657 13.7171 1.07471 13.6669 1.20038 13.6154C1.34772 13.5564 1.58177 13.5677 1.78111 13.5564C2.06278 13.5401 2.06269 13.5414 2.4397 13.4209C2.58704 13.3732 2.84273 13.392 2.9944 13.3493C3.04207 13.3355 3.11574 13.3129 3.10274 13.3004C3.0854 13.284 2.99878 13.2715 2.93378 13.2639C2.87311 13.2564 2.79946 13.2527 2.73445 13.2564C1.94576 13.2928 1.16142 13.3317 0.372726 13.3669C0.238388 13.3732 0.0910455 13.3456 0.0433772 13.3066C-0.00429116 13.2702 0.00866697 13.2263 0 13.1849C0.125671 13.1334 0.268621 13.0857 0.376958 13.0305C0.459294 12.9878 0.554648 12.969 0.71932 12.9665C0.935994 12.9627 1.14836 12.9476 1.39103 12.9363C1.84171 12.7531 2.2837 12.561 2.76905 12.3778C2.96406 12.3037 2.91646 12.2284 2.95547 12.1493C2.99447 12.0765 3.28479 12.0878 3.4798 12.0665C3.63581 12.0489 3.68774 12.0087 3.62707 11.9811C3.5924 11.9648 3.51444 11.946 3.45377 11.946C3.31077 11.946 3.16777 11.9573 3.02476 11.9635C2.88176 11.9698 2.71709 11.9661 2.60009 11.9874C2.48742 12.0075 2.41371 12.0502 2.34004 12.0866C2.2577 12.1267 2.14944 12.1405 1.98477 12.143C1.77243 12.1456 1.5601 12.1568 1.34776 12.1656C1.11375 12.1167 0.871026 12.069 0.645685 12.0175C0.60235 12.0075 0.593637 11.9786 0.59797 11.9598C0.606637 11.9108 0.541652 11.8807 0.398647 11.8569C0.277309 11.8368 0.177631 11.8079 0.0649599 11.7828C0.15163 11.7489 0.247 11.7163 0.316336 11.6799C0.468008 11.6033 0.658702 11.5481 0.988047 11.5506C1.11805 11.5016 1.22203 11.4414 1.39103 11.4075C1.55137 11.3749 1.82439 11.4075 1.94573 11.3334C2.0064 11.297 2.09745 11.2556 2.21446 11.2405C2.4008 11.2167 2.64347 11.2293 2.7518 11.159C2.81681 11.1188 2.91211 11.0824 3.03778 11.0723C3.18078 11.061 3.32808 11.0585 3.43209 11.0347C3.48842 11.0221 3.5491 11.0021 3.5491 10.9845C3.5491 10.9732 3.4625 10.9556 3.40183 10.9481C3.34549 10.9393 3.27174 10.933 3.20674 10.9355C2.99006 10.9431 2.77773 10.9569 2.56105 10.9644C2.50038 10.9669 2.43107 10.9581 2.36607 10.9506C2.17539 10.9305 2.18837 10.9054 2.34004 10.8602C2.49171 10.8163 2.60011 10.7598 2.72578 10.7083C2.86445 10.6995 3.03776 10.7033 3.1331 10.6795C3.29344 10.6405 3.40608 10.5841 3.53608 10.5351C3.67909 10.5276 3.82642 10.5251 3.96076 10.5113C4.01709 10.5062 4.04312 10.4786 4.09078 10.4623C4.17745 10.4309 4.25118 10.3857 4.36819 10.3707C4.55886 10.3481 4.79286 10.3569 4.90553 10.2878C4.97054 10.2477 5.07017 10.205 5.19151 10.2025C5.52952 10.1975 5.67253 10.1284 5.84587 10.0631C5.97587 10.0142 6.25322 10.0393 6.39623 9.99034C6.49156 9.95896 6.56094 9.92004 6.65628 9.88992C6.69528 9.87737 6.77759 9.8711 6.84259 9.86733C7.19793 9.84851 7.5576 9.83469 7.91295 9.81461C7.96928 9.81084 8.02133 9.79203 8.06466 9.77696C8.15566 9.74433 8.21193 9.69913 8.32461 9.67779C8.43728 9.65646 8.59759 9.65646 8.73627 9.65018C9.18261 9.63136 9.21732 9.63637 9.42099 9.52967C9.58566 9.44306 9.98873 9.50457 10.1231 9.40918C10.2011 9.35395 10.344 9.30876 10.5997 9.30249C10.9594 9.2937 11.3147 9.26985 11.6744 9.25353C11.9951 9.23847 11.9907 9.23846 12.3374 9.12173C12.4934 9.06901 12.7231 9.07655 12.9268 9.0665C13.1435 9.05646 13.3428 9.04141 13.4468 8.97864C13.5508 8.91714 13.7415 8.89704 13.9625 8.88826C14.1661 8.87947 14.3959 8.88576 14.5562 8.83555C14.9462 8.71505 14.9419 8.71378 15.2149 8.70123C15.6439 8.68115 16.0729 8.66106 16.5019 8.63973C16.7879 8.62592 17.0869 8.62341 17.3556 8.5958C17.5506 8.57571 17.6373 8.50542 17.7629 8.45647C18.1183 8.43764 18.4736 8.4188 18.829 8.40123C19.3273 8.37613 19.83 8.35354 20.3327 8.32969C20.5493 8.28199 20.5797 8.17655 20.9438 8.17153C21.1604 8.16902 21.3728 8.15271 21.5894 8.14266C21.9491 8.12509 22.3045 8.10249 22.6641 8.09371C22.9372 8.08743 22.9847 8.01964 23.1277 7.97697C23.1754 7.9619 23.2188 7.94057 23.2751 7.93681C23.8385 7.90166 24.4191 7.89413 24.9695 7.84267C25.0258 7.83764 25.0778 7.81128 25.0908 7.79245C25.0995 7.78241 25.0258 7.76359 24.9782 7.75481C24.9218 7.74476 24.8482 7.73472 24.7875 7.73723C22.9978 7.82133 21.2081 7.90669 19.4184 7.99079C19.167 8.00334 19.167 8.00208 18.556 8.14015C18.504 8.15145 18.4433 8.164 18.3783 8.16776C18.0923 8.18282 17.8019 8.19162 17.5202 8.21045C17.2906 8.22551 17.1 8.21044 16.9353 8.16525C16.8183 8.13261 16.6969 8.12258 16.5495 8.12509C16.3849 8.12886 16.2766 8.14267 16.1813 8.17656C16.0556 8.223 15.9906 8.28325 15.7262 8.2958C14.5085 8.34977 13.2907 8.41002 12.0774 8.46776C11.9084 8.45019 11.826 8.42383 11.8694 8.39245C11.8954 8.37362 11.9474 8.34852 11.9994 8.34601C12.4977 8.31965 13.0004 8.29706 13.4988 8.27196C13.5681 8.26819 13.6634 8.27069 13.7024 8.25813C13.8931 8.20165 13.9625 8.11002 14.3222 8.10375C14.5302 8.09998 14.7425 8.08116 14.9418 8.06358C14.9982 8.05856 15.0502 8.0322 15.0632 8.01337C15.0675 8.00333 14.9982 7.9845 14.9462 7.97571C14.7555 7.93931 14.5345 7.98326 14.3439 7.95815C14.2789 7.94936 14.1878 7.93681 14.1748 7.92174C14.1661 7.90794 14.2398 7.88534 14.2918 7.87153C14.3395 7.85898 14.4045 7.84769 14.4695 7.84392C15.0415 7.81505 15.6136 7.78492 16.1856 7.76233C16.4196 7.75354 16.5842 7.72216 16.6882 7.66442C16.7663 7.62174 16.8616 7.59915 17.0089 7.59288C18.01 7.54643 19.011 7.49497 20.0163 7.45229C20.2677 7.44225 20.3977 7.40083 20.5017 7.34686C20.5841 7.30418 20.6794 7.28912 20.8398 7.28159C22.2741 7.21631 23.6998 7.14352 25.1342 7.08075C25.3985 7.06946 25.4766 7.01548 25.6109 6.96904C25.6586 6.95272 25.6889 6.93264 25.7495 6.9226C25.8102 6.91255 25.8882 6.9138 25.9619 6.91129C27.1059 6.85731 28.25 6.79958 29.3984 6.74937C29.6671 6.73808 29.719 6.67531 29.8577 6.63138C29.9053 6.61757 29.9487 6.59498 30.005 6.59122C30.8631 6.54854 31.7211 6.50837 32.5791 6.46695C33.1511 6.43934 33.7231 6.41172 34.2951 6.38536C34.5768 6.37281 34.5768 6.37154 34.9582 6.2523C35.0015 6.23849 35.0622 6.22217 35.1186 6.2184C36.7653 6.13807 38.4076 6.06152 40.0544 5.98244C40.193 5.97616 40.2927 5.94728 40.362 5.9046C40.4314 5.86192 40.5311 5.83305 40.6655 5.82678C41.9525 5.76401 43.2395 5.70251 44.5309 5.64352C44.7649 5.63348 44.9295 5.60335 45.0335 5.54686C45.1115 5.50419 45.2069 5.4816 45.3542 5.47532C46.6413 5.41507 47.9284 5.35105 49.2197 5.29331C49.4668 5.28201 49.588 5.23934 49.7094 5.18913C49.7527 5.17156 49.7874 5.14269 49.8394 5.14017C50.4808 5.10503 51.1178 5.06863 51.7634 5.04478C52.0321 5.03474 52.1232 4.98201 52.2315 4.9318C52.3182 4.89164 52.4179 4.87783 52.5825 4.87281C52.9422 4.86152 53.2975 4.84019 53.6486 4.81885C53.7006 4.81508 53.7656 4.78746 53.7699 4.76989C53.7786 4.73726 53.6789 4.71466 53.5142 4.70336C51.7981 4.78495 50.0778 4.86653 48.3617 4.94812C48.08 4.96193 48.08 4.96194 47.6987 5.08118C47.6554 5.09499 47.5946 5.11131 47.534 5.11508C45.8872 5.19416 44.2449 5.27198 42.5982 5.35106C42.4595 5.35733 42.3598 5.3862 42.2905 5.42888C42.2212 5.47156 42.1214 5.50043 41.9871 5.5067C40.414 5.58202 38.841 5.65859 37.2636 5.73014C37.0296 5.74018 36.865 5.76904 36.761 5.82678C36.683 5.86945 36.5876 5.89206 36.4403 5.89833C34.9366 5.96862 33.4371 6.04267 31.9291 6.11046C31.7774 6.11673 31.6648 6.08033 31.6735 6.04644C31.6778 6.02887 31.7427 6.00001 31.7947 5.9975C32.5791 5.95608 33.3592 5.91339 34.1479 5.88201C34.4122 5.87197 34.4902 5.81674 34.6245 5.7703C34.6678 5.75398 34.7025 5.73264 34.7589 5.72385C34.8195 5.71381 34.8975 5.71507 34.9712 5.71256C36.8303 5.62344 38.6894 5.53307 40.5528 5.44897C40.8215 5.43642 40.8734 5.3749 41.012 5.33097C41.0597 5.31591 41.1031 5.29332 41.1594 5.29081C41.7314 5.26069 42.3034 5.23432 42.8755 5.20796C43.8765 5.16026 44.8775 5.11256 45.8829 5.06486C46.1732 5.05106 46.1732 5.05105 46.5459 4.93306C46.5892 4.91925 46.65 4.90169 46.7063 4.89918C49.3541 4.77241 52.0019 4.64563 54.6496 4.5201C54.7883 4.51383 54.8879 4.48496 54.9573 4.44228C55.0266 4.40086 55.1263 4.37073 55.2606 4.3632C58.8401 4.19249 62.4152 4.02177 65.9946 3.85357C66.2287 3.84228 66.3933 3.81592 66.4973 3.75692C66.571 3.71424 66.6706 3.69165 66.818 3.68412C70.7528 3.4971 74.6876 3.31007 78.6267 3.12179C81.2745 2.99627 83.9223 2.86823 86.57 2.74522C86.8127 2.73392 86.9427 2.69501 87.064 2.64354C87.103 2.62597 87.142 2.5971 87.194 2.59459C87.7617 2.56321 88.3294 2.53434 88.897 2.50547C89.0747 2.53936 89.2524 2.572 89.4301 2.60589C89.5644 2.5582 89.6945 2.50924 89.8288 2.46154C90.6868 2.42514 91.5318 2.36865 92.3985 2.35108C92.4549 2.34983 92.5155 2.37368 92.5762 2.38623C92.9792 2.46531 93.2089 2.45903 93.4646 2.35359C93.5556 2.31594 93.6335 2.28205 93.7722 2.27577C94.2012 2.25318 94.6347 2.23811 95.0594 2.21175C95.289 2.19795 95.4796 2.2105 95.6443 2.25568C95.7613 2.28832 95.8827 2.30213 96.0257 2.2946C96.8144 2.25695 97.5987 2.22054 98.3874 2.18037C98.4438 2.17786 98.4957 2.15652 98.539 2.14145C98.63 2.10882 98.7081 2.07368 98.7948 2.03979C98.9118 2.06113 99.0418 2.07745 99.1371 2.10506C99.2585 2.1377 99.3711 2.13769 99.5358 2.1289C102.682 1.97702 105.832 1.82891 108.978 1.67577C109.247 1.66322 109.364 1.71594 109.546 1.74356C109.607 1.7536 109.667 1.76615 109.732 1.76866C109.802 1.77117 109.875 1.76364 109.945 1.75988C112.307 1.64691 114.668 1.53519 117.03 1.42222C117.342 1.40715 117.342 1.40715 117.806 1.48498C117.862 1.49502 117.936 1.50632 117.996 1.50255C119.071 1.4536 120.146 1.40088 121.216 1.35068C121.355 1.3444 121.472 1.36448 121.598 1.39335C121.845 1.44983 121.862 1.44984 122.044 1.36699C122.131 1.32808 122.222 1.30422 122.365 1.29292C122.521 1.28037 122.646 1.28415 122.768 1.30675C122.941 1.33813 123.067 1.39084 123.331 1.37703C124.475 1.31803 125.623 1.26909 126.763 1.20883C127.023 1.19503 127.162 1.2377 127.335 1.26908C127.396 1.28038 127.452 1.29795 127.517 1.30172C127.582 1.30549 127.66 1.29669 127.729 1.29292C129.159 1.22514 130.594 1.15863 132.02 1.08583C132.288 1.07202 132.405 1.12598 132.587 1.1536C132.648 1.16364 132.717 1.18122 132.774 1.17871C133.632 1.1398 134.494 1.09837 135.352 1.05694C135.66 1.04188 135.66 1.04314 136.128 1.1197C136.184 1.12975 136.258 1.13979 136.318 1.13728C137.319 1.09084 138.325 1.04314 139.326 0.995438C139.634 0.980376 139.634 0.980379 140.522 1.04565C140.587 1.05067 140.656 1.05821 140.721 1.0557C141.865 1.00173 143.014 0.949001 144.158 0.891261C144.387 0.879964 144.578 0.890002 144.743 0.93519C144.86 0.967826 144.981 0.981641 145.124 0.974109C146.411 0.912604 147.702 0.853611 148.985 0.788339C149.232 0.775787 149.392 0.803391 149.566 0.839792C149.622 0.852344 149.679 0.869921 149.744 0.874942C149.809 0.879963 149.882 0.874938 149.952 0.871173C151.239 0.809667 152.53 0.751929 153.813 0.685403C154.073 0.671595 154.211 0.71427 154.385 0.745651C154.445 0.756948 154.51 0.779543 154.562 0.778288C155.065 0.756949 155.568 0.738127 156.066 0.706747C156.335 0.689174 156.452 0.746904 156.634 0.774518C156.694 0.783305 156.764 0.802142 156.82 0.799632C157.895 0.750678 158.97 0.699218 160.04 0.646499C160.192 0.638968 160.304 0.650254 160.426 0.68289C160.586 0.726823 160.772 0.744396 161.006 0.730589C161.505 0.701719 162.007 0.681641 162.51 0.657792C162.805 0.643984 162.805 0.643988 163.706 0.70926C163.771 0.714281 163.84 0.721807 163.905 0.719296C164.763 0.679129 165.626 0.64022 166.479 0.596287C166.709 0.583735 166.9 0.595029 167.064 0.640217C167.181 0.672852 167.298 0.686667 167.446 0.679136C168.234 0.641479 169.019 0.60382 169.808 0.566163C170.094 0.552356 170.38 0.5285 170.666 0.5285C170.874 0.529756 171.025 0.590004 171.212 0.620129C171.264 0.628915 171.35 0.618885 171.42 0.616375C172.421 0.568677 173.426 0.52474 174.423 0.470765C174.683 0.456958 174.821 0.499633 174.995 0.531013C175.055 0.54231 175.12 0.564905 175.172 0.56365C175.532 0.549843 175.887 0.531013 176.247 0.514695C176.676 0.494611 177.109 0.479549 177.534 0.451934C177.881 0.42934 178.011 0.53854 178.288 0.542306C178.5 0.546072 178.717 0.524737 178.93 0.514695C179.359 0.494611 179.788 0.47202 180.217 0.454447C180.368 0.448171 180.485 0.428078 180.533 0.382891C180.542 0.374104 180.468 0.355284 180.42 0.343987C179.844 0.215954 179.844 0.215948 179.263 0.243563C178.904 0.261136 178.548 0.278712 178.189 0.293775C178.128 0.296285 178.059 0.286244 177.998 0.278713C177.825 0.257374 177.842 0.232272 177.989 0.187084C178.137 0.141896 178.249 0.0866717 178.375 0.0352077C178.552 0.0678434 178.726 0.100467 178.904 0.133103C179.047 0.126827 179.19 0.119307 179.333 0.113031C180.048 0.080395 180.763 0.0465016 181.478 0.0163764C181.53 0.0138659 181.595 0.038974 181.655 0.0515262C181.829 0.0879275 181.985 0.119299 182.236 0.105492C182.877 0.0690907 183.523 0.0427311 184.164 0.0113506C184.446 -0.00245682 184.446 -0.00245559 184.94 0.075368C184.996 0.0841545 185.07 0.0941969 185.131 0.0916865C185.776 0.0628164 186.418 0.0314396 187.063 0.00131436C187.202 -0.00496174 187.337 0.0113555 187.436 0.0477569C187.475 0.0628195 187.466 0.087919 187.631 0.293775C188.143 0.460719 188.494 0.443155 188.849 0.428092C189.001 0.421816 189.135 0.415534 189.235 0.390429C189.287 0.376622 189.352 0.356535 189.352 0.340217C189.352 0.327665 189.256 0.307578 189.196 0.305068C188.767 0.279963 188.359 0.33269 187.939 0.343987C187.744 0.349008 187.575 0.305074 187.54 0.233527C187.532 0.213443 187.518 0.192106 187.505 0.172022C187.492 0.151939 187.484 0.130601 187.471 0.110518C187.302 0.104242 187.202 0.126832 187.129 0.169509C187.068 0.204656 186.981 0.244823 186.864 0.263651C186.747 0.283734 186.587 0.279975 186.444 0.286252C186.305 0.292528 186.153 0.308844 186.023 0.300057C185.893 0.290015 185.789 0.253608 185.668 0.231014C185.612 0.219717 185.542 0.203405 185.486 0.205916C184.988 0.227254 184.494 0.248585 184 0.2762C183.74 0.291263 183.61 0.238551 183.445 0.205916C183.315 0.180811 183.185 0.187079 183.163 0.24482C183.107 0.382894 183.306 0.440631 183.748 0.414271C184.112 0.391677 184.442 0.387923 184.728 0.473278C184.767 0.484575 184.858 0.489594 184.914 0.487084C185.269 0.472021 185.62 0.453191 185.976 0.438128C186.041 0.435618 186.11 0.440631 186.171 0.445652C187.055 0.513433 187.055 0.514695 187.354 0.499633C187.497 0.492101 187.636 0.485825 187.622 0.295031C187.896 0.0904306 188.329 0.0766257 188.749 0.0465004C189.022 0.0276721 189.139 0.0829042 189.317 0.111774C189.378 0.121816 189.443 0.141896 189.499 0.139385C190.431 0.0979632 191.358 0.0540244 192.285 0.00758126C192.441 4.9945e-05 192.554 0.00758249 192.675 0.0402182C192.831 0.0816404 193.005 0.108006 193.252 0.0929429C193.746 0.0628177 194.248 0.0439936 194.751 0.0188893C195.007 0.00633707 195.007 0.00632421 195.522 0.0841478C195.579 0.0929343 195.652 0.102977 195.713 0.100466C196.216 0.0791275 196.714 0.0527759 197.213 0.0301819C197.351 0.0239059 197.477 0.0414771 197.585 0.075368C197.694 0.109259 197.824 0.12683 197.958 0.120554C198.461 0.0979601 198.959 0.0728637 199.457 0.0502697C199.518 0.0477593 199.592 0.0565452 199.648 0.0653318C200.177 0.143155 200.177 0.143142 200.419 0.13059C200.775 0.111762 201.139 0.102985 201.49 0.0778809C201.832 0.0527765 202.01 0.125573 202.244 0.16574C202.885 0.13687 203.531 0.113027 204.168 0.0778809C204.428 0.0628183 204.566 0.104237 204.74 0.136873C204.8 0.148169 204.861 0.172021 204.917 0.170766C205.134 0.165745 205.347 0.15194 205.559 0.141898C205.771 0.131857 205.988 0.121816 206.2 0.111774C206.443 0.148176 206.603 0.233529 206.95 0.204659C207.158 0.187086 207.379 0.183321 207.591 0.173279C207.804 0.163237 208.02 0.153197 208.233 0.143155C208.376 0.136879 208.523 0.133107 208.662 0.121811C208.917 0.102982 209.043 0.164495 209.225 0.19211C209.286 0.200897 209.355 0.215949 209.411 0.213439C209.84 0.195866 210.274 0.180805 210.694 0.151935C211.019 0.129341 211.24 0.167002 211.47 0.219721C211.517 0.231018 211.6 0.237294 211.66 0.234783C212.163 0.213445 212.661 0.187078 213.16 0.164484C213.294 0.158208 213.424 0.17829 213.532 0.210926C213.645 0.244817 213.771 0.261147 213.909 0.254871C214.408 0.232277 214.911 0.207165 215.409 0.184571C215.47 0.182061 215.543 0.192105 215.599 0.202146C216.085 0.27997 216.085 0.281226 216.371 0.266164C216.44 0.262398 216.514 0.259878 216.583 0.256112C216.939 0.238539 217.307 0.232272 217.654 0.202146C218.052 0.168255 218.343 0.210935 218.624 0.282482C218.98 0.26742 219.344 0.258631 219.69 0.233527C219.95 0.214699 220.089 0.262394 220.262 0.293775C220.323 0.305072 220.388 0.327666 220.44 0.325155C220.943 0.303817 221.445 0.284995 221.939 0.253615C222.208 0.236042 222.325 0.292516 222.507 0.321386C222.568 0.331428 222.633 0.34901 222.689 0.3465C222.975 0.336458 223.261 0.321388 223.547 0.307581C223.881 0.291263 223.881 0.292517 224.323 0.369085C224.531 0.405486 224.739 0.376615 224.943 0.367829C225.159 0.357787 225.363 0.350258 225.536 0.401722C225.644 0.434358 225.775 0.454442 225.909 0.449421C226.195 0.438124 226.485 0.426832 226.767 0.408004C226.992 0.392942 227.187 0.402978 227.352 0.449421C227.469 0.482057 227.59 0.498384 227.733 0.490853C228.375 0.460728 229.02 0.429336 229.662 0.400466C229.718 0.397955 229.796 0.409256 229.848 0.420553C229.969 0.443147 230.086 0.468246 230.203 0.49335C230.485 0.482054 230.775 0.477046 231.053 0.459472C231.347 0.441899 231.616 0.435621 231.846 0.504659C231.893 0.519721 231.963 0.541048 232.019 0.539793C232.236 0.534772 232.448 0.522224 232.66 0.512182C232.873 0.50214 233.089 0.4921 233.302 0.482058C233.549 0.513438 233.705 0.603813 234.052 0.574943C234.26 0.55737 234.481 0.553604 234.693 0.543562C234.905 0.533521 235.122 0.522225 235.334 0.513438C235.404 0.510928 235.482 0.504648 235.542 0.509669C235.607 0.51469 235.663 0.532267 235.72 0.544819C235.893 0.58122 236.054 0.617626 236.301 0.596287C236.509 0.578714 236.73 0.574947 236.942 0.56365C237.232 0.549843 237.232 0.549845 237.713 0.628924C237.908 0.66156 238.129 0.618884 238.316 0.646499C238.441 0.665327 238.55 0.696701 238.671 0.71804C238.723 0.726826 238.805 0.730586 238.866 0.728076C239.152 0.716779 239.442 0.705487 239.724 0.686659C239.954 0.671597 240.144 0.686657 240.305 0.731845C240.422 0.764481 240.539 0.778296 240.686 0.770764C241.401 0.735618 242.116 0.705483 242.827 0.666571C243.069 0.652764 243.264 0.674108 243.399 0.719296C243.628 0.79712 243.953 0.705491 244.192 0.768252C244.339 0.807163 244.487 0.852354 244.755 0.833525C245.249 0.80089 245.752 0.783307 246.25 0.760713C246.428 0.794604 246.606 0.828502 246.788 0.862393C247.074 0.848586 247.36 0.83477 247.646 0.822217C247.858 0.812176 248.075 0.80088 248.287 0.792093C248.356 0.789583 248.43 0.784561 248.495 0.790837C248.56 0.797113 248.612 0.813435 248.673 0.825987C248.972 0.887492 248.972 0.888754 249.466 0.863649C249.678 0.852352 249.882 0.844821 250.059 0.89503C250.224 0.941473 250.419 0.950254 250.644 0.936447C251.069 0.911342 251.498 0.892515 251.931 0.874942C252.066 0.868666 252.191 0.890005 252.304 0.922641C252.473 0.974105 252.681 0.969085 252.893 0.955278C253.175 0.937705 253.452 0.920135 253.691 0.990428C253.738 1.00549 253.812 1.02682 253.864 1.02556C254.22 1.01552 254.579 1.00799 254.926 0.984146C255.273 0.960296 255.442 1.03812 255.68 1.07577C256.035 1.05946 256.395 1.04314 256.75 1.02682C256.82 1.02305 256.902 1.01176 256.963 1.01804C257.218 1.0444 257.366 1.13854 257.717 1.10967C257.92 1.09335 258.141 1.08833 258.354 1.08457C258.41 1.08331 258.484 1.10464 258.523 1.12096C258.544 1.12975 258.523 1.15359 258.497 1.16615C258.419 1.20129 258.323 1.23394 258.254 1.27034C258.245 1.27536 258.328 1.29794 258.375 1.30799C258.492 1.33058 258.627 1.32682 258.783 1.31678C258.917 1.308 259.056 1.32557 259.151 1.36322C259.19 1.37829 259.177 1.40339 259.095 1.48623C259.095 1.54774 259.186 1.52012 259.216 1.47995C259.264 1.42221 259.173 1.40338 258.999 1.43476C258.878 1.45736 258.817 1.49 258.848 1.51636C258.865 1.53016 258.947 1.54774 259.095 1.48623C259.476 1.41092 259.762 1.39712 260.048 1.38331C260.122 1.37955 260.208 1.36699 260.26 1.37452C260.447 1.40464 260.62 1.44105 260.802 1.47494C261.01 1.46741 261.205 1.44857 261.409 1.49753C261.695 1.56656 261.708 1.56029 261.985 1.54648C262.128 1.53895 262.271 1.53268 262.414 1.52641C262.557 1.52013 262.67 1.53896 262.795 1.56783C263.051 1.62682 263.073 1.62682 263.242 1.54648C263.341 1.49753 263.411 1.48121 263.536 1.50381C263.952 1.58038 263.957 1.58539 264.312 1.5628C264.607 1.54397 264.884 1.53895 265.101 1.6105C265.248 1.66071 265.296 1.64941 265.413 1.59669C265.725 1.45736 265.868 1.45987 266.453 1.56029C266.726 1.60799 267.008 1.55653 267.285 1.55025C267.519 1.54523 267.684 1.57535 267.701 1.65443C267.714 1.70338 267.753 1.73853 267.909 1.75485C267.97 1.76113 268.043 1.76991 268.104 1.7674C268.464 1.75234 268.819 1.73476 269.179 1.71719C269.361 1.7084 269.46 1.64942 269.426 1.57159C269.387 1.48875 269.456 1.45861 269.716 1.43476C269.872 1.42096 269.998 1.42348 270.123 1.44607C270.262 1.47118 270.223 1.49377 270.102 1.53896C269.811 1.64942 269.846 1.71719 270.219 1.79376C270.349 1.82012 270.453 1.84398 270.483 1.88289C270.5 1.90297 270.483 1.92933 270.522 1.94439C270.734 2.02849 271.029 2.08247 271.358 2.12264C271.675 2.08875 271.891 2.14522 272.134 2.19041C272.325 2.22556 272.55 2.19544 272.754 2.18289C272.983 2.16908 273.174 2.17912 273.339 2.22556C273.456 2.25819 273.577 2.27325 273.72 2.26698C274.006 2.25317 274.296 2.24439 274.578 2.2243C274.821 2.20673 275.003 2.23184 275.155 2.27451C275.345 2.32849 275.558 2.29208 275.757 2.29961C276.026 2.3084 276.16 2.42011 276.511 2.38999C276.719 2.37241 276.936 2.36614 277.152 2.36112C277.209 2.35986 277.278 2.3812 277.326 2.39627C277.555 2.4653 277.824 2.46154 278.119 2.44145C278.322 2.42765 278.522 2.4151 278.721 2.4628C279.05 2.54313 279.414 2.61343 279.761 2.68749C279.809 2.74523 279.774 2.813 280.021 2.84689C280.151 2.86446 280.272 2.89083 280.372 2.9197C280.493 2.95359 280.606 2.96238 280.762 2.95359C281.044 2.93602 281.338 2.93224 281.616 2.90965C281.872 2.88956 282.032 2.931 282.188 2.96991C282.313 3.00129 282.431 3.01635 282.582 2.99375C282.738 2.97241 282.851 2.98622 282.976 3.02011C283.154 3.06655 283.167 3.06154 283.757 3.07535C283.817 3.0766 283.891 3.09542 283.926 3.11174C283.943 3.12052 283.904 3.14564 283.874 3.15819C283.835 3.17326 283.774 3.19082 283.718 3.19458C283.076 3.22722 282.43 3.25609 281.789 3.28873C281.724 3.29249 281.655 3.30129 281.607 3.31384C281.555 3.32765 281.49 3.34646 281.49 3.36404C281.49 3.37659 281.577 3.39166 281.637 3.40044C281.828 3.42931 282.054 3.38538 282.24 3.41802C282.365 3.43936 282.469 3.46947 282.595 3.48956C282.647 3.49834 282.73 3.49709 282.795 3.49458C283.011 3.4858 283.224 3.47325 283.44 3.46572C283.501 3.46446 283.57 3.47702 283.627 3.48706C284.043 3.56237 284.043 3.56237 284.402 3.54605C284.545 3.53978 284.697 3.52095 284.831 3.52848C284.961 3.53601 285.074 3.5699 285.191 3.59124C285.434 3.63643 285.663 3.68036 285.681 3.77826C285.689 3.81592 285.832 3.84855 285.975 3.85106C286.114 3.85357 286.261 3.83978 286.404 3.83225C286.742 3.81718 286.742 3.81718 287.18 3.89375C287.301 3.91509 287.431 3.9176 287.587 3.90504C287.648 3.90002 287.722 3.90505 287.787 3.91133C287.999 3.93015 287.999 3.954 287.86 3.99918C287.665 4.06571 287.683 4.07199 288.229 4.12848C288.437 4.14981 288.597 4.18998 288.77 4.22513C289.052 4.28162 289.048 4.2816 288.861 4.35566C288.818 4.37198 288.779 4.38956 288.736 4.40713C288.61 4.45608 288.51 4.5088 288.25 4.51382C287.964 4.51884 287.678 4.53893 287.392 4.55274C287.115 4.56655 287.041 4.59666 287.067 4.68202C287.098 4.78494 287.154 4.79624 287.652 4.79499C287.795 4.79499 287.921 4.80503 288.029 4.83892C287.977 4.87909 287.882 4.91047 287.743 4.918C287.388 4.93683 287.028 4.95315 286.673 4.96947C286.387 4.98327 286.101 4.99708 285.815 5.01088C285.637 5.01967 285.525 5.08495 285.572 5.15775C285.598 5.19917 285.62 5.24059 285.642 5.28201C285.689 5.36486 285.78 5.3862 286.071 5.38244C286.144 5.38118 286.214 5.37113 286.283 5.37364C286.565 5.38243 286.699 5.48661 287.037 5.46527C287.319 5.4477 287.613 5.44394 287.891 5.42134C288.146 5.40126 288.289 5.44646 288.467 5.48035C288.528 5.49165 288.593 5.51548 288.645 5.51423C289.004 5.50042 289.364 5.48662 289.715 5.46277C289.88 5.45273 289.979 5.46026 290.109 5.49039C290.421 5.56319 290.43 5.55942 290.894 5.53683C291.232 5.51926 291.236 5.52176 291.669 5.59833C291.791 5.61967 291.921 5.61967 292.077 5.60963C292.28 5.59707 292.493 5.57699 292.705 5.59582C292.77 5.60084 292.853 5.61591 292.874 5.63223C292.887 5.64352 292.827 5.67114 292.775 5.67992C292.393 5.7452 291.947 5.7339 291.531 5.76026C291.401 5.76779 291.271 5.74394 291.162 5.71005C291.05 5.67616 290.928 5.66236 290.781 5.66863C290.495 5.68244 290.205 5.69122 289.923 5.71131C289.68 5.72888 289.511 5.70001 289.342 5.66109C289.286 5.64854 289.221 5.62469 289.165 5.62594C288.523 5.65105 287.878 5.67616 287.241 5.71131C286.985 5.72637 286.838 5.6862 286.664 5.65231C286.604 5.64102 286.543 5.61717 286.487 5.61842C286.27 5.62344 286.058 5.63725 285.841 5.64729C285.052 5.68494 284.268 5.7226 283.479 5.75775C283.427 5.76026 283.362 5.7339 283.302 5.7226C283.185 5.7 283.063 5.67866 282.942 5.65732C282.725 5.66737 282.513 5.67992 282.296 5.68745C282.14 5.69247 282.001 5.71005 281.98 5.75775C281.967 5.78913 282.11 5.81799 282.262 5.81548C282.409 5.81297 282.556 5.79791 282.678 5.81423C283.28 5.89456 283.28 5.89582 283.657 5.8795C283.986 5.86444 283.951 5.85188 284.242 5.92092C284.368 5.95104 284.48 5.96862 284.623 5.96109C284.979 5.94352 285.338 5.92594 285.698 5.91088C285.754 5.90837 285.828 5.92093 285.884 5.93097C286.309 6.00628 286.309 6.00879 286.66 5.98996C287.119 5.96737 287.137 5.96109 287.444 6.03766C287.657 6.09038 287.852 6.05398 288.055 6.05146C288.289 6.10042 288.545 6.14436 288.757 6.19959C289.009 6.26486 289.273 6.25355 289.559 6.23472C289.771 6.22091 289.979 6.21589 290.153 6.26736C290.317 6.31506 290.517 6.32009 290.742 6.30753C290.946 6.29624 291.154 6.27238 291.366 6.3C291.423 6.30753 291.509 6.32636 291.505 6.33766C291.5 6.35523 291.444 6.38034 291.388 6.38787C290.989 6.43933 290.551 6.43807 290.131 6.46192C290.075 6.46569 290.001 6.45188 289.945 6.44184C289.823 6.41924 289.706 6.39289 289.589 6.36904C289.377 6.37657 289.16 6.37907 288.952 6.39414C288.792 6.40543 288.671 6.40419 288.554 6.37407C288.445 6.34645 288.328 6.31255 288.198 6.30377C288.068 6.29498 287.917 6.31381 287.774 6.32134C287.631 6.32887 287.466 6.3251 287.353 6.34518C287.241 6.36527 287.171 6.4092 287.098 6.44435C287.015 6.48326 286.903 6.49582 286.738 6.49959C286.586 6.50335 286.465 6.49833 286.352 6.46318C286.305 6.44812 286.24 6.43682 286.175 6.42677C286.114 6.41799 286.045 6.40418 285.988 6.40669C285.343 6.43556 284.701 6.46695 284.056 6.49707C283.735 6.51214 283.739 6.51213 283.072 6.43807C283.011 6.43179 282.938 6.42301 282.877 6.42552C282.517 6.44058 282.162 6.45816 281.802 6.47573C281.438 6.4933 281.442 6.49079 280.823 6.41171C280.71 6.39665 280.545 6.41674 280.411 6.41423C280.129 6.40795 279.991 6.30251 279.661 6.3226C279.38 6.34017 279.085 6.34393 278.803 6.36653C278.548 6.38661 278.4 6.34268 278.227 6.30879C278.166 6.29749 278.101 6.27239 278.049 6.2749C277.404 6.30251 276.762 6.33389 275.904 6.33766C275.692 6.33766 275.787 6.36402 275.926 6.37281C276.125 6.38662 276.19 6.36026 276.082 6.31005C276.004 6.2749 275.891 6.25732 275.8 6.2661C275.753 6.27112 275.692 6.29498 275.904 6.33766C276.13 6.38536 276.117 6.41171 276.156 6.42677C276.251 6.46318 276.385 6.47824 276.524 6.47322C276.741 6.46443 276.953 6.45188 277.17 6.44435C277.23 6.44184 277.304 6.45063 277.36 6.46067C277.837 6.53849 277.841 6.54352 278.348 6.51339C278.509 6.50461 278.626 6.50461 278.751 6.52845C278.925 6.56109 279.05 6.61631 279.315 6.59874C279.666 6.57489 280.025 6.56109 280.385 6.54729C280.441 6.54478 280.502 6.56737 280.567 6.57741C280.745 6.60754 280.875 6.66402 281.139 6.64017C281.343 6.62134 281.564 6.61631 281.78 6.61254C281.837 6.61129 281.923 6.63138 281.949 6.64769C282.001 6.67656 281.936 6.71046 281.789 6.73431C281.728 6.74435 281.646 6.74184 281.577 6.74561C281.291 6.75941 281.005 6.77447 280.719 6.78577C280.567 6.79204 280.424 6.81088 280.407 6.85732C280.394 6.8887 280.55 6.91631 280.697 6.9138C280.914 6.91003 281.13 6.89999 281.338 6.88368C281.707 6.85606 282.027 6.86359 282.326 6.94267C282.539 6.9979 282.526 6.97782 282.751 7.141C282.807 7.18242 282.977 7.18619 283.124 7.18368C283.479 7.1774 283.644 7.19623 283.614 7.23514C283.574 7.28284 283.449 7.2979 283.288 7.30417C283.002 7.31421 282.716 7.33054 282.43 7.34435C282.361 7.34811 282.283 7.35564 282.218 7.35313C282.153 7.35062 282.093 7.33556 282.036 7.32426C281.915 7.30041 281.811 7.264 281.681 7.25522C281.551 7.24643 281.399 7.26526 281.256 7.27279C281.113 7.27907 280.961 7.2979 280.831 7.28911C280.701 7.28032 280.593 7.24268 280.476 7.22008C280.42 7.20878 280.35 7.1912 280.294 7.19246C280.008 7.2025 279.722 7.21882 279.436 7.23137C279.085 7.24769 279.085 7.24769 278.66 7.16987C278.539 7.14728 278.413 7.14854 278.253 7.15858C277.906 7.17866 277.902 7.17489 277.269 7.10208C277.209 7.09455 277.135 7.08577 277.074 7.08953C276.429 7.1184 275.787 7.14978 275.146 7.17991C274.596 7.20627 274.596 7.20628 274.292 7.3318C274.067 7.42468 274.063 7.42468 274.283 7.46736C274.461 7.5025 274.622 7.55396 274.817 7.57279C274.999 7.59036 275.224 7.53388 275.423 7.59162C275.523 7.62049 275.653 7.65187 275.779 7.6569C275.978 7.66317 276.19 7.62676 276.381 7.68199C276.476 7.70961 276.619 7.73849 276.741 7.73974C276.953 7.74225 277.17 7.72216 277.382 7.71337C277.447 7.71086 277.521 7.71087 277.581 7.71714C277.646 7.72468 277.703 7.73974 277.759 7.75229C277.932 7.79497 278.119 7.81505 278.344 7.79371C278.712 7.75856 279.042 7.77614 279.328 7.85647C279.367 7.86777 279.462 7.86903 279.523 7.86401C279.679 7.85146 279.813 7.8502 279.93 7.87405C279.978 7.88409 280.047 7.90165 280.038 7.91295C280.025 7.93178 279.973 7.95689 279.917 7.96316C279.51 8.00584 279.072 8.01087 278.652 8.03346C278.595 8.03597 278.526 8.01964 278.47 8.00835C278.348 7.98575 278.244 7.94811 278.114 7.93932C277.984 7.93053 277.833 7.94685 277.69 7.95313C277.547 7.9594 277.395 7.97823 277.265 7.9707C277.135 7.96191 277.014 7.93053 276.91 7.90291C276.788 7.87153 276.671 7.86778 276.511 7.88033C276.303 7.89665 276.086 7.89915 275.874 7.90794C275.757 7.88409 275.64 7.85772 275.519 7.83513C275.462 7.82383 275.393 7.81003 275.332 7.81128C275.046 7.82133 274.76 7.83638 274.474 7.85019C274.188 7.864 274.188 7.86401 273.703 7.78619C273.647 7.7774 273.573 7.76736 273.512 7.76987C273.152 7.78493 272.797 7.80375 272.437 7.81881C272.299 7.82508 272.173 7.80751 272.06 7.77362C271.952 7.73973 271.822 7.7209 271.688 7.72718C271.116 7.75354 270.544 7.77865 269.972 7.81003C269.742 7.82258 269.547 7.81129 269.391 7.7661C269.209 7.71463 269.005 7.72719 268.793 7.73723C268.312 7.76234 268.308 7.76107 268 7.69706C267.939 7.6845 267.879 7.66065 267.822 7.66191C267.324 7.68073 266.821 7.69831 266.327 7.72844C266.067 7.74475 265.929 7.70082 265.755 7.66819C265.695 7.65689 265.63 7.63304 265.578 7.63555C265.218 7.64936 264.858 7.66191 264.507 7.68702C264.156 7.71212 264.022 7.59539 263.757 7.59665C263.398 7.5979 263.042 7.62677 262.687 7.64435C262.401 7.65815 262.115 7.67196 261.829 7.68576C261.543 7.69957 261.257 7.71086 260.971 7.72718C260.819 7.73597 260.707 7.72467 260.581 7.69329C260.421 7.65186 260.23 7.61924 260.057 7.58159C259.792 7.52761 259.792 7.5276 259.472 7.54267C259.402 7.54643 259.329 7.54894 259.259 7.5527C258.735 7.58032 258.735 7.57782 258.068 7.49874C258.037 7.49497 257.959 7.50878 257.929 7.51882C257.838 7.55146 257.756 7.5866 257.673 7.62049C257.556 7.60041 257.413 7.58911 257.335 7.56024C257.114 7.47865 256.768 7.59036 256.542 7.51003C256.46 7.4799 256.317 7.45354 256.187 7.44601C256.053 7.43848 255.901 7.45606 255.762 7.46359C255.403 7.48241 255.403 7.48116 255.095 7.59288C254.939 7.64811 254.714 7.63806 254.51 7.65061C254.298 7.66442 254.094 7.67195 253.916 7.62049C253.756 7.57405 253.561 7.56275 253.331 7.57782C253.05 7.59664 252.759 7.60794 252.473 7.61923C252.412 7.62174 252.339 7.61547 252.278 7.60794C251.615 7.53388 251.615 7.53263 251.294 7.54895C251.151 7.55648 251.004 7.55898 250.865 7.57028C250.631 7.59036 250.454 7.564 250.285 7.52383C250.228 7.51128 250.163 7.48745 250.107 7.4887C249.821 7.49498 249.539 7.50627 249.258 7.51757C249.041 7.52635 248.824 7.53138 248.616 7.54895C248.27 7.57782 248.101 7.49622 247.862 7.45856C247.507 7.47488 247.147 7.48618 246.792 7.50877C246.627 7.51881 246.519 7.51506 246.393 7.48493C246.233 7.44727 246.086 7.4046 245.826 7.42343C245.479 7.44853 245.115 7.45732 244.76 7.47238C244.521 7.43347 244.348 7.35438 244.006 7.38325C243.798 7.40082 243.576 7.40459 243.364 7.41463C243.078 7.42844 242.792 7.441 242.506 7.45606C242.198 7.47113 242.203 7.46736 241.73 7.3933C241.457 7.34937 241.176 7.39832 240.898 7.40585C240.682 7.41213 240.573 7.46986 240.625 7.54392C240.677 7.61798 240.56 7.67572 240.361 7.68576C239.863 7.70961 239.36 7.73471 238.862 7.75605C238.801 7.75856 238.727 7.74977 238.671 7.74099C238.138 7.66191 238.138 7.66317 237.9 7.67447C237.544 7.6933 237.18 7.70333 236.829 7.72718C236.587 7.7435 236.409 7.71715 236.253 7.67447C236.132 7.64183 236.019 7.6343 235.863 7.64183C234.147 7.72593 232.431 7.80375 230.719 7.89036C230.463 7.90292 230.316 7.86652 230.143 7.83263C230.082 7.82133 230.026 7.79748 229.965 7.79748C229.822 7.79748 229.679 7.80878 229.536 7.81631C228.895 7.84644 228.253 7.88283 227.608 7.90543C227.335 7.91547 227.261 7.97321 227.144 8.02091C227.053 8.05731 226.949 8.07237 226.789 8.07739C226.633 8.08241 226.52 8.07613 226.399 8.0435C226.243 8.00082 226.065 7.97446 225.822 7.99203C225.541 8.01211 225.254 8.02091 224.964 8.03472C224.817 8.04099 224.704 8.06358 224.656 8.10877C224.648 8.1163 224.739 8.13514 224.791 8.14643C224.964 8.18409 225.129 8.22802 225.324 8.25438C225.523 8.28074 225.74 8.2506 225.948 8.24307C226.021 8.24056 226.091 8.23304 226.16 8.23429C226.225 8.23555 226.303 8.24183 226.351 8.25312C226.576 8.30961 226.814 8.34852 227.127 8.31463C227.395 8.33095 227.534 8.43513 227.876 8.40751C228.084 8.3912 228.301 8.38367 228.518 8.37739C228.574 8.37613 228.635 8.39873 228.695 8.41003C228.869 8.44141 229.007 8.49161 229.267 8.47027C229.545 8.44768 229.839 8.44392 230.121 8.42634C230.277 8.4163 230.39 8.42509 230.511 8.45773C230.667 8.49915 230.845 8.53052 231.087 8.51044C231.295 8.49286 231.516 8.4891 231.729 8.4778C232.006 8.46399 232.006 8.46525 232.5 8.54307C232.556 8.55186 232.63 8.5619 232.691 8.55939C233.05 8.54433 233.406 8.5255 233.765 8.51044C233.904 8.50416 234.038 8.52048 234.134 8.55688C234.173 8.57194 234.16 8.59706 234.173 8.6184C233.458 8.65229 232.743 8.68115 232.032 8.72257C231.763 8.73889 231.642 8.68743 231.464 8.65856C231.404 8.64852 231.339 8.62718 231.282 8.62969C230.78 8.65103 230.281 8.67362 229.783 8.70123C229.627 8.71002 229.51 8.70499 229.393 8.66859C229.094 8.57194 228.73 8.62466 228.392 8.63847C228.132 8.64851 228.05 8.68743 228.08 8.77027C228.119 8.86818 228.275 8.89831 228.674 8.88073C228.817 8.87446 228.96 8.86567 229.103 8.86065C229.241 8.85562 229.367 8.87194 229.48 8.90583C229.588 8.93972 229.718 8.9573 229.852 8.95227C230.138 8.94098 230.429 8.92969 230.706 8.91086C230.936 8.8958 231.126 8.90834 231.287 8.95479C231.464 9.00625 231.672 8.99495 231.88 8.98366C232.366 8.95855 232.37 8.95981 232.673 9.02257C232.734 9.03513 232.795 9.05898 232.851 9.05772C233.349 9.0389 233.852 9.02258 234.342 8.99245C234.597 8.97739 234.745 9.01755 234.914 9.05019C234.975 9.06148 235.035 9.08659 235.092 9.08408C235.451 9.07027 235.811 9.05646 236.162 9.03261C236.327 9.02131 236.426 9.02884 236.561 9.05897C236.881 9.13302 236.89 9.13051 237.345 9.10666C237.484 9.09913 237.635 9.08533 237.765 9.09537C237.895 9.10541 237.999 9.14182 238.121 9.16441C238.177 9.17446 238.246 9.18825 238.307 9.18574C238.593 9.1757 238.879 9.16065 239.165 9.14684C239.434 9.13303 239.434 9.13429 239.936 9.21211C240.14 9.24475 240.352 9.21713 240.556 9.20709C240.777 9.19579 240.976 9.1958 241.145 9.24475C241.314 9.2937 241.518 9.29118 241.735 9.28114C241.938 9.2711 242.146 9.2435 242.354 9.27739C242.831 9.35521 242.831 9.35645 243.126 9.34139C243.555 9.32005 243.979 9.29997 244.413 9.28114C244.469 9.27863 244.543 9.2937 244.599 9.30374C244.72 9.32634 244.825 9.36398 244.955 9.37277C245.085 9.38281 245.236 9.36775 245.375 9.36022C245.821 9.33637 245.852 9.32759 246.151 9.41043C246.402 9.47821 246.714 9.38031 246.948 9.45813C247.082 9.50206 247.264 9.53721 247.516 9.51587C247.724 9.49829 247.94 9.49327 248.157 9.48323C248.499 9.46691 248.499 9.46818 248.933 9.54349C248.989 9.55353 249.063 9.56608 249.119 9.56357C249.405 9.55352 249.695 9.54474 249.973 9.52215C250.298 9.49579 250.506 9.54349 250.748 9.58994C250.939 9.62634 251.164 9.59621 251.368 9.58365C251.589 9.5711 251.788 9.57486 251.953 9.62381C252.126 9.67402 252.33 9.66775 252.547 9.65771C252.75 9.64892 252.958 9.62005 253.166 9.65519C253.613 9.73302 253.613 9.73302 253.938 9.71795C254.224 9.70415 254.51 9.68909 254.796 9.67905C254.852 9.67654 254.921 9.69285 254.978 9.70415C255.099 9.72674 255.203 9.76441 255.333 9.77319C255.463 9.78198 255.615 9.76566 255.758 9.75939C255.901 9.75311 256.053 9.73428 256.183 9.74181C256.313 9.74934 256.434 9.78073 256.538 9.80834C256.659 9.84098 256.772 9.84474 256.937 9.83218C257.145 9.81587 257.361 9.8121 257.574 9.80332C257.691 9.82717 257.812 9.85101 257.925 9.87737C258.042 9.90498 258.167 9.90248 258.328 9.89369C258.861 9.86356 258.865 9.86733 259.311 9.94516C259.515 9.9803 259.727 9.95143 259.931 9.94264C260.148 9.9326 260.351 9.92759 260.52 9.97779C260.685 10.0255 260.889 10.0318 261.105 10.0167C261.244 10.0067 261.391 10.0004 261.534 9.99663C261.599 9.99537 261.677 10.0004 261.725 10.0104C261.955 10.0632 262.18 10.1109 262.496 10.077C262.774 10.087 262.912 10.1899 263.246 10.1698C263.528 10.1523 263.822 10.1485 264.1 10.1259C264.356 10.1058 264.538 10.141 264.668 10.1849C264.902 10.2627 265.231 10.1573 265.465 10.2339C265.599 10.2778 265.773 10.3129 266.033 10.2941C266.319 10.274 266.41 10.3004 266.492 10.3795C266.54 10.4246 266.531 10.4611 266.444 10.4962C266.358 10.5326 266.262 10.5263 266.124 10.4849C265.963 10.4385 265.773 10.4297 265.543 10.4397C265.318 10.4497 265.179 10.3845 264.993 10.3594C264.806 10.333 264.585 10.377 264.39 10.3431C263.931 10.264 263.931 10.264 263.619 10.279C263.407 10.2891 263.186 10.2941 262.978 10.3117C262.73 10.333 262.57 10.2941 262.401 10.259C262.34 10.2464 262.28 10.2226 262.228 10.2238C261.729 10.2426 261.227 10.2602 260.733 10.2916C260.473 10.3079 260.334 10.2627 260.161 10.2314C260.1 10.2201 260.035 10.1975 259.983 10.2C259.554 10.2175 259.129 10.2401 258.7 10.2615C258.618 10.2954 258.527 10.328 258.449 10.3644C258.367 10.4021 258.254 10.4184 258.089 10.4171C257.816 10.4171 257.548 10.4698 257.275 10.4033C256.993 10.3355 256.971 10.3393 256.698 10.3556C256.352 10.377 255.983 10.3719 255.658 10.4209C255.602 10.4297 255.541 10.4535 255.541 10.4711C255.537 10.4824 255.628 10.4987 255.684 10.5087C255.875 10.5389 256.096 10.4949 256.287 10.5263C256.412 10.5464 256.516 10.5765 256.642 10.5979C256.694 10.6067 256.772 10.6054 256.841 10.6041C256.915 10.6029 256.984 10.5941 257.054 10.5954C257.119 10.5966 257.188 10.6041 257.24 10.6154C257.478 10.6631 257.73 10.7071 257.942 10.7636C258.15 10.8188 258.345 10.7811 258.553 10.7786C259.385 10.8665 259.385 10.8677 259.944 10.8401C260.083 10.8339 260.226 10.8263 260.369 10.8276C260.429 10.8276 260.486 10.8502 260.546 10.8627C260.72 10.9004 260.884 10.9343 261.127 10.9142C261.335 10.8966 261.556 10.8928 261.768 10.8815C262.054 10.8677 262.054 10.8677 262.54 10.9468C262.661 10.9669 262.791 10.9644 262.947 10.9544C263.082 10.9456 263.22 10.9644 263.315 11.0008C263.354 11.0159 263.341 11.041 263.354 11.0623C262.925 11.0824 262.492 11.0962 262.076 11.1263C261.807 11.1452 261.686 11.0912 261.508 11.0623C261.448 11.0523 261.383 11.0309 261.326 11.0334C260.902 11.0523 260.477 11.0736 260.052 11.0987C260 11.1012 259.935 11.1301 259.931 11.1477C259.922 11.1803 260.031 11.2117 260.187 11.2104C260.395 11.2092 260.598 11.1878 260.785 11.2393C260.941 11.2845 261.136 11.3046 261.365 11.2845C261.504 11.2732 261.651 11.2732 261.79 11.2631C262.158 11.233 262.492 11.2393 262.769 11.3246C262.982 11.3472 263.19 11.3259 263.393 11.3146C263.545 11.3058 263.692 11.297 263.801 11.3209C264.031 11.3711 264.256 11.4213 264.572 11.3874C264.915 11.4225 265.175 11.4966 265.461 11.5569C265.595 11.5857 265.699 11.6021 265.855 11.5832C265.92 11.5757 265.998 11.5757 266.067 11.5719C266.21 11.5656 266.362 11.5468 266.492 11.5543C266.622 11.5631 266.73 11.5995 266.847 11.6221C266.904 11.6334 266.969 11.6523 267.025 11.651C267.242 11.6447 267.454 11.6322 267.666 11.6221C267.879 11.6133 268.091 11.6046 268.303 11.5958C268.481 11.6284 268.663 11.661 268.841 11.6937C269.127 11.6799 269.413 11.6661 269.694 11.6535C270.011 11.6384 270.011 11.6397 270.466 11.7175C270.669 11.7527 270.886 11.7301 271.081 11.7138C271.406 11.6874 271.623 11.7351 271.852 11.7853C271.9 11.7954 271.987 11.8016 272.043 11.7966C272.268 11.779 272.463 11.7928 272.628 11.8393C272.745 11.8719 272.862 11.887 273.005 11.8807C273.503 11.8569 274.002 11.8318 274.5 11.8104C274.561 11.8079 274.63 11.8192 274.687 11.8292C275.128 11.9058 275.133 11.9096 275.458 11.8895C275.748 11.8719 276.017 11.8644 276.247 11.9334C276.294 11.9485 276.368 11.9698 276.42 11.9686C276.775 11.956 277.135 11.9422 277.486 11.9209C277.646 11.9108 277.759 11.9146 277.885 11.9435C278.045 11.9799 278.188 12.0238 278.452 12.0075C279.185 11.961 279.189 11.9686 280.056 12.0552C280.116 12.0614 280.199 12.0514 280.268 12.0464C280.415 12.0338 280.524 12.0514 280.654 12.0803C280.944 12.1456 280.953 12.1418 281.23 12.128C281.442 12.1167 281.663 12.1142 281.871 12.0953C282.192 12.0677 282.404 12.1167 282.643 12.1631C282.833 12.1995 283.054 12.1694 283.258 12.1581C283.479 12.1456 283.679 12.1493 283.843 12.197C283.956 12.2296 284.077 12.2472 284.22 12.241C284.719 12.2184 285.217 12.1933 285.715 12.1707C285.776 12.1681 285.85 12.1782 285.906 12.187C286.4 12.2648 286.4 12.2686 286.89 12.2397C287.046 12.2309 287.176 12.2284 287.293 12.2548C287.405 12.2799 287.527 12.3037 287.644 12.3276C287.856 12.3188 288.073 12.3163 288.281 12.3012C288.441 12.2899 288.554 12.2949 288.679 12.3213C288.844 12.3552 288.983 12.4142 289.243 12.3853C289.377 12.3715 289.533 12.3753 289.667 12.3627C289.828 12.3464 289.936 12.3564 290.062 12.3891C290.218 12.428 290.378 12.4681 290.629 12.4481C290.907 12.4255 291.201 12.4217 291.483 12.4041C291.639 12.3941 291.747 12.4041 291.873 12.4368C292.029 12.4782 292.207 12.5046 292.45 12.4882C292.944 12.4569 292.948 12.4631 293.429 12.5422C293.55 12.5623 293.68 12.5598 293.836 12.5497C293.971 12.541 294.109 12.5598 294.205 12.5962C294.296 12.6363 294.287 12.6614 294.296 12.6828ZM255.68 1.36197C255.537 1.36824 255.394 1.37577 255.186 1.26657C255.173 1.24774 255.182 1.22515 255.151 1.20883C255.082 1.17494 254.974 1.1511 254.844 1.14733C254.61 1.14231 254.328 1.18498 254.332 1.21761C254.336 1.24523 254.41 1.26907 254.553 1.29167C254.614 1.30045 254.662 1.31552 254.718 1.32556C254.883 1.35443 255.013 1.41093 255.251 1.38206C255.208 1.30423 255.229 1.34314 255.251 1.38206C255.229 1.42975 255.294 1.46365 255.45 1.47745C255.494 1.48122 255.559 1.4787 255.593 1.47117C255.728 1.44356 255.749 1.40591 255.65 1.30675C255.632 1.32306 255.645 1.35192 255.684 1.35945C255.723 1.36699 255.819 1.36072 255.866 1.35193C255.988 1.32808 256.048 1.2967 256.018 1.27034C256.001 1.25653 255.918 1.23896 255.866 1.23896C255.775 1.23896 255.693 1.26657 255.68 1.36197ZM290.72 15.9187C290.404 15.9426 290.04 15.9338 289.724 15.9828C289.667 15.9915 289.611 16.0141 289.607 16.0317C289.602 16.043 289.689 16.0593 289.741 16.0681C289.858 16.0882 289.988 16.0819 290.14 16.0756C290.369 16.0669 290.504 16.1246 290.681 16.1535C290.738 16.1623 290.811 16.1685 290.872 16.166C291.223 16.151 291.57 16.1346 291.921 16.1171C291.981 16.1133 292.046 16.1045 292.098 16.0932C292.272 16.0568 292.255 16.033 292.086 16.0054C291.899 15.9752 291.752 15.925 291.561 15.9012C291.288 15.8673 291.011 15.9125 290.72 15.9187ZM266.111 16.8351C265.898 16.8451 265.69 16.8551 265.478 16.8652C265.408 16.8689 265.335 16.8702 265.27 16.8752C265.136 16.884 265.036 16.9104 264.971 16.9518C265.071 16.9844 265.192 17.0032 265.326 16.9995C265.539 16.992 265.747 16.9756 265.959 16.9719C266.189 16.9669 266.323 17.0233 266.501 17.0522C266.557 17.061 266.626 17.0622 266.691 17.0635C267.012 17.0685 267.207 17.0033 267.146 16.9116C267.103 16.8401 266.938 16.7974 266.739 16.8062C266.531 16.815 266.319 16.825 266.111 16.8351ZM292.203 14.0635C292.255 14.0422 292.311 14.0271 292.337 14.0083C292.415 13.9443 292.384 13.8966 292.241 13.8464C292.068 13.7849 291.856 13.8263 291.661 13.8326C291.613 13.8338 291.561 13.8602 291.535 13.8765C291.518 13.8878 291.518 13.9117 291.544 13.9179C291.756 13.9681 291.981 14.0146 292.203 14.0635ZM254.61 10.3556C254.402 10.3657 254.189 10.3732 253.981 10.387C253.929 10.3908 253.882 10.4146 253.851 10.4309C253.795 10.4611 253.855 10.5025 254.033 10.5062C254.237 10.5113 254.449 10.4899 254.661 10.4799C254.93 10.4673 255.09 10.4209 254.991 10.3807C254.895 10.3418 254.766 10.3343 254.61 10.3556ZM26.4992 7.67321C26.6379 7.66694 26.7809 7.66191 26.9195 7.65313C27.0496 7.64434 27.1493 7.61673 27.2143 7.5753C27.106 7.54267 26.9846 7.52509 26.8502 7.52886C26.6379 7.53639 26.4299 7.54643 26.2219 7.55898C26.0919 7.56652 25.9663 7.59413 25.9359 7.63681C25.9056 7.66944 26.1959 7.68828 26.4992 7.67321ZM236.283 7.47991C236.34 7.4912 236.396 7.5138 236.452 7.5138C236.591 7.5138 236.734 7.50626 236.864 7.49371C236.92 7.48869 236.964 7.4661 236.99 7.44852C237.007 7.43723 237.003 7.41715 236.977 7.40711C236.851 7.34686 236.348 7.3682 236.266 7.43723C236.257 7.44978 236.279 7.4661 236.283 7.47991ZM222.611 0.606323C222.624 0.626407 222.628 0.646488 222.646 0.666571C222.68 0.704228 222.776 0.731848 222.914 0.750677C223.023 0.719296 223.079 0.684155 223.075 0.646499C223.07 0.626415 223.057 0.606319 223.04 0.586236C223.005 0.548579 222.91 0.520974 222.771 0.502146C222.663 0.532271 222.611 0.567412 222.611 0.606323ZM302.217 17.0535C302.178 17.0698 302.139 17.0861 302.096 17.1012C302.213 17.1376 302.321 17.1489 302.404 17.1288C302.456 17.1162 302.486 17.0974 302.525 17.0811C302.408 17.0447 302.304 17.0346 302.217 17.0535ZM299.522 17.2242C299.578 17.2355 299.63 17.2505 299.691 17.2581C299.79 17.2706 299.881 17.2493 299.951 17.2041C299.894 17.1928 299.842 17.1777 299.782 17.1702C299.682 17.1576 299.591 17.179 299.522 17.2242ZM301.229 16.9945C301.199 17.0246 301.26 17.0497 301.42 17.071C301.459 17.0547 301.511 17.0397 301.537 17.0221C301.58 16.9932 301.506 16.9669 301.35 16.9468C301.307 16.9618 301.268 16.9782 301.229 16.9945ZM292.081 15.6413C292.051 15.6715 292.111 15.6966 292.272 15.7179C292.311 15.7016 292.363 15.6865 292.389 15.669C292.432 15.6401 292.359 15.6137 292.203 15.5936C292.159 15.6087 292.12 15.625 292.081 15.6413ZM279.618 6.75941C279.579 6.77573 279.54 6.79205 279.497 6.80711C279.614 6.84351 279.722 6.8548 279.804 6.83472C279.856 6.82217 279.887 6.80334 279.926 6.78702C279.809 6.75062 279.705 6.74058 279.618 6.75941ZM267.679 2.04731C267.783 2.0561 267.87 2.03853 267.944 1.99209C267.887 1.98079 267.835 1.96573 267.775 1.9582C267.675 1.94564 267.584 1.96699 267.515 2.01218C267.571 2.02473 267.627 2.03602 267.679 2.04731ZM261.339 1.75234C261.3 1.76866 261.261 1.78498 261.218 1.80004C261.335 1.83644 261.443 1.84773 261.526 1.82765C261.578 1.8151 261.608 1.79627 261.647 1.77995C261.53 1.74355 261.426 1.73477 261.339 1.75234ZM218.347 0.605067C218.308 0.621385 218.269 0.637703 218.226 0.652766C218.343 0.689167 218.451 0.700461 218.533 0.680377C218.585 0.667825 218.616 0.648996 218.655 0.632678C218.538 0.596277 218.434 0.587494 218.347 0.605067ZM4.27709 10.8175C4.22076 10.8062 4.16447 10.7949 4.11247 10.7824C3.9868 10.8163 3.94781 10.8477 4.01715 10.8715C4.06048 10.8866 4.12543 10.8954 4.18177 10.9067C4.31177 10.8728 4.3421 10.8426 4.27709 10.8175Z" fill="#4F9CF9"/>
<path d="M29.4109 6.38513C28.9125 6.40898 28.4185 6.43909 27.9202 6.45416C27.6559 6.46169 27.5606 6.51566 27.4523 6.56587C27.3656 6.60604 27.2659 6.61859 27.1056 6.62612C25.7535 6.68763 24.4058 6.7529 23.058 6.81692C22.889 6.8006 22.8067 6.77424 22.8457 6.74286C22.8674 6.72403 22.9194 6.69767 22.9714 6.69516C23.8944 6.64872 24.8131 6.60102 25.7404 6.56462C26.0048 6.55457 26.0785 6.49934 26.2128 6.45416C26.2562 6.43909 26.2909 6.4165 26.3472 6.40771C26.4035 6.39767 26.4859 6.39893 26.5595 6.39642C28.0503 6.32487 29.541 6.25459 31.0317 6.18304C31.2007 6.19936 31.2831 6.22571 31.2441 6.25709C31.2224 6.27592 31.1704 6.30228 31.1184 6.30479C30.5463 6.33115 29.9786 6.35751 29.4109 6.38513Z" fill="#4F9CF9"/>
<path d="M302.274 13.0694C302.049 13.0845 301.763 13.1058 301.529 13.033C301.416 12.9979 301.295 12.9866 301.147 12.9941C300.935 13.0067 300.718 13.0167 300.502 13.0242C300.445 13.0255 300.372 13.0117 300.315 13.0004C300.194 12.9778 300.09 12.9401 299.96 12.9301C299.83 12.9201 299.674 12.9477 299.54 12.9414C299.362 12.9326 299.288 12.8987 299.336 12.8673C299.362 12.8498 299.414 12.8247 299.47 12.8209C300.272 12.7745 300.276 12.7745 300.502 12.8196C300.675 12.8548 300.835 12.8937 301.082 12.8723C301.29 12.8548 301.511 12.851 301.724 12.8397C302.018 12.8246 302.018 12.8259 302.495 12.905C302.616 12.9251 302.746 12.9238 302.902 12.9125C303.037 12.9037 303.167 12.9238 303.275 12.9577C303.206 13.0004 303.106 13.028 302.972 13.0355C302.755 13.0481 302.543 13.0569 302.274 13.0694Z" fill="#4F9CF9"/>
<path d="M294.297 12.6827C294.843 12.6563 295.393 12.6337 295.939 12.6036C296.165 12.5911 296.342 12.6049 296.498 12.6475C296.667 12.694 296.858 12.6902 297.066 12.6814C297.196 12.6764 297.322 12.6965 297.409 12.7316C297.443 12.7454 297.434 12.7706 297.447 12.7906C296.971 12.8132 296.49 12.8371 296.009 12.8572C295.952 12.8597 295.883 12.8471 295.831 12.8371C295.714 12.8157 295.614 12.7781 295.489 12.7706C295.22 12.753 294.951 12.7869 294.678 12.7931C294.548 12.7956 294.423 12.7768 294.336 12.7429C294.301 12.7266 294.31 12.7028 294.297 12.6827Z" fill="#4F9CF9"/>
<path d="M96.971 1.89026C97.5387 1.86265 98.1064 1.8363 98.6741 1.80869C98.8431 1.82626 98.9211 1.85136 98.8864 1.88274C98.8647 1.90157 98.8127 1.92793 98.7607 1.93044C97.6253 1.98692 96.49 2.04089 95.359 2.09486C95.19 2.07729 95.112 2.05219 95.1467 2.02081C95.1683 2.00198 95.2203 1.97562 95.2724 1.97311C95.8357 1.94424 96.4034 1.91788 96.971 1.89026Z" fill="#4F9CF9"/>
<path d="M9.49501 8.86597C9.23934 8.86848 8.97072 8.91492 8.68471 8.87977C8.62837 8.8735 8.55035 8.85341 8.55468 8.84211C8.56335 8.82328 8.61536 8.79943 8.67169 8.7919C8.9187 8.76052 9.22641 8.75675 9.35208 8.66889C9.41275 8.6237 9.52542 8.60865 9.67709 8.59986C9.83743 8.58982 9.95007 8.59357 10.0757 8.61993C10.2404 8.65382 10.3791 8.71659 10.6391 8.68395C10.6521 8.70403 10.6824 8.72663 10.6694 8.74545C10.6564 8.76428 10.6001 8.78186 10.5481 8.79567C10.5005 8.80822 10.4354 8.81951 10.3747 8.82328C10.0887 8.83834 9.80269 8.8509 9.49501 8.86597Z" fill="#4F9CF9"/>
<path d="M234.871 8.61345C235.084 8.6034 235.305 8.59838 235.513 8.58081C235.677 8.567 235.781 8.57578 235.911 8.60591C236.132 8.65863 236.145 8.65361 236.687 8.66114C236.748 8.6624 236.821 8.68122 236.856 8.69754C236.878 8.70632 236.847 8.73018 236.821 8.74274C236.782 8.75905 236.726 8.78038 236.674 8.78038C236.332 8.78415 235.985 8.85822 235.651 8.77286C235.482 8.73018 235.296 8.71009 235.066 8.72892C234.928 8.74021 234.78 8.74524 234.637 8.75026C234.499 8.75528 234.356 8.74147 234.269 8.70382C234.143 8.64859 234.217 8.62725 234.442 8.63102C234.585 8.63353 234.728 8.61972 234.871 8.61345Z" fill="#4F9CF9"/>
<path d="M313.409 17.2658C313.682 17.2533 313.955 17.2382 314.233 17.2282C314.289 17.2257 314.358 17.2395 314.41 17.2483C314.618 17.2859 314.588 17.3499 314.597 17.4064C314.601 17.4654 314.12 17.5131 313.916 17.4729C313.691 17.4278 313.487 17.3763 313.175 17.4039C313.054 17.414 312.911 17.3914 312.833 17.355C312.716 17.3022 312.781 17.2809 313.002 17.2847C313.132 17.2872 313.271 17.2734 313.409 17.2658Z" fill="#4F9CF9"/>
<path d="M175.831 0.180845C176.113 0.167037 176.394 0.145709 176.676 0.144454C176.841 0.143198 176.923 0.184613 176.884 0.214738C176.862 0.233566 176.81 0.259927 176.758 0.262437C176.195 0.292562 175.632 0.317671 175.068 0.345286C174.904 0.327713 174.821 0.301357 174.86 0.271232C174.882 0.252404 174.934 0.227299 174.986 0.223533C175.268 0.20596 175.549 0.194652 175.831 0.180845Z" fill="#4F9CF9"/>
<path d="M308.006 13.18C308.279 13.1674 308.556 13.1486 308.829 13.1423C308.972 13.1398 309.085 13.1686 309.102 13.2013C309.111 13.2163 309.042 13.2427 308.985 13.249C308.595 13.2917 308.175 13.2967 307.768 13.318C307.638 13.3243 307.499 13.3042 307.421 13.2691C307.304 13.2151 307.369 13.195 307.59 13.1988C307.729 13.2 307.867 13.1862 308.006 13.18Z" fill="#4F9CF9"/>
<path d="M242.029 8.78288C242.168 8.7766 242.311 8.76028 242.445 8.76531C242.588 8.77158 242.679 8.80798 242.722 8.84438C242.77 8.88581 242.766 8.92472 242.722 8.95987C242.653 9.02012 242.584 9.01761 242.423 8.97745C242.176 8.91468 242.159 8.92221 241.669 8.92472C241.613 8.92472 241.544 8.90589 241.5 8.88957C241.435 8.86447 241.47 8.82556 241.622 8.80297C241.734 8.78665 241.89 8.78916 242.029 8.78288Z" fill="#4F9CF9"/>
<path d="M297.853 12.7684C298.056 12.7584 298.26 12.742 298.464 12.742C298.607 12.7408 298.719 12.7697 298.732 12.801C298.737 12.8161 298.672 12.8412 298.62 12.8487C298.373 12.8826 298.095 12.8851 297.827 12.8964C297.701 12.9015 297.562 12.8814 297.484 12.8462C297.367 12.7935 297.437 12.7696 297.649 12.7772C297.714 12.7797 297.783 12.7722 297.853 12.7684Z" fill="#4F9CF9"/>
<path d="M265.798 11.2282C265.494 11.2432 265.208 11.2244 265.23 11.1918C265.26 11.1491 265.386 11.1215 265.516 11.1139C265.724 11.1014 265.932 11.0913 266.144 11.0838C266.279 11.0788 266.4 11.0976 266.508 11.1302C266.443 11.1704 266.344 11.1993 266.214 11.2081C266.079 11.2169 265.936 11.2219 265.798 11.2282Z" fill="#4F9CF9"/>
<path d="M263.811 11.0674C264.014 11.0574 264.218 11.0411 264.422 11.0411C264.565 11.0398 264.677 11.0687 264.69 11.1001C264.695 11.1151 264.63 11.1403 264.578 11.1478C264.331 11.1817 264.053 11.1842 263.785 11.1955C263.659 11.2005 263.52 11.1804 263.442 11.1453C263.325 11.0926 263.395 11.0687 263.607 11.0762C263.672 11.0788 263.741 11.0712 263.811 11.0674Z" fill="#4F9CF9"/>
<path d="M239.572 8.77295C239.775 8.76291 239.979 8.74658 240.183 8.74532C240.326 8.74407 240.438 8.77295 240.451 8.80433C240.456 8.81939 240.391 8.84324 240.339 8.85203C240.092 8.88592 239.814 8.88843 239.546 8.89973C239.42 8.90475 239.281 8.88466 239.203 8.84952C239.086 8.7968 239.155 8.77294 239.368 8.78047C239.433 8.78298 239.502 8.77546 239.572 8.77295Z" fill="#4F9CF9"/>
<path d="M238.433 8.69887C238.649 8.68882 238.719 8.68255 238.788 8.68255C238.918 8.68255 239.053 8.69761 239.131 8.73402C239.248 8.78674 239.178 8.80181 238.966 8.80432C238.693 8.80683 238.424 8.83319 238.151 8.83821C238.008 8.84072 237.895 8.81058 237.887 8.7792C237.882 8.76414 237.947 8.73778 237.999 8.73276C238.181 8.71393 238.381 8.70263 238.433 8.69887Z" fill="#4F9CF9"/>
<path d="M262.045 1.31419C261.907 1.32047 261.759 1.33804 261.629 1.33177C261.456 1.32298 261.387 1.28909 261.43 1.25771C261.456 1.24014 261.504 1.21503 261.556 1.21127C261.833 1.1937 262.115 1.18239 262.392 1.16984C262.557 1.18867 262.63 1.21502 262.587 1.2464C262.561 1.26398 262.513 1.28783 262.461 1.29285C262.327 1.3054 262.184 1.30791 262.045 1.31419Z" fill="#4F9CF9"/>
<path d="M93.8623 2.03829C93.9966 2.03704 94.1179 2.05336 94.2219 2.08474C94.1569 2.1249 94.0616 2.15126 93.9316 2.16256C93.8666 2.16758 93.7929 2.17134 93.7236 2.1726C93.5893 2.17511 93.4679 2.15753 93.3639 2.12615C93.4289 2.08599 93.5285 2.05963 93.6542 2.04833C93.7192 2.04331 93.793 2.04206 93.8623 2.03829Z" fill="#4F9CF9"/>
<path d="M306.526 13.1751C306.522 13.1387 306.786 13.0973 307.024 13.0985C307.15 13.0998 307.28 13.1173 307.354 13.1512C307.467 13.2027 307.401 13.2228 307.189 13.219C307.059 13.2165 306.92 13.2378 306.79 13.2341C306.643 13.2328 306.557 13.2052 306.526 13.1751Z" fill="#4F9CF9"/>
<path d="M243.284 8.93483C243.28 8.92103 243.258 8.90471 243.271 8.89216C243.354 8.82312 243.852 8.80179 243.982 8.86204C244.004 8.87333 244.013 8.89216 243.995 8.90345C243.969 8.92103 243.922 8.94362 243.87 8.94864C243.735 8.96119 243.597 8.96747 243.458 8.96873C243.397 8.96873 243.341 8.94739 243.284 8.93483Z" fill="#4F9CF9"/>
<path d="M11.0372 8.66498C10.5259 8.69134 10.5172 8.68882 10.6082 8.62606C10.6905 8.56958 10.8422 8.53569 11.0632 8.53569C11.1282 8.53569 11.1975 8.53318 11.2539 8.5382C11.3145 8.54448 11.4013 8.55702 11.4143 8.57208C11.4403 8.60095 11.3665 8.63234 11.2365 8.65367C11.1802 8.66372 11.1065 8.66122 11.0372 8.66498Z" fill="#4F9CF9"/>
<path d="M100.264 1.86167C100.112 1.88301 99.982 1.87548 99.8867 1.83532C99.7914 1.79515 99.943 1.74745 100.207 1.73615C100.277 1.73364 100.35 1.72361 100.415 1.72863C100.48 1.73239 100.545 1.74744 100.584 1.76251C100.654 1.78761 100.61 1.82151 100.472 1.85038C100.415 1.86168 100.333 1.85916 100.264 1.86167Z" fill="#4F9CF9"/>
<path d="M305.623 13.0806C305.662 13.0643 305.701 13.048 305.745 13.0329C305.905 13.0543 305.974 13.0794 305.931 13.1082C305.905 13.1258 305.853 13.1409 305.814 13.1572C305.654 13.1359 305.589 13.1095 305.623 13.0806Z" fill="#4F9CF9"/>
<path d="M17.9015 22.9541C17.9015 22.939 17.9621 22.9152 18.0098 22.9102C18.1008 22.9014 18.2134 22.919 18.2914 22.9541C18.3998 23.0043 18.3348 23.0307 18.1355 23.0169C17.9968 23.0068 17.9015 22.9817 17.9015 22.9541Z" fill="#4F9CF9"/>
<path d="M245.05 7.7662C245.106 7.7775 245.163 7.7888 245.215 7.80135C245.141 7.8478 245.05 7.86787 244.955 7.85532C244.894 7.84779 244.842 7.83272 244.786 7.82143C244.859 7.77498 244.946 7.75742 245.05 7.7662Z" fill="#4F9CF9"/>
<path d="M243.551 7.70936C243.637 7.69053 243.741 7.70058 243.863 7.73698C243.824 7.7533 243.789 7.77213 243.741 7.78468C243.659 7.80477 243.551 7.79471 243.434 7.75706C243.468 7.74199 243.507 7.72567 243.551 7.70936Z" fill="#4F9CF9"/>
<path d="M242.401 7.76469C242.457 7.77599 242.513 7.78729 242.565 7.79984C242.492 7.84628 242.405 7.86636 242.305 7.8538C242.245 7.84627 242.193 7.83121 242.136 7.81991C242.21 7.77347 242.297 7.75465 242.401 7.76469Z" fill="#4F9CF9"/>
<path d="M241.557 7.6984C241.622 7.72351 241.587 7.75363 241.461 7.78752C241.405 7.77622 241.34 7.76744 241.297 7.75238C241.227 7.72853 241.262 7.69714 241.392 7.66325C241.444 7.6758 241.5 7.6871 241.557 7.6984Z" fill="#4F9CF9"/>
</svg>
