<svg width="44" height="44" viewBox="0 0 44 44" fill="none" xmlns="http://www.w3.org/2000/svg">
<path d="M16.1071 23.2892C13.5686 23.2892 11.5036 25.3543 11.5036 27.8927V39.3965C11.5036 41.9349 13.5686 44 16.1071 44C18.6455 44 20.7105 41.935 20.7105 39.3966V27.8927C20.7105 25.3543 18.6455 23.2892 16.1071 23.2892Z" fill="#FF4340"/>
<path d="M8.92719 23.2892H4.47048C2.01302 23.2892 0.0137815 25.2885 0.0137815 27.7459C0.0137815 30.2033 2.01311 32.2026 4.47048 32.2026C6.92786 32.2026 8.92719 30.2033 8.92719 27.7459V23.2892Z" fill="#FF4340"/>
<path d="M0 16.1076C0 18.646 2.06507 20.711 4.60348 20.711H16.1073C18.6458 20.711 20.7109 18.646 20.7109 16.1076C20.7109 13.5691 18.6458 11.5041 16.1074 11.5041H4.60348C2.06507 11.504 0 13.5691 0 16.1076H0Z" fill="#36C6FF"/>
<path d="M16.2556 8.92571H20.7123V4.46901C20.7123 2.01155 18.713 0.0123049 16.2556 0.0123049C13.7981 0.0123049 11.7989 2.01163 11.7989 4.46901C11.7989 6.92638 13.7981 8.92571 16.2556 8.92571Z" fill="#36C6FF"/>
<path d="M27.8922 20.7109C30.4306 20.7109 32.4957 18.6458 32.4957 16.1074V4.60348C32.4957 2.06507 30.4306 0 27.8922 0C25.3538 0 23.2887 2.06507 23.2887 4.60348V16.1073C23.2887 18.6458 25.3538 20.7109 27.8922 20.7109Z" fill="#0DC46E"/>
<path d="M35.0738 20.7113H39.5305C41.988 20.7113 43.9872 18.712 43.9872 16.2546C43.9872 13.7972 41.9879 11.7979 39.5305 11.7979C37.0731 11.7979 35.0738 13.7972 35.0738 16.2546V20.7113Z" fill="#0DC46E"/>
<path d="M43.9996 27.8927C43.9996 25.3543 41.9345 23.2892 39.3961 23.2892H27.8922C25.3538 23.2892 23.2887 25.3543 23.2887 27.8927C23.2887 30.4311 25.3538 32.4961 27.8922 32.4961H39.396C41.9345 32.4962 43.9996 30.4311 43.9996 27.8927Z" fill="#FDCB02"/>
<path d="M27.7454 35.074H23.2887V39.5308C23.2887 41.9882 25.288 43.9875 27.7454 43.9875C30.2029 43.9875 32.2021 41.9881 32.2021 39.5308C32.2021 37.0734 30.2029 35.074 27.7454 35.074Z" fill="#FDCB02"/>
</svg>
