<svg width="73" height="73" viewBox="0 0 73 73" fill="none" xmlns="http://www.w3.org/2000/svg">
<g clip-path="url(#clip0_107_72809)">
<path d="M66.1216 6.8805C56.9477 -2.29341 42.0206 -2.29326 32.8467 6.8805C26.5809 13.1462 24.4052 22.3823 27.1172 30.7599L0.628593 57.2486C0.227379 57.6497 0.00196253 58.1938 0.00196253 58.7611V70.8611C0.00196253 72.0425 0.95966 73.0001 2.14092 73.0001H14.241C14.8084 73.0001 15.3522 72.7747 15.7536 72.3735L18.7791 69.348C19.2412 68.8857 19.4667 68.2377 19.3912 67.5884L19.0136 64.34L23.5168 63.9156C24.5394 63.8192 25.3492 63.0095 25.4456 61.9869L25.8703 57.4832L29.119 57.8607C29.7255 57.9316 30.3326 57.7394 30.7886 57.3335C31.2442 56.9277 31.505 56.3464 31.505 55.736V51.7527H35.4159C35.979 51.7527 36.5192 51.5307 36.9197 51.1349L42.2339 45.882C50.6135 48.5983 59.8541 46.423 66.1217 40.1552C75.2953 30.9815 75.2953 16.0543 66.1216 6.8805ZM63.0966 37.1304C57.6978 42.5292 49.5993 44.2143 42.4651 41.424C41.6778 41.1162 40.7833 41.3007 40.1823 41.8948L34.5372 47.4748H29.3659C28.1847 47.4748 27.227 48.4325 27.227 49.6137V53.334L24.1929 52.9814C23.6213 52.9151 23.0473 53.0816 22.6 53.4435C22.1529 53.8055 21.8703 54.3323 21.8163 54.9052L21.3525 59.8226L16.4355 60.286C15.8626 60.34 15.3358 60.6225 14.9737 61.0697C14.6117 61.5169 14.445 62.0912 14.5114 62.6626L15.0221 67.0546L13.3548 68.7223H4.27973V59.6474L31.0982 32.8289C31.6991 32.228 31.8874 31.3285 31.5779 30.5372C28.7873 23.4029 30.4728 15.3047 35.8715 9.90572C43.3776 2.39984 55.5906 2.39984 63.0965 9.90572C70.6024 17.4115 70.6024 29.6246 63.0966 37.1304Z" fill="#4F9CF9"/>
<path d="M60.0696 12.9314C57.5676 10.4293 53.4964 10.4295 50.9946 12.9314C48.4926 15.4334 48.4926 19.5044 50.9946 22.0064C53.4964 24.5083 57.5676 24.5086 60.0696 22.0064C62.5715 19.5044 62.5715 15.4334 60.0696 12.9314ZM57.0446 18.9815C56.2107 19.8154 54.8538 19.8155 54.0197 18.9815C53.1857 18.1475 53.1857 16.7906 54.0197 15.9565C54.8559 15.1204 56.2085 15.1204 57.0446 15.9565C57.8807 16.7926 57.8806 18.1454 57.0446 18.9815Z" fill="#4F9CF9"/>
</g>
<defs>
<clipPath id="clip0_107_72809">
<rect width="72.6503" height="72.6503" fill="white" transform="scale(1.00481)"/>
</clipPath>
</defs>
</svg>
