<svg width="56" height="56" viewBox="0 0 56 56" fill="none" xmlns="http://www.w3.org/2000/svg">
<path fill-rule="evenodd" clip-rule="evenodd" d="M28 28C28 23.6508 31.5257 20.125 35.875 20.125C40.2242 20.125 43.75 23.6508 43.75 28C43.75 32.3492 40.2242 35.875 35.875 35.875C31.5257 35.875 28 32.3492 28 28Z" fill="#1ABCFE"/>
<path fill-rule="evenodd" clip-rule="evenodd" d="M12.25 43.75C12.25 39.4007 15.7757 35.875 20.125 35.875H28V43.75C28 48.0992 24.4742 51.625 20.125 51.625C15.7757 51.625 12.25 48.0992 12.25 43.75Z" fill="#0ACF83"/>
<path fill-rule="evenodd" clip-rule="evenodd" d="M28 4.37502V20.125H35.875C40.2242 20.125 43.75 16.5993 43.75 12.25C43.75 7.90078 40.2242 4.37502 35.875 4.37502H28Z" fill="#FF7262"/>
<path fill-rule="evenodd" clip-rule="evenodd" d="M12.25 12.25C12.25 16.5993 15.7758 20.125 20.125 20.125H28V4.37502H20.125C15.7758 4.37502 12.25 7.90078 12.25 12.25Z" fill="#F24E1E"/>
<path fill-rule="evenodd" clip-rule="evenodd" d="M12.25 28C12.25 32.3492 15.7757 35.875 20.125 35.875H28V20.125H20.125C15.7757 20.125 12.25 23.6508 12.25 28Z" fill="#A259FF"/>
</svg>
