<svg width="73" height="73" viewBox="0 0 73 73" fill="none" xmlns="http://www.w3.org/2000/svg">
<g clip-path="url(#clip0_107_72903)">
<path d="M10.133 23.646C8.87522 23.646 7.80803 24.0846 6.93079 24.9619C6.05354 25.8391 5.61479 26.8918 5.61479 28.1204V46.9844C5.61479 48.2438 6.05341 49.3101 6.93079 50.1875C7.80803 51.0647 8.87522 51.5035 10.133 51.5035C11.3899 51.5035 12.4506 51.0648 13.3142 50.1875C14.1762 49.3102 14.6083 48.2438 14.6083 46.9844V28.1204C14.6083 26.8916 14.1697 25.8391 13.2923 24.9619C12.4149 24.0846 11.3616 23.646 10.133 23.646Z" fill="#1A3453"/>
<path d="M46.4603 6.71107L49.5751 0.965029C49.7796 0.584617 49.7068 0.292907 49.3562 0.0877852C48.9757 -0.0890891 48.6833 0.000536022 48.479 0.350325L45.3206 6.1423C42.5414 4.91355 39.602 4.29805 36.5024 4.29805C33.402 4.29805 30.4624 4.91368 27.6843 6.1423L24.5257 0.350325C24.3205 0.000536022 24.0281 -0.0882971 23.6485 0.0877852C23.2971 0.293831 23.2244 0.584617 23.4296 0.965029L26.5446 6.71107C23.3861 8.32181 20.8705 10.5651 18.9988 13.4458C17.1271 16.328 16.1908 19.4777 16.1908 22.9003H56.7698C56.7698 19.4785 55.8334 16.3287 53.9618 13.4458C52.09 10.5651 49.5889 8.32181 46.4603 6.71107ZM28.4517 15.0688C28.1148 15.4064 27.7125 15.5745 27.2448 15.5745C26.7763 15.5745 26.3821 15.4064 26.0606 15.0688C25.739 14.7327 25.5783 14.332 25.5783 13.8627C25.5783 13.3951 25.739 12.9935 26.0606 12.6567C26.3821 12.3206 26.7772 12.1526 27.2448 12.1526C27.7125 12.1526 28.1148 12.3206 28.4517 12.6567C28.7877 12.9943 28.9566 13.3951 28.9566 13.8627C28.9556 14.3312 28.7869 14.7327 28.4517 15.0688ZM46.9424 15.0688C46.6202 15.4064 46.2252 15.5745 45.7583 15.5745C45.2896 15.5745 44.8874 15.4064 44.5512 15.0688C44.2145 14.7327 44.0464 14.332 44.0464 13.8627C44.0464 13.3951 44.2145 12.9935 44.5512 12.6567C44.8874 12.3206 45.2896 12.1526 45.7583 12.1526C46.226 12.1526 46.6201 12.3206 46.9424 12.6567C47.2642 12.9943 47.4247 13.3951 47.4247 13.8627C47.4247 14.3312 47.2641 14.7327 46.9424 15.0688Z" fill="#1A3453"/>
<path d="M16.3655 53.6954C16.3655 55.042 16.8332 56.1819 17.7686 57.1174C18.7049 58.0528 19.8448 58.5205 21.1905 58.5205H24.4371L24.4815 68.4801C24.4815 69.7377 24.9202 70.8057 25.7974 71.6831C26.6746 72.5605 27.7281 72.9991 28.9559 72.9991C30.2129 72.9991 31.2808 72.5605 32.1581 71.6831C33.0355 70.8057 33.4741 69.7379 33.4741 68.4801V58.5214H39.528V68.4801C39.528 69.7377 39.9665 70.8057 40.8439 71.6831C41.7212 72.5605 42.7882 72.9991 44.0461 72.9991C45.3031 72.9991 46.3709 72.5605 47.2483 71.6831C48.1257 70.8057 48.5642 69.7379 48.5642 68.4801V58.5214H51.8546C53.1704 58.5214 54.2957 58.0536 55.2329 57.1182C56.1682 56.1827 56.6361 55.0428 56.6361 53.6963V24.4776H16.3655V53.6954Z" fill="#1A3453"/>
<path d="M62.8656 23.646C61.6368 23.646 60.5843 24.0782 59.7069 24.9401C58.8297 25.8036 58.3911 26.8643 58.3911 28.1204V46.9844C58.3911 48.2438 58.8296 49.3101 59.7069 50.1875C60.5843 51.0648 61.6376 51.5035 62.8656 51.5035C64.1226 51.5035 65.1904 51.0648 66.0678 50.1875C66.9452 49.3101 67.3837 48.2438 67.3837 46.9844V28.1204C67.3837 26.8642 66.9452 25.8036 66.0678 24.9401C65.1904 24.0782 64.1226 23.646 62.8656 23.646Z" fill="#1A3453"/>
</g>
<defs>
<clipPath id="clip0_107_72903">
<rect width="72.6503" height="72.6503" fill="white" transform="scale(1.00481)"/>
</clipPath>
</defs>
</svg>
