<svg width="73" height="73" viewBox="0 0 73 73" fill="none" xmlns="http://www.w3.org/2000/svg">
<path d="M36.4578 1.06275e-09C35.1493 1.06275e-09 33.8417 0.0703435 32.5406 0.210574C31.3481 0.332381 30.1703 0.532144 29.0082 0.77454C28.7833 0.821588 28.5583 0.871225 28.3334 0.923145C21.4868 2.48197 15.2351 5.98255 10.3279 11.0051C9.87159 11.4728 9.42486 11.9544 8.98803 12.4497C-4.2676 27.6677 -2.67681 50.7501 12.5413 64.0058C27.1106 76.6964 49.0412 75.852 62.5916 62.0788C63.0488 61.611 63.4954 61.1294 63.9315 60.6342C69.7814 53.9722 73.0052 45.4078 73 36.5419C73 16.3602 56.6395 -0.000152258 36.4578 1.06275e-09ZM11.9516 12.8322C12.1441 12.6325 12.3438 12.4412 12.5399 12.2475C12.7665 12.0246 12.9918 11.8005 13.2233 11.5849C13.4267 11.3949 13.6362 11.2122 13.8445 11.027C14.0796 10.8187 14.3134 10.6105 14.5546 10.4095C14.7666 10.2304 14.9846 10.0587 15.2014 9.8857C15.445 9.69081 15.6886 9.49592 15.9396 9.30834C16.1612 9.14146 16.3866 8.97946 16.6131 8.82111C16.8653 8.64084 17.1186 8.45569 17.3757 8.2876C17.6059 8.13168 17.8385 7.98064 18.0724 7.83082C18.3331 7.66394 18.5949 7.4995 18.8593 7.34359C19.0972 7.20153 19.3367 7.06176 19.5779 6.92458C19.8476 6.7711 20.1183 6.62128 20.3904 6.47511C20.634 6.34523 20.8776 6.21809 21.1212 6.09385C21.3989 5.95377 21.6791 5.81857 21.9605 5.6858C22.2041 5.57008 22.4574 5.45437 22.7084 5.34474C22.9946 5.22293 23.2845 5.10112 23.5744 4.97932C23.8266 4.87578 24.0775 4.77468 24.3321 4.67724C24.6268 4.56517 24.9252 4.46042 25.2237 4.35567C25.4783 4.26675 25.7328 4.17783 25.9911 4.09378C26.2944 3.99634 26.6001 3.9062 26.907 3.81728C27.1641 3.74298 27.4186 3.66624 27.6769 3.59681C27.7755 3.57123 27.8742 3.55052 27.9729 3.52494C24.3674 7.02583 21.6917 11.3707 20.1882 16.1661C17.2971 15.4036 14.4983 14.3265 11.842 12.954C11.8822 12.9114 11.9163 12.8688 11.9516 12.8322ZM10.2 14.7933C13.126 16.3786 16.2287 17.6134 19.4439 18.4719C17.8678 23.9526 17.0404 29.6213 16.9847 35.3239H2.38001C2.6454 27.804 5.39534 20.5842 10.2 14.7933ZM10.2 58.2906C5.39564 52.4996 2.6457 45.2798 2.38001 37.76H16.9847C17.0404 43.4626 17.8676 49.1313 19.4439 54.612C16.2288 55.4708 13.1261 56.7054 10.2 58.2906ZM27.6696 69.492C27.4235 69.4298 27.1689 69.3494 26.9156 69.2751C26.6074 69.185 26.298 69.0949 25.9935 68.9962C25.7365 68.9134 25.4831 68.8245 25.2298 68.7355C24.9301 68.632 24.6305 68.526 24.3345 68.4127C24.0811 68.3165 23.8314 68.2154 23.5805 68.1131C23.2894 67.9913 22.9983 67.8695 22.7096 67.7477C22.4611 67.6381 22.2138 67.5252 21.9678 67.4091C21.684 67.2751 21.4014 67.1387 21.1151 66.9973C20.8715 66.8755 20.6279 66.7537 20.3843 66.621C20.109 66.4736 19.8362 66.3225 19.5633 66.1666C19.3197 66.0314 19.0883 65.8926 18.8532 65.7513C18.5852 65.5905 18.3221 65.4248 18.059 65.2555C17.8276 65.1081 17.5961 64.9583 17.3683 64.8048C17.1089 64.6294 16.8519 64.4467 16.5973 64.264C16.3744 64.1044 16.1515 63.9449 15.9322 63.7768C15.6801 63.5868 15.4328 63.3906 15.1868 63.1933C14.9712 63.0216 14.7568 62.851 14.5461 62.6744C14.3025 62.4722 14.0674 62.2615 13.8311 62.052C13.624 61.8681 13.4157 61.6866 13.2135 61.499C12.9809 61.2822 12.7555 61.0568 12.529 60.8339C12.3329 60.6402 12.1331 60.449 11.9406 60.2505C11.9053 60.2127 11.8712 60.1737 11.8359 60.1372C14.492 58.7641 17.2908 57.6866 20.1821 56.9239C21.6859 61.7192 24.3614 66.0639 27.9668 69.565C27.8681 69.5395 27.7682 69.5188 27.6696 69.492ZM35.2399 70.5517C30.0277 69.8111 25.4588 64.3712 22.5841 56.338C26.7402 55.4074 30.9813 54.9082 35.2399 54.8483V70.5517ZM35.2399 52.4122C30.7223 52.4716 26.2239 53.0081 21.8192 54.0127C20.2897 48.7283 19.4829 43.261 19.4208 37.76H35.2399V52.4122ZM35.2399 35.3239H19.4208C19.4828 29.8229 20.2896 24.3556 21.8192 19.0712C26.2239 20.0756 30.7225 20.6122 35.2399 20.6717V35.3239ZM35.2399 18.2356C30.9812 18.1762 26.7402 17.6769 22.5841 16.7459C25.4588 8.7127 30.0277 3.2728 35.2399 2.53222V18.2356ZM62.7158 14.7933C67.5202 20.5843 70.2702 27.8041 70.5358 35.3239H55.9312C55.8755 29.6213 55.0483 23.9526 53.4719 18.4719C56.687 17.613 59.7897 16.3783 62.7158 14.7933ZM45.2366 3.59072C45.4923 3.65406 45.7469 3.73445 46.0003 3.80875C46.3085 3.89889 46.6178 3.98903 46.9224 4.08769C47.1794 4.17052 47.4327 4.25944 47.6861 4.34836C47.9857 4.45189 48.2854 4.55787 48.5814 4.67115C48.8347 4.76737 49.0844 4.86847 49.3354 4.97079C49.6265 5.0926 49.9176 5.21441 50.2063 5.33621C50.4548 5.44584 50.702 5.55866 50.9481 5.67484C51.2319 5.80882 51.5145 5.94525 51.8007 6.08654C52.0443 6.20835 52.288 6.33016 52.5316 6.46293C52.8069 6.61031 53.0797 6.76135 53.3526 6.91727C53.5962 7.05247 53.8276 7.19133 54.0627 7.33263C54.3307 7.49341 54.5938 7.65907 54.8569 7.82838C55.0883 7.97577 55.3197 8.12559 55.5475 8.27907C55.807 8.45447 56.0628 8.63596 56.3173 8.81868C56.5415 8.97824 56.7644 9.13903 56.9848 9.3059C57.2358 9.4947 57.4818 9.69081 57.7291 9.88814C57.9435 10.0587 58.1591 10.2292 58.3698 10.407C58.6134 10.6092 58.8485 10.82 59.0848 11.0295C59.2919 11.2134 59.5001 11.3949 59.7023 11.5825C59.935 11.7993 60.1603 12.0246 60.3869 12.2475C60.583 12.4412 60.7828 12.6325 60.9752 12.831C61.0106 12.8688 61.0447 12.9077 61.08 12.9443C58.4238 14.3173 55.625 15.3949 52.7338 16.1575C51.227 11.3617 48.548 7.0173 44.9393 3.51763C45.038 3.54321 45.1379 3.56392 45.2366 3.59072ZM37.676 2.53222C42.8881 3.2728 47.4571 8.7127 50.3317 16.7459C46.1757 17.6765 41.9345 18.1757 37.676 18.2356V2.53222ZM37.676 20.6717C42.1935 20.6123 46.692 20.0758 51.0967 19.0712C52.6261 24.3556 53.4329 29.8229 53.4951 35.3239H37.676V20.6717ZM37.676 37.76H53.4951C53.4331 43.261 52.6263 48.7283 51.0967 54.0127C46.692 53.0083 42.1935 52.4717 37.676 52.4122V37.76ZM37.676 70.5517V54.8483C41.9347 54.9077 46.1757 55.407 50.3317 56.338C47.4571 64.3712 42.8881 69.8111 37.676 70.5517ZM60.9643 60.2517C60.7718 60.4502 60.5733 60.6415 60.3772 60.8351C60.1506 61.058 59.924 61.2834 59.6914 61.5002C59.4892 61.689 59.2809 61.8656 59.0738 62.0544C58.8375 62.2639 58.6024 62.4734 58.3613 62.6756C58.1481 62.8535 57.9313 63.0252 57.7145 63.1982C57.4708 63.3931 57.2272 63.588 56.9763 63.7756C56.7546 63.9424 56.5293 64.1044 56.3027 64.2628C56.0506 64.4431 55.7972 64.6282 55.5402 64.7963C55.31 64.9522 55.0773 65.1032 54.8435 65.2519C54.5828 65.42 54.3202 65.5824 54.0554 65.7391C53.8118 65.8816 53.5791 66.0205 53.3391 66.1581C53.0695 66.3116 52.7983 66.4614 52.5255 66.6076C52.2819 66.7374 52.0383 66.8646 51.7946 66.9888C51.5169 67.1289 51.2368 67.2641 50.9554 67.3969C50.7118 67.5126 50.4584 67.6283 50.2075 67.7379C49.9213 67.8597 49.6313 67.9815 49.3414 68.1034C49.0893 68.2057 48.8384 68.308 48.585 68.4042C48.2878 68.5175 47.9894 68.6235 47.6897 68.727C47.4364 68.8159 47.183 68.9048 46.926 68.9877C46.6215 69.0863 46.317 69.1765 46.0064 69.2654C45.7518 69.3409 45.496 69.4164 45.239 69.4859C45.1403 69.5114 45.0417 69.5322 44.943 69.5577C48.5485 66.0568 51.2241 61.712 52.7277 56.9166C55.6188 57.6791 58.4176 58.7562 61.0739 60.1287C61.0337 60.1725 60.9996 60.2151 60.9643 60.2517ZM62.7158 58.2906C59.7899 56.7053 56.6872 55.4704 53.4719 54.612C55.0481 49.1313 55.8755 43.4626 55.9312 37.76H70.5358C70.2706 45.2798 67.5205 52.4997 62.7158 58.2906Z" fill="#1A3453"/>
</svg>
