<svg width="73" height="73" viewBox="0 0 73 73" fill="none" xmlns="http://www.w3.org/2000/svg">
<g clip-path="url(#clip0_107_72882)">
<path d="M70.7198 15.9701H38.7823C37.523 15.9701 36.501 16.9921 36.501 18.2513C36.501 19.5106 37.523 20.5326 38.7823 20.5326H64.0722L50.0562 31.4324L40.005 25.0403L37.5595 28.8911L48.9658 36.1454C49.3354 36.3827 49.7642 36.5013 50.1885 36.5013C50.6813 36.5013 51.1786 36.3416 51.5892 36.0223L68.4385 22.9142V52.4701H38.7823C37.523 52.4701 36.501 53.4921 36.501 54.7513C36.501 56.0106 37.523 57.0326 38.7823 57.0326H70.7198C71.979 57.0326 73.001 56.0106 73.001 54.7513V18.2513C73.001 16.9921 71.979 15.9701 70.7198 15.9701Z" fill="#1976D2"/>
<path d="M40.2367 2.80822C39.7166 2.37478 39.0185 2.18772 38.3615 2.32459L1.8615 9.16834C0.780188 9.36909 0 10.309 0 11.4085V61.596C0 62.691 0.780188 63.6355 1.8615 63.8362L38.3615 70.68C38.4984 70.7073 38.6398 70.721 38.7813 70.721C39.3105 70.721 39.8261 70.5385 40.2367 70.1963C40.7614 69.7629 41.0625 69.115 41.0625 68.4398V4.56478C41.0625 3.88497 40.7614 3.24166 40.2367 2.80822Z" fill="#2196F3"/>
<path d="M20.53 52.4703C14.2429 52.4703 9.12379 46.3292 9.12379 38.7828C9.12379 31.2364 14.2429 25.0953 20.53 25.0953C26.8172 25.0953 31.9363 31.2364 31.9363 38.7828C31.9363 46.3292 26.8172 52.4703 20.53 52.4703ZM20.53 29.6578C16.7569 29.6578 13.6863 33.7504 13.6863 38.7828C13.6863 43.8152 16.7569 47.9078 20.53 47.9078C24.3032 47.9078 27.3738 43.8152 27.3738 38.7828C27.3738 33.7504 24.3032 29.6578 20.53 29.6578Z" fill="#FAFAFA"/>
</g>
<defs>
<clipPath id="clip0_107_72882">
<rect width="72.6503" height="72.6503" fill="white" transform="scale(1.00481)"/>
</clipPath>
</defs>
</svg>
