<svg width="73" height="73" viewBox="0 0 73 73" fill="none" xmlns="http://www.w3.org/2000/svg">
<g clip-path="url(#clip0_107_72816)">
<path d="M24.9665 0.000490632C10.2534 0.000490632 0 5.10971 0 9.6953C0 14.2809 10.2534 19.3901 24.9665 19.3901C39.6796 19.3901 49.9329 14.2807 49.9329 9.6953C49.9329 5.10987 39.6797 0.000490632 24.9665 0.000490632Z" fill="#FFE492"/>
<path d="M0 54.2382V63.3058C0 67.8914 10.2534 73.0006 24.9665 73.0006C31.5607 73.0006 37.7848 71.9621 42.4926 70.0759C45.5609 68.8468 47.8319 67.3222 49.014 65.7379C46.7874 63.9959 44.2166 61.4911 41.9769 58.0353C37.0467 59.6139 31.2195 60.4421 24.9666 60.4421C17.099 60.4421 9.73911 59.0868 4.24274 56.6256C2.63954 55.9077 1.2215 55.1077 0 54.2382H0Z" fill="#FFE492"/>
<path d="M0.000155983 36.4088L0 45.3527C0 49.9381 10.2534 55.0474 24.9665 55.0474C30.1846 55.0474 35.1911 54.393 39.3855 53.1823C37.8645 49.6658 36.8812 45.784 36.4474 41.5834C32.8597 42.2582 28.9498 42.6104 24.9665 42.6104C17.0482 42.6104 9.65363 41.2396 4.14525 38.7506C2.58167 38.044 1.19623 37.2594 0.000155983 36.4088Z" fill="#FFE492"/>
<path d="M0 18.5724V27.5224C0 32.1078 10.2534 37.2171 24.9665 37.2171C28.9016 37.2171 32.7379 36.8464 36.1912 36.1377C36.196 35.2901 36.4488 33.0844 38.491 32.5238C41.709 31.6403 43.961 29.5196 44.1602 26.6105C44.2422 25.4128 45.7409 23.7346 46.8573 23.7513H49.9331V18.5724C48.7369 19.4229 47.352 20.2077 45.7886 20.9151C40.2732 23.4102 32.8784 24.7844 24.9666 24.7844C17.0549 24.7844 9.66018 23.4102 4.14478 20.9151C2.58105 20.2077 1.19623 19.4229 0 18.5724H0Z" fill="#FFE492"/>
<path d="M65.353 29.1455H49.2608C48.3611 32.8864 45.4846 35.9554 41.5938 37.2936C41.8964 55.2505 52.218 62.0977 56.7686 64.2445C57.0288 64.3671 57.337 64.354 57.5936 64.2097C62.1619 61.6354 72.5198 53.9727 73.0019 37.2873C69.1206 35.946 66.2515 32.8808 65.353 29.1455ZM56.3428 52.53C55.2507 53.6532 53.371 53.5916 52.3549 52.3993L47.2271 46.3824L51.334 42.884L54.5396 46.6457L63.4829 37.4472L67.3518 41.2069L56.3428 52.53Z" fill="#FFE492"/>
</g>
<defs>
<clipPath id="clip0_107_72816">
<rect width="72.6503" height="72.6503" fill="white" transform="scale(1.00481)"/>
</clipPath>
</defs>
</svg>
