<svg width="73" height="73" viewBox="0 0 73 73" fill="none" xmlns="http://www.w3.org/2000/svg">
<g clip-path="url(#clip0_107_72843)">
<path d="M26.7232 38.6387C22.5117 38.6387 19.0856 42.0649 19.0856 46.2763V65.3623C19.0856 69.5738 22.5117 72.9999 26.7232 72.9999C30.9347 73 34.3608 69.5739 34.3608 65.3624V46.2763C34.3608 42.0649 30.9347 38.6387 26.7232 38.6387Z" fill="#FF4340"/>
<path d="M14.8118 38.6387H7.41765C3.34049 38.6387 0.0235503 41.9558 0.0235503 46.0328C0.0235503 50.11 3.34063 53.4269 7.41765 53.4269C11.4947 53.4269 14.8118 50.1098 14.8118 46.0328V38.6387Z" fill="#FF4340"/>
<path d="M0 26.7241C0 30.9355 3.42615 34.3617 7.63762 34.3617H26.7236C30.9352 34.3617 34.3613 30.9355 34.3613 26.7241C34.3613 22.5126 30.9352 19.0864 26.7237 19.0864H7.63762C3.42615 19.0863 0 22.5126 0 26.7241H0Z" fill="#36C6FF"/>
<path d="M26.9683 14.8083H34.3624V7.41422C34.3624 3.33705 31.0454 0.0201159 26.9683 0.0201159C22.8912 0.0201159 19.5742 3.3372 19.5742 7.41422C19.5742 11.4912 22.8912 14.8083 26.9683 14.8083Z" fill="#36C6FF"/>
<path d="M46.2756 34.3613C50.4871 34.3613 53.9133 30.9352 53.9133 26.7237V7.63762C53.9134 3.42615 50.4871 0 46.2756 0C42.0642 0 38.638 3.42615 38.638 7.63762V26.7236C38.638 30.9352 42.0642 34.3613 46.2756 34.3613Z" fill="#0DC46E"/>
<path d="M58.1909 34.362H65.585C69.6622 34.362 72.9791 31.0449 72.9791 26.9679C72.9791 22.8907 69.662 19.5738 65.585 19.5738C61.508 19.5738 58.1909 22.8908 58.1909 26.9679V34.362Z" fill="#0DC46E"/>
<path d="M72.9997 46.2767C72.9997 42.0652 69.5735 38.6391 65.3621 38.6391H46.276C42.0645 38.6391 38.6384 42.0652 38.6384 46.2767C38.6384 50.4882 42.0645 53.9143 46.276 53.9143H65.3619C69.5735 53.9145 72.9997 50.4882 72.9997 46.2767Z" fill="#FDCB02"/>
<path d="M46.0325 58.1911H38.6384V65.5852C38.6384 69.6624 41.9555 72.9793 46.0325 72.9793C50.1096 72.9793 53.4266 69.6623 53.4266 65.5852C53.4266 61.5082 50.1096 58.1911 46.0325 58.1911Z" fill="#FDCB02"/>
</g>
<defs>
<clipPath id="clip0_107_72843">
<rect width="72.6503" height="72.6503" fill="white" transform="scale(1.00481)"/>
</clipPath>
</defs>
</svg>
