<svg width="15" height="15" viewBox="0 0 15 15" fill="none" xmlns="http://www.w3.org/2000/svg">
<path d="M14.9962 14.9996V14.999H15V9.48048C15 6.78078 14.4246 4.70115 11.3003 4.70115C9.79835 4.70115 8.79042 5.53376 8.37893 6.3231H8.33549V4.95319H5.37315V14.999H8.45775V10.0247C8.45775 8.71496 8.70353 7.4485 10.3091 7.4485C11.8912 7.4485 11.9147 8.94317 11.9147 10.1087V14.9996H14.9962Z" fill="#F7F7EE"/>
<path d="M0.223876 4.92576H3.35819V14.7765H0.223876V4.92576Z" fill="#F7F7EE"/>
<path d="M1.79104 0C0.8023 0 0 0.79856 0 1.78269C0 2.76681 0.8023 3.58207 1.79104 3.58207C2.77977 3.58207 3.58207 2.76681 3.58207 1.78269C3.58145 0.79856 2.77915 0 1.79104 0V0Z" fill="#F7F7EE"/>
</svg>
