<svg width="73" height="73" viewBox="0 0 73 73" fill="none" xmlns="http://www.w3.org/2000/svg">
<g clip-path="url(#clip0_107_72831)">
<path d="M63.8738 9.12526H9.12379V63.8753H63.8738V9.12526Z" fill="#ECEFF1"/>
<path d="M36.501 42.2587L63.876 63.8759V21.1982L36.501 42.2587Z" fill="#CFD8DC"/>
<path d="M66.1564 9.12526H63.8751L36.5001 30.7424L9.12512 9.12526H6.84387C3.06612 9.12526 0.000122658 12.1913 0.000122658 15.969V57.0315C0.000122658 60.8093 3.06612 63.8753 6.84387 63.8753H9.12512V21.1976L36.5001 42.2536L63.8751 21.1931V63.8753H66.1564C69.9341 63.8753 73.0001 60.8093 73.0001 57.0315V15.969C73.0001 12.1913 69.9341 9.12526 66.1564 9.12526Z" fill="#F44336"/>
</g>
<defs>
<clipPath id="clip0_107_72831">
<rect width="72.6503" height="72.6503" fill="white" transform="scale(1.00481)"/>
</clipPath>
</defs>
</svg>
