<svg width="73" height="60" viewBox="0 0 73 60" fill="none" xmlns="http://www.w3.org/2000/svg">
<path d="M73 7.02169C70.2853 8.2125 67.3927 9.00181 64.3769 9.38506C67.4794 7.53269 69.8473 4.62181 70.9606 1.11325C68.0679 2.83787 64.8742 4.05606 61.4706 4.73588C58.7239 1.81131 54.8093 0 50.5388 0C42.2533 0 35.5829 6.72513 35.5829 14.9696C35.5829 16.1558 35.6833 17.2964 35.9297 18.3823C23.4877 17.7755 12.4784 11.8123 5.08262 2.72838C3.79144 4.96856 3.03406 7.53269 3.03406 10.293C3.03406 15.476 5.70312 20.0704 9.68162 22.7304C7.27719 22.6847 4.91837 21.9867 2.92 20.8871C2.92 20.9327 2.92 20.9921 2.92 21.0514C2.92 28.324 8.10756 34.3648 14.9102 35.7563C13.6921 36.0894 12.3644 36.2491 10.9865 36.2491C10.0284 36.2491 9.06112 36.1943 8.15319 35.9936C10.0922 41.9203 15.5946 46.2774 22.1372 46.4189C17.0455 50.4019 10.5804 52.8018 3.58156 52.8018C2.35425 52.8018 1.17712 52.7471 0 52.5965C6.62931 56.8716 14.4859 59.3125 22.9585 59.3125C50.4977 59.3125 65.554 36.5 65.554 16.7261C65.554 16.0646 65.5312 15.4258 65.4992 14.7916C68.4694 12.6838 70.9651 10.0512 73 7.02169Z" fill="#1A3453"/>
</svg>
