<svg width="73" height="73" viewBox="0 0 73 73" fill="none" xmlns="http://www.w3.org/2000/svg">
<g clip-path="url(#clip0_107_72862)">
<path d="M66.498 21.6719H6.6152C5.43308 21.6719 4.47652 20.7153 4.47652 19.5332V6.41601C4.47652 2.87808 7.35461 0 10.8925 0H62.2207C65.7586 0 68.6367 2.87808 68.6367 6.41601V19.5332C68.6367 20.7153 67.6801 21.6719 66.498 21.6719Z" fill="#E3E7EA"/>
<path d="M62.222 0H36.558V21.6719H66.4994C67.6815 21.6719 68.638 20.7153 68.638 19.5332V6.41601C68.638 2.87808 65.7599 0 62.222 0Z" fill="#BABAC0"/>
<path d="M4.39232 45.1973C4.39304 45.1942 4.39332 45.1926 4.39332 45.1926L0.138504 24.923C-0.16091 22.9982 0.352371 21.0732 1.55017 19.6617C2.79046 18.2076 4.5868 17.3949 6.46883 17.3949H66.5229C68.4049 17.3949 70.2014 18.2076 71.4417 19.6617C72.6395 21.0734 73.1528 22.9982 72.8533 24.8374L68.5985 45.2027L72.8533 65.4722C73.1528 67.397 72.6395 69.322 71.4417 70.7332C70.2014 72.1876 68.4051 73.0003 66.523 73.0003H6.46883C4.5868 73.0003 2.79031 72.1876 1.55003 70.7332C0.352371 69.3218 -0.16091 67.397 0.138504 65.5577C0.138504 65.5577 4.31847 45.5505 4.39232 45.1973Z" fill="#4086F4"/>
<path d="M4.39528 45.1921C4.39528 45.1921 4.395 45.1937 4.39428 45.1968H68.6016L72.8553 24.8369C73.1547 22.9977 72.6414 21.0729 71.4436 19.6612C70.2034 18.2071 68.407 17.3944 66.525 17.3944H6.47079C4.58876 17.3944 2.79228 18.2071 1.55199 19.6612C0.354334 21.0729 -0.158948 22.9977 0.140466 24.9225L4.39528 45.1921Z" fill="#4175DF"/>
<path d="M15.1149 12.832C16.2961 12.832 17.2536 11.8745 17.2536 10.6933C17.2536 9.51217 16.2961 8.55466 15.1149 8.55466C13.9337 8.55466 12.9762 9.51217 12.9762 10.6933C12.9762 11.8745 13.9337 12.832 15.1149 12.832Z" fill="#FFF5F5"/>
<path d="M57.8862 12.832C59.0674 12.832 60.0249 11.8745 60.0249 10.6933C60.0249 9.51217 59.0674 8.55466 57.8862 8.55466C56.7051 8.55466 55.7475 9.51217 55.7475 10.6933C55.7475 11.8745 56.7051 12.832 57.8862 12.832Z" fill="#E3E7EA"/>
<path d="M27.9402 60.1683C24.3229 60.1683 21.0794 57.8772 19.8743 54.4644C19.4795 53.3512 20.0622 52.1294 21.1776 51.7368C22.2866 51.34 23.5126 51.9268 23.9053 53.0401C24.5088 54.7443 26.1315 55.8909 27.9402 55.8909C30.2982 55.8909 32.2176 53.9715 32.2176 51.6136C32.2176 49.2556 30.2982 47.3362 27.9402 47.3362H25.2816C24.1016 47.3362 23.1429 46.3797 23.1429 45.1975C23.1429 44.0154 24.1016 43.0589 25.2816 43.0589H27.9402C30.2982 43.0589 32.2176 41.1395 32.2176 38.7815C32.2176 36.4236 30.2982 34.5042 27.9402 34.5042C26.1315 34.5042 24.5088 35.6508 23.9051 37.355C23.5125 38.4703 22.2844 39.0551 21.1775 38.6583C20.0622 38.2657 19.4795 37.0439 19.8741 35.9307C21.0794 32.5179 24.3229 30.2268 27.9402 30.2268C32.6583 30.2268 36.4949 34.0635 36.4949 38.7815C36.4949 41.3337 35.3712 43.629 33.5919 45.1975C35.3712 46.766 36.4949 49.0614 36.4949 51.6136C36.4949 56.3316 32.6583 60.1683 27.9402 60.1683Z" fill="#FFF5F5"/>
<path d="M21.1774 38.658C22.2844 39.0548 23.5124 38.4701 23.9051 37.3547C24.5087 35.6504 26.1316 34.5038 27.9402 34.5038C30.2981 34.5038 32.2175 36.4232 32.2175 38.7812C32.2175 41.1391 30.2981 43.0585 27.9402 43.0585H25.2815C24.1015 43.0585 23.143 44.0149 23.1428 45.1969H33.5921C35.3713 43.6284 36.4948 41.3332 36.4948 38.7812C36.4948 34.0631 32.6582 30.2265 27.9402 30.2265C24.3228 30.2265 21.0793 32.5176 19.8742 35.9303C19.4794 37.0436 20.0621 38.2653 21.1774 38.658Z" fill="#E3E7EA"/>
<path d="M49.3308 60.168C48.1487 60.168 47.1921 59.2114 47.1921 58.0293V36.3606L44.101 38.422C43.1152 39.0736 41.789 38.8105 41.1353 37.8288C40.4794 36.8452 40.7447 35.5189 41.7284 34.8631L48.1444 30.5857C48.8003 30.1492 49.646 30.1075 50.3395 30.4792C51.035 30.8511 51.4695 31.5758 51.4695 32.3653V58.0293C51.4695 59.2114 50.5129 60.168 49.3308 60.168Z" fill="#FFF5F5"/>
<path d="M44.1031 38.4229L47.1942 36.3615V45.1978H51.4716V32.3662C51.4716 31.5767 51.0371 30.852 50.3416 30.4802C49.6483 30.1085 48.8024 30.1502 48.1465 30.5867L41.7305 34.864C40.7468 35.5199 40.4815 36.846 41.1373 37.8298C41.7912 38.8115 43.1173 39.0747 44.1031 38.4229Z" fill="#E3E7EA"/>
</g>
<defs>
<clipPath id="clip0_107_72862">
<rect width="72.6503" height="72.6503" fill="white" transform="scale(1.00481)"/>
</clipPath>
</defs>
</svg>
