<svg width="79" height="62" viewBox="0 0 79 62" fill="none" xmlns="http://www.w3.org/2000/svg">
<g clip-path="url(#clip0_107_72563)">
<path d="M0 5.05012V19.4686C0 23.86 5.35089 26.2021 8.62089 23.1281L24.2277 8.70964C27.6463 5.56246 25.4167 0 20.7347 0H5.12794C2.30386 0 0 2.2689 0 5.05012Z" fill="#043873"/>
<path d="M73.8711 0H58.2644C53.6567 0 51.3528 5.56246 54.7714 8.70963L70.3782 23.1281C73.6482 26.1289 78.9991 23.86 78.9991 19.4686V5.05012C78.9991 2.2689 76.6952 0 73.8711 0Z" fill="#043873"/>
<path d="M43.0301 35.2044L70.3791 60.5282C73.6491 63.529 79 61.2601 79 56.8687V42.3039C79 40.9133 78.4054 39.5958 77.365 38.6444L43.0301 6.80663C41.0235 4.97687 37.9765 4.97687 35.9699 6.80663L1.635 38.6444C0.594544 39.5958 0 40.9133 0 42.3039V56.8687C0 61.2601 5.35089 63.6022 8.62088 60.5282L35.9699 35.2044C37.9765 33.3747 41.0235 33.3747 43.0301 35.2044Z" fill="#043873"/>
</g>
<defs>
<clipPath id="clip0_107_72563">
<rect width="78.7607" height="61.7313" fill="white" transform="scale(1.00304)"/>
</clipPath>
</defs>
</svg>
