<svg width="49" height="90" viewBox="0 0 49 90" fill="none" xmlns="http://www.w3.org/2000/svg">
<path d="M13.5169 50.801C13.179 50.801 5.74468 50.801 2.36546 50.801C0.563204 50.801 0 50.1251 0 48.4355C0 43.9299 0 39.3116 0 34.806C0 33.0037 0.675845 32.4405 2.36546 32.4405H13.5169C13.5169 32.1026 13.5169 25.5694 13.5169 22.5281C13.5169 18.0225 14.3054 13.7422 16.5582 9.79974C18.9236 5.74468 22.3029 3.0413 26.5832 1.46433C29.3992 0.450562 32.2152 0 35.2565 0H46.2953C47.8723 0 48.5482 0.675844 48.5482 2.25281V15.0939C48.5482 16.6708 47.8723 17.3467 46.2953 17.3467C43.254 17.3467 40.2127 17.3467 37.1714 17.4593C34.1301 17.4593 32.5532 18.9236 32.5532 22.0776C32.4405 25.4568 32.5532 28.7234 32.5532 32.2152H45.6195C47.4217 32.2152 48.0976 32.8911 48.0976 34.6933V48.3229C48.0976 50.1251 47.5344 50.6883 45.6195 50.6883C41.5644 50.6883 32.8911 50.6883 32.5532 50.6883V87.4092C32.5532 89.3241 31.99 89.9999 29.9624 89.9999C25.2315 89.9999 20.6133 89.9999 15.8823 89.9999C14.1927 89.9999 13.5169 89.3241 13.5169 87.6345C13.5169 75.8072 13.5169 51.1389 13.5169 50.801Z" fill="#1A3453"/>
</svg>
