<svg width="596" height="96" viewBox="0 0 596 96" fill="none" xmlns="http://www.w3.org/2000/svg">
<g clip-path="url(#clip0_9_23774)">
<path d="M2.45561 7.38057V28.4526C2.45561 34.8705 10.2757 38.2934 15.0547 33.8008L37.8634 12.7288C42.8596 8.12932 39.6012 0 32.7586 0H9.9499C5.82261 0 2.45561 3.31591 2.45561 7.38057Z" fill="#4F9CF9"/>
<path d="M110.417 0H87.6081C80.8741 0 77.5071 8.12932 82.5033 12.7288L105.312 33.8008C110.091 38.1864 117.911 34.8705 117.911 28.4526V7.38057C117.911 3.31591 114.544 0 110.417 0Z" fill="#4F9CF9"/>
<path d="M65.3425 51.45L105.312 88.4598C110.091 92.8454 117.911 89.5295 117.911 83.1116V61.8256C117.911 59.7933 117.042 57.8679 115.522 56.4774L65.3425 9.94772C62.4099 7.2736 57.9568 7.2736 55.0242 9.94772L4.8451 56.4774C3.32451 57.8679 2.45561 59.7933 2.45561 61.8256V83.1116C2.45561 89.5295 10.2757 92.9523 15.0547 88.4598L55.0242 51.45C57.9568 48.7759 62.4099 48.7759 65.3425 51.45Z" fill="#4F9CF9"/>
</g>
<path d="M163.791 77.2745L150.822 29.6172H164.194L171.579 61.637H172.013L179.708 29.6172H192.832L200.651 61.4508H201.054L208.315 29.6172H221.656L208.718 77.2745H194.725L186.534 47.3025H185.944L177.753 77.2745H163.791Z" fill="#4F9CF9"/>
<path d="M241.924 49.7226V77.2745H228.707V13.7315H241.552V38.0255H242.111C243.186 35.2124 244.924 33.0095 247.323 31.4168C249.723 29.8034 252.732 28.9967 256.352 28.9967C259.662 28.9967 262.547 29.7206 265.008 31.1686C267.491 32.5958 269.414 34.6539 270.779 37.3429C272.165 40.0112 272.848 43.207 272.827 46.9302V77.2745H259.61V49.2883C259.63 46.3511 258.886 44.0654 257.376 42.4313C255.887 40.7972 253.797 39.9802 251.108 39.9802C249.309 39.9802 247.716 40.3629 246.33 41.1282C244.965 41.8935 243.89 43.0105 243.104 44.4791C242.338 45.927 241.945 47.6749 241.924 49.7226Z" fill="#4F9CF9"/>
<path d="M283.229 77.2745V29.6172H296.446V77.2745H283.229ZM289.869 23.4739C287.904 23.4739 286.218 22.8223 284.811 21.5192C283.426 20.1954 282.733 18.613 282.733 16.7721C282.733 14.9518 283.426 13.3902 284.811 12.087C286.218 10.7632 287.904 10.1013 289.869 10.1013C291.834 10.1013 293.509 10.7632 294.895 12.087C296.302 13.3902 297.005 14.9518 297.005 16.7721C297.005 18.613 296.302 20.1954 294.895 21.5192C293.509 22.8223 291.834 23.4739 289.869 23.4739Z" fill="#4F9CF9"/>
<path d="M332.383 29.6172V39.5458H303.684V29.6172H332.383ZM310.199 18.1993H323.417V62.6298C323.417 63.8502 323.603 64.8017 323.975 65.4843C324.347 66.1462 324.865 66.6116 325.526 66.8805C326.209 67.1494 326.995 67.2839 327.885 67.2839C328.505 67.2839 329.126 67.2322 329.746 67.1287C330.367 67.0046 330.842 66.9115 331.173 66.8495L333.252 76.685C332.59 76.8919 331.659 77.1297 330.46 77.3986C329.26 77.6882 327.802 77.864 326.085 77.9261C322.9 78.0502 320.107 77.6262 317.708 76.654C315.329 75.6818 313.478 74.1718 312.154 72.1241C310.83 70.0763 310.178 67.4907 310.199 64.3673V18.1993Z" fill="#4F9CF9"/>
<path d="M362.2 78.2053C357.298 78.2053 353.078 77.2125 349.541 75.2268C346.025 73.2203 343.315 70.3866 341.412 66.7254C339.509 63.0435 338.558 58.6894 338.558 53.6631C338.558 48.7608 339.509 44.4584 341.412 40.7559C343.315 37.0533 345.994 34.1678 349.448 32.0994C352.923 30.0309 356.998 28.9967 361.673 28.9967C364.817 28.9967 367.744 29.5035 370.453 30.517C373.184 31.5099 375.562 33.0095 377.59 35.0159C379.637 37.0223 381.23 39.5458 382.368 42.5865C383.505 45.6064 384.074 49.1435 384.074 53.1977V56.8278H343.832V48.6367H371.632C371.632 46.7337 371.219 45.0479 370.391 43.5793C369.564 42.1107 368.416 40.9627 366.947 40.1353C365.499 39.2873 363.814 38.8632 361.89 38.8632C359.884 38.8632 358.105 39.3286 356.553 40.2594C355.023 41.1696 353.823 42.4003 352.954 43.9516C352.085 45.4823 351.641 47.1888 351.62 49.0711V56.8588C351.62 59.2169 352.054 61.2543 352.923 62.9711C353.813 64.6879 355.064 66.0118 356.677 66.9426C358.291 67.8734 360.204 68.3388 362.417 68.3388C363.886 68.3388 365.231 68.1319 366.451 67.7182C367.671 67.3046 368.716 66.684 369.585 65.8566C370.453 65.0292 371.115 64.0157 371.57 62.816L383.795 63.6227C383.174 66.5599 381.902 69.1248 379.979 71.3174C378.076 73.4892 375.614 75.1854 372.594 76.4058C369.595 77.6055 366.13 78.2053 362.2 78.2053Z" fill="#4F9CF9"/>
<path d="M392.7 95.146V29.6172H405.731V37.6222H406.32C406.9 36.3397 407.737 35.0366 408.834 33.7128C409.951 32.3683 411.399 31.2513 413.177 30.3619C414.977 29.4517 417.211 28.9967 419.879 28.9967C423.354 28.9967 426.56 29.9068 429.498 31.7271C432.435 33.5266 434.782 36.2466 436.541 39.8871C438.299 43.5069 439.178 48.0472 439.178 53.5079C439.178 58.8239 438.32 63.3124 436.603 66.9736C434.907 70.6141 432.59 73.3755 429.653 75.2578C426.736 77.1194 423.468 78.0502 419.848 78.0502C417.283 78.0502 415.101 77.6262 413.302 76.7781C411.523 75.93 410.064 74.8648 408.927 73.5823C407.789 72.2792 406.92 70.9657 406.32 69.6419H405.917V95.146H392.7ZM405.638 53.4459C405.638 56.2797 406.031 58.7515 406.817 60.8613C407.603 62.9711 408.741 64.6156 410.23 65.7946C411.719 66.9529 413.529 67.5321 415.66 67.5321C417.811 67.5321 419.631 66.9426 421.12 65.7636C422.61 64.5638 423.737 62.9091 424.502 60.7992C425.288 58.6687 425.681 56.2176 425.681 53.4459C425.681 50.6948 425.299 48.2747 424.533 46.1856C423.768 44.0964 422.641 42.4624 421.151 41.2833C419.662 40.1043 417.831 39.5148 415.66 39.5148C413.508 39.5148 411.688 40.0836 410.199 41.2213C408.73 42.3589 407.603 43.9723 406.817 46.0615C406.031 48.1506 405.638 50.6121 405.638 53.4459Z" fill="#4F9CF9"/>
<path d="M461.579 78.1743C458.539 78.1743 455.829 77.6468 453.45 76.5919C451.072 75.5163 449.189 73.934 447.803 71.8448C446.438 69.735 445.756 67.108 445.756 63.964C445.756 61.3164 446.242 59.0928 447.214 57.2932C448.186 55.4936 449.51 54.0457 451.185 52.9494C452.861 51.8532 454.764 51.0258 456.894 50.4673C459.045 49.9088 461.3 49.5158 463.658 49.2883C466.43 48.9987 468.664 48.7298 470.36 48.4816C472.056 48.2127 473.287 47.8197 474.052 47.3025C474.817 46.7854 475.2 46.0201 475.2 45.0066V44.8204C475.2 42.8554 474.58 41.335 473.339 40.2594C472.118 39.1838 470.381 38.646 468.126 38.646C465.747 38.646 463.855 39.1735 462.448 40.2284C461.042 41.2626 460.111 42.5658 459.656 44.1378L447.431 43.1449C448.052 40.2491 449.272 37.7463 451.092 35.6364C452.913 33.5059 455.26 31.8718 458.135 30.7342C461.031 29.5758 464.382 28.9967 468.188 28.9967C470.836 28.9967 473.37 29.3069 475.79 29.9275C478.23 30.548 480.392 31.5099 482.274 32.813C484.177 34.1161 485.677 35.7916 486.773 37.8393C487.869 39.8664 488.418 42.2969 488.418 45.1307V77.2745H475.883V70.6658H475.51C474.745 72.1551 473.721 73.4686 472.439 74.6062C471.156 75.7232 469.615 76.6023 467.816 77.2435C466.016 77.864 463.937 78.1743 461.579 78.1743ZM465.365 69.0524C467.309 69.0524 469.026 68.6697 470.515 67.9044C472.004 67.1184 473.173 66.0635 474.021 64.7397C474.869 63.4158 475.293 61.9162 475.293 60.2408V55.1834C474.88 55.4523 474.311 55.7005 473.587 55.928C472.883 56.1349 472.087 56.3314 471.198 56.5175C470.308 56.683 469.419 56.8381 468.529 56.9829C467.64 57.107 466.833 57.2208 466.109 57.3242C464.558 57.5518 463.203 57.9137 462.045 58.4102C460.886 58.9066 459.987 59.5789 459.345 60.4269C458.704 61.2543 458.384 62.2885 458.384 63.5296C458.384 65.3292 459.035 66.7047 460.338 67.6562C461.662 68.587 463.338 69.0524 465.365 69.0524Z" fill="#4F9CF9"/>
<path d="M520.205 78.2053C515.323 78.2053 511.124 77.1711 507.608 75.1026C504.112 73.0135 501.423 70.1177 499.541 66.4151C497.679 62.7126 496.748 58.4515 496.748 53.632C496.748 48.7505 497.689 44.4688 499.572 40.7869C501.475 37.0844 504.174 34.1989 507.67 32.1304C511.166 30.0413 515.323 28.9967 520.143 28.9967C524.3 28.9967 527.941 29.7517 531.064 31.2616C534.187 32.7716 536.659 34.8918 538.48 37.6222C540.3 40.3525 541.303 43.5586 541.489 47.2405H529.016C528.665 44.8618 527.734 42.9484 526.224 41.5005C524.735 40.0319 522.78 39.2976 520.36 39.2976C518.312 39.2976 516.523 39.8561 514.992 40.9731C513.482 42.0693 512.303 43.6724 511.455 45.7822C510.607 47.8921 510.183 50.4466 510.183 53.4459C510.183 56.4865 510.597 59.0721 511.424 61.2026C512.272 63.3331 513.462 64.9569 514.992 66.0738C516.523 67.1908 518.312 67.7493 520.36 67.7493C521.87 67.7493 523.225 67.439 524.424 66.8185C525.645 66.1979 526.648 65.2981 527.434 64.1191C528.241 62.9194 528.768 61.4818 529.016 59.8064H541.489C541.282 63.4469 540.289 66.653 538.511 69.4247C536.752 72.1758 534.322 74.327 531.219 75.8783C528.117 77.4297 524.445 78.2053 520.205 78.2053Z" fill="#4F9CF9"/>
<path d="M571.671 78.2053C566.768 78.2053 562.549 77.2125 559.012 75.2268C555.495 73.2203 552.785 70.3866 550.882 66.7254C548.98 63.0435 548.028 58.6894 548.028 53.6631C548.028 48.7608 548.98 44.4584 550.882 40.7559C552.785 37.0533 555.464 34.1678 558.918 32.0994C562.393 30.0309 566.468 28.9967 571.143 28.9967C574.287 28.9967 577.214 29.5035 579.924 30.517C582.654 31.5099 585.033 33.0095 587.06 35.0159C589.108 37.0223 590.7 39.5458 591.838 42.5865C592.976 45.6064 593.544 49.1435 593.544 53.1977V56.8278H553.303V48.6367H581.103C581.103 46.7337 580.689 45.0479 579.862 43.5793C579.034 42.1107 577.886 40.9627 576.418 40.1353C574.97 39.2873 573.284 38.8632 571.36 38.8632C569.354 38.8632 567.575 39.3286 566.024 40.2594C564.493 41.1696 563.293 42.4003 562.425 43.9516C561.556 45.4823 561.111 47.1888 561.09 49.0711V56.8588C561.09 59.2169 561.525 61.2543 562.393 62.9711C563.283 64.6879 564.534 66.0118 566.148 66.9426C567.761 67.8734 569.674 68.3388 571.888 68.3388C573.356 68.3388 574.701 68.1319 575.921 67.7182C577.142 67.3046 578.186 66.684 579.055 65.8566C579.924 65.0292 580.586 64.0157 581.041 62.816L593.265 63.6227C592.645 66.5599 591.373 69.1248 589.449 71.3174C587.546 73.4892 585.084 75.1854 582.065 76.4058C579.065 77.6055 575.601 78.2053 571.671 78.2053Z" fill="#4F9CF9"/>
<defs>
<clipPath id="clip0_9_23774">
<rect width="115.353" height="90.4118" fill="white" transform="translate(2.45561) scale(1.00089)"/>
</clipPath>
</defs>
</svg>
