<svg width="679" height="67" viewBox="0 0 679 67" fill="none" xmlns="http://www.w3.org/2000/svg">
<path d="M454.079 51.7491C453.418 51.7748 452.749 51.7929 452.101 51.8309C451.68 51.8547 451.499 51.7874 451.218 51.7525C451.124 51.7404 451.023 51.7159 450.936 51.7192C450.281 51.7449 449.626 51.7737 448.971 51.8025C448.772 51.8628 448.646 51.943 448.338 51.9728C448.038 52.001 447.683 52.0016 447.349 52.016C446.908 52.0337 446.467 52.0514 446.026 52.0675C445.805 52.0756 445.625 52.1051 445.552 52.1606C445.539 52.1699 445.686 52.1926 445.767 52.2064C446.035 52.252 446.296 52.3038 446.591 52.3387C446.872 52.372 447.219 52.3161 447.521 52.3586C448.197 52.4543 448.204 52.4528 448.718 52.4334C449.16 52.4157 449.601 52.3965 450.042 52.3835C450.129 52.3802 450.229 52.4031 450.323 52.4153C450.604 52.4486 450.786 52.5252 451.2 52.4952C451.514 52.4716 451.861 52.4664 452.189 52.4535C452.464 52.4977 452.718 52.5479 453.013 52.5828C453.288 52.6162 453.368 52.6422 453.222 52.687C453.088 52.7288 452.901 52.746 452.654 52.7495C452.433 52.7514 452.213 52.7656 451.992 52.7737C451.879 52.7785 451.772 52.7818 451.665 52.7866C451.244 52.8042 451.244 52.8042 450.474 52.7072C450.172 52.6692 449.832 52.7236 449.544 52.6872C449.35 52.663 449.182 52.6264 448.995 52.6006C448.914 52.5899 448.787 52.5886 448.687 52.5919C448.353 52.6032 448.019 52.6115 447.698 52.632C447.471 52.6462 447.337 52.6895 447.365 52.7325C447.372 52.7494 447.532 52.7738 447.626 52.7751C447.84 52.7779 448.067 52.7559 448.274 52.7663C448.475 52.7767 448.683 52.8071 448.83 52.8407C449.132 52.9109 449.472 52.8473 449.76 52.8652C450.061 52.8847 450.309 52.9458 450.597 52.9822C450.671 52.9913 450.811 52.9757 450.925 52.9708C451.252 52.9595 451.58 52.9497 451.907 52.9384C452.182 52.9825 452.477 53.022 452.725 53.0723C453.174 53.1638 453.656 53.1983 454.237 53.1527C454.564 53.1275 454.885 53.1362 455.147 53.1957C455.415 53.2567 455.723 53.2501 456.063 53.2372C456.377 53.2243 456.698 53.1899 457.019 53.2324C457.716 53.3266 457.723 53.3312 458.545 53.2928C458.792 53.2816 458.979 53.2782 459.167 53.3133C459.341 53.3453 459.529 53.3726 459.71 53.4031C460.037 53.3917 460.371 53.3804 460.699 53.3675C461.12 53.3499 461.354 53.371 461.455 53.4569C461.516 53.5091 461.543 53.5567 461.691 53.5918C461.865 53.6346 462.053 53.6327 462.306 53.62C462.547 53.6088 462.721 53.5916 462.82 53.5361C462.86 53.5129 462.94 53.4912 463.013 53.4727C463.073 53.4587 463.167 53.437 463.22 53.44C463.321 53.446 463.455 53.4627 463.488 53.4826C463.818 53.6681 463.818 53.6696 464.153 53.7229C464.522 53.7822 464.904 53.8353 465.239 53.9024C465.54 53.9619 465.841 53.9352 466.168 53.9346C466.416 53.9342 466.577 53.9739 466.557 54.0139C466.544 54.037 466.451 54.071 466.371 54.0742C465.716 54.1061 465.054 54.1334 464.393 54.1561C464.312 54.1593 464.212 54.1318 464.118 54.1181C463.93 54.0907 463.763 54.048 463.562 54.0391C463.361 54.0302 463.128 54.0537 462.907 54.0618C462.686 54.0698 462.453 54.0903 462.252 54.0783C462.051 54.0663 461.89 54.022 461.703 53.9931C461.615 53.9794 461.495 53.9597 461.421 53.9644C460.934 54.0022 460.572 53.952 460.224 53.885C460.15 53.8713 460.023 53.8623 459.929 53.8655C459.154 53.893 458.385 53.9251 457.61 53.9556C457.296 53.9685 457.041 53.9151 456.973 53.8245C456.939 53.7738 456.872 53.7232 456.871 53.6725C456.87 53.5802 456.502 53.5301 456.234 53.5413C455.793 53.5575 455.345 53.5705 454.911 53.5944C454.557 53.6134 454.256 53.5955 454.014 53.5406C453.733 53.478 453.412 53.4909 453.091 53.5083C452.851 53.5211 452.784 53.5719 452.799 53.6995C452.814 53.8025 452.7 53.835 452.266 53.8527C451.718 53.8752 451.163 53.8977 450.609 53.9155C450.522 53.9188 450.421 53.8928 450.334 53.8791C450.147 53.8518 449.979 53.8074 449.778 53.7986C449.577 53.7882 449.344 53.8116 449.123 53.8212C448.902 53.8293 448.669 53.8512 448.468 53.8408C448.267 53.8304 448.1 53.7846 447.919 53.7557C447.832 53.742 447.724 53.7222 447.637 53.7254C447.196 53.7385 446.755 53.7577 446.314 53.7754C445.82 53.7947 445.82 53.7947 445.116 53.7006C444.795 53.6581 444.474 53.6925 444.16 53.7053C443.826 53.7182 443.512 53.7249 443.25 53.6638C443.076 53.6242 442.882 53.5999 442.675 53.6079C442.12 53.6274 441.572 53.6514 441.017 53.6708C440.924 53.674 440.797 53.6666 440.723 53.6528C440.368 53.5889 440.019 53.5387 439.525 53.5719C439.097 53.6003 438.636 53.6026 438.208 53.6295C437.975 53.6438 437.868 53.6932 437.915 53.7315C437.942 53.7515 438.083 53.7743 438.177 53.7741C438.391 53.7753 438.624 53.7518 438.825 53.7607C439.24 53.7784 439.449 53.9072 439.99 53.8709C440.311 53.8488 440.645 53.8406 440.979 53.8338C441.066 53.8322 441.16 53.8612 441.254 53.8764C441.522 53.9175 441.756 53.9709 442.144 53.9425C442.464 53.9204 442.805 53.9137 443.133 53.9008C443.654 53.88 443.654 53.8815 444.331 53.9741C444.652 54.0181 444.973 53.9822 445.287 53.9709C445.521 53.9628 445.741 53.9471 445.929 53.9683C446.217 54 446.425 54.0735 446.779 54.0683C447.113 54.0631 447.441 54.041 447.775 54.0327C447.982 54.0277 448.176 54.052 448.344 54.0932C448.518 54.1344 448.706 54.1526 448.933 54.1429C449.261 54.1301 449.595 54.1141 449.929 54.1058C450.022 54.1041 450.13 54.1178 450.217 54.1299C450.404 54.1573 450.585 54.1893 450.766 54.2182C451.094 54.2084 451.428 54.2047 451.749 54.1857C451.996 54.1715 452.17 54.1773 452.371 54.2077C452.625 54.2488 452.834 54.3222 453.248 54.2861C453.455 54.2689 453.696 54.2731 453.903 54.2573C454.156 54.2369 454.33 54.2443 454.511 54.2901C454.854 54.3771 455.282 54.3779 455.722 54.3433C456.203 54.3056 456.565 54.348 456.927 54.4151C457.309 54.4851 457.309 54.4836 457.605 54.6538C457.693 54.7028 457.94 54.7255 458.147 54.7159C458.495 54.6999 458.796 54.707 459.051 54.765C459.319 54.8276 459.64 54.8194 459.967 54.8019C460.401 54.7781 460.836 54.7573 461.191 54.8459C461.366 54.8887 461.553 54.8991 461.787 54.8879C462.449 54.8591 463.117 54.841 463.765 54.8061C464.16 54.7839 464.387 54.8327 464.655 54.8737C465.017 54.93 465.412 54.98 465.414 55.1015C465.414 55.1215 465.508 55.1444 465.588 55.1596C465.763 55.1916 465.95 55.219 466.131 55.2494C466.399 55.2951 466.66 55.3331 467.028 55.3078C467.348 55.2873 467.689 55.2805 468.017 55.2661C468.344 55.2517 468.645 55.2435 468.94 55.3014C469.282 55.3669 469.644 55.4294 470.032 55.4779C470.307 55.5128 470.667 55.4522 470.962 55.4994C471.143 55.5283 471.317 55.5618 471.511 55.586C471.591 55.5967 471.718 55.5888 471.825 55.5855C472.046 55.579 472.273 55.574 472.487 55.5582C472.734 55.5409 472.921 55.5436 473.109 55.5787C473.283 55.6107 473.458 55.6549 473.658 55.6638C473.96 55.6771 474.293 55.615 474.595 55.6853C474.749 55.7204 474.943 55.7538 475.144 55.7643C475.345 55.7747 475.579 55.7512 475.792 55.7524C475.886 55.7522 476 55.7766 476.054 55.7965C476.087 55.8072 476.041 55.8365 475.994 55.852C475.934 55.8705 475.848 55.8953 475.761 55.8985C475.099 55.9273 474.438 55.9516 473.776 55.9788C473.382 55.9949 473.382 55.9949 472.585 55.8994C472.397 55.8767 472.19 55.8816 471.956 55.8928C471.642 55.9072 471.321 55.9339 470.993 55.9068C470.564 55.803 470.036 55.7946 469.475 55.8356C469.241 55.8529 469.027 55.8533 468.853 55.8244C468.484 55.7666 468.096 55.7135 467.767 55.6448C467.513 55.5915 467.392 55.5871 467.286 55.661C467.253 55.6842 467.22 55.7088 467.227 55.7303C467.268 55.8071 467.342 55.8824 467.383 55.9592C467.397 55.9807 467.344 56.0054 467.311 56.0285C467.204 56.0933 467.064 56.0889 466.829 56.0355C466.595 55.9821 466.313 55.9472 465.939 55.9725C465.619 55.9945 465.271 55.9921 464.95 56.0157C464.456 56.0504 464.107 56.0018 463.752 55.9363C463.679 55.9226 463.551 55.9151 463.458 55.9183C462.462 55.9554 461.473 55.9971 460.477 56.0342C460.263 56.0423 460.069 56.0196 459.901 55.9783C459.727 55.9371 459.533 55.9159 459.319 55.924C458.437 55.9578 457.554 55.9886 456.672 56.0301C456.311 56.0476 456.024 56.0281 455.776 55.9747C455.588 55.9351 455.414 55.9231 455.18 55.9281C454.926 55.9331 454.746 55.9488 454.619 55.9937C454.499 56.0369 454.587 56.0629 454.854 56.0963C455.142 56.1327 455.41 56.1799 455.685 56.2225C455.906 56.2159 456.126 56.2032 456.34 56.2044C456.434 56.2042 456.521 56.2318 456.615 56.247C456.883 56.2911 457.131 56.3353 457.512 56.31C457.832 56.2879 458.173 56.2827 458.501 56.2683C458.955 56.2506 458.955 56.2506 459.692 56.3462C459.879 56.3705 460.08 56.3686 460.32 56.3543C460.528 56.3432 460.742 56.3644 460.889 56.4102C460.95 56.4286 460.93 56.4594 460.804 56.5611C460.805 56.6364 460.945 56.6023 460.991 56.5531C461.064 56.4822 460.923 56.4594 460.656 56.4983C460.47 56.5263 460.377 56.5664 460.424 56.5986C460.451 56.6155 460.578 56.6368 460.804 56.5611C461.392 56.4678 461.84 56.4562 462.267 56.4309C462.521 56.4166 462.682 56.4225 462.883 56.4621C463.124 56.5094 463.365 56.5597 463.76 56.5344C464.187 56.506 464.642 56.5021 465.076 56.4783C465.477 56.4561 465.685 56.5234 465.94 56.5629C466.248 56.6101 466.588 56.5556 466.869 56.5828C467.164 56.61 467.372 56.6773 467.713 56.689C468.207 56.6466 468.523 56.723 468.898 56.7731C469.192 56.811 469.54 56.7765 469.854 56.7591C470.208 56.74 470.502 56.7564 470.75 56.8114C471.032 56.8739 471.346 56.8595 471.667 56.8451C472.415 56.8131 472.442 56.8084 472.878 56.8922C473.193 56.9532 473.493 56.925 473.807 56.9168C474.082 56.9578 474.35 57.0019 474.638 57.0383C474.712 57.0474 474.852 57.0318 474.966 57.027C475.293 57.0141 475.627 57.0012 475.955 56.9884C476.175 56.9803 476.409 56.9568 476.61 56.9657C476.81 56.9761 476.978 57.0204 477.159 57.0493C477.34 57.0782 477.527 57.1071 477.702 57.1376C477.97 57.1832 478.224 57.2212 478.598 57.1975C478.919 57.177 479.253 57.1702 479.587 57.1558C480.008 57.1382 479.995 57.1428 480.779 57.2337C481.2 57.2837 481.634 57.2215 482.062 57.2146C482.276 57.2111 482.484 57.2277 482.631 57.272C482.692 57.2904 482.672 57.3212 482.692 57.3473C481.59 57.3907 480.48 57.428 479.391 57.4806C478.97 57.5013 478.749 57.4464 478.521 57.4006C478.145 57.3275 477.652 57.436 477.296 57.3412C477.082 57.2847 476.774 57.253 476.406 57.2813C476.192 57.297 475.965 57.2959 475.745 57.3101C475.183 57.3449 474.668 57.3474 474.219 57.242C474.065 57.2054 473.844 57.1858 473.683 57.1507C473.496 57.1126 473.315 57.0914 473.094 57.0994C472.098 57.1381 471.109 57.1767 470.12 57.2184C470.033 57.2216 469.946 57.2448 469.873 57.2619C469.686 57.3053 469.747 57.339 470.048 57.3661C470.149 57.3752 470.229 57.395 470.323 57.4102C470.504 57.4391 470.672 57.485 470.872 57.4954C471.073 57.5058 471.307 57.4839 471.527 57.4758C471.748 57.4677 471.982 57.4443 472.182 57.4532C472.383 57.4636 472.551 57.5079 472.738 57.5352C472.825 57.5489 472.933 57.5718 473.02 57.5701C473.461 57.5601 473.895 57.5424 474.336 57.5278C474.611 57.5689 474.846 57.6284 475.174 57.6417C475.381 57.6506 475.601 57.6333 475.815 57.636C475.909 57.6373 476.03 57.6602 476.077 57.6801C476.104 57.6924 476.017 57.7233 475.95 57.7388C475.697 57.7976 475.349 57.7875 475.035 57.8065C474.694 57.827 474.387 57.8214 474.125 57.7619C473.951 57.7223 473.757 57.7011 473.543 57.7091C472.988 57.7301 472.44 57.7541 471.885 57.772C471.792 57.7752 471.678 57.7616 471.591 57.751C470.888 57.6584 470.888 57.6553 470.393 57.6762C469.665 57.7066 469.665 57.7066 469.176 57.626C469.082 57.6108 468.981 57.5817 468.901 57.5834C468.126 57.6094 467.357 57.6353 466.588 57.672C466.334 57.6832 466.161 57.6835 465.973 57.6439C465.812 57.6103 465.624 57.5722 465.424 57.5633C465.216 57.5544 464.989 57.5779 464.769 57.586C464.548 57.594 464.314 57.6144 464.12 57.6025C463.92 57.5905 463.745 57.5478 463.571 57.5173C463.39 57.4853 463.196 57.4872 462.949 57.4999C462.187 57.5366 462.18 57.532 461.424 57.438C461.337 57.4274 461.223 57.4153 461.129 57.4185C460.574 57.4379 460.026 57.462 459.472 57.4814C459.258 57.4894 459.05 57.4698 458.903 57.4255C458.842 57.4071 458.862 57.3763 458.821 57.3164C458.774 57.3027 458.828 57.3272 458.841 57.3502C458.942 57.347 459.062 57.3498 459.136 57.3374C459.322 57.3079 459.416 57.2693 459.368 57.2371C459.341 57.2202 459.214 57.1989 459.134 57.199C458.987 57.1993 458.86 57.2333 458.821 57.3164C458.4 57.3679 457.952 57.3795 457.518 57.4048C457.264 57.4206 457.104 57.4132 456.903 57.3736C456.661 57.3248 456.413 57.2776 456.019 57.3028C455.592 57.3313 455.137 57.3367 454.696 57.359C454.188 57.3845 453.966 57.2464 453.538 57.2503C453.097 57.2541 452.656 57.281 452.215 57.3002C451.827 57.3163 451.827 57.3163 451.023 57.2177C450.729 57.1813 450.382 57.2358 450.094 57.1978C449.899 57.1735 449.732 57.1369 449.544 57.1111C449.464 57.1005 449.337 57.1007 449.237 57.104C448.682 57.1234 448.12 57.1367 447.586 57.1714C446.978 57.2125 446.516 57.1702 446.08 57.0802C445.532 57.0981 444.977 57.1083 444.436 57.1385C444.042 57.1607 443.814 57.1103 443.546 57.0693C443.452 57.0556 443.372 57.0327 443.271 57.0267C443.171 57.0207 443.051 57.0332 442.944 57.038C442.503 57.0557 442.048 57.0642 441.62 57.0926C441.093 57.1289 440.891 57.0031 440.482 56.9885C440.209 57.0643 440.063 57.1676 439.522 57.1762C439.081 57.1831 438.64 57.2085 438.199 57.2262C437.978 57.2342 437.758 57.2439 437.537 57.2519C437.183 57.2664 437.016 57.3266 437.091 57.4188C437.132 57.4694 437.166 57.5201 437.2 57.5708C437.268 57.6614 437.102 57.7386 436.821 57.7498C436.046 57.7804 435.277 57.8125 434.502 57.84C434.295 57.848 434.094 57.8222 433.926 57.781C433.752 57.7398 433.558 57.7217 433.344 57.7297C432.568 57.7603 431.8 57.7924 431.025 57.8199C430.938 57.8231 430.824 57.8079 430.737 57.7958C430.549 57.7684 430.368 57.7364 430.187 57.7075C429.746 57.7221 429.312 57.7321 428.877 57.7513C428.176 57.7802 428.176 57.7818 427.66 57.6981C427.566 57.6829 427.472 57.6538 427.385 57.6555C427.051 57.6622 426.723 57.6782 426.389 57.6926C425.407 57.7343 425.407 57.7343 425.119 57.6887C424.857 57.6461 424.623 57.5942 424.228 57.6195C423.801 57.6479 423.346 57.6579 422.905 57.674C422.578 57.6854 422.25 57.6983 421.923 57.7019C421.836 57.7036 421.742 57.6745 421.648 57.6593C421.38 57.6121 421.119 57.5741 420.751 57.6009C420.537 57.6167 420.31 57.6201 420.09 57.6282C419.515 57.6507 419.515 57.6507 418.571 57.5601C418.477 57.551 418.363 57.5405 418.27 57.5452C417.495 57.5743 416.726 57.6064 415.951 57.6338C415.857 57.6371 415.743 57.628 415.65 57.6205C414.592 57.5332 414.592 57.5332 413.469 57.5782C413.042 57.5943 413.028 57.6005 412.579 57.5198C412.378 57.4847 412.211 57.4681 411.977 57.4793C411.095 57.5177 410.206 57.5439 409.331 57.5885C408.936 57.6076 408.708 57.5618 408.44 57.5208C408.347 57.5071 408.246 57.4766 408.166 57.4782C407.284 57.509 406.401 57.5459 405.519 57.5766C405.439 57.5798 405.338 57.5493 405.244 57.5356C405.064 57.5082 404.889 57.467 404.688 57.4581C404.481 57.4493 404.254 57.4727 404.027 57.4808C403.472 57.5018 403.472 57.5002 402.829 57.4106C402.742 57.3985 402.628 57.3817 402.541 57.385C401.659 57.4173 400.77 57.4449 399.895 57.4911C399.393 57.5165 399.052 57.4725 398.697 57.4086C398.623 57.3948 398.496 57.3889 398.402 57.3922C397.406 57.4293 396.417 57.4709 395.422 57.508C395.214 57.5161 395.013 57.4903 394.846 57.4506C394.578 57.388 394.263 57.3963 393.929 57.4107C393.161 57.4443 393.154 57.4428 392.698 57.3698C392.605 57.3546 392.524 57.3347 392.424 57.3272C392.33 57.3197 392.21 57.3245 392.11 57.3277C391.668 57.3439 391.227 57.3616 390.786 57.3792C390.345 57.3969 389.897 57.4069 389.463 57.4338C388.928 57.467 388.673 57.3675 388.298 57.322C387.75 57.343 387.189 57.3563 386.647 57.3895C386.233 57.4148 386.038 57.3475 385.764 57.3126C385.67 57.3005 385.569 57.2745 385.483 57.2777C384.487 57.3133 383.491 57.3519 382.502 57.3952C382.261 57.4048 382.101 57.3928 381.9 57.3562C381.451 57.274 381.431 57.2771 380.682 57.3091C380.355 57.3236 380.04 57.3364 379.759 57.2738C379.511 57.2174 379.21 57.2041 378.856 57.2231C378.421 57.2469 377.973 57.26 377.532 57.2762C377.091 57.2939 376.65 57.3177 376.209 57.3261C375.855 57.3344 375.64 57.2625 375.359 57.2261C375.271 57.2155 375.151 57.2142 375.051 57.2174C374.61 57.232 374.155 57.2436 373.728 57.2705C373.206 57.3037 372.918 57.2196 372.55 57.171C372.469 57.1604 372.335 57.1668 372.235 57.1716C371.46 57.2006 370.691 57.2327 369.916 57.2633C369.641 57.2222 369.36 57.1827 369.085 57.1417C368.644 57.1578 368.203 57.1755 367.762 57.1916C367.428 57.2045 367.087 57.2097 366.773 57.2333C366.366 57.2648 366.164 57.1929 365.889 57.158C365.796 57.1459 365.695 57.1199 365.608 57.1231C365.053 57.141 364.499 57.1604 363.951 57.1875C363.43 57.2146 363.221 57.0765 362.793 57.0788C362.351 57.0811 361.897 57.1019 361.469 57.1303C360.975 57.1635 360.627 57.1149 360.271 57.0493C360.198 57.0356 360.071 57.0282 359.977 57.0314C359.422 57.0508 358.874 57.0748 358.32 57.0943C358.226 57.0975 358.112 57.09 358.019 57.0809C356.961 56.9921 356.961 56.9905 356.5 57.0098C356.172 57.0227 355.838 57.0386 355.504 57.0469C355.41 57.0501 355.297 57.0365 355.209 57.0243C354.513 56.9317 354.513 56.9302 354.012 56.9495C353.571 56.9672 353.129 56.9849 352.688 57.0025C352.414 56.9615 352.132 56.922 351.858 56.881C351.31 56.9019 350.748 56.9183 350.207 56.9469C349.953 56.9596 349.786 56.9553 349.591 56.9172C349.35 56.8715 349.109 56.8181 348.708 56.8449C348.28 56.8734 347.826 56.8772 347.391 56.901C346.87 56.9296 346.655 56.7901 346.233 56.7923C345.792 56.7946 345.338 56.8154 344.91 56.8438C344.416 56.877 344.067 56.8284 343.712 56.7629C343.638 56.7492 343.511 56.7417 343.418 56.745C342.201 56.7917 340.992 56.8383 339.775 56.8881C339.027 56.9186 339.027 56.9202 337.602 56.8381C337.501 56.8321 337.394 56.8261 337.294 56.8294C336.853 56.844 336.398 56.8555 335.971 56.8824C335.449 56.9156 335.161 56.8331 334.792 56.783C334.712 56.7724 334.585 56.7787 334.478 56.782C334.144 56.7933 333.817 56.8078 333.482 56.8206C333.041 56.8383 332.6 56.856 332.159 56.8737C331.884 56.8342 331.603 56.7931 331.329 56.7536C330.78 56.7746 330.219 56.7863 329.678 56.8196C329.264 56.8449 329.069 56.7806 328.794 56.7442C328.7 56.7321 328.6 56.7061 328.513 56.7078C327.517 56.7433 326.521 56.7804 325.532 56.8252C325.125 56.8444 324.936 56.7755 324.662 56.7406C324.568 56.73 324.461 56.7102 324.374 56.7134C323.712 56.7361 323.051 56.7634 322.389 56.7907C322.015 56.8067 322.015 56.8067 321.198 56.7128C321.104 56.7022 320.997 56.6916 320.904 56.6949C318.805 56.7754 316.713 56.8605 314.614 56.9411C314.401 56.9491 314.206 56.9264 314.039 56.8852C313.864 56.8439 313.67 56.8228 313.456 56.8308C312.574 56.8646 311.685 56.8954 310.81 56.9369C310.449 56.9544 310.161 56.9349 309.913 56.8815C309.725 56.8419 309.551 56.8268 309.317 56.8365C308.876 56.8557 308.435 56.8718 307.994 56.8895C307.553 56.9072 307.112 56.9249 306.671 56.9426C306.23 56.9602 305.782 56.9702 305.348 56.9971C304.813 57.0303 304.551 56.9355 304.183 56.8884C303.521 56.9127 302.859 56.9369 302.204 56.9626C301.322 56.9964 300.44 57.0333 299.558 57.0656C299.478 57.0688 299.377 57.0413 299.283 57.0276C299.009 56.9897 298.807 56.9362 298.4 56.9538C296.422 57.0388 294.43 57.1114 292.445 57.1948C292.031 57.2125 291.849 57.1467 291.568 57.1118C291.474 57.1012 291.367 57.0798 291.28 57.0831C290.177 57.1234 289.075 57.1684 287.972 57.2118C287.524 57.2295 287.524 57.2295 286.774 57.1355C286.687 57.1249 286.573 57.1112 286.48 57.1145C285.043 57.1692 283.612 57.2271 282.175 57.2834C281.962 57.2915 281.768 57.2703 281.593 57.229C281.426 57.1878 281.225 57.1651 281.017 57.1732C279.694 57.2247 278.364 57.2746 277.048 57.3307C276.693 57.3467 276.399 57.3334 276.144 57.2785C275.963 57.2388 275.782 57.2222 275.555 57.2318C273.57 57.3106 271.585 57.3864 269.6 57.4698C269.219 57.4858 268.952 57.4571 268.71 57.4067C268.516 57.3671 268.349 57.3597 268.108 57.3663C267.854 57.3744 267.701 57.3916 267.561 57.4379C267.381 57.4982 267.268 57.5738 266.84 57.5791C266.399 57.5845 265.951 57.6037 265.517 57.6306C265.103 57.6575 264.908 57.5886 264.647 57.5476C264.452 57.5187 264.272 57.5144 264.025 57.5287C263.797 57.5413 263.657 57.5677 263.524 57.6172C263.231 57.7222 263.204 57.7223 262.843 57.6568C262.648 57.6218 262.474 57.5944 262.26 57.6009C261.378 57.6332 260.496 57.6686 259.614 57.7055C259.106 57.7263 259.099 57.7294 258.717 57.6532C258.529 57.6151 258.348 57.5969 258.128 57.6065C255.702 57.703 253.276 57.7964 250.85 57.8975C250.476 57.9135 250.221 57.8817 249.953 57.836C249.866 57.8208 249.779 57.7994 249.679 57.7934C249.578 57.7875 249.465 57.7938 249.358 57.7971C247.593 57.8663 245.822 57.9324 244.064 58.0092C243.663 58.0269 243.449 57.978 243.174 57.9385C243.081 57.9248 243 57.9035 242.9 57.8975C242.799 57.893 242.679 57.904 242.572 57.9088C240.808 57.978 239.037 58.0441 237.279 58.121C236.858 58.1386 236.677 58.0744 236.402 58.041C236.308 58.0289 236.208 58.006 236.121 58.0092C235.566 58.0271 235.018 58.0511 234.463 58.072C233.14 58.1251 231.817 58.1751 230.493 58.2296C229.985 58.2505 229.763 58.114 229.335 58.1209C228.78 58.1296 228.232 58.1613 227.678 58.1838C227.237 58.2015 226.796 58.2176 226.354 58.2368C225.92 58.2545 225.92 58.2545 224.836 58.1672C224.742 58.1597 224.628 58.1491 224.535 58.1523C222.991 58.2119 221.44 58.2715 219.903 58.3357C219.549 58.3501 219.255 58.343 219 58.2865C218.819 58.2468 218.631 58.2272 218.411 58.2368C216.092 58.3284 213.779 58.4201 211.46 58.5103C211.373 58.5135 211.259 58.4983 211.172 58.4862C210.985 58.4588 210.804 58.4268 210.623 58.3979C210.49 58.4335 210.316 58.4661 210.23 58.5062C210.11 58.5603 209.95 58.5759 209.696 58.5856C209.442 58.5953 209.281 58.5925 209.08 58.5528C208.839 58.504 208.591 58.466 208.197 58.4821C205.771 58.5832 203.345 58.675 200.919 58.7746C200.518 58.7907 200.33 58.7233 200.049 58.6884C199.955 58.6778 199.847 58.6611 199.761 58.6644C198.765 58.7015 197.776 58.7416 196.78 58.7802C194.02 58.8896 191.259 58.9943 188.506 59.1098C188.005 59.1307 187.663 59.0928 187.308 59.0273C187.234 59.0136 187.107 59.0062 187.014 59.0094C183.151 59.1607 179.288 59.3134 175.431 59.4662C175.224 59.4743 175.023 59.45 174.856 59.4103C174.681 59.3691 174.487 59.3495 174.273 59.3575C172.509 59.4267 170.745 59.4959 168.98 59.5666C168.539 59.5843 168.532 59.5858 168.077 59.5128C167.983 59.4976 167.882 59.4686 167.809 59.4718C167.655 59.4797 167.508 59.5184 167.402 59.5709C167.296 59.6264 167.129 59.6421 166.882 59.6533C166.628 59.6645 166.46 59.6602 166.266 59.6236C166.018 59.5779 165.79 59.5337 165.389 59.5498C160.317 59.7554 155.244 59.9533 150.171 60.1574C149.764 60.1735 149.576 60.1093 149.294 60.0744C149.201 60.0638 149.107 60.0486 149.007 60.0457C148.9 60.0428 148.786 60.0522 148.679 60.057C140.405 60.3835 132.131 60.7116 123.857 61.0381C123.363 61.0574 123.369 61.0574 122.829 61.1998C122.763 61.2168 122.676 61.24 122.583 61.2433C120.05 61.3461 117.51 61.4458 114.97 61.5456C113.868 61.589 112.765 61.634 111.662 61.6759C111.268 61.6904 111.268 61.6904 110.327 61.8581C110.247 61.8721 110.153 61.8907 110.06 61.8939C105.649 62.0692 101.238 62.2445 96.8201 62.4167C96.4726 62.4296 96.1921 62.4578 96.0326 62.5318C95.9195 62.5843 95.7728 62.6153 95.5523 62.6249C92.4646 62.7472 89.377 62.8709 86.2826 62.9901C85.915 63.0046 85.6948 63.048 85.515 63.1129C85.4551 63.1345 85.4019 63.1592 85.3152 63.1747C85.2351 63.1887 85.1148 63.1935 85.0146 63.1983C82.368 63.3029 79.7215 63.4105 77.0682 63.5104C76.6738 63.525 76.514 63.5821 76.3208 63.6424C76.2542 63.6625 76.2077 63.6903 76.1209 63.7043C76.0341 63.7167 75.9071 63.717 75.8002 63.7202C73.5947 63.8071 71.3892 63.8955 69.1837 63.9824C68.7557 63.9754 68.6631 64.0648 68.4565 64.1189C68.3832 64.1375 68.3301 64.1622 68.2433 64.1747C68.1499 64.1871 68.0293 64.1858 67.9157 64.1891C66.1513 64.2582 64.387 64.3321 62.6159 64.3966C62.2082 64.4112 62.1288 64.4897 61.9088 64.5439C61.8355 64.561 61.7624 64.5873 61.6755 64.592C60.5728 64.6385 59.4701 64.6819 58.3673 64.7238C57.9997 64.7383 57.9997 64.7368 57.353 64.8901C57.2796 64.9072 57.1928 64.9258 57.0993 64.9306C55.4485 64.998 53.7911 65.0624 52.1336 65.1283C51.9198 65.1364 51.7731 65.1735 51.6668 65.226C51.5604 65.2785 51.4071 65.3126 51.1932 65.3206C49.8699 65.3737 48.5465 65.4282 47.2232 65.4767C46.8556 65.4896 46.6154 65.5285 46.4558 65.5979C46.3361 65.6504 46.1893 65.6768 45.9554 65.6865C44.6321 65.738 43.3088 65.7941 41.9788 65.8395C41.5911 65.8524 41.3911 65.905 41.2314 65.9699C41.105 66.0224 40.9581 66.0411 40.7108 66.0508C38.2847 66.1442 35.852 66.2376 33.4328 66.3402C33.0251 66.3578 32.8171 66.3044 32.5492 66.2664C32.1674 66.2132 31.8124 66.1554 31.811 66.0355C31.8107 66.017 31.6968 65.9957 31.6163 65.9805C31.0199 65.8662 31.0198 65.8662 30.9247 65.7433C30.8703 65.6681 30.8092 65.5913 30.7615 65.5145C30.673 65.3886 30.4586 65.3566 29.8437 65.3808C29.6231 65.3888 29.4026 65.4 29.1821 65.4065C28.8546 65.4178 28.6066 65.3675 28.5453 65.2754C28.5112 65.2247 28.4705 65.174 28.4365 65.1233C28.7707 65.1105 28.7639 65.1089 29.35 64.9219C29.5965 64.843 29.5966 64.843 29.1209 64.7654C28.94 64.7365 28.7657 64.7045 28.5715 64.6772C28.4844 64.665 28.3707 64.6575 28.2771 64.6608C27.7223 64.6802 27.1743 64.7027 26.6263 64.7252C25.7441 64.7605 25.744 64.7605 24.8461 64.6052C24.7724 64.593 24.6585 64.5702 24.6717 64.5579C24.7446 64.5008 24.9248 64.4759 25.152 64.4694C25.4862 64.4596 25.8137 64.4436 26.1412 64.4308C26.3617 64.4227 26.5822 64.4131 26.8028 64.405C27.0094 64.3462 27.2228 64.289 27.4159 64.2287C27.7224 64.1359 27.7222 64.1328 27.3002 64.0689C27.0322 64.0263 26.7442 63.9884 26.4696 63.9489C26.1421 63.9618 25.808 63.9762 25.4805 63.9875C25.0661 64.0021 24.8986 63.9731 24.7904 63.8734C24.6957 63.7859 24.8085 63.7104 25.1292 63.6914C25.4566 63.6723 25.7641 63.6595 25.9303 63.5808C26.0899 63.5052 26.3703 63.4755 26.7179 63.4687C26.9385 63.4637 27.1591 63.4526 27.3796 63.443C27.667 63.4302 27.8198 63.3515 27.7586 63.2639C27.7245 63.2071 27.657 63.1595 27.3961 63.1477C26.2387 63.0959 26.2253 63.0975 25.6489 62.9939C25.5953 62.9848 25.555 62.9572 25.5749 62.9433C25.608 62.9202 25.6812 62.8862 25.7614 62.8814C26.5299 62.8463 27.2984 62.8142 28.0671 62.7898C28.3211 62.7817 28.5082 62.7706 28.5944 62.7135C28.7138 62.6349 28.6594 62.5627 28.4248 62.5093C28.351 62.4925 28.2303 62.4712 28.1501 62.4729C27.2678 62.5021 26.3923 62.539 25.5101 62.5682C25.4299 62.5714 25.2825 62.5455 25.2488 62.5256C25.1815 62.4888 25.2812 62.4394 25.515 62.4221C25.8223 62.3985 26.1365 62.3964 26.3429 62.3192C26.629 62.2095 26.9822 62.109 27.3018 62.0038C27.3551 61.9853 27.4417 61.9498 27.4216 61.9467C27.254 61.9132 27.0598 61.8874 26.8856 61.8554C26.5907 61.8021 26.5897 61.7268 26.6557 61.6544C26.7085 61.5959 26.9088 61.5724 27.1562 61.572C27.2632 61.5718 27.3969 61.5716 27.4836 61.5576C27.7106 61.5234 27.7836 61.4802 27.6696 61.4481C27.6025 61.4298 27.4819 61.4038 27.4017 61.4071C25.9714 61.4603 24.5343 61.512 23.1109 61.5775C22.6898 61.5967 22.4954 61.5386 22.2408 61.4975C22.0465 61.4655 21.8657 61.4536 21.6253 61.477C21.3982 61.499 21.1775 61.4871 21.0364 61.4366C20.9222 61.3952 21.1224 61.3595 21.6635 61.3186C21.7637 61.3107 21.8772 61.3059 21.9506 61.2904C22.7242 61.123 22.7242 61.1215 23.2588 61.099C23.7801 61.0781 23.7802 61.0766 24.0533 60.9869C24.1798 60.9452 24.3196 60.9034 24.4394 60.8602C24.486 60.8432 24.566 60.8123 24.5391 60.8031C24.3915 60.7557 24.1907 60.7453 23.9568 60.7564C23.4355 60.7835 22.8202 60.763 22.5479 60.9096C22.4416 60.9651 22.2746 60.9808 22.034 60.9904C19.6146 61.0838 17.1952 61.1834 14.7691 61.2737C14.3747 61.2882 14.195 61.3454 14.042 61.4087C13.9089 61.4612 13.7619 61.4769 13.508 61.4865C13.254 61.4962 13.0534 61.5012 12.9057 61.4507C12.8184 61.4201 12.8914 61.3769 13.0915 61.3335C13.3782 61.2715 13.3238 61.1947 13.2293 61.1226C13.1618 61.075 12.9542 61.0416 12.7336 61.045C12.406 61.0517 12.092 61.0692 11.8171 61.0082C11.6562 60.9731 11.4553 60.9488 11.2744 60.9184C10.9259 60.8559 10.5774 60.792 10.0898 60.8343C9.75533 60.8195 9.52063 60.7646 9.25265 60.722C8.8038 60.6521 8.76355 60.6414 9.08358 60.5655C9.44362 60.4803 9.16139 60.37 9.36097 60.2867C9.57385 60.1971 9.86719 60.1182 10.127 60.0347C10.1936 60.0131 10.2535 59.993 10.3201 59.9713C10.166 59.9408 10.0251 59.9026 9.8443 59.8814C9.60994 59.8541 9.48917 59.8205 9.50138 59.7252C9.45441 59.7114 9.47476 59.7467 9.52836 59.7559C9.58865 59.765 9.73577 59.7571 9.80919 59.7462C9.99606 59.7166 10.0891 59.678 10.0419 59.6458C10.0149 59.6289 9.88774 59.6076 9.80751 59.6078C9.66041 59.608 9.5338 59.6421 9.49469 59.7252C8.74658 59.7895 7.97121 59.8216 7.19588 59.8476C7.11568 59.8508 7.01507 59.8202 6.92128 59.805C6.61306 59.7533 6.61304 59.7548 5.71019 59.741C5.61656 59.7396 5.48933 59.7183 5.44226 59.6969C5.24721 59.6034 5.2527 59.5004 5.15787 59.4006C5.33093 59.3357 5.50387 59.2723 5.68364 59.209C6.04315 59.0807 6.50994 58.9677 6.78906 58.8273C6.72797 58.752 6.6468 58.6768 6.94025 58.6148C7.77512 58.5365 7.76848 58.5365 7.99492 58.4623C8.64096 58.252 9.28025 58.0403 9.95307 57.833C10.1329 57.7789 10.1326 57.7497 9.81139 57.7272C9.71101 57.7212 9.60387 57.7199 9.49693 57.7231C9.16274 57.7345 8.82876 57.7627 8.50105 57.7571C8.17336 57.7531 7.93183 57.6859 7.66387 57.6448C7.3892 57.6022 7.11453 57.5581 6.83984 57.514C6.52564 57.5192 6.21196 57.5628 5.89686 57.4941C5.65549 57.4407 5.35415 57.4028 5.07947 57.3587C5.28532 57.2415 5.67211 57.1516 5.97174 57.048C6.24474 56.9538 6.2513 56.9553 6.98592 56.8818C7.3332 56.8473 7.45145 56.6734 7.15663 56.6231C6.8015 56.5622 6.42645 56.506 6.06467 56.4482C5.75047 56.4534 5.43009 56.4954 5.12836 56.4268C4.8937 56.3749 4.62576 56.34 4.23819 56.3606C3.58334 56.3956 2.91492 56.4137 2.25331 56.4425C2.02608 56.4521 1.77854 56.4464 1.67761 56.3943C1.61029 56.3575 1.80359 56.3064 2.02411 56.2953C2.35825 56.2793 2.65888 56.2604 2.8251 56.1832C2.98464 56.106 3.27853 56.0825 3.62609 56.0711C3.71966 56.0678 3.8265 56.0492 3.87308 56.0307C4.1127 55.9411 4.37924 55.8637 4.89413 55.8659C5.10772 55.8348 5.22085 55.7961 5.15354 55.7594C5.11318 55.7394 4.97252 55.7136 4.89232 55.7168C4.33753 55.7331 3.78277 55.7495 3.24151 55.7781C2.98757 55.7908 2.7936 55.7942 2.63257 55.7484C2.51852 55.7178 2.57819 55.6762 2.79161 55.6312C2.97836 55.5925 3.03137 55.5478 3.01736 55.4955C2.98245 55.3741 2.78139 55.3391 2.13959 55.3479C1.6783 55.3548 1.56438 55.335 1.46281 55.2307C1.43577 55.2061 1.36861 55.1724 1.41521 55.1554C1.70145 55.0503 1.88711 54.9209 2.42811 54.8707C2.64185 54.8519 2.8691 54.8515 3.00234 54.8113C3.13558 54.7711 3.25543 54.7247 3.39538 54.686C3.56866 54.6396 3.68838 54.5964 3.60778 54.5673C3.47342 54.5152 3.25947 54.511 3.0123 54.5299C2.79852 54.5456 2.57121 54.5475 2.35067 54.5572C1.95638 54.5748 1.63501 54.5353 1.58739 54.4678C1.45817 54.2896 1.32225 54.113 1.20641 53.9349C1.19278 53.9134 1.22578 53.8856 1.27905 53.8671C1.46548 53.8022 1.6654 53.7403 1.85854 53.6769C2.085 53.6043 2.44629 53.6175 2.7537 53.6031C3.18807 53.5824 3.18794 53.5839 3.76786 53.4353C3.99449 53.3764 4.38928 53.3988 4.62267 53.3461C4.69602 53.3291 4.80935 53.3012 4.7891 53.2859C4.76211 53.2659 4.62827 53.2508 4.52786 53.2417C4.43414 53.2327 4.32044 53.2283 4.2202 53.2331C3.00382 53.2798 1.79419 53.3295 0.577792 53.3747C0.370607 53.3827 0.142851 53.3493 0.0687201 53.3018C-0.00537316 53.2573 0.0139654 53.2034 -2.5089e-05 53.1527C0.193113 53.0893 0.412968 53.0305 0.579305 52.9626C0.70571 52.9101 0.852556 52.8868 1.1066 52.8833C1.44087 52.8781 1.76831 52.859 2.14258 52.8445C2.83523 52.6188 3.51433 52.3824 4.26048 52.1566C4.56026 52.0654 4.48571 51.9732 4.5447 51.8763C4.6038 51.787 5.05193 51.8 5.3525 51.7734C5.59295 51.7514 5.67248 51.7021 5.57846 51.6684C5.52472 51.6485 5.40415 51.6257 5.31054 51.6258C5.08989 51.6262 4.86941 51.6404 4.64886 51.6485C4.4283 51.6566 4.17417 51.6524 3.99396 51.6789C3.82041 51.7038 3.70731 51.7562 3.59419 51.801C3.46774 51.8504 3.30091 51.8677 3.04686 51.8712C2.71927 51.8748 2.39182 51.8892 2.06432 51.9006C1.70252 51.8412 1.32729 51.7834 0.978834 51.721C0.91182 51.7088 0.897945 51.6735 0.904351 51.6504C0.916994 51.5904 0.816275 51.5537 0.595268 51.5248C0.407749 51.5006 0.253518 51.4655 0.0792973 51.435C0.21252 51.3933 0.359186 51.353 0.465626 51.3082C0.698508 51.214 0.991919 51.1459 1.50012 51.1481C1.69998 51.0878 1.85951 51.0137 2.11978 50.9717C2.36669 50.9313 2.78844 50.9705 2.97455 50.8795C3.06762 50.8347 3.20749 50.7838 3.3878 50.765C3.67496 50.7353 4.04958 50.75 4.21569 50.6636C4.31539 50.6142 4.46189 50.5694 4.65565 50.5567C4.87613 50.5425 5.10337 50.5391 5.26349 50.5096C5.35022 50.494 5.44355 50.4693 5.44328 50.4477C5.44312 50.4339 5.30923 50.4126 5.21551 50.4035C5.12845 50.3929 5.01456 50.3854 4.9143 50.3887C4.5801 50.3985 4.25267 50.416 3.91847 50.4258C3.82489 50.429 3.71781 50.4184 3.61741 50.4094C3.3229 50.3853 3.34255 50.3545 3.5759 50.2988C3.80927 50.2445 3.97568 50.175 4.16882 50.1117C4.38265 50.1005 4.65012 50.1047 4.79687 50.0752C5.04368 50.0271 5.21664 49.9576 5.4165 49.8973C5.63704 49.8877 5.86433 49.8842 6.0714 49.8669C6.15825 49.8606 6.19799 49.8267 6.2713 49.8066C6.40456 49.768 6.51764 49.7124 6.69795 49.6936C6.99182 49.6655 7.35301 49.6756 7.52582 49.5907C7.62552 49.5413 7.77861 49.4888 7.9658 49.4854C8.48726 49.4783 8.70689 49.3934 8.97337 49.3129C9.17323 49.2526 9.60155 49.2826 9.82147 49.2223C9.9681 49.1836 10.0746 49.1357 10.2212 49.0986C10.2812 49.0831 10.4081 49.0752 10.5084 49.0704C11.0564 49.0464 11.6111 49.0285 12.1591 49.003C12.246 48.9982 12.326 48.975 12.3926 48.9564C12.5325 48.9162 12.6187 48.8607 12.7922 48.8343C12.9658 48.8078 13.2131 48.8074 13.427 48.7993C14.1154 48.7751 14.169 48.7811 14.4817 48.6499C14.7345 48.5433 15.3573 48.6176 15.5632 48.5004C15.6827 48.4325 15.9026 48.3768 16.297 48.3684C16.8518 48.3567 17.3997 48.3265 17.9545 48.3056C18.449 48.2862 18.4424 48.2863 18.9755 48.1423C19.2155 48.0773 19.57 48.0859 19.8841 48.0731C20.2183 48.0602 20.5256 48.0412 20.6852 47.9641C20.8447 47.8885 21.1386 47.8633 21.4795 47.852C21.7936 47.8407 22.1481 47.8477 22.3948 47.7858C22.9948 47.6372 22.9881 47.6356 23.4091 47.6195C24.0708 47.5938 24.7324 47.568 25.3941 47.5407C25.8352 47.523 26.2965 47.5192 26.7106 47.4846C27.0112 47.4595 27.1438 47.3732 27.337 47.3128C27.885 47.2888 28.433 47.2648 28.981 47.2423C29.7496 47.2102 30.5248 47.1812 31.3001 47.1507C31.6337 47.0916 31.6791 46.9624 32.2406 46.9553C32.5749 46.9516 32.9023 46.9311 33.2365 46.9182C33.7912 46.8957 34.3391 46.8671 34.894 46.8553C35.3151 46.8469 35.3875 46.7637 35.6075 46.7111C35.6809 46.6925 35.7475 46.6663 35.8343 46.6615C36.7031 46.6169 37.5989 46.6061 38.4473 46.5416C38.5341 46.5353 38.614 46.5029 38.6338 46.4798C38.647 46.4675 38.533 46.4446 38.4593 46.434C38.3723 46.4218 38.2585 46.4097 38.1649 46.413C35.4047 46.5208 32.6445 46.6301 29.8843 46.738C29.4967 46.754 29.4967 46.7525 28.556 46.9232C28.4759 46.9372 28.3824 46.9527 28.2821 46.9575C27.841 46.9768 27.3932 46.9883 26.9589 47.0121C26.6047 47.0312 26.3104 47.0132 26.0556 46.9583C25.8746 46.9187 25.6871 46.9067 25.4598 46.9102C25.2058 46.9152 25.039 46.9324 24.8924 46.9742C24.6992 47.0314 24.5997 47.1054 24.192 47.1215C22.314 47.1909 20.4359 47.2679 18.5645 47.3419C18.3035 47.3208 18.1761 47.2888 18.2425 47.2502C18.2823 47.2271 18.3622 47.1962 18.4424 47.193C19.211 47.1594 19.9862 47.1303 20.7548 47.0982C20.8617 47.0934 21.0088 47.0962 21.0688 47.0808C21.3622 47.0111 21.4679 46.8986 22.0228 46.89C22.3437 46.8848 22.671 46.8612 22.9783 46.8391C23.0651 46.8328 23.145 46.8004 23.1648 46.7773C23.1713 46.765 23.0641 46.7421 22.9837 46.7315C22.6889 46.6874 22.3487 46.7418 22.0541 46.7116C21.9537 46.701 21.813 46.6858 21.7927 46.6674C21.7791 46.6505 21.8924 46.6227 21.9725 46.6056C22.0458 46.5901 22.1459 46.5761 22.2461 46.5713C23.1283 46.5344 24.0106 46.496 24.8929 46.4668C25.2538 46.4554 25.5074 46.4165 25.667 46.3455C25.7867 46.293 25.9335 46.2651 26.1607 46.257C27.7046 46.1974 29.2483 46.1317 30.7989 46.0767C31.1866 46.0637 31.3866 46.0126 31.5463 45.9462C31.6727 45.8937 31.8196 45.875 32.0669 45.8654C34.2791 45.7816 36.4778 45.6886 38.6901 45.6078C39.0978 45.5933 39.2174 45.527 39.424 45.4697C39.4973 45.4496 39.5437 45.4249 39.6371 45.4125C39.7306 45.4 39.851 45.4013 39.9646 45.398C41.729 45.3288 43.4935 45.2551 45.2646 45.1905C45.679 45.1759 45.7582 45.0989 45.9715 45.0447C46.0448 45.0277 46.1114 44.9999 46.1983 44.9951C47.5216 44.9405 48.8448 44.889 50.1681 44.836C51.0503 44.8006 51.9325 44.7653 52.8147 44.7314C53.2491 44.7153 53.2491 44.7138 53.8357 44.5667C53.9024 44.5496 53.9958 44.5295 54.0827 44.5247C56.6223 44.4219 59.1553 44.3237 61.6949 44.2224C61.9088 44.2144 62.0621 44.1787 62.1685 44.1263C62.2748 44.0738 62.4283 44.0382 62.6355 44.0301C64.6204 43.9498 66.6053 43.871 68.597 43.7953C68.9579 43.7823 69.2115 43.745 69.3711 43.6755C69.4908 43.623 69.6376 43.5951 69.8648 43.587C71.8498 43.5098 73.8348 43.4279 75.8265 43.3537C76.2074 43.3392 76.3939 43.2866 76.5804 43.2248C76.647 43.2031 76.7001 43.1677 76.7803 43.1644C77.7694 43.1197 78.7517 43.0734 79.7476 43.0424C80.162 43.0294 80.3017 42.9646 80.4681 42.9028C80.6012 42.8533 80.7549 42.8362 81.0089 42.8296C81.5637 42.8148 82.1116 42.7877 82.6529 42.7606C82.7331 42.7559 82.833 42.7219 82.8394 42.7003C82.8523 42.6603 82.6981 42.6329 82.4439 42.6195C79.7973 42.724 77.144 42.8286 74.4974 42.9331C74.063 42.9508 74.063 42.9508 73.4764 43.0979C73.4097 43.1149 73.3163 43.1351 73.2227 43.1399C70.6831 43.2412 68.1502 43.3409 65.6105 43.4422C65.3966 43.4502 65.2433 43.4859 65.137 43.5383C65.0306 43.5908 64.8771 43.6264 64.6699 43.6345C62.2439 43.731 59.8179 43.829 57.3852 43.9208C57.0242 43.9338 56.7707 43.9696 56.611 44.0406C56.4913 44.0931 56.3446 44.121 56.1173 44.1291C53.7982 44.2192 51.4857 44.314 49.1598 44.401C48.9259 44.4091 48.7516 44.3648 48.7645 44.3233C48.7709 44.3018 48.8706 44.2662 48.9508 44.263C50.1605 44.2102 51.3635 44.1558 52.5799 44.1152C52.9877 44.1022 53.1071 44.0344 53.3137 43.9771C53.3803 43.957 53.4335 43.9308 53.5203 43.9199C53.6138 43.9074 53.7341 43.9087 53.8478 43.9055C56.7149 43.7913 59.5821 43.6756 62.456 43.5676C62.8704 43.5515 62.9496 43.476 63.1629 43.4218C63.2362 43.4032 63.3028 43.3755 63.3897 43.3722C64.2718 43.3338 65.154 43.3 66.0362 43.2661C67.5801 43.205 69.1239 43.1439 70.6744 43.0828C71.1222 43.0651 71.1222 43.0651 71.6955 42.9196C71.7622 42.9025 71.8556 42.8808 71.9425 42.8776C76.026 42.7152 80.1095 42.5528 84.193 42.392C84.4069 42.3839 84.5602 42.3483 84.6666 42.2958C84.7729 42.2449 84.9263 42.2077 85.1334 42.1981C90.6538 41.9794 96.1676 41.7607 101.688 41.5451C102.049 41.5306 102.303 41.4979 102.462 41.4253C102.575 41.3728 102.729 41.3449 102.956 41.3353C109.024 41.0956 115.093 40.856 121.168 40.6148C125.251 40.4539 129.335 40.29 133.419 40.1322C133.793 40.1177 133.993 40.0697 134.179 40.0063C134.239 39.9847 134.299 39.9492 134.379 39.946C135.255 39.906 136.13 39.8692 137.005 39.8323C137.28 39.8733 137.555 39.9128 137.829 39.9539C138.036 39.8951 138.236 39.8348 138.443 39.776C139.766 39.7291 141.069 39.6576 142.406 39.6338C142.493 39.6321 142.587 39.6611 142.68 39.6763C143.303 39.7721 143.658 39.7638 144.051 39.634C144.191 39.5876 144.31 39.5459 144.524 39.5378C145.186 39.509 145.854 39.4894 146.509 39.456C146.863 39.4384 147.158 39.4533 147.413 39.5082C147.594 39.5479 147.781 39.5645 148.002 39.5549C149.218 39.5066 150.428 39.4599 151.644 39.4086C151.731 39.4054 151.811 39.3791 151.877 39.3605C152.017 39.3203 152.137 39.277 152.27 39.2353C152.451 39.2611 152.652 39.2808 152.8 39.3143C152.987 39.354 153.161 39.3537 153.415 39.3425C158.267 39.148 163.126 38.9581 167.978 38.7621C168.392 38.746 168.574 38.8103 168.855 38.8436C168.949 38.8557 169.042 38.8709 169.143 38.8738C169.25 38.8767 169.363 38.8673 169.47 38.8625C173.113 38.7178 176.755 38.5746 180.398 38.4299C180.879 38.4106 180.879 38.4106 181.595 38.5047C181.682 38.5169 181.796 38.5305 181.89 38.5257C183.547 38.4629 185.205 38.3954 186.855 38.331C187.069 38.323 187.25 38.3473 187.445 38.3823C187.827 38.4508 187.853 38.4508 188.133 38.3488C188.266 38.3009 188.406 38.2714 188.626 38.2572C188.867 38.2414 189.061 38.2457 189.249 38.2731C189.517 38.3111 189.711 38.3753 190.119 38.3577C191.883 38.2823 193.654 38.2193 195.412 38.1424C195.813 38.1248 196.028 38.1767 196.296 38.2147C196.389 38.2284 196.476 38.2498 196.577 38.2542C196.677 38.2586 196.797 38.2476 196.904 38.2429C199.11 38.156 201.322 38.0707 203.521 37.9777C203.935 37.96 204.116 38.0258 204.398 38.0592C204.491 38.0713 204.599 38.0926 204.685 38.0894C206.009 38.0395 207.339 37.9864 208.662 37.9333C209.137 37.9141 209.137 37.9156 209.86 38.0082C209.947 38.0203 210.061 38.0324 210.154 38.0292C211.698 37.9696 213.249 37.9085 214.793 37.8474C215.267 37.8281 215.267 37.8281 216.639 37.9057C216.739 37.9116 216.846 37.9207 216.947 37.9174C218.711 37.8483 220.482 37.7806 222.246 37.7068C222.601 37.6923 222.895 37.7041 223.15 37.759C223.331 37.7987 223.518 37.8153 223.739 37.8057C225.724 37.7269 227.715 37.6512 229.694 37.5678C230.075 37.5517 230.322 37.5851 230.59 37.6293C230.677 37.6445 230.765 37.6659 230.865 37.6718C230.965 37.6778 231.079 37.6715 231.186 37.6667C233.171 37.5879 235.162 37.5137 237.141 37.4287C237.542 37.4111 237.756 37.463 238.024 37.501C238.118 37.5147 238.219 37.5422 238.299 37.5405C239.074 37.513 239.849 37.4886 240.618 37.4489C241.032 37.4266 241.214 37.497 241.495 37.5304C241.589 37.541 241.696 37.5638 241.783 37.5606C243.44 37.4978 245.098 37.4318 246.749 37.3644C246.982 37.3548 247.156 37.3683 247.344 37.4079C247.592 37.4613 247.88 37.4824 248.241 37.4648C249.009 37.4281 249.785 37.4022 250.56 37.3716C251.014 37.3539 251.014 37.3539 252.406 37.4315C252.506 37.4374 252.614 37.4465 252.714 37.4432C254.037 37.3917 255.367 37.3417 256.684 37.2856C257.038 37.2696 257.332 37.283 257.587 37.3379C257.768 37.3775 257.949 37.3942 258.176 37.3845C259.392 37.3363 260.602 37.2881 261.818 37.2398C262.26 37.2221 262.701 37.1921 263.142 37.1914C263.463 37.1924 263.698 37.2658 263.986 37.3022C264.066 37.3128 264.2 37.3003 264.307 37.297C265.85 37.2359 267.401 37.1794 268.938 37.1106C269.339 37.093 269.554 37.1449 269.822 37.1829C269.915 37.1965 270.016 37.224 270.096 37.2224C270.651 37.2045 271.199 37.1805 271.754 37.1595C272.415 37.1338 273.084 37.1141 273.739 37.0792C274.273 37.0506 274.475 37.184 274.903 37.1879C275.231 37.1919 275.565 37.1652 275.892 37.1523C276.554 37.1266 277.216 37.0977 277.877 37.0751C278.111 37.067 278.292 37.042 278.365 36.9866C278.378 36.9758 278.264 36.9529 278.19 36.9392C277.299 36.7839 277.299 36.7839 276.403 36.8193C275.849 36.8418 275.301 36.8643 274.746 36.8837C274.652 36.8869 274.545 36.8748 274.451 36.8657C274.184 36.8401 274.21 36.8093 274.437 36.7535C274.663 36.6978 274.836 36.6298 275.029 36.5664C275.304 36.6059 275.572 36.6454 275.847 36.6849C276.067 36.6769 276.288 36.6673 276.508 36.6592C277.611 36.6173 278.714 36.5739 279.817 36.5351C279.897 36.5318 279.998 36.5624 280.091 36.5776C280.359 36.6218 280.601 36.6598 280.988 36.6422C281.977 36.5959 282.973 36.5619 283.962 36.5217C284.397 36.504 284.397 36.504 285.16 36.598C285.247 36.6087 285.361 36.6208 285.454 36.6175C286.45 36.5804 287.439 36.5403 288.435 36.5016C288.649 36.4936 288.857 36.5132 289.011 36.5575C289.071 36.5759 289.058 36.6066 289.316 36.8584C290.107 37.0615 290.648 37.0391 291.196 37.0197C291.43 37.0116 291.637 37.0035 291.791 36.9725C291.871 36.9554 291.971 36.9307 291.971 36.9107C291.97 36.8953 291.823 36.8709 291.73 36.868C291.067 36.8384 290.439 36.9041 289.791 36.9191C289.49 36.9257 289.229 36.8724 289.174 36.7848C289.161 36.7602 289.14 36.7341 289.12 36.7096C289.099 36.685 289.086 36.6589 289.065 36.6343C288.805 36.6271 288.651 36.655 288.538 36.7075C288.445 36.7507 288.312 36.8002 288.132 36.8235C287.951 36.8484 287.704 36.8443 287.483 36.8523C287.269 36.8604 287.036 36.8808 286.835 36.8704C286.634 36.8584 286.473 36.8141 286.286 36.7868C286.199 36.7731 286.091 36.7533 286.004 36.7565C285.236 36.784 284.474 36.8114 283.712 36.8466C283.311 36.8657 283.11 36.8015 282.855 36.762C282.654 36.7316 282.454 36.7396 282.421 36.8104C282.336 36.9797 282.645 37.0499 283.326 37.0164C283.888 36.9877 284.396 36.9823 284.838 37.086C284.899 37.0998 285.039 37.1057 285.126 37.1025C285.674 37.0831 286.215 37.0591 286.763 37.0396C286.864 37.0364 286.971 37.0424 287.065 37.0483C288.43 37.129 288.43 37.1306 288.891 37.1113C289.111 37.1017 289.325 37.0936 289.302 36.8599C289.72 36.6086 290.389 36.5905 291.037 36.5525C291.458 36.5287 291.639 36.596 291.914 36.6309C292.007 36.6431 292.108 36.6675 292.195 36.6642C293.632 36.611 295.062 36.5547 296.492 36.4953C296.733 36.4857 296.907 36.4946 297.095 36.5343C297.336 36.5846 297.604 36.6164 297.985 36.5973C298.747 36.5591 299.522 36.5347 300.297 36.5026C300.691 36.4865 300.691 36.4865 301.488 36.5804C301.575 36.5911 301.689 36.6032 301.783 36.5999C302.558 36.5724 303.327 36.5388 304.095 36.5098C304.309 36.5017 304.503 36.5229 304.671 36.5642C304.839 36.6054 305.039 36.6266 305.247 36.6185C306.022 36.5895 306.79 36.5574 307.559 36.5284C307.653 36.5252 307.766 36.5357 307.853 36.5463C308.67 36.6403 308.67 36.6402 309.045 36.6242C309.593 36.6002 310.154 36.5885 310.695 36.5568C311.223 36.5251 311.498 36.6138 311.86 36.6624C312.849 36.6253 313.845 36.5944 314.828 36.5496C315.229 36.5304 315.443 36.5808 315.711 36.6203C315.805 36.634 315.899 36.6631 315.986 36.6614C316.32 36.6546 316.647 36.6372 316.975 36.6243C317.302 36.6114 317.637 36.5985 317.964 36.5857C318.339 36.6296 318.588 36.7337 319.122 36.6974C319.443 36.6754 319.784 36.6702 320.111 36.6573C320.439 36.6444 320.773 36.6315 321.1 36.6187C321.321 36.6106 321.548 36.6056 321.762 36.5914C322.156 36.5676 322.351 36.6426 322.632 36.676C322.726 36.6866 322.833 36.7048 322.92 36.7016C323.582 36.6789 324.25 36.6593 324.898 36.6228C325.4 36.5943 325.741 36.6398 326.096 36.7038C326.17 36.7175 326.297 36.725 326.391 36.7217C327.166 36.6942 327.935 36.6606 328.703 36.6316C328.91 36.6235 329.111 36.6478 329.279 36.6875C329.453 36.7287 329.647 36.7484 329.861 36.7403C330.63 36.7113 331.405 36.6792 332.174 36.6502C332.267 36.6469 332.381 36.659 332.468 36.6712C333.218 36.7652 333.218 36.7668 333.659 36.7475C333.766 36.7427 333.88 36.7395 333.987 36.7347C334.535 36.7122 335.103 36.7035 335.638 36.6657C336.252 36.6231 336.701 36.6746 337.137 36.7615C337.685 36.7421 338.246 36.7303 338.781 36.6987C339.182 36.6749 339.396 36.733 339.664 36.7709C339.758 36.7846 339.858 36.8121 339.939 36.8089C340.714 36.7814 341.489 36.757 342.251 36.7172C342.665 36.695 342.847 36.7639 343.128 36.7987C343.222 36.8109 343.322 36.8323 343.409 36.829C343.85 36.816 344.292 36.7967 344.733 36.779C345.247 36.7582 345.247 36.7597 345.93 36.8523C346.252 36.8963 346.572 36.8604 346.887 36.8491C347.221 36.8362 347.535 36.8265 347.803 36.889C347.971 36.9287 348.172 36.953 348.379 36.9465C348.82 36.9319 349.268 36.9173 349.702 36.8934C350.05 36.8744 350.351 36.8862 350.605 36.9426C350.786 36.9823 350.974 37.0019 351.194 36.9923C352.184 36.9537 353.179 36.9135 354.168 36.8764C354.255 36.8732 354.376 36.8869 354.456 36.9006C354.644 36.9279 354.825 36.9583 355.006 36.9888C355.44 36.9742 355.888 36.9673 356.316 36.945C356.77 36.9227 357.185 36.9143 357.54 36.9982C357.614 37.0166 357.721 37.0425 357.808 37.0408C358.142 37.0341 358.47 37.0181 358.797 37.0053C359.125 36.9924 359.459 36.9795 359.786 36.9666C360.168 37.0044 360.41 37.1147 360.945 37.0784C361.265 37.0563 361.606 37.0511 361.934 37.0383C362.261 37.0254 362.595 37.011 362.923 36.9996C363.03 36.9964 363.15 36.9885 363.244 36.9945C363.344 37.0004 363.431 37.0218 363.518 37.037C363.786 37.0812 364.034 37.1253 364.415 37.0985C364.736 37.0765 365.077 37.0712 365.404 37.0568C365.852 37.0391 365.852 37.0392 366.595 37.1347C366.897 37.1742 367.237 37.1213 367.525 37.1546C367.719 37.1774 367.887 37.2155 368.074 37.2413C368.155 37.252 368.282 37.2563 368.375 37.2531C368.816 37.2385 369.264 37.2239 369.699 37.2001C370.053 37.181 370.347 37.1989 370.595 37.2539C370.776 37.2935 370.957 37.3101 371.184 37.3005C372.287 37.2556 373.39 37.2167 374.486 37.1671C374.86 37.1496 375.161 37.1752 375.369 37.2302C375.725 37.3249 376.225 37.2118 376.594 37.288C376.821 37.3353 377.049 37.3903 377.464 37.3665C378.225 37.3252 379.001 37.3023 379.769 37.2733C380.044 37.3143 380.319 37.3554 380.6 37.3964C381.041 37.3787 381.482 37.361 381.923 37.3449C382.251 37.332 382.585 37.3176 382.912 37.3063C383.019 37.303 383.133 37.2967 383.233 37.3042C383.334 37.3117 383.414 37.3316 383.508 37.3468C383.97 37.4213 383.97 37.4229 384.732 37.3908C385.06 37.3764 385.374 37.3666 385.649 37.4276C385.904 37.4841 386.204 37.4943 386.552 37.4768C387.207 37.4449 387.869 37.4207 388.537 37.398C388.744 37.39 388.938 37.4158 389.113 37.4554C389.374 37.518 389.695 37.5113 390.023 37.4938C390.457 37.4716 390.885 37.4493 391.253 37.5348C391.327 37.5531 391.441 37.579 391.521 37.5773C392.07 37.5641 392.624 37.5539 393.159 37.5238C393.694 37.4936 393.955 37.5885 394.324 37.634C394.872 37.613 395.427 37.5921 395.975 37.5711C396.081 37.5663 396.208 37.5523 396.302 37.5598C396.697 37.5914 396.926 37.7063 397.467 37.67C397.781 37.6495 398.122 37.6428 398.449 37.6376C398.536 37.6359 398.65 37.6618 398.711 37.6817C398.744 37.6924 398.711 37.7217 398.671 37.7371C398.551 37.7804 398.405 37.8206 398.298 37.8654C398.285 37.8716 398.412 37.899 398.486 37.9112C398.667 37.9386 398.874 37.9336 399.115 37.9209C399.322 37.9098 399.536 37.9309 399.684 37.9768C399.744 37.9952 399.724 38.0259 399.599 38.1276C399.6 38.203 399.74 38.1689 399.786 38.1196C399.859 38.0488 399.718 38.0259 399.451 38.0648C399.264 38.0929 399.171 38.133 399.218 38.1652C399.245 38.1821 399.372 38.2034 399.599 38.1276C400.186 38.0344 400.627 38.0167 401.068 37.999C401.182 37.9942 401.315 37.9786 401.396 37.9877C401.684 38.0241 401.952 38.0682 402.233 38.1092C402.554 38.0994 402.854 38.0759 403.169 38.1353C403.612 38.2191 403.632 38.2114 404.06 38.1937C404.28 38.1841 404.501 38.176 404.721 38.168C404.942 38.1599 405.116 38.1826 405.31 38.2177C405.705 38.2893 405.739 38.2892 405.999 38.1903C406.152 38.1301 406.258 38.1099 406.452 38.1373C407.096 38.2299 407.102 38.2361 407.65 38.2075C408.105 38.1836 408.533 38.1767 408.868 38.2638C409.096 38.3249 409.169 38.3109 409.349 38.246C409.829 38.0745 410.049 38.0772 410.953 38.1986C411.375 38.2563 411.809 38.1925 412.237 38.1841C412.598 38.1773 412.853 38.2138 412.88 38.3106C412.901 38.3706 412.962 38.4135 413.203 38.4331C413.297 38.4406 413.41 38.4512 413.504 38.4479C414.059 38.4285 414.607 38.406 415.161 38.3835C415.442 38.3723 415.595 38.2998 415.54 38.2045C415.479 38.1031 415.585 38.066 415.986 38.0361C416.227 38.0188 416.421 38.0216 416.615 38.0489C416.829 38.0793 416.77 38.1071 416.583 38.1627C416.137 38.2988 416.191 38.3817 416.767 38.4745C416.968 38.5065 417.129 38.5354 417.176 38.583C417.204 38.6076 417.177 38.6399 417.238 38.6583C417.567 38.7607 418.022 38.8261 418.531 38.8744C419.018 38.832 419.354 38.9006 419.729 38.9553C420.023 38.9979 420.371 38.9604 420.685 38.9444C421.039 38.9269 421.333 38.9387 421.588 38.9951C421.769 39.0348 421.956 39.0529 422.177 39.0449C422.618 39.0272 423.066 39.0156 423.5 38.9903C423.874 38.9681 424.156 38.9984 424.39 39.0502C424.685 39.1159 425.012 39.0707 425.32 39.0794C425.735 39.0894 425.944 39.2259 426.485 39.1881C426.806 39.166 427.14 39.1577 427.474 39.151C427.561 39.1493 427.668 39.1753 427.742 39.1936C428.097 39.2775 428.512 39.2722 428.966 39.2468C429.28 39.2293 429.588 39.2134 429.896 39.2713C430.405 39.3689 430.968 39.454 431.504 39.5438C431.579 39.6144 431.526 39.6975 431.908 39.7384C432.108 39.7595 432.296 39.7915 432.45 39.8266C432.638 39.8678 432.812 39.8783 433.053 39.8671C433.487 39.8448 433.942 39.8394 434.369 39.811C434.763 39.7857 435.011 39.836 435.253 39.8833C435.447 39.9214 435.628 39.9395 435.862 39.9114C436.102 39.8849 436.276 39.9015 436.47 39.9426C436.745 39.9991 436.765 39.9929 437.675 40.0082C437.768 40.0096 437.882 40.0324 437.936 40.0523C437.963 40.0631 437.903 40.0939 437.857 40.1094C437.797 40.1279 437.703 40.1496 437.616 40.1544C436.627 40.1961 435.631 40.2332 434.642 40.2749C434.542 40.2797 434.435 40.2906 434.362 40.3061C434.282 40.3232 434.182 40.3464 434.182 40.3679C434.182 40.3833 434.316 40.4015 434.41 40.4121C434.705 40.447 435.052 40.3926 435.34 40.4321C435.534 40.4579 435.695 40.4945 435.889 40.5187C435.969 40.5294 436.096 40.5276 436.197 40.5244C436.531 40.513 436.858 40.4971 437.193 40.4873C437.286 40.4856 437.393 40.5008 437.48 40.5129C438.123 40.6041 438.123 40.6041 438.678 40.5831C438.899 40.575 439.132 40.5516 439.34 40.5604C439.54 40.5693 439.715 40.6105 439.896 40.6363C440.271 40.691 440.626 40.7442 440.654 40.8641C440.668 40.9102 440.889 40.9498 441.11 40.9525C441.324 40.9552 441.551 40.9379 441.771 40.9283C442.293 40.909 442.293 40.909 442.969 41.0016C443.157 41.0274 443.357 41.0301 443.598 41.0143C443.691 41.008 443.805 41.014 443.906 41.0215C444.234 41.044 444.234 41.0732 444.021 41.1289C443.721 41.2109 443.747 41.2186 444.591 41.2863C444.912 41.3119 445.16 41.3607 445.428 41.4033C445.863 41.4717 445.857 41.4717 445.57 41.5629C445.504 41.583 445.444 41.6047 445.377 41.6263C445.184 41.6866 445.031 41.7515 444.63 41.7583C444.189 41.7652 443.748 41.7906 443.307 41.8083C442.879 41.8259 442.766 41.863 442.807 41.9675C442.855 42.0935 442.943 42.1072 443.711 42.1043C443.932 42.104 444.126 42.1159 444.294 42.1571C444.214 42.2065 444.068 42.2452 443.854 42.2548C443.306 42.2788 442.751 42.2998 442.203 42.3207C441.762 42.3384 441.321 42.356 440.88 42.3737C440.606 42.385 440.433 42.4652 440.507 42.5543C440.548 42.605 440.582 42.6556 440.616 42.7063C440.691 42.8077 440.832 42.8336 441.28 42.8282C441.393 42.8265 441.5 42.814 441.607 42.8169C442.042 42.8269 442.251 42.9541 442.772 42.9271C443.206 42.9048 443.661 42.8994 444.089 42.871C444.483 42.8457 444.704 42.9007 444.979 42.9417C445.072 42.9554 445.173 42.9844 445.253 42.9827C445.808 42.9649 446.363 42.947 446.904 42.9168C447.158 42.9041 447.312 42.9131 447.513 42.9496C447.996 43.038 448.009 43.0333 448.724 43.0044C449.245 42.982 449.252 42.985 449.922 43.0777C450.109 43.1035 450.31 43.1031 450.55 43.0904C450.865 43.0745 451.192 43.0493 451.52 43.0718C451.62 43.0778 451.747 43.096 451.781 43.116C451.801 43.1298 451.708 43.1638 451.628 43.1747C451.041 43.2556 450.352 43.243 449.71 43.2764C449.51 43.286 449.309 43.2571 449.141 43.2159C448.967 43.1747 448.779 43.1581 448.552 43.1662C448.111 43.1838 447.663 43.1954 447.229 43.2207C446.855 43.2429 446.593 43.208 446.332 43.1608C446.245 43.1456 446.144 43.1165 446.057 43.1182C445.068 43.1507 444.072 43.1832 443.09 43.2279C442.696 43.2471 442.468 43.1983 442.2 43.1572C442.106 43.1435 442.012 43.1145 441.925 43.1162C441.591 43.1229 441.264 43.1404 440.929 43.1533C439.713 43.2015 438.503 43.2497 437.287 43.2949C437.207 43.2981 437.106 43.266 437.012 43.2523C436.831 43.2249 436.644 43.1991 436.456 43.1733C436.122 43.1862 435.795 43.2021 435.46 43.2119C435.22 43.2185 435.006 43.2404 434.973 43.2989C434.954 43.3374 435.175 43.3724 435.409 43.3689C435.636 43.3654 435.863 43.3466 436.051 43.3662C436.981 43.463 436.981 43.4646 437.563 43.4436C438.071 43.4242 438.017 43.4089 438.466 43.4927C438.66 43.5293 438.835 43.5505 439.055 43.5409C439.603 43.5184 440.158 43.496 440.713 43.4765C440.799 43.4733 440.913 43.4885 441 43.5006C441.657 43.5918 441.657 43.5948 442.198 43.5708C442.907 43.5419 442.933 43.5342 443.409 43.6272C443.738 43.6912 444.038 43.6461 444.352 43.6424C444.714 43.7018 445.109 43.7549 445.438 43.822C445.826 43.9013 446.234 43.8867 446.675 43.8629C447.002 43.8454 447.323 43.8387 447.592 43.9013C447.846 43.9593 448.154 43.9649 448.501 43.9489C448.815 43.9345 449.136 43.9048 449.464 43.938C449.551 43.9471 449.685 43.9699 449.679 43.9838C449.672 44.0053 449.586 44.0362 449.499 44.0456C448.884 44.1097 448.209 44.1093 447.561 44.1397C447.474 44.1444 447.36 44.1277 447.273 44.1156C447.086 44.0882 446.905 44.0563 446.724 44.0274C446.396 44.0371 446.062 44.0408 445.741 44.0598C445.494 44.0741 445.307 44.0729 445.126 44.0363C444.958 44.0027 444.777 43.9615 444.576 43.9511C444.376 43.9407 444.142 43.9642 443.921 43.9738C443.701 43.9834 443.447 43.9792 443.273 44.0041C443.1 44.029 442.993 44.083 442.88 44.1263C442.754 44.1742 442.58 44.1899 442.326 44.1949C442.092 44.1999 441.905 44.1941 441.73 44.1513C441.657 44.133 441.556 44.1194 441.456 44.1072C441.362 44.0966 441.255 44.0799 441.168 44.0831C440.172 44.1202 439.183 44.1604 438.187 44.199C437.693 44.2183 437.699 44.2183 436.668 44.1294C436.575 44.1219 436.461 44.1113 436.367 44.1145C435.813 44.1339 435.265 44.1564 434.71 44.1789C434.149 44.2014 434.155 44.1983 433.198 44.1031C433.024 44.085 432.77 44.11 432.563 44.1073C432.128 44.1004 431.912 43.9716 431.405 43.9971C430.97 44.0193 430.515 44.0247 430.081 44.0532C429.687 44.0785 429.459 44.025 429.191 43.984C429.097 43.9703 428.997 43.9397 428.916 43.943C427.921 43.9785 426.931 44.0187 425.608 44.0256C425.28 44.0262 425.428 44.0582 425.642 44.0686C425.949 44.085 426.049 44.0525 425.881 43.9913C425.761 43.9484 425.586 43.9272 425.446 43.9382C425.373 43.9445 425.279 43.9739 425.608 44.0256C425.956 44.0834 425.936 44.1157 425.997 44.1341C426.144 44.1784 426.352 44.1965 426.566 44.19C426.9 44.1786 427.228 44.1627 427.562 44.1529C427.655 44.1496 427.769 44.1602 427.856 44.1724C428.593 44.2664 428.6 44.2726 429.381 44.2343C429.629 44.2231 429.809 44.2228 430.003 44.2517C430.271 44.2912 430.466 44.3585 430.874 44.3363C431.415 44.3061 431.97 44.2882 432.525 44.2704C432.611 44.2671 432.705 44.2947 432.806 44.3068C433.08 44.3432 433.282 44.4121 433.689 44.3821C434.003 44.3585 434.344 44.3518 434.679 44.3466C434.765 44.3449 434.899 44.3693 434.94 44.3892C435.02 44.4244 434.921 44.4661 434.694 44.4957C434.6 44.5082 434.473 44.5053 434.366 44.5101C433.925 44.5278 433.484 44.547 433.043 44.5616C432.809 44.5697 432.589 44.5932 432.563 44.6501C432.543 44.6886 432.784 44.722 433.011 44.7185C433.346 44.7133 433.68 44.7004 434.001 44.6799C434.568 44.6451 435.063 44.6534 435.526 44.7495C435.854 44.8166 435.834 44.792 436.184 44.9913C436.272 45.0419 436.533 45.0461 436.76 45.0426C437.308 45.034 437.562 45.0566 437.516 45.1043C437.457 45.1629 437.263 45.1817 437.016 45.1898C436.575 45.2028 436.133 45.2236 435.692 45.2413C435.585 45.2461 435.465 45.2555 435.365 45.2526C435.265 45.2497 435.171 45.2314 435.084 45.2177C434.896 45.1888 434.735 45.1445 434.534 45.1341C434.334 45.1237 434.1 45.1472 433.879 45.1568C433.659 45.1648 433.425 45.1883 433.224 45.1779C433.024 45.1675 432.856 45.1217 432.675 45.0943C432.588 45.0806 432.481 45.0593 432.394 45.0609C431.953 45.074 431.512 45.0948 431.07 45.1109C430.529 45.1318 430.529 45.1318 429.873 45.0377C429.685 45.0103 429.491 45.0122 429.244 45.0249C428.709 45.0504 428.703 45.0458 427.725 44.9583C427.632 44.9493 427.518 44.9387 427.424 44.9435C426.428 44.9806 425.439 45.0207 424.45 45.0594C423.601 45.0931 423.601 45.0931 423.135 45.2477C422.789 45.3621 422.782 45.3621 423.124 45.4138C423.398 45.4564 423.647 45.519 423.948 45.5415C424.229 45.5626 424.576 45.4928 424.884 45.563C425.038 45.5981 425.239 45.6362 425.433 45.642C425.741 45.6491 426.068 45.604 426.363 45.6711C426.511 45.7047 426.732 45.7397 426.919 45.7409C427.247 45.7434 427.581 45.7182 427.908 45.7069C428.009 45.7036 428.122 45.7034 428.216 45.711C428.316 45.72 428.403 45.7383 428.49 45.7535C428.759 45.8054 429.046 45.8294 429.394 45.8027C429.962 45.7587 430.47 45.7793 430.913 45.877C430.973 45.8907 431.12 45.892 431.214 45.8857C431.454 45.8699 431.661 45.868 431.842 45.8969C431.916 45.909 432.023 45.9304 432.01 45.9442C431.99 45.9673 431.91 45.9982 431.823 46.0061C431.196 46.0594 430.52 46.0668 429.872 46.0956C429.785 46.0988 429.678 46.079 429.591 46.0653C429.403 46.0379 429.242 45.9921 429.042 45.9817C428.841 45.9713 428.607 45.9917 428.387 45.9997C428.166 46.0078 427.932 46.0313 427.732 46.0224C427.531 46.012 427.343 45.9739 427.182 45.9403C426.995 45.9022 426.814 45.8979 426.567 45.9137C426.246 45.9343 425.912 45.9379 425.584 45.9493C425.403 45.9204 425.222 45.8884 425.035 45.861C424.948 45.8473 424.841 45.8306 424.747 45.8323C424.306 45.8454 423.865 45.8646 423.424 45.8823C422.983 45.8999 422.983 45.9 422.233 45.8059C422.146 45.7953 422.032 45.7832 421.938 45.7864C421.383 45.8059 420.835 45.8299 420.281 45.8493C420.067 45.8573 419.873 45.8361 419.698 45.7949C419.531 45.7537 419.33 45.731 419.122 45.739C418.24 45.7729 417.358 45.8052 416.476 45.8451C416.122 45.8611 415.821 45.8478 415.579 45.7929C415.298 45.7303 414.984 45.7462 414.656 45.7591C413.914 45.7912 413.908 45.7896 413.432 45.712C413.338 45.6968 413.244 45.6678 413.157 45.6694C412.389 45.6938 411.613 45.7167 410.851 45.7549C410.451 45.7756 410.236 45.7222 409.968 45.6827C409.874 45.669 409.774 45.64 409.693 45.6432C409.139 45.661 408.584 45.6774 408.042 45.7091C407.501 45.7408 407.292 45.5981 406.884 45.6004C406.329 45.6029 405.782 45.6392 405.234 45.6617C404.792 45.6794 404.351 45.697 403.91 45.7147C403.469 45.7324 403.028 45.747 402.587 45.7678C402.353 45.7789 402.179 45.7654 401.985 45.7273C401.737 45.677 401.442 45.6375 401.174 45.5919C400.765 45.5264 400.765 45.5264 400.271 45.5457C400.164 45.5505 400.05 45.5538 399.943 45.5586C399.135 45.5938 399.135 45.5908 398.104 45.4957C398.057 45.4912 397.937 45.5083 397.89 45.5207C397.75 45.5609 397.624 45.6042 397.497 45.6459C397.316 45.6216 397.095 45.6082 396.975 45.573C396.632 45.4736 396.099 45.6114 395.75 45.5136C395.623 45.4769 395.402 45.445 395.201 45.4361C394.994 45.4273 394.76 45.4492 394.546 45.4588C393.991 45.4828 393.991 45.4813 393.518 45.619C393.278 45.6871 392.931 45.6754 392.616 45.6913C392.289 45.7088 391.975 45.7185 391.7 45.656C391.452 45.5995 391.151 45.5862 390.797 45.6053C390.362 45.6291 389.915 45.6437 389.473 45.6583C389.38 45.6615 389.266 45.654 389.172 45.645C388.148 45.556 388.148 45.5545 387.654 45.5754C387.433 45.585 387.206 45.5884 386.992 45.6026C386.631 45.6279 386.357 45.596 386.095 45.5473C386.008 45.5321 385.908 45.503 385.821 45.5047C385.379 45.5132 384.945 45.5278 384.511 45.5424C384.176 45.5537 383.842 45.5604 383.521 45.5825C382.987 45.6188 382.725 45.5193 382.357 45.4738C381.809 45.4948 381.254 45.5096 380.706 45.5382C380.452 45.5509 380.285 45.5466 380.09 45.5101C379.842 45.4644 379.614 45.4125 379.214 45.4362C378.679 45.4679 378.118 45.4797 377.569 45.4991C377.201 45.452 376.932 45.3556 376.405 45.3919C376.084 45.414 375.743 45.4192 375.416 45.4321C374.974 45.4497 374.533 45.4659 374.092 45.4851C373.618 45.5044 373.624 45.4998 372.894 45.4103C372.473 45.3572 372.039 45.418 371.611 45.4279C371.277 45.4362 371.11 45.5072 371.192 45.5978C371.273 45.6884 371.093 45.7594 370.786 45.7723C370.017 45.8028 369.242 45.8349 368.473 45.8624C368.38 45.8656 368.266 45.855 368.179 45.8444C367.355 45.749 367.355 45.7505 366.988 45.765C366.44 45.789 365.878 45.8023 365.337 45.8325C364.963 45.8531 364.688 45.8213 364.447 45.7694C364.259 45.7298 364.085 45.7208 363.845 45.7305C361.198 45.8381 358.551 45.938 355.912 46.0487C355.517 46.0648 355.29 46.0206 355.022 45.9795C354.928 45.9659 354.84 45.9368 354.747 45.937C354.526 45.9373 354.306 45.9516 354.085 45.9612C353.096 45.9998 352.107 46.0461 351.111 46.0755C350.69 46.0885 350.577 46.1595 350.397 46.2182C350.257 46.2631 350.097 46.2818 349.85 46.2884C349.609 46.2949 349.435 46.2875 349.248 46.2479C349.006 46.196 348.732 46.1642 348.358 46.1864C347.923 46.2117 347.482 46.2233 347.034 46.241C346.807 46.2491 346.633 46.277 346.561 46.3325C346.547 46.3418 346.688 46.3646 346.769 46.3783C347.037 46.424 347.291 46.4773 347.593 46.5091C347.901 46.5409 348.234 46.5034 348.555 46.4936C348.669 46.4903 348.776 46.4809 348.883 46.4823C348.983 46.4836 349.104 46.4911 349.177 46.5048C349.526 46.5734 349.894 46.6204 350.375 46.5781C350.79 46.5973 351.005 46.7246 351.533 46.6898C351.854 46.6693 352.188 46.6595 352.522 46.6512C352.609 46.6495 352.703 46.6771 352.797 46.6907C353.065 46.7287 353.28 46.7898 353.68 46.763C354.108 46.7346 354.563 46.7292 354.997 46.7069C355.238 46.6942 355.411 46.7046 355.599 46.7443C355.84 46.7946 356.115 46.8326 356.489 46.8073C356.81 46.7852 357.151 46.78 357.478 46.7656C357.906 46.748 357.906 46.7495 358.67 46.8435C358.757 46.8541 358.87 46.8662 358.964 46.863C359.519 46.8436 360.067 46.8196 360.621 46.8001C360.835 46.7921 361.043 46.8117 361.191 46.8561C361.251 46.8744 361.231 46.9052 361.252 46.9313C360.149 46.9747 359.046 47.012 357.95 47.0647C357.536 47.0854 357.348 47.0227 357.073 46.9878C356.979 46.9756 356.879 46.9497 356.792 46.9529C356.017 46.9804 355.248 47.0094 354.48 47.0445C354.239 47.0557 354.058 47.0499 353.877 47.0056C353.415 46.888 352.854 46.9536 352.332 46.9714C351.931 46.9844 351.805 47.0323 351.853 47.1337C351.914 47.2535 352.156 47.29 352.77 47.2674C352.991 47.2593 353.212 47.2482 353.432 47.2416C353.646 47.2351 353.84 47.2548 354.015 47.296C354.182 47.3372 354.383 47.3584 354.59 47.3519C355.031 47.3373 355.479 47.3227 355.907 47.2989C356.261 47.2798 356.555 47.2947 356.803 47.3511C357.078 47.4137 357.399 47.3993 357.72 47.3849C358.469 47.3528 358.475 47.3544 358.944 47.4304C359.038 47.4457 359.132 47.4747 359.219 47.473C359.988 47.4486 360.763 47.4273 361.518 47.3891C361.912 47.3699 362.14 47.4187 362.401 47.4583C362.495 47.4719 362.589 47.5025 362.676 47.4993C363.231 47.4814 363.786 47.4635 364.327 47.4334C364.581 47.4191 364.735 47.4281 364.942 47.4646C365.438 47.5545 365.452 47.5514 366.153 47.5209C366.367 47.5113 366.601 47.494 366.802 47.506C367.002 47.5179 367.164 47.5622 367.351 47.5896C367.438 47.6017 367.545 47.6185 367.639 47.6152C368.08 47.6022 368.521 47.583 368.962 47.5653C369.377 47.5476 369.377 47.5492 370.153 47.6432C370.468 47.6826 370.795 47.6482 371.11 47.6353C371.45 47.6209 371.758 47.6204 372.019 47.6799C372.281 47.7394 372.595 47.7358 372.929 47.7229C373.243 47.7101 373.564 47.6757 373.885 47.7166C374.622 47.8107 374.622 47.8122 375.077 47.793C375.738 47.7657 376.393 47.74 377.061 47.7157C377.148 47.7125 377.262 47.7308 377.349 47.7429C377.537 47.7703 377.698 47.8161 377.899 47.8265C378.099 47.8385 378.333 47.8196 378.547 47.81C379.235 47.7796 379.282 47.7688 379.745 47.8695C380.133 47.9518 380.614 47.831 380.976 47.9257C381.184 47.9792 381.465 48.0218 381.852 47.995C382.173 47.9729 382.507 47.9661 382.841 47.9533C383.369 47.9323 383.369 47.9339 384.039 48.025C384.126 48.0371 384.24 48.0523 384.327 48.0491C384.768 48.036 385.216 48.0245 385.644 47.9961C386.145 47.9629 386.466 48.0208 386.842 48.077C387.136 48.1211 387.484 48.0836 387.798 48.0677C388.138 48.0517 388.446 48.0558 388.701 48.1153C388.969 48.1763 389.283 48.1681 389.617 48.1552C389.932 48.1439 390.252 48.108 390.574 48.1505C391.263 48.2446 391.263 48.2446 391.765 48.2253C392.206 48.2076 392.647 48.1884 393.088 48.1753C393.175 48.1721 393.282 48.1919 393.369 48.2056C393.557 48.233 393.718 48.2788 393.919 48.2892C394.119 48.2996 394.353 48.2792 394.574 48.2712C394.794 48.2631 395.028 48.2396 395.229 48.2485C395.429 48.2574 395.617 48.2955 395.778 48.3291C395.966 48.3687 396.139 48.373 396.393 48.3572C396.714 48.3366 397.048 48.3315 397.376 48.3201C397.557 48.349 397.744 48.3779 397.919 48.4099C398.099 48.4434 398.293 48.44 398.541 48.4288C399.363 48.3905 399.369 48.3951 400.059 48.4892C400.374 48.5317 400.701 48.4958 401.015 48.4845C401.35 48.4716 401.664 48.4649 401.925 48.526C402.18 48.584 402.494 48.5911 402.828 48.5721C403.042 48.5594 403.27 48.5513 403.49 48.5463C403.59 48.5446 403.711 48.5505 403.784 48.5627C404.14 48.6267 404.488 48.6845 404.976 48.6421C405.404 48.6537 405.619 48.7794 406.134 48.7539C406.568 48.7316 407.023 48.7262 407.45 48.6978C407.845 48.6725 408.126 48.7151 408.327 48.7686C408.689 48.8633 409.196 48.7332 409.558 48.8264C409.766 48.8799 410.034 48.9224 410.435 48.8987C410.876 48.8733 411.017 48.9053 411.145 49.002C411.219 49.0572 411.207 49.1019 411.073 49.1451C410.94 49.19 410.793 49.1825 410.578 49.1322C410.33 49.0757 410.036 49.0654 409.682 49.0783C409.334 49.0913 409.119 49.0117 408.831 48.9814C408.543 48.9496 408.203 49.004 407.902 48.9631C407.192 48.8674 407.192 48.8674 406.711 48.8867C406.383 48.8996 406.042 48.9063 405.721 48.9284C405.341 48.9552 405.093 48.908 404.831 48.8654C404.737 48.8501 404.643 48.8211 404.563 48.8228C403.795 48.8472 403.019 48.87 402.257 48.9098C401.857 48.9305 401.642 48.8755 401.374 48.8375C401.28 48.8239 401.18 48.7964 401.099 48.7996C400.438 48.8222 399.783 48.8511 399.121 48.8783C398.995 48.9201 398.855 48.9603 398.735 49.0051C398.608 49.0515 398.435 49.0717 398.181 49.0707C397.759 49.0714 397.346 49.1367 396.923 49.0559C396.488 48.9736 396.454 48.9783 396.034 48.999C395.499 49.0261 394.93 49.0209 394.43 49.0818C394.343 49.0927 394.25 49.1221 394.25 49.1436C394.243 49.1574 394.384 49.1772 394.471 49.1893C394.766 49.2257 395.106 49.1713 395.401 49.2093C395.595 49.2335 395.756 49.2701 395.95 49.2959C396.03 49.3066 396.151 49.3048 396.258 49.3031C396.371 49.3014 396.478 49.2904 396.585 49.2918C396.686 49.2931 396.793 49.3022 396.873 49.3159C397.242 49.3737 397.63 49.4268 397.959 49.4954C398.28 49.5625 398.581 49.5159 398.901 49.5123C400.187 49.6177 400.187 49.6192 401.049 49.5839C401.263 49.5758 401.483 49.5662 401.704 49.5674C401.798 49.5672 401.885 49.5947 401.979 49.6099C402.247 49.6556 402.501 49.6967 402.875 49.6714C403.196 49.6493 403.537 49.6441 403.864 49.6297C404.305 49.612 404.306 49.612 405.056 49.7076C405.243 49.7319 405.444 49.7285 405.684 49.7158C405.891 49.7046 406.105 49.7273 406.253 49.7717C406.314 49.79 406.294 49.8208 406.314 49.8469C405.653 49.8726 404.984 49.8907 404.343 49.9287C403.928 49.9525 403.74 49.8867 403.466 49.8518C403.372 49.8397 403.272 49.8137 403.185 49.817C402.53 49.8412 401.875 49.8684 401.22 49.9003C401.14 49.9035 401.04 49.9391 401.033 49.9606C401.02 50.0006 401.188 50.0388 401.429 50.0368C401.75 50.0347 402.064 50.008 402.352 50.0706C402.593 50.1255 402.894 50.1496 403.248 50.1244C403.462 50.1102 403.69 50.1098 403.904 50.0971C404.471 50.0592 404.986 50.066 405.415 50.1698C405.743 50.1969 406.064 50.1702 406.378 50.1559C406.612 50.1447 406.839 50.1335 407.007 50.1624C407.362 50.2233 407.71 50.2842 408.198 50.2419C408.727 50.284 409.129 50.374 409.571 50.4471C409.779 50.4821 409.94 50.5018 410.18 50.4783C410.28 50.4689 410.401 50.4687 410.508 50.4639C410.728 50.4558 410.962 50.4324 411.163 50.4412C411.363 50.4516 411.531 50.496 411.712 50.5233C411.799 50.537 411.9 50.5599 411.986 50.5582C412.321 50.5499 412.648 50.534 412.976 50.5211C413.303 50.5098 413.631 50.4985 413.958 50.4871C414.233 50.5266 414.514 50.5661 414.789 50.6056C415.23 50.5879 415.671 50.5703 416.105 50.5541C416.593 50.5348 416.593 50.5364 417.296 50.6305C417.611 50.673 417.945 50.6447 418.246 50.6242C418.747 50.5911 419.082 50.6489 419.437 50.7098C419.511 50.722 419.645 50.7294 419.731 50.7231C420.079 50.701 420.38 50.7174 420.635 50.7738C420.816 50.8135 420.997 50.8316 421.217 50.8236C421.986 50.793 422.754 50.7609 423.523 50.7335C423.616 50.7302 423.724 50.7439 423.811 50.756C424.494 50.8486 424.501 50.8532 425.002 50.8278C425.449 50.8055 425.864 50.7955 426.219 50.8795C426.293 50.8978 426.407 50.9237 426.487 50.9221C427.035 50.9057 427.59 50.8878 428.132 50.8608C428.379 50.848 428.553 50.8524 428.747 50.8874C428.995 50.9315 429.216 50.985 429.624 50.9643C430.753 50.9054 430.76 50.9146 432.098 51.0184C432.192 51.0259 432.319 51.0134 432.426 51.0071C432.653 50.9913 432.82 51.0125 433.021 51.0476C433.47 51.1267 433.484 51.1221 433.912 51.1044C434.239 51.09 434.58 51.0864 434.901 51.0627C435.395 51.0281 435.723 51.0875 436.092 51.1437C436.387 51.1878 436.727 51.1503 437.041 51.1359C437.382 51.1199 437.69 51.124 437.945 51.182C438.119 51.2217 438.306 51.2429 438.527 51.2348C439.295 51.2058 440.064 51.1737 440.833 51.1447C440.926 51.1415 441.04 51.1536 441.127 51.1642C441.89 51.2582 441.891 51.2628 442.646 51.2261C442.886 51.215 443.087 51.2115 443.268 51.2435C443.442 51.274 443.63 51.3028 443.81 51.3317C444.138 51.3204 444.472 51.3168 444.793 51.2978C445.04 51.2835 445.214 51.2893 445.408 51.3213C445.663 51.3624 445.878 51.4342 446.279 51.3982C446.486 51.3809 446.726 51.3851 446.933 51.3694C447.181 51.349 447.348 51.361 447.542 51.4006C447.784 51.4479 448.032 51.4966 448.419 51.4713C448.847 51.4429 449.301 51.4375 449.736 51.4152C449.976 51.4025 450.144 51.4145 450.338 51.4542C450.579 51.5045 450.854 51.5363 451.228 51.5157C451.99 51.4759 451.997 51.4836 452.74 51.5792C452.927 51.6034 453.128 51.6 453.369 51.5873C453.576 51.5762 453.79 51.5989 453.938 51.6432C454.079 51.6922 454.066 51.7229 454.079 51.7491ZM394.328 37.9846C394.107 37.9926 393.887 38.0022 393.564 37.869C393.544 37.846 393.557 37.8183 393.51 37.7984C393.403 37.7571 393.235 37.7281 393.034 37.7239C392.673 37.7184 392.239 37.7714 392.246 37.8113C392.253 37.8452 392.367 37.8742 392.588 37.9015C392.682 37.9121 392.756 37.9304 392.843 37.9425C393.098 37.9775 393.299 38.0463 393.666 38.0103C393.598 37.9151 393.632 37.9627 393.666 38.0103C393.634 38.0688 393.734 38.1102 393.975 38.1267C394.042 38.1311 394.143 38.1279 394.196 38.1186C394.403 38.0844 394.436 38.0382 394.28 37.917C394.254 37.937 394.274 37.9724 394.335 37.9815C394.395 37.9906 394.542 37.9827 394.615 37.9718C394.802 37.9422 394.895 37.9036 394.848 37.8714C394.821 37.8545 394.694 37.8332 394.614 37.8334C394.473 37.8336 394.347 37.8677 394.328 37.9846ZM448.611 55.7227C448.123 55.7527 447.562 55.743 447.074 55.8038C446.988 55.8147 446.901 55.8425 446.895 55.8641C446.888 55.8779 447.022 55.8977 447.102 55.9083C447.283 55.9326 447.484 55.9245 447.718 55.9164C448.072 55.9051 448.28 55.9754 448.555 56.0103C448.642 56.0209 448.755 56.0284 448.849 56.0252C449.39 56.0058 449.925 55.9849 450.466 55.9624C450.56 55.9577 450.66 55.9467 450.74 55.9327C451.007 55.8877 450.98 55.8585 450.719 55.8251C450.431 55.7887 450.203 55.7276 449.908 55.6989C449.487 55.6581 449.059 55.7142 448.611 55.7227ZM410.653 56.9111C410.325 56.924 410.005 56.9368 409.677 56.9497C409.57 56.9545 409.457 56.9562 409.356 56.9626C409.149 56.9737 408.996 57.0062 408.896 57.0572C409.05 57.0969 409.238 57.1196 409.445 57.1146C409.773 57.1048 410.093 57.0843 410.421 57.0791C410.775 57.0724 410.983 57.1412 411.258 57.1761C411.345 57.1867 411.452 57.188 411.552 57.1894C412.047 57.1947 412.347 57.1142 412.252 57.0021C412.184 56.9146 411.929 56.8628 411.622 56.8741C411.301 56.8854 410.974 56.8983 410.653 56.9111ZM450.87 53.4461C450.95 53.4198 451.037 53.4012 451.077 53.3781C451.196 53.2994 451.149 53.2411 450.927 53.18C450.659 53.1051 450.332 53.1564 450.031 53.1646C449.958 53.1663 449.878 53.1987 449.838 53.2188C449.811 53.2326 449.812 53.2619 449.852 53.2695C450.18 53.3304 450.529 53.3867 450.87 53.4461ZM392.811 49.0046C392.49 49.0175 392.162 49.0273 391.842 49.0448C391.761 49.0495 391.688 49.0789 391.642 49.0989C391.555 49.136 391.649 49.1866 391.924 49.1907C392.238 49.1963 392.565 49.1696 392.893 49.1567C393.307 49.1406 393.554 49.0833 393.399 49.0344C393.252 48.9869 393.051 48.9781 392.811 49.0046ZM40.8051 46.33C41.0189 46.3219 41.2395 46.3154 41.4533 46.3042C41.6538 46.2931 41.8073 46.259 41.907 46.2081C41.7393 46.1684 41.5518 46.1472 41.3445 46.1522C41.017 46.162 40.6963 46.1748 40.3755 46.1908C40.175 46.2003 39.9816 46.2345 39.9354 46.2869C39.8891 46.3269 40.3372 46.3492 40.8051 46.33ZM364.491 45.531C364.578 45.5447 364.665 45.5722 364.752 45.5721C364.966 45.5717 365.187 45.5621 365.387 45.5464C365.474 45.5401 365.54 45.5123 365.58 45.4907C365.607 45.4768 365.6 45.4522 365.56 45.44C365.365 45.3665 364.59 45.394 364.464 45.4788C364.45 45.4942 364.484 45.5141 364.491 45.531ZM343.293 37.1475C343.313 37.1721 343.32 37.1967 343.347 37.2212C343.401 37.2673 343.549 37.3008 343.763 37.3235C343.93 37.2848 344.016 37.2416 344.009 37.1955C344.002 37.1709 343.981 37.1463 343.954 37.1218C343.9 37.0757 343.753 37.0422 343.539 37.0195C343.372 37.0567 343.292 37.0998 343.293 37.1475ZM466.367 57.0819C466.307 57.102 466.247 57.1221 466.181 57.1407C466.362 57.1849 466.529 57.1985 466.656 57.1737C466.736 57.1582 466.783 57.135 466.842 57.1149C466.661 57.0706 466.501 57.0586 466.367 57.0819ZM462.211 57.2983C462.298 57.3119 462.378 57.3303 462.472 57.3393C462.626 57.3544 462.766 57.328 462.872 57.2725C462.785 57.2588 462.705 57.2405 462.611 57.2314C462.457 57.2163 462.317 57.2427 462.211 57.2983ZM464.842 57.0123C464.795 57.0493 464.89 57.0799 465.137 57.1056C465.197 57.0855 465.277 57.0669 465.317 57.0453C465.384 57.0098 465.269 56.9777 465.028 56.9535C464.962 56.9721 464.902 56.9922 464.842 57.0123ZM450.707 55.3792C450.66 55.4162 450.754 55.4468 451.002 55.4725C451.062 55.4524 451.142 55.4338 451.182 55.4122C451.248 55.3767 451.134 55.3447 450.893 55.3205C450.827 55.339 450.767 55.3591 450.707 55.3792ZM431.344 44.5323C431.284 44.5524 431.224 44.5725 431.158 44.591C431.339 44.6353 431.506 44.6489 431.633 44.624C431.713 44.6085 431.759 44.5854 431.819 44.5653C431.638 44.521 431.478 44.509 431.344 44.5323ZM412.853 38.792C413.013 38.8024 413.147 38.7807 413.26 38.7236C413.173 38.7099 413.092 38.6916 412.999 38.6825C412.845 38.6674 412.705 38.6938 412.598 38.7494C412.685 38.7646 412.772 38.7783 412.853 38.792ZM403.066 38.4476C403.006 38.4677 402.946 38.4878 402.88 38.5064C403.061 38.5506 403.228 38.5642 403.355 38.5394C403.435 38.5238 403.481 38.5007 403.541 38.4806C403.36 38.4363 403.2 38.4258 403.066 38.4476ZM336.713 37.1574C336.654 37.1775 336.594 37.1976 336.527 37.2162C336.708 37.2604 336.875 37.274 337.002 37.2492C337.082 37.2336 337.129 37.2105 337.189 37.1904C337.007 37.1461 336.847 37.1356 336.713 37.1574ZM6.56407 50.2413C6.47697 50.2276 6.38996 50.2139 6.30954 50.1987C6.11614 50.2405 6.05645 50.2791 6.16378 50.3081C6.23087 50.3264 6.33122 50.337 6.41831 50.3507C6.6184 50.3089 6.66474 50.2719 6.56407 50.2413Z" fill="#FFE492"/>
<path d="M238.762 8.10596C237.993 8.1365 237.231 8.17471 236.463 8.19448C236.055 8.20441 235.909 8.2708 235.742 8.3326C235.609 8.38205 235.456 8.39769 235.208 8.40734C233.123 8.48628 231.044 8.56983 228.966 8.65184C228.705 8.63229 228.577 8.60022 228.637 8.56167C228.67 8.53854 228.75 8.5061 228.83 8.50289C230.254 8.44354 231.671 8.38266 233.101 8.3356C233.509 8.3226 233.622 8.25473 233.828 8.19901C233.895 8.18044 233.948 8.15266 234.035 8.14175C234.122 8.12929 234.249 8.13062 234.362 8.12735C236.661 8.03573 238.961 7.94567 241.26 7.85405C241.521 7.8736 241.648 7.90567 241.588 7.94422C241.555 7.96735 241.475 7.99978 241.395 8.003C240.513 8.03681 239.637 8.07062 238.762 8.10596Z" fill="#FFE492"/>
<path d="M659.937 15.1958C659.589 15.2148 659.148 15.2417 658.786 15.1531C658.612 15.1104 658.424 15.0969 658.197 15.1065C657.87 15.1224 657.536 15.1353 657.201 15.1451C657.115 15.1468 657.001 15.1301 656.914 15.1164C656.726 15.089 656.565 15.0432 656.364 15.0312C656.163 15.0192 655.923 15.0535 655.716 15.0462C655.442 15.0359 655.327 14.9945 655.4 14.956C655.44 14.9344 655.52 14.9035 655.607 14.8987C656.843 14.8397 656.85 14.8397 657.198 14.8944C657.466 14.937 657.714 14.9843 658.095 14.9575C658.416 14.9354 658.757 14.9302 659.084 14.9158C659.539 14.8966 659.539 14.8981 660.275 14.9937C660.463 15.018 660.664 15.0161 660.904 15.0019C661.111 14.9908 661.312 15.015 661.48 15.0563C661.374 15.1087 661.22 15.1428 661.013 15.1524C660.679 15.1684 660.351 15.1797 659.937 15.1958Z" fill="#FFE492"/>
<path d="M647.624 14.752C648.466 14.7183 649.315 14.6892 650.157 14.6508C650.504 14.6349 650.778 14.6513 651.02 14.7031C651.281 14.7596 651.575 14.7544 651.896 14.7431C652.097 14.7366 652.291 14.7609 652.425 14.8037C652.479 14.8205 652.466 14.8513 652.486 14.8758C651.751 14.9047 651.009 14.9352 650.267 14.961C650.181 14.9643 650.073 14.9491 649.993 14.9369C649.812 14.9111 649.658 14.8653 649.464 14.8564C649.049 14.8356 648.635 14.8778 648.214 14.8862C648.013 14.8896 647.819 14.8669 647.685 14.8257C647.631 14.8058 647.644 14.7765 647.624 14.752Z" fill="#FFE492"/>
<path d="M342.976 2.40936C343.852 2.37402 344.727 2.34024 345.603 2.30491C345.864 2.32599 345.985 2.35653 345.931 2.39507C345.898 2.41819 345.818 2.45062 345.738 2.45384C343.987 2.52604 342.236 2.59517 340.492 2.66429C340.231 2.64321 340.11 2.61266 340.163 2.57413C340.196 2.551 340.276 2.51857 340.356 2.51536C341.225 2.4785 342.101 2.44469 342.976 2.40936Z" fill="#FFE492"/>
<path d="M208.054 11.1843C207.66 11.188 207.246 11.2453 206.804 11.2032C206.717 11.1957 206.596 11.1714 206.603 11.1577C206.616 11.1347 206.696 11.1055 206.783 11.0962C207.163 11.0573 207.638 11.0519 207.831 10.9444C207.923 10.8892 208.097 10.8705 208.331 10.8594C208.578 10.8468 208.752 10.8511 208.946 10.8828C209.201 10.9237 209.416 10.9999 209.816 10.9594C209.837 10.9838 209.884 11.0113 209.864 11.0343C209.844 11.0573 209.758 11.0788 209.678 11.0958C209.604 11.1112 209.504 11.1252 209.41 11.1299C208.969 11.149 208.528 11.1651 208.054 11.1843Z" fill="#FFE492"/>
<path d="M555.867 10.0432C556.195 10.0304 556.536 10.0236 556.856 10.0016C557.11 9.98426 557.271 9.99473 557.472 10.0312C557.814 10.0951 557.834 10.089 558.669 10.0967C558.763 10.0981 558.877 10.1209 558.931 10.1408C558.964 10.1515 558.918 10.1807 558.878 10.1962C558.818 10.2162 558.731 10.2425 558.651 10.2426C558.123 10.2481 557.589 10.3396 557.073 10.2361C556.812 10.1844 556.524 10.1603 556.17 10.1839C555.956 10.1981 555.729 10.2046 555.508 10.2111C555.294 10.2177 555.074 10.2011 554.939 10.1553C554.745 10.0881 554.858 10.0618 555.206 10.0658C555.426 10.0685 555.647 10.0513 555.867 10.0432Z" fill="#FFE492"/>
<path d="M677.166 20.2336C677.587 20.2176 678.008 20.1985 678.436 20.1855C678.523 20.1823 678.63 20.199 678.71 20.2095C679.032 20.2549 678.986 20.333 679 20.4018C679.008 20.4737 678.266 20.5331 677.951 20.4847C677.603 20.4302 677.288 20.368 676.807 20.4025C676.62 20.4151 676.399 20.3879 676.278 20.3437C676.097 20.2798 676.197 20.2536 676.538 20.2576C676.739 20.2603 676.952 20.2431 677.166 20.2336Z" fill="#FFE492"/>
<path d="M464.663 0.0468237C465.098 0.0292119 465.532 0.00240901 465.967 0.000136719C466.221 -0.00182888 466.348 0.0485662 466.289 0.0854835C466.255 0.10855 466.176 0.1409 466.095 0.144104C465.227 0.182396 464.358 0.214557 463.489 0.249781C463.235 0.228737 463.107 0.196745 463.167 0.159827C463.2 0.136761 463.28 0.105945 463.36 0.101207C463.795 0.078993 464.229 0.0644356 464.663 0.0468237Z" fill="#FFE492"/>
<path d="M668.788 15.3051C669.209 15.2891 669.636 15.2653 670.057 15.2569C670.278 15.2535 670.452 15.2885 670.48 15.3283C670.493 15.3467 670.387 15.3791 670.3 15.3869C669.699 15.4401 669.05 15.4473 668.422 15.4744C668.222 15.4825 668.007 15.4583 667.886 15.4156C667.705 15.3499 667.805 15.3252 668.146 15.3292C668.36 15.3304 668.574 15.3132 668.788 15.3051Z" fill="#FFE492"/>
<path d="M566.917 10.2224C567.131 10.2143 567.351 10.1941 567.558 10.1999C567.779 10.2071 567.92 10.2512 567.988 10.2954C568.062 10.3457 568.056 10.393 567.989 10.4359C567.883 10.5094 567.776 10.5066 567.528 10.4581C567.146 10.3824 567.12 10.3916 566.364 10.3959C566.277 10.3961 566.17 10.3733 566.103 10.3536C566.003 10.3232 566.055 10.2758 566.289 10.2479C566.463 10.2277 566.703 10.2304 566.917 10.2224Z" fill="#FFE492"/>
<path d="M653.113 14.8433C653.427 14.8305 653.741 14.8101 654.055 14.8096C654.276 14.8077 654.45 14.8426 654.471 14.8808C654.478 14.8992 654.378 14.93 654.298 14.9393C653.917 14.9813 653.489 14.9851 653.075 14.9996C652.881 15.0061 652.667 14.9819 652.546 14.9393C652.365 14.8752 652.471 14.846 652.799 14.8546C652.899 14.8575 653.006 14.8481 653.113 14.8433Z" fill="#FFE492"/>
<path d="M603.625 13.0973C603.157 13.1165 602.716 13.0943 602.748 13.0544C602.795 13.0022 602.988 12.9682 603.189 12.9587C603.509 12.9428 603.83 12.93 604.157 12.9202C604.365 12.9138 604.552 12.9364 604.72 12.976C604.62 13.0251 604.467 13.0606 604.266 13.0717C604.059 13.0828 603.839 13.0893 603.625 13.0973Z" fill="#FFE492"/>
<path d="M600.555 12.9093C600.869 12.8965 601.183 12.876 601.497 12.8755C601.718 12.8736 601.892 12.9085 601.912 12.9468C601.919 12.9651 601.819 12.9959 601.739 13.0053C601.359 13.0473 600.931 13.0511 600.517 13.0656C600.323 13.072 600.108 13.0479 599.988 13.0052C599.806 12.9412 599.913 12.9119 600.241 12.9205C600.341 12.9234 600.448 12.914 600.555 12.9093Z" fill="#FFE492"/>
<path d="M563.124 10.2195C563.438 10.2067 563.752 10.1863 564.066 10.1842C564.287 10.1823 564.461 10.2172 564.482 10.2555C564.489 10.2738 564.389 10.3031 564.309 10.314C563.928 10.356 563.5 10.3598 563.086 10.3743C562.892 10.3807 562.678 10.3566 562.557 10.3139C562.376 10.2499 562.482 10.2206 562.81 10.2292C562.91 10.2321 563.017 10.2228 563.124 10.2195Z" fill="#FFE492"/>
<path d="M561.366 10.1337C561.7 10.1209 561.807 10.1131 561.914 10.1129C562.115 10.1126 562.322 10.1306 562.443 10.1748C562.624 10.2388 562.517 10.2574 562.19 10.261C561.769 10.2648 561.355 10.2977 560.933 10.3045C560.713 10.308 560.539 10.2715 560.525 10.2332C560.518 10.2148 560.618 10.1825 560.698 10.1762C560.978 10.1528 561.286 10.1385 561.366 10.1337Z" fill="#FFE492"/>
<path d="M597.73 1.10261C597.516 1.11063 597.289 1.13244 597.088 1.12514C596.821 1.11488 596.713 1.07376 596.78 1.03539C596.819 1.0139 596.893 0.98317 596.973 0.978443C597.4 0.956289 597.835 0.941764 598.262 0.925731C598.517 0.948249 598.631 0.980185 598.564 1.01855C598.524 1.04004 598.451 1.06924 598.371 1.0755C598.164 1.09115 597.943 1.0946 597.73 1.10261Z" fill="#FFE492"/>
<path d="M338.185 2.60089C338.392 2.59901 338.58 2.61857 338.741 2.65652C338.641 2.70562 338.494 2.73798 338.294 2.75208C338.194 2.75837 338.08 2.76314 337.973 2.76485C337.766 2.76827 337.579 2.74718 337.418 2.70923C337.517 2.66013 337.671 2.62776 337.864 2.61367C337.965 2.60738 338.078 2.60566 338.185 2.60089Z" fill="#FFE492"/>
<path d="M666.498 15.3036C666.491 15.2593 666.898 15.2081 667.266 15.209C667.46 15.2102 667.661 15.2313 667.775 15.2724C667.949 15.3348 667.849 15.3594 667.522 15.3554C667.321 15.3527 667.107 15.379 666.907 15.3748C666.679 15.3736 666.545 15.3402 666.498 15.3036Z" fill="#FFE492"/>
<path d="M568.859 10.4027C568.852 10.3859 568.818 10.3661 568.838 10.3508C568.964 10.2666 569.732 10.2393 569.934 10.3123C569.967 10.3259 569.981 10.3488 569.955 10.3626C569.915 10.3841 569.841 10.4117 569.761 10.4179C569.554 10.4336 569.341 10.4416 569.127 10.4435C569.033 10.4436 568.946 10.4178 568.859 10.4027Z" fill="#FFE492"/>
<path d="M210.43 10.9351C209.642 10.9686 209.629 10.9655 209.768 10.8889C209.894 10.8199 210.128 10.7782 210.469 10.7777C210.569 10.7775 210.676 10.7742 210.763 10.7802C210.856 10.7877 210.99 10.8027 211.011 10.821C211.051 10.8561 210.938 10.8945 210.738 10.9209C210.651 10.9332 210.537 10.9304 210.43 10.9351Z" fill="#FFE492"/>
<path d="M348.06 2.36317C347.826 2.38954 347.626 2.38072 347.478 2.33209C347.331 2.28347 347.564 2.22502 347.971 2.21058C348.078 2.20734 348.192 2.19493 348.292 2.20087C348.392 2.20528 348.493 2.22343 348.553 2.24165C348.661 2.27202 348.594 2.31339 348.381 2.34888C348.294 2.36278 348.167 2.35993 348.06 2.36317Z" fill="#FFE492"/>
<path d="M665.107 15.1934C665.167 15.1735 665.227 15.1536 665.293 15.1352C665.54 15.1607 665.647 15.191 665.581 15.2261C665.541 15.2475 665.461 15.266 665.402 15.2859C665.155 15.2604 665.054 15.2286 665.107 15.1934Z" fill="#FFE492"/>
<path d="M221.178 28.2179C221.178 28.1996 221.271 28.1705 221.344 28.1642C221.484 28.1533 221.658 28.1744 221.778 28.2169C221.946 28.2776 221.846 28.3098 221.539 28.2936C221.326 28.2817 221.179 28.2515 221.178 28.2179Z" fill="#FFE492"/>
<path d="M571.568 8.98002C571.655 8.99361 571.742 9.0072 571.822 9.02233C571.71 9.079 571.57 9.10366 571.423 9.08864C571.33 9.07964 571.249 9.06146 571.162 9.04787C571.275 8.99119 571.408 8.9696 571.568 8.98002Z" fill="#FFE492"/>
<path d="M569.251 8.91696C569.384 8.89384 569.544 8.90579 569.731 8.94974C569.671 8.96969 569.618 8.99268 569.545 9.00807C569.419 9.03271 569.252 9.02077 569.071 8.97528C569.124 8.95687 569.184 8.93692 569.251 8.91696Z" fill="#FFE492"/>
<path d="M567.479 8.98837C567.566 9.00196 567.652 9.01556 567.733 9.03069C567.62 9.08736 567.487 9.112 567.333 9.097C567.24 9.088 567.16 9.06981 567.073 9.05622C567.186 8.99955 567.319 8.97643 567.479 8.98837Z" fill="#FFE492"/>
<path d="M566.175 8.91097C566.275 8.94128 566.222 8.97795 566.03 9.01942C565.943 9.00585 565.843 8.99537 565.776 8.9772C565.669 8.94842 565.722 8.91022 565.921 8.86873C566.001 8.88383 566.088 8.89741 566.175 8.91097Z" fill="#FFE492"/>
</svg>
