<svg width="73" height="73" viewBox="0 0 73 73" fill="none" xmlns="http://www.w3.org/2000/svg">
<g clip-path="url(#clip0_107_72824)">
<path d="M57.0316 26.8052H51.8935V15.081C51.8935 6.76554 44.9858 0.000490632 36.4951 0.000490632C28.0044 0.000490632 21.0966 6.76554 21.0966 15.081V26.8052H15.9691C11.2521 26.8052 7.41443 30.6428 7.41443 35.3599V64.4458C7.41443 69.1629 11.2521 73.0005 15.9691 73.0005H57.0316C61.7487 73.0005 65.5863 69.1629 65.5863 64.4458V35.3599C65.5863 30.6428 61.7487 26.8052 57.0316 26.8052ZM26.7998 15.081C26.7998 9.91024 31.1491 5.70362 36.4951 5.70362C41.841 5.70362 46.1904 9.91024 46.1904 15.081V26.8052H26.7998V15.081ZM59.8832 64.4458C59.8832 66.0181 58.604 67.2974 57.0316 67.2974H15.9691C14.3968 67.2974 13.1176 66.0181 13.1176 64.4458V35.3599C13.1176 33.7875 14.3968 32.5083 15.9691 32.5083H57.0316C58.604 32.5083 59.8832 33.7875 59.8832 35.3599V64.4458Z" fill="#4F9CF9"/>
<path d="M36.4992 40.7774C33.5856 40.7774 31.2238 43.1392 31.2238 46.0528C31.2238 47.9131 32.1876 49.5474 33.6424 50.4867V56.7461C33.6424 58.3209 34.919 59.5977 36.4939 59.5977C38.0687 59.5977 39.3455 58.3209 39.3455 56.7461V50.4934C40.8061 49.5552 41.7746 47.9177 41.7746 46.0528C41.7746 43.1392 39.4128 40.7774 36.4992 40.7774Z" fill="#4F9CF9"/>
</g>
<defs>
<clipPath id="clip0_107_72824">
<rect width="72.6503" height="72.6503" fill="white" transform="scale(1.00481)"/>
</clipPath>
</defs>
</svg>
