<svg width="75" height="59" viewBox="0 0 75 59" fill="none" xmlns="http://www.w3.org/2000/svg">
<g clip-path="url(#clip0_107_72545)">
<path d="M-0.000368047 4.79467V18.4831C-0.000368047 22.6522 5.07959 24.8757 8.18402 21.9573L23.0006 8.26889C26.2461 5.28106 24.1295 0.000245365 19.6845 0.000245365H4.86793C2.18684 0.000245365 -0.000368047 2.15426 -0.000368047 4.79467Z" fill="white"/>
<path d="M70.1302 0.000245365H55.3136C50.9392 0.000245365 48.752 5.28106 51.9975 8.26889L66.8141 21.9573C69.9185 24.8062 74.9985 22.6522 74.9985 18.4831V4.79467C74.9985 2.15426 72.8113 0.000245365 70.1302 0.000245365Z" fill="white"/>
<path d="M40.851 33.4222L66.8152 57.4638C69.9197 60.3126 74.9996 58.1586 74.9996 53.9895V40.1622C74.9996 38.842 74.4352 37.5912 73.4474 36.6879L40.851 6.46224C38.946 4.72513 36.0533 4.72513 34.1483 6.46224L1.55184 36.6879C0.564072 37.5912 -0.000368047 38.842 -0.000368047 40.1622V53.9895C-0.000368047 58.1586 5.07959 60.3821 8.18402 57.4638L34.1483 33.4222C36.0533 31.6851 38.946 31.6851 40.851 33.4222Z" fill="white"/>
</g>
<defs>
<clipPath id="clip0_107_72545">
<rect width="74.6259" height="58.4905" fill="white" transform="scale(1.00501)"/>
</clipPath>
</defs>
</svg>
