<svg width="73" height="73" viewBox="0 0 73 73" fill="none" xmlns="http://www.w3.org/2000/svg">
<g clip-path="url(#clip0_107_72891)">
<path d="M56.5042 40.9188C54.4961 30.8128 64.0885 24.8858 64.0885 24.8858C64.0885 24.8858 60.3511 19.4788 54.0702 18.0878C47.7922 16.6937 44.6502 18.4354 41.5143 19.7418C38.3754 21.0513 36.8091 21.0513 36.8091 21.0513C32.2793 21.0513 28.9679 16.2551 20.3374 18.4386C14.3916 19.9391 8.13244 26.8029 7.00155 34.995C5.87066 43.19 8.31107 53.6469 13.0163 61.7512C17.7216 69.8618 22.5147 72.9098 25.9167 72.9976C29.3188 73.0821 32.7146 70.5603 36.8091 69.9463C40.9067 69.3385 43.4284 71.4313 47.4476 72.5622C51.4511 73.69 52.8546 72.6436 57.4659 68.7215C62.0897 64.7993 66.275 53.5499 66.275 53.5499C66.275 53.5499 58.5123 51.0311 56.5042 40.9188Z" fill="#1A3453"/>
<path d="M47.6162 11.5497C52.0646 7.01679 50.5578 -0.000490632 50.5578 -0.000490632C50.5578 -0.000490632 44.3113 1.09598 40.1259 5.45036C35.9438 9.80793 36.6361 16.6904 36.6361 16.6904C36.6361 16.6904 43.1677 16.0796 47.6162 11.5497Z" fill="#1A3453"/>
</g>
<defs>
<clipPath id="clip0_107_72891">
<rect width="72.6503" height="72.6503" fill="white" transform="scale(1.00481)"/>
</clipPath>
</defs>
</svg>
