<svg width="73" height="73" viewBox="0 0 73 73" fill="none" xmlns="http://www.w3.org/2000/svg">
<g clip-path="url(#clip0_107_72854)">
<path d="M36.4352 23.061L21.2846 49.3395H21.2418L30.0155 60.0392L10.3282 68.2994C9.94287 68.0854 9.64328 67.7858 9.47223 67.4862L0.227531 50.3666C-0.243256 49.4249 0.142076 48.6975 0.27033 48.2695L25.051 5.47066C25.2221 5.21387 25.4788 4.95707 25.8214 4.74294H25.8642L38.5753 8.68057L36.4352 23.061Z" fill="#59C36A"/>
<path d="M72.9999 49.3399L55.8376 60.0396L51.7717 49.3399L36.4355 23.0614L25.8641 4.74322C26.1635 4.52922 26.5488 4.40097 26.8913 4.40097H46.1221C46.5503 4.52922 47.4062 4.48642 47.9625 5.47094L72.7431 48.2698C72.9142 48.5695 72.9999 48.9546 72.9999 49.3399Z" fill="#FFDA2D"/>
<path d="M47.9633 5.47241C47.4072 4.48789 46.5511 4.53069 46.1229 4.40244H36.4363V23.0627L51.7725 49.3412L55.8384 60.0409L73.0008 49.3412C73.0008 48.9559 72.915 48.5708 72.744 48.2713L47.9633 5.47241Z" fill="#FDBF00"/>
<path d="M72.9986 49.3404C72.9986 49.7254 72.9129 50.1108 72.7846 50.3676L63.5399 67.4871C63.1974 68.0435 62.3845 68.5999 61.6568 68.5999H11.354C11.0115 68.5999 10.6263 68.4713 10.3268 68.3003L21.2405 49.3404H72.9986Z" fill="#4086F4"/>
<path d="M36.4363 68.5999H61.6591C62.3868 68.5999 63.1998 68.0435 63.5422 67.4871L72.7869 50.3676C72.9152 50.1108 73.0009 49.7254 73.0009 49.3404H36.4364V68.5999H36.4363Z" fill="#4175DF"/>
</g>
<defs>
<clipPath id="clip0_107_72854">
<rect width="72.6503" height="72.6503" fill="white" transform="scale(1.00481)"/>
</clipPath>
</defs>
</svg>
