<svg width="73" height="73" viewBox="0 0 73 73" fill="none" xmlns="http://www.w3.org/2000/svg">
<path d="M33.7716 42.4009C33.1876 42.4009 32.6036 42.1785 32.1588 41.7325C31.2679 40.8417 31.2679 39.3976 32.1588 38.5068L46.9424 23.7232C47.8321 22.8323 49.2784 22.8323 50.1681 23.7232C51.0589 24.614 51.0589 26.058 50.1681 26.9488L35.3845 41.7325C34.9396 42.1785 34.3556 42.4009 33.7716 42.4009Z" fill="#FFE492"/>
<path d="M33.7748 42.4022C33.1908 42.4022 32.6079 42.1798 32.1619 41.7338L24.7091 34.2821C23.8183 33.3912 23.8183 31.9472 24.7091 31.0564C25.5988 30.1656 27.0439 30.1656 27.9348 31.0564L35.3876 38.5081C36.2784 39.3989 36.2784 40.843 35.3876 41.7338C34.9428 42.1798 34.3588 42.4022 33.7748 42.4022Z" fill="#FFE492"/>
<path d="M36.5001 66.1561C36.2628 66.1561 36.0221 66.1185 35.7849 66.0409C21.2032 61.2309 11.4063 47.6825 11.4063 32.3263C11.4063 31.0671 12.4283 30.0451 13.6876 30.0451C14.9468 30.0451 15.9688 31.0671 15.9688 32.3263C15.9688 45.7081 24.5064 57.5159 37.2141 61.7077C38.4106 62.1023 39.0608 63.3924 38.6661 64.5889C38.3502 65.5482 37.4582 66.1561 36.5001 66.1561Z" fill="#FFE492"/>
<path d="M13.6876 34.6075C12.4283 34.6075 11.4063 33.5855 11.4063 32.3263V16.1876C11.4063 14.9283 12.4283 13.9063 13.6876 13.9063C14.9468 13.9063 15.9688 14.9283 15.9688 16.1876V32.3263C15.9688 33.5867 14.9468 34.6075 13.6876 34.6075Z" fill="#FFE492"/>
<path d="M13.6856 18.4693C12.5655 18.4693 11.588 17.6435 11.4283 16.5017C11.255 15.2539 12.1253 14.1018 13.3742 13.9284C21.0803 12.8574 28.5183 10.5545 35.483 7.08355C36.611 6.52237 37.9809 6.97976 38.5421 8.10784C39.1045 9.23591 38.6448 10.6047 37.5178 11.167C30.1095 14.8581 22.1981 17.307 14.0016 18.4476C13.8955 18.4624 13.7894 18.4693 13.6856 18.4693Z" fill="#FFE492"/>
<path d="M36.5001 66.1561C35.5431 66.1561 34.65 65.5482 34.334 64.5889C33.9394 63.3924 34.5895 62.1023 35.7861 61.7077C48.4938 57.517 57.0313 45.7093 57.0313 32.3263C57.0313 31.0671 58.0533 30.0451 59.3126 30.0451C60.5718 30.0451 61.5938 31.0671 61.5938 32.3263C61.5938 47.6814 51.797 61.2309 37.2141 66.0409C36.9769 66.1196 36.7373 66.1561 36.5001 66.1561Z" fill="#FFE492"/>
<path d="M59.3122 34.6075C58.053 34.6075 57.031 33.5855 57.031 32.3263V16.1876C57.031 14.9283 58.053 13.9063 59.3122 13.9063C60.5715 13.9063 61.5935 14.9283 61.5935 16.1876V32.3263C61.5935 33.5867 60.5715 34.6075 59.3122 34.6075Z" fill="#FFE492"/>
<path d="M59.3163 18.4693C59.2113 18.4693 59.1053 18.4624 58.9992 18.4476C50.8027 17.307 42.8913 14.8581 35.4829 11.167C34.356 10.6047 33.8963 9.23591 34.4586 8.10784C35.0198 6.97976 36.3897 6.52237 37.5178 7.08355C44.4825 10.5533 51.9205 12.8574 59.6265 13.9284C60.8744 14.1018 61.7458 15.255 61.5724 16.5017C61.415 17.6435 60.4375 18.4693 59.3163 18.4693Z" fill="#FFE492"/>
</svg>
