<svg width="516" height="38" viewBox="0 0 516 38" fill="none" xmlns="http://www.w3.org/2000/svg">
<path d="M482.543 18.7776C481.84 18.8103 481.13 18.8334 480.441 18.8813C479.994 18.9113 479.801 18.8279 479.502 18.7849C479.402 18.7699 479.295 18.7397 479.203 18.7438C478.507 18.7764 477.811 18.8129 477.115 18.8494C476.903 18.9244 476.77 19.0241 476.443 19.0614C476.124 19.0967 475.748 19.0978 475.392 19.1161C474.924 19.1385 474.455 19.1609 473.987 19.1814C473.752 19.1917 473.561 19.2285 473.484 19.2975C473.47 19.309 473.626 19.3371 473.712 19.354C473.997 19.4104 474.275 19.4745 474.588 19.5175C474.888 19.5586 475.256 19.4887 475.577 19.5412C476.296 19.6593 476.303 19.6574 476.85 19.6328C477.319 19.6104 477.787 19.5861 478.256 19.5694C478.348 19.5653 478.455 19.5937 478.555 19.6086C478.854 19.6497 479.047 19.7446 479.487 19.707C479.821 19.6774 480.19 19.6705 480.538 19.6542C480.83 19.7087 481.101 19.7709 481.415 19.8138C481.707 19.8549 481.793 19.8871 481.637 19.943C481.496 19.9949 481.297 20.0165 481.034 20.0211C480.8 20.0238 480.565 20.0416 480.331 20.0519C480.21 20.058 480.097 20.0621 479.983 20.0682C479.536 20.0906 479.536 20.0906 478.717 19.9708C478.396 19.9241 478.035 19.992 477.729 19.9471C477.522 19.9172 477.344 19.8719 477.144 19.8401C477.059 19.8269 476.924 19.8254 476.817 19.8296C476.462 19.844 476.107 19.8546 475.767 19.8805C475.525 19.8984 475.384 19.9523 475.413 20.0056C475.421 20.0266 475.592 20.0566 475.691 20.0582C475.918 20.0614 476.16 20.0339 476.38 20.0466C476.593 20.0593 476.814 20.0968 476.971 20.1384C477.292 20.2252 477.654 20.1459 477.959 20.1679C478.28 20.1917 478.544 20.2673 478.85 20.3122C478.928 20.3234 479.077 20.3038 479.198 20.2977C479.546 20.2833 479.894 20.2708 480.242 20.2564C480.534 20.3109 480.848 20.3596 481.111 20.4218C481.589 20.5349 482.101 20.5772 482.719 20.52C483.067 20.4884 483.408 20.4989 483.686 20.5725C483.971 20.648 484.298 20.6394 484.66 20.623C484.994 20.6067 485.334 20.5637 485.676 20.6161C486.417 20.7323 486.424 20.738 487.298 20.6895C487.56 20.6754 487.759 20.6709 487.959 20.7143C488.144 20.7538 488.344 20.7875 488.536 20.8251C488.884 20.8107 489.239 20.7963 489.587 20.78C490.034 20.7576 490.283 20.7836 490.392 20.8902C490.457 20.9549 490.486 21.014 490.643 21.0574C490.829 21.1103 491.027 21.1078 491.297 21.0917C491.553 21.0776 491.737 21.056 491.843 20.987C491.885 20.9582 491.97 20.9312 492.048 20.9081C492.111 20.8907 492.21 20.8637 492.267 20.8674C492.374 20.8747 492.516 20.8952 492.552 20.9199C492.904 21.1499 492.904 21.1518 493.26 21.2175C493.652 21.2908 494.058 21.3564 494.415 21.4393C494.736 21.5128 495.055 21.4794 495.403 21.4783C495.666 21.4775 495.837 21.5267 495.817 21.5764C495.803 21.605 495.704 21.6473 495.619 21.6514C494.923 21.6917 494.22 21.7262 493.517 21.7551C493.432 21.7592 493.325 21.7251 493.225 21.7082C493.026 21.6745 492.847 21.6216 492.634 21.6107C492.421 21.5999 492.172 21.6293 491.938 21.6396C491.704 21.6498 491.455 21.6754 491.242 21.6608C491.029 21.6461 490.857 21.5913 490.658 21.5556C490.565 21.5387 490.437 21.5143 490.359 21.5203C489.841 21.5676 489.456 21.5058 489.085 21.4229C489.007 21.406 488.872 21.3949 488.772 21.399C487.949 21.434 487.132 21.4746 486.308 21.5134C485.975 21.5296 485.703 21.4636 485.631 21.3512C485.594 21.2883 485.522 21.2256 485.521 21.1626C485.519 21.048 485.128 20.9862 484.844 21.0004C484.375 21.0209 483.899 21.0376 483.438 21.0677C483.062 21.0917 482.741 21.0698 482.485 21.0018C482.185 20.9244 481.844 20.9407 481.503 20.9628C481.248 20.9788 481.178 21.042 481.194 21.2004C481.21 21.3283 481.09 21.3687 480.629 21.3911C480.046 21.4196 479.457 21.4481 478.868 21.4709C478.775 21.475 478.668 21.4428 478.576 21.4259C478.376 21.3922 478.198 21.3373 477.984 21.3265C477.771 21.3138 477.523 21.3432 477.288 21.3554C477.054 21.3656 476.806 21.3931 476.592 21.3804C476.379 21.3676 476.2 21.3109 476.008 21.2752C475.915 21.2583 475.801 21.2338 475.709 21.2379C475.24 21.2546 474.772 21.2789 474.303 21.3014C473.778 21.3258 473.778 21.3258 473.03 21.2097C472.688 21.1573 472.347 21.2003 472.014 21.2166C471.659 21.233 471.325 21.2416 471.046 21.1661C470.861 21.117 470.655 21.0871 470.434 21.0973C469.845 21.122 469.263 21.1524 468.673 21.1771C468.574 21.1812 468.439 21.172 468.36 21.1551C467.983 21.076 467.612 21.0142 467.087 21.0558C466.633 21.0916 466.142 21.0949 465.688 21.1288C465.44 21.1467 465.327 21.2081 465.377 21.2557C465.406 21.2804 465.556 21.3086 465.655 21.3083C465.883 21.3095 466.131 21.2801 466.344 21.291C466.785 21.3125 467.008 21.4722 467.583 21.4266C467.923 21.3988 468.279 21.3882 468.634 21.3795C468.726 21.3773 468.826 21.4133 468.926 21.4321C469.211 21.4828 469.461 21.5488 469.872 21.5132C470.213 21.4855 470.575 21.4768 470.923 21.4604C471.477 21.434 471.477 21.4359 472.196 21.5501C472.538 21.6045 472.879 21.5595 473.212 21.5452C473.461 21.5349 473.695 21.5151 473.895 21.5412C474.201 21.5804 474.422 21.6713 474.799 21.6645C475.154 21.6577 475.502 21.6299 475.857 21.6193C476.077 21.6129 476.284 21.6428 476.462 21.6938C476.648 21.7448 476.847 21.7671 477.088 21.7549C477.436 21.7386 477.791 21.7185 478.146 21.7078C478.246 21.7056 478.36 21.7225 478.453 21.7375C478.652 21.7712 478.844 21.8107 479.037 21.8464C479.385 21.8339 479.74 21.829 480.081 21.8051C480.344 21.7871 480.528 21.7942 480.742 21.8318C481.013 21.8825 481.235 21.9734 481.674 21.9282C481.894 21.9066 482.15 21.9115 482.37 21.8917C482.64 21.8661 482.825 21.8751 483.017 21.9318C483.382 22.0395 483.836 22.04 484.305 21.9966C484.816 21.9493 485.2 22.0016 485.585 22.0844C485.991 22.171 485.991 22.1691 486.307 22.38C486.401 22.4409 486.664 22.4687 486.884 22.4566C487.253 22.4364 487.573 22.445 487.844 22.5167C488.13 22.5941 488.47 22.5835 488.818 22.5615C489.28 22.5314 489.741 22.5052 490.12 22.6148C490.305 22.6677 490.504 22.6805 490.753 22.6664C491.456 22.6299 492.166 22.6068 492.855 22.5627C493.273 22.5347 493.516 22.5951 493.801 22.6457C494.186 22.7152 494.606 22.7769 494.608 22.9277C494.609 22.9526 494.709 22.9809 494.794 22.9997C494.979 23.0393 495.179 23.073 495.371 23.1106C495.657 23.167 495.934 23.2139 496.325 23.1822C496.665 23.1563 497.028 23.1476 497.375 23.1294C497.723 23.1112 498.043 23.1007 498.357 23.1722C498.72 23.2532 499.105 23.3304 499.518 23.3902C499.81 23.4332 500.193 23.3576 500.507 23.4159C500.699 23.4516 500.884 23.493 501.091 23.5229C501.176 23.536 501.311 23.5261 501.425 23.5219C501.659 23.5136 501.901 23.5071 502.128 23.4873C502.39 23.4656 502.589 23.4688 502.789 23.5121C502.974 23.5516 503.16 23.6064 503.373 23.6172C503.693 23.6334 504.047 23.556 504.368 23.6429C504.533 23.6863 504.739 23.7276 504.953 23.7404C505.166 23.7531 505.414 23.7237 505.642 23.7249C505.741 23.7246 505.862 23.7548 505.92 23.7794C505.955 23.7927 505.906 23.8291 505.857 23.8484C505.793 23.8715 505.701 23.9023 505.609 23.9064C504.906 23.9429 504.203 23.9736 503.5 24.0082C503.081 24.0285 503.081 24.0285 502.234 23.9108C502.034 23.8828 501.814 23.8892 501.566 23.9033C501.232 23.9215 500.891 23.955 500.543 23.9216C500.086 23.7932 499.524 23.7834 498.928 23.8349C498.68 23.8566 498.452 23.8573 498.267 23.8216C497.875 23.7502 497.462 23.6847 497.113 23.5998C496.842 23.5338 496.714 23.5285 496.601 23.6204C496.566 23.6492 496.531 23.6798 496.539 23.7065C496.583 23.8018 496.662 23.8951 496.706 23.9905C496.721 24.0171 496.665 24.0479 496.63 24.0766C496.517 24.1571 496.368 24.1518 496.118 24.0858C495.869 24.0197 495.569 23.9767 495.172 24.0085C494.831 24.0362 494.462 24.0335 494.121 24.0632C493.596 24.1067 493.225 24.0468 492.848 23.9658C492.769 23.9489 492.634 23.9397 492.535 23.9439C491.477 23.9909 490.426 24.0437 489.368 24.0908C489.14 24.1011 488.934 24.0731 488.755 24.022C488.57 23.9711 488.363 23.945 488.136 23.9552C487.199 23.9981 486.261 24.0372 485.324 24.0897C484.941 24.1118 484.635 24.0879 484.371 24.0219C484.171 23.9728 483.986 23.9581 483.738 23.9646C483.468 23.9712 483.276 23.9908 483.142 24.0466C483.015 24.1004 483.108 24.1326 483.393 24.1737C483.699 24.2186 483.984 24.277 484.276 24.3295C484.511 24.3212 484.745 24.3052 484.972 24.3064C485.072 24.3061 485.165 24.3402 485.265 24.359C485.55 24.4135 485.813 24.4681 486.218 24.4363C486.558 24.4086 486.921 24.4017 487.269 24.3835C487.752 24.3611 487.752 24.3611 488.535 24.479C488.734 24.5089 488.947 24.5063 489.203 24.4884C489.423 24.4744 489.651 24.5004 489.808 24.5572C489.872 24.5799 489.852 24.6182 489.719 24.7446C489.72 24.8381 489.869 24.7957 489.917 24.7344C489.994 24.6464 489.845 24.6182 489.561 24.6668C489.363 24.7017 489.264 24.7517 489.314 24.7916C489.343 24.8125 489.479 24.8388 489.719 24.7446C490.342 24.6282 490.818 24.6133 491.272 24.5814C491.542 24.5634 491.713 24.5706 491.927 24.6195C492.183 24.6779 492.44 24.7402 492.859 24.7084C493.313 24.6727 493.796 24.6674 494.258 24.6373C494.684 24.6093 494.905 24.6927 495.176 24.7415C495.504 24.7997 495.865 24.7318 496.164 24.7652C496.477 24.7987 496.699 24.882 497.061 24.8962C497.586 24.843 497.922 24.9375 498.321 24.9993C498.634 25.0461 499.003 25.0029 499.336 24.9809C499.713 24.9569 500.026 24.977 500.29 25.0449C500.589 25.1223 500.923 25.1041 501.264 25.0859C502.059 25.0453 502.087 25.0395 502.551 25.1431C502.886 25.2184 503.205 25.1831 503.539 25.1726C503.831 25.2232 504.116 25.2777 504.423 25.3226C504.501 25.3338 504.65 25.3143 504.77 25.3082C505.118 25.2919 505.473 25.2755 505.821 25.2592C506.056 25.249 506.304 25.2196 506.517 25.2304C506.731 25.2431 506.909 25.2979 507.102 25.3336C507.294 25.3693 507.494 25.405 507.679 25.4426C507.964 25.499 508.235 25.5459 508.632 25.5161C508.973 25.4903 509.328 25.4816 509.683 25.4633C510.13 25.441 510.116 25.4467 510.949 25.5588C511.398 25.6204 511.859 25.5427 512.313 25.5337C512.541 25.5292 512.761 25.5495 512.918 25.6044C512.983 25.6271 512.962 25.6653 512.984 25.6977C511.812 25.7528 510.633 25.8002 509.476 25.8667C509.029 25.8929 508.793 25.8249 508.551 25.7683C508.151 25.6779 507.628 25.8131 507.249 25.6959C507.021 25.6259 506.693 25.5869 506.303 25.6224C506.076 25.6422 505.834 25.641 505.6 25.6589C505.004 25.7027 504.457 25.7062 503.979 25.5759C503.815 25.5306 503.58 25.5065 503.409 25.4631C503.209 25.416 503.017 25.3898 502.782 25.4001C501.724 25.4491 500.673 25.4981 499.622 25.5509C499.53 25.555 499.438 25.5839 499.36 25.6051C499.162 25.6592 499.227 25.701 499.547 25.7344C499.654 25.7455 499.74 25.77 499.839 25.7888C500.032 25.8245 500.21 25.8813 500.423 25.894C500.637 25.9067 500.885 25.8792 501.12 25.869C501.354 25.8587 501.602 25.8293 501.816 25.8402C502.029 25.8529 502.207 25.9077 502.407 25.9415C502.499 25.9584 502.614 25.9867 502.706 25.9845C503.175 25.9716 503.636 25.9492 504.105 25.9306C504.397 25.9813 504.647 26.055 504.995 26.0711C505.216 26.0819 505.45 26.0602 505.677 26.0633C505.777 26.0649 505.905 26.0932 505.955 26.1179C505.984 26.133 505.892 26.1715 505.821 26.1908C505.552 26.2642 505.183 26.2519 504.849 26.2758C504.487 26.3017 504.16 26.2951 503.882 26.2215C503.696 26.1724 503.49 26.1463 503.263 26.1565C502.673 26.1831 502.091 26.2135 501.502 26.2363C501.402 26.2404 501.281 26.2236 501.189 26.2105C500.441 26.0963 500.441 26.0925 499.915 26.1189C499.141 26.1575 499.141 26.1575 498.621 26.0579C498.521 26.0391 498.414 26.0031 498.329 26.0053C497.505 26.0383 496.688 26.0713 495.872 26.1177C495.602 26.1319 495.418 26.1324 495.218 26.0834C495.047 26.0419 494.847 25.9948 494.634 25.984C494.413 25.9732 494.172 26.0025 493.938 26.0128C493.703 26.023 493.455 26.0486 493.249 26.034C493.035 26.0193 492.85 25.9664 492.664 25.9288C492.472 25.8893 492.266 25.8918 492.003 25.9079C491.194 25.9542 491.187 25.9485 490.382 25.8326C490.289 25.8195 490.168 25.8046 490.069 25.8087C489.48 25.8334 488.897 25.8638 488.308 25.8885C488.081 25.8987 487.86 25.8746 487.703 25.8197C487.638 25.797 487.659 25.7587 487.616 25.6844C487.566 25.6674 487.623 25.6977 487.637 25.7263C487.744 25.7222 487.872 25.7256 487.95 25.7101C488.148 25.6732 488.247 25.6252 488.197 25.5853C488.168 25.5644 488.033 25.538 487.947 25.5383C487.791 25.5388 487.657 25.5812 487.616 25.6844C487.169 25.7487 486.693 25.7635 486.231 25.7955C485.962 25.8154 485.791 25.8064 485.577 25.7574C485.32 25.697 485.057 25.6386 484.638 25.6705C484.184 25.7062 483.7 25.7134 483.232 25.7415C482.692 25.7737 482.455 25.6026 482.001 25.6078C481.532 25.613 481.063 25.6469 480.595 25.6712C480.183 25.6915 480.183 25.6915 479.328 25.57C479.015 25.5251 478.646 25.5931 478.34 25.5462C478.134 25.5163 477.955 25.4711 477.756 25.4392C477.67 25.4261 477.535 25.4265 477.429 25.4306C476.839 25.4553 476.243 25.4724 475.675 25.5161C475.029 25.5677 474.538 25.5157 474.074 25.4045C473.492 25.4272 472.903 25.4405 472.328 25.4785C471.909 25.5065 471.666 25.4442 471.381 25.3935C471.281 25.3766 471.196 25.3482 471.089 25.3409C470.982 25.3336 470.854 25.3493 470.741 25.3553C470.272 25.3777 469.789 25.3888 469.335 25.4245C468.774 25.4701 468.559 25.3142 468.125 25.2964C467.835 25.3908 467.681 25.5192 467.105 25.5305C466.637 25.5395 466.168 25.5715 465.699 25.5939C465.465 25.6041 465.231 25.6163 464.996 25.6265C464.62 25.6449 464.444 25.7198 464.524 25.8341C464.567 25.897 464.604 25.9599 464.64 26.0228C464.713 26.1352 464.537 26.2312 464.238 26.2454C463.415 26.2842 462.598 26.3248 461.774 26.3597C461.554 26.37 461.341 26.3381 461.162 26.2871C460.977 26.2362 460.77 26.2139 460.543 26.2241C459.719 26.2629 458.903 26.3035 458.079 26.3384C457.987 26.3425 457.866 26.3238 457.773 26.3088C457.574 26.2751 457.381 26.2356 457.189 26.1999C456.72 26.2185 456.258 26.2313 455.797 26.2556C455.051 26.2922 455.051 26.2941 454.503 26.1908C454.403 26.172 454.303 26.136 454.21 26.1382C453.855 26.1469 453.507 26.167 453.152 26.1853C452.109 26.2381 452.109 26.2381 451.802 26.1817C451.524 26.1291 451.274 26.065 450.856 26.0968C450.401 26.1325 449.918 26.1454 449.45 26.1659C449.102 26.1803 448.754 26.1966 448.406 26.2015C448.313 26.2037 448.213 26.1677 448.114 26.1489C447.829 26.0906 447.551 26.0437 447.16 26.0773C446.933 26.0971 446.692 26.1017 446.457 26.1119C445.847 26.1405 445.847 26.1405 444.843 26.0289C444.743 26.0178 444.622 26.0048 444.523 26.0108C443.699 26.0477 442.883 26.0883 442.059 26.1233C441.96 26.1274 441.839 26.1163 441.739 26.107C440.615 25.9997 440.615 25.9997 439.422 26.0567C438.967 26.0772 438.953 26.0849 438.476 25.9851C438.262 25.9419 438.084 25.9214 437.835 25.9355C436.898 25.9842 435.953 26.0176 435.023 26.0738C434.605 26.098 434.362 26.0414 434.077 25.9907C433.977 25.9739 433.87 25.936 433.785 25.9382C432.848 25.9773 431.91 26.024 430.973 26.0631C430.888 26.0672 430.78 26.0293 430.681 26.0124C430.488 25.9787 430.303 25.9277 430.089 25.9169C429.869 25.9061 429.628 25.9354 429.386 25.9457C428.797 25.9723 428.797 25.9704 428.113 25.8598C428.021 25.8448 427.899 25.8242 427.807 25.8283C426.87 25.8693 425.925 25.9046 424.995 25.9628C424.463 25.9949 424.1 25.9406 423.722 25.8616C423.643 25.8446 423.508 25.8374 423.409 25.8415C422.351 25.8886 421.3 25.9414 420.242 25.9885C420.022 25.9987 419.808 25.9669 419.63 25.9178C419.344 25.8404 419.01 25.851 418.655 25.8692C417.839 25.9118 417.832 25.9099 417.347 25.8197C417.247 25.8009 417.162 25.7764 417.055 25.7671C416.955 25.7579 416.828 25.764 416.721 25.7681C416.252 25.7886 415.784 25.811 415.315 25.8335C414.846 25.8559 414.37 25.8688 413.909 25.9026C413.341 25.9444 413.069 25.8211 412.671 25.7651C412.088 25.7916 411.492 25.8087 410.917 25.8505C410.477 25.8824 410.269 25.799 409.977 25.756C409.878 25.741 409.77 25.7089 409.678 25.713C408.62 25.7582 407.562 25.8072 406.511 25.8619C406.256 25.8741 406.085 25.8593 405.871 25.8142C405.393 25.7125 405.372 25.7164 404.577 25.757C404.229 25.7752 403.895 25.7915 403.595 25.7141C403.332 25.6443 403.012 25.6281 402.635 25.6521C402.174 25.6821 401.698 25.6989 401.229 25.7194C400.761 25.7418 400.292 25.7718 399.823 25.7828C399.447 25.7934 399.218 25.7044 398.919 25.6595C398.827 25.6464 398.699 25.6449 398.592 25.649C398.123 25.6676 397.64 25.6824 397.186 25.7162C396.633 25.758 396.325 25.654 395.934 25.594C395.848 25.5809 395.706 25.589 395.6 25.595C394.776 25.6319 393.959 25.6725 393.136 25.7113C392.843 25.6606 392.544 25.6119 392.252 25.5612C391.783 25.5817 391.315 25.6041 390.846 25.6246C390.491 25.641 390.129 25.6478 389.795 25.6774C389.362 25.7169 389.148 25.6278 388.856 25.5848C388.756 25.5698 388.649 25.5377 388.557 25.5418C387.967 25.5646 387.378 25.5893 386.796 25.6235C386.242 25.6576 386.019 25.4864 385.564 25.4897C385.095 25.493 384.613 25.5193 384.158 25.5551C383.633 25.5967 383.263 25.5368 382.885 25.4558C382.807 25.4389 382.671 25.4297 382.572 25.4338C381.983 25.4585 381.4 25.4889 380.811 25.5136C380.712 25.5177 380.591 25.5085 380.491 25.4974C379.367 25.3881 379.367 25.3862 378.877 25.4106C378.529 25.4269 378.174 25.4471 377.819 25.4577C377.719 25.4618 377.598 25.445 377.505 25.43C376.765 25.3158 376.765 25.3139 376.232 25.3384C375.763 25.3608 375.295 25.3832 374.826 25.4056C374.534 25.355 374.235 25.3062 373.943 25.2556C373.36 25.2821 372.764 25.303 372.189 25.3391C371.919 25.3552 371.741 25.35 371.535 25.3029C371.278 25.2464 371.021 25.1804 370.595 25.2141C370.141 25.2498 369.658 25.2551 369.196 25.2851C368.643 25.3212 368.413 25.1481 367.965 25.1514C367.496 25.1547 367.013 25.181 366.559 25.2167C366.034 25.2584 365.663 25.1984 365.286 25.1175C365.207 25.1005 365.072 25.0914 364.973 25.0955C363.68 25.1548 362.395 25.214 361.103 25.2771C360.307 25.3157 360.307 25.3176 358.792 25.2172C358.686 25.2099 358.572 25.2026 358.465 25.2067C357.996 25.2253 357.514 25.2402 357.059 25.274C356.506 25.3157 356.199 25.2136 355.807 25.1517C355.721 25.1386 355.586 25.1467 355.473 25.1508C355.118 25.1653 354.77 25.1835 354.415 25.1999C353.946 25.2223 353.477 25.2447 353.009 25.2671C352.717 25.2183 352.418 25.1677 352.125 25.1189C351.543 25.1455 350.946 25.1607 350.372 25.2025C349.931 25.2344 349.724 25.1548 349.432 25.1099C349.332 25.0949 349.225 25.0628 349.133 25.065C348.075 25.1101 347.017 25.1572 345.966 25.2138C345.533 25.2381 345.333 25.1527 345.041 25.1097C344.941 25.0967 344.827 25.0722 344.735 25.0763C344.032 25.1051 343.329 25.1397 342.626 25.1743C342.228 25.1946 342.228 25.1946 341.359 25.0788C341.26 25.0658 341.146 25.0527 341.046 25.0569C338.817 25.159 336.594 25.2669 334.364 25.3691C334.137 25.3793 333.931 25.3513 333.752 25.3003C333.567 25.2493 333.36 25.2232 333.133 25.2334C332.196 25.2763 331.251 25.3155 330.321 25.3679C329.938 25.39 329.632 25.3661 329.368 25.3001C329.168 25.2511 328.983 25.2326 328.735 25.2448C328.266 25.2691 327.797 25.2896 327.329 25.312C326.86 25.3344 326.392 25.3568 325.923 25.3792C325.454 25.4016 324.978 25.4145 324.517 25.4484C323.949 25.4902 323.67 25.3726 323.279 25.3146C322.575 25.3454 321.872 25.3761 321.176 25.4088C320.239 25.4517 319.302 25.4984 318.365 25.5394C318.279 25.5435 318.172 25.5095 318.073 25.4926C317.78 25.4457 317.566 25.3796 317.133 25.4019C315.031 25.5094 312.915 25.6017 310.806 25.7073C310.366 25.7296 310.173 25.6481 309.874 25.6051C309.774 25.592 309.66 25.5657 309.568 25.5698C308.396 25.621 307.225 25.678 306.053 25.733C305.577 25.7555 305.577 25.7555 304.78 25.6395C304.687 25.6264 304.566 25.6096 304.466 25.6137C302.94 25.6832 301.42 25.7566 299.894 25.828C299.666 25.8382 299.46 25.8121 299.274 25.7611C299.096 25.7101 298.882 25.6821 298.662 25.6923C297.256 25.7576 295.843 25.8211 294.444 25.8921C294.068 25.9123 293.755 25.8961 293.484 25.8282C293.291 25.7791 293.099 25.7587 292.858 25.7709C290.749 25.8708 288.64 25.9669 286.531 26.0725C286.126 26.0928 285.842 26.0574 285.585 25.9952C285.378 25.9461 285.2 25.9371 284.944 25.9455C284.675 25.9559 284.512 25.9774 284.363 26.0351C284.173 26.1101 284.053 26.204 283.598 26.2111C283.13 26.2183 282.654 26.2426 282.193 26.2765C281.752 26.3102 281.545 26.225 281.267 26.1742C281.061 26.1386 280.869 26.1334 280.606 26.1514C280.365 26.1674 280.216 26.2003 280.075 26.2618C279.764 26.3926 279.736 26.3927 279.351 26.3117C279.144 26.2684 278.959 26.2346 278.731 26.243C277.794 26.284 276.857 26.3288 275.919 26.3755C275.38 26.402 275.373 26.4058 274.966 26.3116C274.767 26.2645 274.574 26.2421 274.34 26.2543C271.763 26.3766 269.185 26.4951 266.607 26.6231C266.21 26.6434 265.939 26.6041 265.654 26.5477C265.561 26.5289 265.469 26.5024 265.362 26.4951C265.255 26.4878 265.135 26.4958 265.021 26.5C263.146 26.5877 261.264 26.6717 259.397 26.7689C258.971 26.7912 258.743 26.7308 258.451 26.6821C258.351 26.6652 258.265 26.6387 258.159 26.6314C258.052 26.626 257.924 26.6397 257.811 26.6458C255.936 26.7335 254.054 26.8175 252.187 26.9147C251.74 26.9371 251.546 26.8575 251.254 26.8164C251.155 26.8014 251.048 26.7731 250.955 26.7771C250.366 26.7999 249.784 26.8303 249.194 26.8569C247.789 26.9241 246.382 26.9876 244.976 27.0567C244.437 27.0832 244.2 26.914 243.745 26.923C243.155 26.9343 242.573 26.9742 241.984 27.0027C241.515 27.0251 241.047 27.0456 240.578 27.07C240.117 27.0924 240.117 27.0923 238.964 26.9851C238.864 26.9758 238.743 26.9628 238.644 26.967C237.003 27.0425 235.356 27.1181 233.723 27.1994C233.347 27.2177 233.034 27.2091 232.763 27.1393C232.57 27.0903 232.371 27.066 232.137 27.0782C229.673 27.1944 227.216 27.3107 224.752 27.425C224.659 27.4291 224.538 27.4103 224.446 27.3954C224.246 27.3616 224.054 27.3221 223.861 27.2864C223.72 27.3307 223.536 27.3714 223.444 27.4213C223.317 27.4885 223.147 27.5081 222.877 27.5203C222.607 27.5326 222.437 27.5293 222.223 27.4803C221.966 27.42 221.702 27.3731 221.283 27.3934C218.706 27.5214 216.128 27.638 213.551 27.7642C213.125 27.7845 212.925 27.7011 212.625 27.6581C212.526 27.6451 212.412 27.6244 212.319 27.6285C211.261 27.6756 210.21 27.7265 209.152 27.7755C206.22 27.9141 203.287 28.0471 200.362 28.1933C199.829 28.2197 199.466 28.1731 199.088 28.0922C199.01 28.0752 198.875 28.0661 198.775 28.0702C194.671 28.262 190.567 28.4557 186.469 28.6494C186.249 28.6596 186.036 28.6297 185.857 28.5806C185.672 28.5296 185.465 28.5054 185.238 28.5157C183.363 28.6034 181.489 28.6912 179.614 28.7808C179.146 28.8032 179.139 28.8051 178.654 28.7149C178.554 28.6962 178.447 28.6602 178.369 28.6643C178.206 28.6743 178.05 28.7225 177.937 28.7877C177.825 28.8568 177.647 28.8764 177.385 28.8906C177.115 28.9048 176.937 28.8996 176.73 28.8544C176.467 28.7979 176.224 28.7433 175.798 28.7637C170.409 29.0242 165.019 29.2753 159.63 29.5339C159.197 29.5543 158.996 29.4748 158.697 29.4318C158.598 29.4187 158.498 29.3999 158.391 29.3964C158.277 29.3929 158.157 29.4048 158.043 29.4108C149.252 29.8248 140.462 30.2407 131.671 30.6548C131.145 30.6792 131.153 30.6792 130.58 30.8566C130.509 30.8778 130.417 30.9067 130.317 30.9108C127.626 31.0411 124.928 31.1676 122.23 31.2941C121.058 31.3491 119.887 31.4061 118.715 31.4593C118.296 31.4777 118.296 31.4777 117.297 31.6869C117.212 31.7044 117.113 31.7276 117.014 31.7317C112.327 31.9539 107.64 32.1761 102.947 32.3945C102.578 32.4109 102.28 32.4461 102.111 32.5383C101.991 32.6035 101.835 32.6422 101.601 32.6543C98.3201 32.8093 95.0397 32.9662 91.752 33.1173C91.3614 33.1357 91.1276 33.1899 90.937 33.2706C90.8735 33.2975 90.8171 33.3282 90.725 33.3476C90.64 33.365 90.5122 33.3711 90.4057 33.3772C87.5938 33.5097 84.782 33.6461 81.9629 33.773C81.5439 33.7914 81.3744 33.8626 81.1695 33.9376C81.0988 33.9627 81.0495 33.9972 80.9574 34.0146C80.8653 34.0302 80.7303 34.0306 80.6167 34.0348C78.2734 34.1449 75.9302 34.2569 73.5869 34.3671C73.132 34.3589 73.0342 34.4699 72.8149 34.5374C72.7371 34.5606 72.6809 34.5913 72.5887 34.6068C72.4895 34.6224 72.3614 34.6209 72.2407 34.625C70.366 34.7128 68.4916 34.8062 66.6097 34.8883C66.1766 34.9067 66.0927 35.0044 65.8593 35.0719C65.7814 35.0931 65.7039 35.1258 65.6116 35.1318C64.44 35.1907 63.2684 35.2458 62.0967 35.2989C61.7062 35.3173 61.7062 35.3154 61.0198 35.5064C60.942 35.5277 60.8498 35.5509 60.7505 35.5569C58.9966 35.6423 57.2356 35.724 55.4746 35.8076C55.2474 35.8178 55.0918 35.8641 54.9791 35.9293C54.8664 35.9946 54.7037 36.0371 54.4764 36.0473C53.0705 36.1145 51.6644 36.1837 50.2584 36.2452C49.8678 36.2616 49.6128 36.3101 49.4436 36.3965C49.3167 36.4618 49.1609 36.4947 48.9123 36.5069C47.5064 36.5723 46.1005 36.6433 44.6873 36.701C44.2754 36.7175 44.0632 36.7831 43.8939 36.8638C43.7598 36.9291 43.6039 36.9525 43.3411 36.9647C40.7635 37.0832 38.1788 37.2017 35.6085 37.3316C35.1753 37.3539 34.954 37.2878 34.669 37.2409C34.263 37.1753 33.8854 37.1039 33.8831 36.955C33.8828 36.9321 33.7616 36.9057 33.676 36.8869C33.0414 36.7456 33.0414 36.7457 32.9396 36.5932C32.8813 36.4999 32.8159 36.4046 32.7647 36.3093C32.6699 36.1531 32.4419 36.1137 31.7886 36.1443C31.5543 36.1545 31.32 36.1686 31.0856 36.1769C30.7376 36.1913 30.4738 36.1291 30.4081 36.0148C30.3716 35.9519 30.3281 35.889 30.2916 35.8262C30.6466 35.8098 30.6394 35.8079 31.2612 35.5751C31.5226 35.4769 31.5227 35.4769 31.0167 35.3811C30.8243 35.3454 30.6389 35.3059 30.4323 35.2721C30.3397 35.2571 30.2188 35.248 30.1194 35.2521C29.53 35.2768 28.9478 35.3052 28.3655 35.3337C27.4282 35.3785 27.4281 35.3785 26.473 35.1867C26.3946 35.1717 26.2734 35.1434 26.2873 35.1281C26.3644 35.0572 26.5558 35.0261 26.7973 35.0177C27.1524 35.0052 27.5002 34.9851 27.8482 34.9687C28.0825 34.9585 28.3168 34.9463 28.5511 34.9361C28.7703 34.8629 28.9967 34.7916 29.2017 34.7165C29.5268 34.601 29.5266 34.5972 29.0777 34.5183C28.7927 34.4657 28.4864 34.4189 28.1943 34.3702C27.8464 34.3865 27.4914 34.4047 27.1434 34.4192C26.7031 34.4377 26.5249 34.4019 26.4093 34.2782C26.3082 34.1697 26.4276 34.0758 26.7683 34.0519C27.1161 34.0279 27.4429 34.0117 27.619 33.9138C27.7881 33.8197 28.086 33.7825 28.4553 33.7738C28.6897 33.7674 28.924 33.7533 29.1583 33.7411C29.4636 33.7249 29.6256 33.6271 29.56 33.5185C29.5234 33.448 29.4514 33.389 29.1741 33.3746C27.9438 33.3114 27.9295 33.3134 27.3164 33.1854C27.2594 33.1741 27.2164 33.1399 27.2374 33.1227C27.2725 33.0939 27.3501 33.0517 27.4352 33.0457C28.2517 33.0013 29.0683 32.9606 29.885 32.9295C30.1548 32.9192 30.3536 32.9052 30.4449 32.8343C30.5713 32.7366 30.5131 32.647 30.2634 32.5809C30.1849 32.5602 30.0565 32.5338 29.9712 32.536C29.0338 32.5732 28.1037 32.6199 27.1663 32.6571C27.0811 32.6612 26.9243 32.6292 26.8884 32.6045C26.8167 32.5589 26.9223 32.4975 27.1706 32.4757C27.4971 32.4461 27.831 32.4432 28.0498 32.3471C28.3533 32.2106 28.7279 32.0854 29.067 31.9546C29.1235 31.9315 29.2153 31.8873 29.194 31.8836C29.0157 31.8421 28.8091 31.8103 28.6237 31.7707C28.3101 31.7049 28.3086 31.6113 28.3783 31.5214C28.434 31.4487 28.6467 31.4194 28.9096 31.4186C29.0233 31.4183 29.1654 31.4179 29.2575 31.4004C29.4985 31.3577 29.5759 31.304 29.4544 31.2643C29.383 31.2416 29.2547 31.2095 29.1695 31.2136C27.6499 31.2812 26.123 31.3468 24.6107 31.4297C24.1634 31.4539 23.9564 31.382 23.6856 31.3313C23.4789 31.2918 23.2867 31.2771 23.0313 31.3065C22.7901 31.334 22.5555 31.3194 22.4053 31.2569C22.2837 31.2057 22.4962 31.1612 23.071 31.1098C23.1774 31.0999 23.2981 31.0938 23.376 31.0745C24.1971 30.8659 24.197 30.8639 24.765 30.8355C25.3189 30.809 25.319 30.8071 25.6086 30.6955C25.7429 30.6436 25.8912 30.5916 26.0183 30.5377C26.0677 30.5166 26.1525 30.4782 26.1239 30.4668C25.9666 30.4081 25.7532 30.3954 25.5047 30.4095C24.951 30.4436 24.2969 30.4189 24.0084 30.6011C23.8957 30.6701 23.7184 30.6898 23.4627 30.702C20.8922 30.8205 18.3217 30.9466 15.744 31.0612C15.325 31.0797 15.1344 31.1509 14.9722 31.2296C14.831 31.295 14.675 31.3145 14.4051 31.3268C14.1353 31.3391 13.9221 31.3454 13.7648 31.2829C13.6719 31.245 13.7492 31.1913 13.9616 31.1372C14.266 31.06 14.2076 30.9647 14.1068 30.8753C14.0348 30.8163 13.8139 30.775 13.5795 30.7795C13.2314 30.7882 12.8979 30.8102 12.6054 30.7347C12.4342 30.6913 12.2205 30.6614 12.0281 30.6238C11.6574 30.5466 11.2867 30.4676 10.7687 30.5207C10.4132 30.5027 10.1634 30.4347 9.87838 30.3821C9.40096 30.2957 9.35813 30.2825 9.69777 30.1879C10.0799 30.0818 9.77927 29.9452 9.99087 29.8415C10.2166 29.7301 10.5278 29.6318 10.8034 29.5279C10.874 29.501 10.9376 29.476 11.0083 29.449C10.8442 29.4113 10.6943 29.3641 10.5021 29.3379C10.2529 29.3043 10.1243 29.2627 10.1367 29.1443C10.0867 29.1273 10.1085 29.1711 10.1656 29.1824C10.2297 29.1936 10.386 29.1836 10.4639 29.17C10.6623 29.1332 10.761 29.0851 10.7106 29.0452C10.6819 29.0243 10.5466 28.998 10.4613 28.9982C10.305 28.9987 10.1707 29.0411 10.1296 29.1443C9.33496 29.225 8.51117 29.2656 7.68738 29.2987C7.60218 29.3028 7.49507 29.2649 7.3953 29.2461C7.06745 29.1822 7.06744 29.1841 6.10789 29.1679C6.00839 29.1663 5.87304 29.14 5.8229 29.1134C5.61506 28.9976 5.62026 28.8696 5.51889 28.7459C5.70241 28.6651 5.88582 28.5863 6.07647 28.5075C6.45775 28.3479 6.95313 28.207 7.24891 28.0324C7.18353 27.9391 7.09682 27.8458 7.4083 27.7685C8.29504 27.6704 8.28799 27.6704 8.52819 27.578C9.21346 27.3164 9.89157 27.0528 10.6053 26.7948C10.7962 26.7274 10.7956 26.6912 10.4541 26.6636C10.3474 26.6562 10.2336 26.6547 10.1199 26.6588C9.76484 26.6733 9.4101 26.7087 9.06181 26.7021C8.71355 26.6974 8.45646 26.6142 8.17145 26.5635C7.87931 26.5109 7.58715 26.4565 7.29497 26.402C6.9611 26.4087 6.62801 26.4632 6.29274 26.3783C6.03592 26.3122 5.71546 26.2655 5.42328 26.211C5.64134 26.0653 6.05184 25.9533 6.36964 25.8244C6.65919 25.7071 6.66616 25.709 7.44641 25.6169C7.81526 25.5738 7.93987 25.3577 7.62626 25.2957C7.2485 25.2205 6.84959 25.151 6.46478 25.0796C6.13091 25.0864 5.7907 25.139 5.46963 25.054C5.21995 24.9899 4.935 24.9468 4.52325 24.9729C3.82754 25.0169 3.11733 25.0401 2.4144 25.0766C2.17298 25.0888 1.90988 25.0819 1.80231 25.0173C1.73055 24.9717 1.93567 24.9081 2.16995 24.894C2.52494 24.8739 2.8443 24.85 3.02049 24.754C3.18956 24.6581 3.50174 24.6285 3.87102 24.614C3.97044 24.6099 4.08387 24.5866 4.13326 24.5636C4.38737 24.4521 4.67015 24.3558 5.21734 24.358C5.44414 24.3191 5.56413 24.271 5.49237 24.2254C5.44936 24.2007 5.29972 24.1688 5.21451 24.1728C4.62504 24.1937 4.03559 24.2146 3.46056 24.2507C3.19078 24.2667 2.98467 24.2712 2.81326 24.2144C2.69188 24.1766 2.75504 24.1249 2.98157 24.0688C3.1798 24.0205 3.23586 23.965 3.22066 23.9001C3.18283 23.7494 2.96895 23.7061 2.28696 23.7177C1.79679 23.7269 1.67561 23.7024 1.56704 23.5729C1.53815 23.5425 1.46658 23.5007 1.516 23.4795C1.81956 23.3488 2.01608 23.1879 2.5907 23.125C2.81773 23.1015 3.05922 23.1007 3.20058 23.0507C3.34193 23.0006 3.46902 22.9429 3.61751 22.8948C3.80138 22.8369 3.92834 22.7831 3.84252 22.7471C3.69941 22.6826 3.47202 22.6776 3.20947 22.7013C2.98238 22.7211 2.74083 22.7237 2.50652 22.7359C2.08761 22.7581 1.74586 22.7095 1.69484 22.6257C1.55645 22.4047 1.41094 22.1856 1.28677 21.9645C1.27215 21.9378 1.30705 21.9033 1.36355 21.8803C1.56128 21.7995 1.77337 21.7225 1.97823 21.6436C2.21845 21.5532 2.60248 21.5692 2.92907 21.551C3.39056 21.5248 3.39043 21.5267 4.00582 21.3416C4.2463 21.2683 4.66599 21.2957 4.91369 21.2301C4.99153 21.2088 5.1118 21.1741 5.09019 21.1551C5.06139 21.1303 4.91907 21.1117 4.81231 21.1005C4.71265 21.0894 4.5918 21.084 4.4853 21.0901C3.19293 21.1493 1.90776 21.2124 0.615358 21.2697C0.39523 21.2799 0.152992 21.2387 0.0739272 21.1797C-0.00507955 21.1246 0.0151474 21.0577 -2.56356e-05 20.9948C0.204841 20.9159 0.438128 20.8426 0.614485 20.7581C0.7485 20.6928 0.904414 20.6637 1.17437 20.6591C1.52956 20.6523 1.87742 20.6283 2.27507 20.6099C3.00979 20.329 3.73006 20.0348 4.52163 19.7537C4.83966 19.6401 4.75987 19.5258 4.82199 19.4053C4.88425 19.2944 5.36056 19.3102 5.67981 19.2768C5.9352 19.2493 6.01943 19.1879 5.91931 19.1462C5.86208 19.1216 5.73382 19.0933 5.63434 19.0936C5.39985 19.0943 5.16564 19.1122 4.9313 19.1225C4.69696 19.1327 4.42688 19.1278 4.23552 19.1608C4.05124 19.1919 3.93137 19.2572 3.81142 19.3129C3.67734 19.3744 3.50015 19.3959 3.2302 19.4006C2.88208 19.4054 2.53419 19.4237 2.18622 19.4381C1.80138 19.3648 1.40228 19.2935 1.03159 19.2163C0.960304 19.2012 0.945346 19.1574 0.952015 19.1287C0.965089 19.0542 0.857833 19.0087 0.622795 18.9732C0.423372 18.9432 0.25926 18.8998 0.0739314 18.8622C0.215256 18.8102 0.370877 18.7601 0.483721 18.7044C0.730638 18.5872 1.04204 18.5023 1.58212 18.5045C1.79415 18.4294 1.96324 18.3373 2.23957 18.2849C2.50172 18.2345 2.95015 18.2827 3.14738 18.1695C3.24602 18.1139 3.39436 18.0504 3.58586 18.0269C3.89084 17.9897 4.28904 18.0076 4.46505 17.9002C4.5707 17.8388 4.72611 17.783 4.93194 17.7671C5.16617 17.7492 5.40763 17.7447 5.57761 17.7079C5.6697 17.6885 5.76872 17.6577 5.76831 17.6309C5.76805 17.6137 5.62564 17.5874 5.52599 17.5763C5.43341 17.5632 5.31233 17.554 5.20581 17.5582C4.8507 17.5707 4.50286 17.5927 4.14775 17.6053C4.04833 17.6094 3.93447 17.5964 3.82772 17.5852C3.5146 17.5556 3.5353 17.5174 3.78294 17.4479C4.03062 17.3804 4.20704 17.2939 4.41191 17.215C4.63908 17.201 4.92335 17.2058 5.07912 17.1691C5.34113 17.1091 5.52451 17.0227 5.73654 16.9476C5.97085 16.9354 6.21237 16.9309 6.43232 16.9092C6.52458 16.9013 6.5666 16.8592 6.64439 16.8341C6.78577 16.786 6.90561 16.7169 7.09711 16.6934C7.40923 16.6581 7.79313 16.6703 7.97628 16.5648C8.08193 16.5034 8.2443 16.438 8.4432 16.4336C8.99732 16.4243 9.23021 16.3185 9.51291 16.2184C9.72495 16.1433 10.1803 16.1802 10.4136 16.105C10.5692 16.0568 10.6821 15.9973 10.8377 15.951C10.9014 15.9317 11.0362 15.9218 11.1427 15.9157C11.7249 15.8853 12.3143 15.8626 12.8965 15.8303C12.9888 15.8243 13.0737 15.7954 13.1444 15.7723C13.2929 15.7222 13.3841 15.6532 13.5683 15.6202C13.7526 15.5872 14.0155 15.5864 14.2427 15.5761C14.9741 15.5453 15.0312 15.5527 15.3626 15.3895C15.6306 15.257 16.293 15.3485 16.511 15.2028C16.6376 15.1184 16.871 15.049 17.2901 15.0382C17.8796 15.023 18.4617 14.985 19.0511 14.9584C19.5766 14.9339 19.5695 14.9339 20.1352 14.7547C20.3898 14.6737 20.7666 14.6841 21.1004 14.6678C21.4554 14.6515 21.7819 14.6276 21.951 14.5316C22.1201 14.4376 22.4322 14.4061 22.7944 14.3916C23.1281 14.3772 23.505 14.3857 23.7667 14.3085C24.4034 14.1233 24.3963 14.1214 24.8437 14.101C25.5466 14.0683 26.2496 14.0357 26.9526 14.0011C27.4212 13.9787 27.9114 13.9734 28.3513 13.9301C28.6706 13.8986 28.811 13.7912 29.016 13.7162C29.5982 13.6858 30.1804 13.6554 30.7626 13.6269C31.5792 13.5863 32.4029 13.5494 33.2266 13.5107C33.5808 13.4371 33.6282 13.2766 34.2249 13.2671C34.5801 13.2623 34.9279 13.2364 35.283 13.2201C35.8723 13.1916 36.4544 13.1554 37.044 13.1403C37.4915 13.1294 37.568 13.0261 37.8015 12.9605C37.8793 12.9373 37.9499 12.9047 38.0422 12.8987C38.9651 12.8424 39.917 12.8281 40.8182 12.7471C40.9105 12.7392 40.9952 12.6989 41.016 12.6702C41.03 12.6549 40.9088 12.6266 40.8304 12.6135C40.7378 12.5985 40.6168 12.5836 40.5174 12.5877C37.5847 12.7244 34.6522 12.8631 31.7195 12.9998C31.3077 13.0201 31.3077 13.0182 30.309 13.2312C30.224 13.2486 30.1247 13.268 30.0182 13.2741C29.5496 13.2984 29.0737 13.3132 28.6123 13.3432C28.2361 13.3673 27.9232 13.3453 27.6521 13.2774C27.4595 13.2283 27.2602 13.2137 27.0187 13.2182C26.7488 13.2248 26.5715 13.2463 26.416 13.2983C26.211 13.3696 26.1058 13.4615 25.6727 13.4819C23.6772 13.57 21.6818 13.6676 19.6936 13.7614C19.4161 13.7355 19.2805 13.6959 19.3508 13.6479C19.393 13.6192 19.4777 13.5807 19.5629 13.5767C20.3795 13.5341 21.2032 13.4973 22.0197 13.4566C22.1333 13.4506 22.2897 13.4539 22.3533 13.4346C22.6647 13.3478 22.7764 13.2081 23.366 13.1968C23.707 13.19 24.0547 13.1603 24.3811 13.1326C24.4734 13.1247 24.558 13.0844 24.5789 13.0557C24.5858 13.0404 24.4716 13.0121 24.3862 12.999C24.0727 12.9445 23.7114 13.0125 23.3982 12.9752C23.2914 12.9622 23.1418 12.9435 23.1201 12.9207C23.1056 12.8997 23.2259 12.865 23.3108 12.8438C23.3887 12.8244 23.4949 12.8069 23.6014 12.8009C24.5387 12.7542 25.4761 12.7055 26.4135 12.6683C26.797 12.6538 27.0662 12.6053 27.2354 12.517C27.3623 12.4517 27.5181 12.4168 27.7596 12.4066C29.3999 12.331 31.04 12.2478 32.6875 12.1779C33.0994 12.1614 33.3117 12.0978 33.481 12.0152C33.615 11.9499 33.771 11.9265 34.0337 11.9142C36.3842 11.8079 38.7201 11.6901 41.0706 11.5876C41.5038 11.5691 41.6305 11.4867 41.8497 11.4154C41.9275 11.3903 41.9767 11.3596 42.0759 11.3441C42.1751 11.3285 42.3031 11.33 42.4238 11.3258C44.2984 11.2381 46.1731 11.1446 48.0549 11.0626C48.4952 11.0441 48.5789 10.9484 48.8052 10.8809C48.8831 10.8596 48.9537 10.8251 49.0459 10.8191C50.4519 10.7499 51.8578 10.6846 53.2637 10.6174C54.201 10.5726 55.1383 10.5277 56.0756 10.4848C56.5372 10.4643 56.5372 10.4624 57.1597 10.2792C57.2304 10.258 57.3296 10.2329 57.4219 10.2269C60.1202 10.0966 62.8113 9.97202 65.5096 9.84363C65.7369 9.8334 65.8996 9.78898 66.0123 9.72373C66.125 9.65849 66.2879 9.61409 66.508 9.60388C68.6169 9.50208 70.7258 9.40219 72.8419 9.3061C73.2254 9.28967 73.4946 9.24304 73.6638 9.15662C73.7907 9.09133 73.9465 9.05651 74.188 9.04624C76.2969 8.94826 78.4059 8.84453 80.522 8.75034C80.9268 8.73194 81.1247 8.66645 81.3225 8.58949C81.3931 8.56256 81.4493 8.51848 81.5345 8.5144C82.5853 8.45778 83.629 8.39928 84.6872 8.35982C85.1275 8.34322 85.2755 8.26259 85.452 8.1857C85.5932 8.12419 85.7563 8.1027 86.0262 8.09425C86.6157 8.0753 87.1979 8.0411 87.7729 8.00692C87.8581 8.00094 87.9641 7.95862 87.9708 7.93187C87.9842 7.8822 87.8202 7.84832 87.5499 7.83195C84.738 7.96451 81.9191 8.09708 79.1071 8.22963C78.6456 8.25202 78.6456 8.25203 78.0231 8.43526C77.9523 8.45647 77.8531 8.48159 77.7537 8.48762C75.0554 8.61601 72.3643 8.74248 69.666 8.87087C69.4388 8.8811 69.2761 8.9255 69.1634 8.99075C69.0507 9.05599 68.8878 9.10039 68.6676 9.1106C66.0901 9.2329 63.5126 9.35712 60.9278 9.47372C60.5443 9.49014 60.2751 9.53484 60.1059 9.62317C59.979 9.68845 59.8232 9.7233 59.5817 9.73357C57.1177 9.8479 54.6608 9.96792 52.1896 10.0784C51.9411 10.0887 51.7556 10.0339 51.769 9.98235C51.7757 9.95561 51.8815 9.9114 51.9667 9.90733C53.2518 9.84046 54.53 9.77169 55.8225 9.72008C56.2557 9.7035 56.3822 9.61912 56.6014 9.54783C56.6721 9.5228 56.7284 9.49017 56.8206 9.47653C56.9199 9.46096 57.0478 9.46249 57.1685 9.45831C60.2147 9.3136 63.261 9.16698 66.3145 9.02988C66.7547 9.00946 66.8384 8.91566 67.0648 8.84816C67.1426 8.82502 67.2132 8.79045 67.3055 8.78636C68.2428 8.73772 69.1801 8.6948 70.1174 8.65189C71.7577 8.5744 73.3979 8.49692 75.0453 8.41941C75.521 8.39698 75.5211 8.39697 76.1294 8.21569C76.2001 8.19448 76.2993 8.16748 76.3916 8.16338C80.7302 7.9575 85.0688 7.75162 89.4074 7.54765C89.6346 7.53742 89.7974 7.49303 89.9101 7.42778C90.0228 7.36445 90.1855 7.31814 90.4056 7.30602C96.2708 7.02873 102.129 6.75145 107.994 6.47798C108.378 6.45964 108.647 6.41874 108.816 6.3285C108.936 6.26324 109.099 6.22839 109.34 6.21621C115.788 5.91235 122.235 5.60849 128.69 5.3027C133.029 5.09873 137.367 4.89094 141.706 4.69079C142.104 4.67241 142.316 4.61259 142.513 4.53372C142.577 4.5068 142.64 4.4627 142.726 4.45863C143.656 4.4081 144.586 4.3614 145.516 4.31469C145.808 4.36535 146.1 4.41412 146.392 4.46478C146.611 4.39158 146.824 4.31648 147.043 4.24328C148.449 4.18369 149.833 4.09361 151.254 4.06261C151.346 4.06042 151.446 4.09639 151.546 4.11518C152.208 4.23345 152.585 4.22277 153.002 4.06116C153.15 4.00345 153.277 3.95152 153.504 3.94129C154.207 3.90481 154.918 3.87976 155.613 3.83758C155.99 3.81544 156.303 3.83359 156.574 3.9015C156.766 3.95055 156.966 3.97096 157.2 3.9588C158.492 3.89764 159.777 3.8384 161.07 3.77342C161.162 3.76932 161.247 3.7366 161.317 3.71348C161.466 3.6634 161.593 3.60958 161.734 3.55761C161.927 3.58948 162.14 3.61366 162.297 3.65518C162.497 3.70422 162.682 3.70365 162.951 3.68947C168.107 3.44296 173.269 3.20215 178.424 2.95372C178.864 2.9333 179.057 3.01291 179.356 3.05401C179.456 3.06898 179.556 3.08776 179.663 3.09125C179.776 3.09473 179.897 3.08292 180.011 3.07685C183.88 2.89339 187.75 2.71182 191.62 2.52835C192.132 2.5039 192.132 2.5039 192.894 2.61996C192.986 2.63496 193.107 2.65178 193.207 2.64575C194.968 2.56599 196.729 2.48052 198.483 2.39888C198.71 2.38865 198.902 2.4186 199.109 2.46189C199.515 2.54657 199.544 2.54649 199.84 2.41961C199.981 2.36 200.13 2.32327 200.364 2.30538C200.62 2.28552 200.826 2.29065 201.025 2.32441C201.31 2.37127 201.518 2.45081 201.951 2.42851C203.825 2.33314 205.707 2.25303 207.575 2.15577C208.001 2.13349 208.229 2.1977 208.514 2.24457C208.614 2.26145 208.706 2.2879 208.813 2.29331C208.92 2.29871 209.047 2.28495 209.161 2.27888C211.504 2.16874 213.855 2.0605 216.191 1.94274C216.631 1.92042 216.824 2.0019 217.123 2.043C217.223 2.05797 217.337 2.08437 217.429 2.08027C218.835 2.01686 220.248 1.94959 221.654 1.88236C222.158 1.85793 222.158 1.85984 222.928 1.97397C223.02 1.98896 223.141 2.00387 223.241 1.99976C224.881 1.92418 226.528 1.84668 228.169 1.76919C228.673 1.74477 228.673 1.74477 230.131 1.83965C230.238 1.84696 230.352 1.85809 230.458 1.85395C232.333 1.76622 234.214 1.68036 236.089 1.5869C236.465 1.56858 236.778 1.58291 237.049 1.65082C237.242 1.69987 237.441 1.72028 237.675 1.70812C239.784 1.60823 241.901 1.51213 244.002 1.40653C244.407 1.38623 244.67 1.42741 244.955 1.48192C245.048 1.50073 245.141 1.52718 245.248 1.53449C245.354 1.54181 245.475 1.5338 245.589 1.52773C247.698 1.42784 249.814 1.33366 251.915 1.22615C252.341 1.20387 252.57 1.26808 252.855 1.31495C252.955 1.33183 253.062 1.36587 253.147 1.3637C253.971 1.32877 254.794 1.29766 255.611 1.24748C256.051 1.21943 256.244 1.30664 256.543 1.34774C256.643 1.3608 256.757 1.38911 256.849 1.38501C258.61 1.30526 260.371 1.22169 262.125 1.13623C262.374 1.12402 262.559 1.14063 262.758 1.18966C263.022 1.25568 263.328 1.28149 263.712 1.25934C264.528 1.21297 265.352 1.17995 266.176 1.1412C266.659 1.11875 266.659 1.11875 268.138 1.21356C268.245 1.22088 268.359 1.23198 268.465 1.22784C269.871 1.16252 271.284 1.09909 272.683 1.02806C273.059 1.00784 273.372 1.02407 273.643 1.09198C273.836 1.14103 274.028 1.16146 274.269 1.14928C275.562 1.08812 276.847 1.02697 278.139 0.96581C278.608 0.943399 279.077 0.905708 279.545 0.904295C279.887 0.905177 280.137 0.996052 280.443 1.04095C280.528 1.05405 280.67 1.03837 280.784 1.03421C282.424 0.956726 284.072 0.884942 285.705 0.797936C286.131 0.775654 286.359 0.839868 286.644 0.886735C286.744 0.903615 286.851 0.937657 286.936 0.935491C287.525 0.912717 288.108 0.882325 288.697 0.855733C289.4 0.823071 290.11 0.798024 290.806 0.75393C291.374 0.717858 291.59 0.883285 292.044 0.887642C292.393 0.89232 292.747 0.858804 293.095 0.842484C293.798 0.809823 294.501 0.773347 295.204 0.744503C295.453 0.73421 295.644 0.703076 295.722 0.634119C295.736 0.620714 295.614 0.592457 295.536 0.575512C294.588 0.38365 294.588 0.383641 293.636 0.428505C293.047 0.457006 292.465 0.485491 291.875 0.510174C291.776 0.514291 291.662 0.499363 291.562 0.48821C291.278 0.456614 291.305 0.418354 291.546 0.348906C291.786 0.279457 291.97 0.194916 292.175 0.11603C292.467 0.164784 292.752 0.213542 293.044 0.262296C293.278 0.252045 293.513 0.239902 293.747 0.229651C294.919 0.176488 296.09 0.121412 297.262 0.0720668C297.347 0.0679922 297.454 0.105855 297.554 0.124645C297.839 0.179147 298.096 0.226086 298.508 0.203846C299.558 0.14532 300.616 0.102044 301.667 0.0511537C302.129 0.0287645 302.129 0.0287663 302.941 0.144679C303.033 0.157763 303.154 0.172671 303.254 0.168554C304.312 0.12146 305.363 0.070575 306.421 0.021572C306.648 0.0113425 306.869 0.0354937 307.033 0.0903598C307.097 0.113074 307.084 0.151288 307.358 0.463536C308.201 0.714895 308.776 0.68645 309.358 0.661788C309.607 0.651494 309.827 0.641277 309.99 0.602606C310.075 0.581351 310.181 0.550483 310.18 0.525667C310.18 0.506578 310.023 0.476501 309.924 0.472982C309.22 0.436923 308.553 0.519121 307.864 0.538377C307.544 0.546976 307.266 0.480998 307.208 0.372361C307.193 0.341861 307.171 0.309476 307.149 0.278998C307.128 0.248519 307.113 0.216112 307.091 0.185634C306.814 0.176924 306.651 0.211771 306.531 0.277038C306.433 0.330787 306.291 0.392301 306.1 0.421512C305.909 0.452633 305.646 0.447708 305.411 0.457959C305.184 0.468188 304.936 0.49375 304.722 0.48103C304.509 0.466401 304.338 0.411547 304.138 0.377786C304.045 0.360884 303.931 0.33642 303.839 0.340516C303.022 0.375429 302.213 0.410308 301.404 0.454744C300.978 0.478935 300.763 0.399415 300.492 0.350597C300.279 0.313061 300.065 0.323236 300.031 0.411152C299.942 0.621411 300.27 0.708231 300.995 0.665961C301.591 0.629803 302.131 0.622467 302.602 0.75086C302.666 0.767848 302.815 0.775031 302.908 0.770935C303.49 0.746273 304.065 0.715903 304.647 0.691241C304.754 0.687102 304.868 0.694383 304.967 0.701719C306.418 0.800434 306.419 0.802353 306.908 0.777969C307.143 0.76581 307.37 0.755579 307.344 0.465489C307.787 0.152988 308.497 0.129854 309.186 0.0819636C309.633 0.0519816 309.826 0.1354 310.118 0.178427C310.218 0.193399 310.325 0.223614 310.417 0.219518C311.944 0.151923 313.464 0.0805213 314.983 0.0053112C315.239 -0.00691275 315.424 0.00398629 315.623 0.0530186C315.88 0.115242 316.165 0.154481 316.57 0.130354C317.379 0.0821006 318.203 0.0509907 319.026 0.0103297C319.445 -0.0100222 319.445 -0.0100418 320.293 0.105764C320.385 0.118848 320.506 0.133756 320.606 0.129639C321.429 0.0947044 322.246 0.0521676 323.063 0.0153458C323.29 0.00511632 323.496 0.0312179 323.675 0.0822234C323.853 0.133229 324.067 0.159308 324.287 0.1491C325.111 0.112257 325.927 0.0716298 326.744 0.034808C326.843 0.0306906 326.964 0.0436882 327.057 0.0567724C327.926 0.172514 327.926 0.172494 328.323 0.152206C328.905 0.121818 329.502 0.106672 330.077 0.0667604C330.638 0.0268912 330.931 0.136721 331.315 0.196651C332.366 0.149578 333.424 0.110129 334.468 0.0535331C334.894 0.029342 335.123 0.0916453 335.408 0.140421C335.507 0.157301 335.607 0.193275 335.7 0.191088C336.055 0.182382 336.403 0.160338 336.751 0.144018C337.099 0.127698 337.454 0.111359 337.802 0.0950388C338.2 0.149199 338.465 0.278211 339.033 0.232594C339.374 0.204841 339.736 0.198023 340.084 0.181703C340.432 0.165383 340.787 0.149044 341.135 0.132723C341.369 0.122473 341.611 0.11601 341.838 0.0981447C342.257 0.0682482 342.464 0.161175 342.763 0.202272C342.863 0.215335 342.977 0.237885 343.069 0.233789C343.772 0.204945 344.482 0.1799 345.171 0.133918C345.703 0.0979528 346.067 0.154136 346.444 0.233176C346.523 0.250121 346.658 0.259258 346.757 0.25514C347.581 0.220206 348.398 0.177646 349.214 0.140824C349.434 0.130616 349.648 0.160516 349.827 0.209612C350.012 0.260596 350.218 0.28481 350.446 0.274581C351.262 0.237759 352.086 0.197087 352.903 0.160265C353.002 0.156147 353.123 0.171058 353.216 0.186051C354.013 0.302006 354.013 0.303917 354.482 0.279597C354.596 0.273528 354.716 0.269331 354.83 0.263262C355.412 0.234782 356.016 0.223432 356.584 0.175905C357.237 0.122396 357.714 0.185867 358.177 0.293284C358.76 0.268622 359.356 0.253459 359.924 0.213569C360.35 0.183651 360.578 0.255501 360.863 0.302367C360.963 0.319248 361.07 0.353287 361.155 0.349213C361.979 0.314278 362.803 0.283172 363.612 0.233009C364.052 0.204958 364.246 0.290265 364.545 0.333271C364.644 0.348242 364.751 0.37466 364.844 0.370564C365.312 0.35388 365.781 0.329549 366.25 0.307138C366.797 0.280674 366.796 0.282582 367.523 0.396842C367.865 0.451173 368.205 0.406239 368.539 0.39187C368.894 0.375529 369.228 0.363074 369.513 0.440483C369.692 0.489579 369.906 0.51948 370.126 0.511181C370.594 0.492589 371.07 0.473983 371.532 0.443958C371.901 0.419938 372.221 0.434238 372.492 0.504054C372.684 0.553108 372.884 0.577339 373.118 0.56518C374.169 0.516198 375.227 0.465268 376.278 0.418196C376.37 0.4141 376.498 0.430901 376.584 0.447825C376.783 0.481586 376.976 0.519178 377.168 0.556778C377.63 0.538206 378.106 0.529156 378.56 0.501062C379.043 0.472882 379.483 0.462007 379.862 0.565863C379.94 0.588534 380.054 0.620626 380.147 0.618439C380.502 0.609733 380.85 0.589601 381.198 0.573281C381.545 0.556961 381.9 0.540621 382.248 0.524301C382.654 0.570804 382.912 0.707472 383.48 0.661855C383.821 0.634103 384.183 0.627285 384.531 0.610965C384.879 0.594645 385.234 0.576396 385.582 0.561985C385.695 0.557825 385.823 0.547889 385.923 0.555225C386.029 0.56254 386.122 0.588992 386.215 0.607803C386.5 0.662305 386.764 0.716878 387.168 0.683207C387.509 0.655455 387.871 0.648635 388.219 0.630405C388.695 0.607973 388.695 0.607977 389.485 0.725863C389.806 0.774531 390.167 0.70854 390.473 0.749615C390.68 0.777628 390.858 0.824806 391.058 0.856658C391.143 0.869763 391.278 0.875075 391.378 0.870958C391.846 0.852365 392.322 0.833759 392.784 0.803734C393.16 0.779693 393.473 0.801655 393.737 0.869584C393.93 0.918638 394.122 0.939069 394.363 0.926888C395.535 0.869907 396.707 0.820546 397.871 0.75786C398.269 0.735663 398.589 0.76716 398.81 0.835217C399.188 0.952435 399.719 0.811482 400.111 0.905751C400.354 0.964199 400.597 1.0322 401.037 1.00224C401.846 0.950164 402.67 0.920941 403.486 0.88412C403.779 0.934782 404.071 0.985457 404.37 1.0361C404.839 1.01369 405.307 0.991264 405.776 0.970762C406.124 0.954442 406.479 0.936194 406.827 0.921783C406.94 0.917622 407.061 0.909621 407.168 0.918845C407.275 0.928068 407.36 0.952632 407.46 0.971422C407.952 1.06348 407.952 1.0654 408.761 1.02478C409.109 1.00655 409.443 0.994093 409.735 1.06957C410.007 1.13939 410.326 1.15178 410.696 1.12967C411.391 1.08939 412.094 1.05864 412.805 1.02978C413.025 1.01957 413.231 1.0514 413.417 1.10048C413.695 1.17791 414.036 1.16924 414.384 1.1472C414.845 1.11908 415.3 1.09099 415.692 1.19672C415.771 1.21939 415.892 1.25146 415.977 1.24929C416.56 1.23226 417.149 1.21904 417.717 1.18106C418.285 1.14308 418.564 1.26059 418.956 1.31668C419.538 1.29011 420.127 1.26352 420.709 1.23695C420.823 1.23088 420.958 1.2133 421.057 1.22255C421.477 1.26137 421.721 1.40381 422.296 1.35817C422.63 1.33235 422.992 1.32363 423.34 1.31685C423.432 1.31467 423.554 1.34674 423.618 1.37136C423.654 1.38462 423.619 1.42099 423.576 1.44021C423.449 1.49404 423.294 1.54416 423.181 1.59986C423.167 1.60754 423.302 1.64148 423.381 1.65651C423.573 1.6903 423.793 1.68392 424.049 1.66788C424.269 1.65385 424.497 1.67989 424.654 1.73669C424.718 1.7594 424.697 1.79764 424.564 1.92404C424.566 2.01757 424.714 1.97512 424.763 1.91388C424.84 1.82584 424.69 1.79766 424.407 1.84623C424.208 1.88119 424.11 1.93113 424.16 1.97107C424.189 1.99198 424.324 2.0183 424.564 1.92404C425.188 1.80762 425.657 1.78522 426.125 1.76281C426.246 1.75672 426.388 1.73719 426.473 1.74838C426.779 1.79328 427.064 1.84779 427.364 1.89843C427.705 1.88595 428.024 1.85634 428.359 1.92978C428.829 2.03336 428.851 2.02375 429.305 2.00138C429.539 1.98922 429.774 1.97899 430.008 1.96874C430.242 1.95849 430.428 1.98656 430.634 2.02984C431.055 2.1183 431.09 2.11818 431.366 1.99518C431.528 1.92024 431.641 1.89508 431.848 1.92882C432.532 2.04321 432.539 2.05082 433.121 2.01471C433.604 1.98462 434.059 1.97561 434.416 2.08335C434.658 2.15898 434.736 2.14157 434.927 2.06081C435.435 1.84738 435.67 1.85049 436.631 2.00031C437.08 2.0715 437.541 1.99185 437.995 1.98094C438.379 1.97215 438.65 2.01714 438.68 2.13732C438.702 2.2117 438.767 2.26496 439.023 2.28901C439.123 2.29825 439.244 2.31125 439.343 2.30713C439.933 2.28245 440.515 2.25396 441.104 2.22546C441.403 2.2112 441.565 2.12101 441.506 2.00283C441.44 1.87703 441.553 1.83086 441.979 1.7933C442.234 1.77153 442.441 1.77475 442.647 1.80849C442.875 1.84598 442.812 1.88053 442.614 1.94985C442.14 2.11927 442.199 2.22216 442.811 2.33677C443.025 2.37621 443.196 2.41198 443.247 2.47101C443.276 2.50147 443.248 2.54164 443.312 2.56435C443.662 2.6912 444.147 2.77184 444.688 2.83129C445.206 2.77819 445.562 2.86301 445.961 2.93053C446.275 2.98304 446.644 2.93612 446.977 2.91603C447.353 2.89389 447.666 2.90822 447.938 2.97803C448.13 3.02709 448.329 3.04939 448.564 3.03913C449.032 3.01672 449.508 3.00193 449.97 2.97C450.367 2.94208 450.666 2.97936 450.916 3.04351C451.23 3.12466 451.577 3.06824 451.904 3.07871C452.345 3.09074 452.568 3.25997 453.143 3.21242C453.483 3.18467 453.838 3.17406 454.194 3.16535C454.286 3.16316 454.4 3.19528 454.479 3.21795C454.857 3.32181 455.297 3.31475 455.78 3.28275C456.114 3.26075 456.44 3.24068 456.768 3.31224C457.31 3.43278 457.909 3.53789 458.479 3.6488C458.558 3.73638 458.503 3.83961 458.909 3.88993C459.122 3.91601 459.322 3.95551 459.486 3.99893C459.686 4.04987 459.871 4.06268 460.126 4.04855C460.588 4.02043 461.071 4.01323 461.525 3.9775C461.944 3.94569 462.208 4.00791 462.464 4.06632C462.671 4.11342 462.863 4.13574 463.112 4.10063C463.367 4.06741 463.552 4.08784 463.759 4.13876C464.051 4.20852 464.072 4.20083 465.039 4.21891C465.139 4.22052 465.26 4.24878 465.317 4.27342C465.346 4.2867 465.282 4.32509 465.233 4.34433C465.169 4.36743 465.07 4.39444 464.978 4.40044C463.927 4.45324 462.869 4.50034 461.818 4.55314C461.712 4.55918 461.598 4.5729 461.52 4.59223C461.435 4.61348 461.329 4.64242 461.33 4.66914C461.33 4.68823 461.472 4.71072 461.572 4.72378C461.885 4.76675 462.254 4.69882 462.56 4.74753C462.767 4.77937 462.938 4.82466 463.144 4.85458C463.23 4.86768 463.365 4.86537 463.471 4.86124C463.826 4.8468 464.174 4.82667 464.529 4.81414C464.629 4.81194 464.743 4.83069 464.835 4.84568C465.519 4.95816 465.519 4.95816 466.109 4.93157C466.343 4.92132 466.591 4.89193 466.812 4.90272C467.025 4.91353 467.211 4.96452 467.403 4.99639C467.802 5.06391 468.18 5.12959 468.21 5.2784C468.225 5.33562 468.461 5.38454 468.695 5.38765C468.923 5.39078 469.164 5.36908 469.398 5.35692C469.952 5.33234 469.952 5.33234 470.671 5.44662C470.871 5.47847 471.084 5.48164 471.34 5.46178C471.439 5.45385 471.56 5.46113 471.667 5.47035C472.015 5.49793 472.016 5.53419 471.79 5.6036C471.471 5.70574 471.5 5.7152 472.396 5.7984C472.738 5.82983 473.002 5.89013 473.287 5.94272C473.75 6.02723 473.743 6.02723 473.439 6.14078C473.369 6.16581 473.305 6.19273 473.234 6.21967C473.029 6.29474 472.867 6.3754 472.441 6.38432C471.972 6.39337 471.504 6.42534 471.035 6.44775C470.58 6.47012 470.46 6.51628 470.505 6.64595C470.557 6.80233 470.65 6.81924 471.467 6.81487C471.701 6.81416 471.908 6.82881 472.086 6.87982C472.002 6.94116 471.846 6.98935 471.619 7.00149C471.037 7.03188 470.447 7.05848 469.865 7.08505C469.396 7.10746 468.928 7.12986 468.459 7.15227C468.168 7.16651 467.985 7.26634 468.065 7.37682C468.108 7.43969 468.145 7.50257 468.181 7.56546C468.261 7.69121 468.411 7.72322 468.887 7.71606C469.008 7.71379 469.121 7.69816 469.235 7.70164C469.697 7.71361 469.92 7.87138 470.473 7.83726C470.935 7.80915 471.418 7.80197 471.872 7.76624C472.291 7.73443 472.527 7.80246 472.819 7.85313C472.918 7.87001 473.026 7.90594 473.111 7.90377C473.7 7.881 474.29 7.85824 474.865 7.82024C475.135 7.80415 475.298 7.81511 475.512 7.86028C476.025 7.96945 476.039 7.96368 476.799 7.92703C477.353 7.89864 477.36 7.90243 478.072 8.01674C478.272 8.04859 478.485 8.04794 478.741 8.0319C479.074 8.0118 479.422 7.98021 479.771 8.0078C479.877 8.01511 480.013 8.03762 480.049 8.06233C480.07 8.07945 479.971 8.12174 479.886 8.13536C479.263 8.23651 478.53 8.22154 477.849 8.26368C477.636 8.27577 477.422 8.24014 477.244 8.18914C477.058 8.13815 476.859 8.11776 476.617 8.12803C476.149 8.15045 475.673 8.16523 475.212 8.19717C474.814 8.22509 474.536 8.18202 474.258 8.12368C474.166 8.10486 474.058 8.06891 473.966 8.0711C472.915 8.11244 471.857 8.15382 470.813 8.21042C470.394 8.23459 470.152 8.17423 469.867 8.12355C469.767 8.10667 469.667 8.0707 469.575 8.07288C469.22 8.08159 468.872 8.10363 468.517 8.11997C467.224 8.18114 465.939 8.24228 464.647 8.29962C464.561 8.3037 464.454 8.26393 464.354 8.24705C464.162 8.21326 463.963 8.18141 463.763 8.14956C463.408 8.1659 463.06 8.18603 462.705 8.19856C462.449 8.20696 462.222 8.23438 462.188 8.30703C462.167 8.35482 462.403 8.39801 462.651 8.39344C462.893 8.3889 463.134 8.36526 463.333 8.38948C464.323 8.50867 464.323 8.51058 464.941 8.48391C465.48 8.45937 465.423 8.44045 465.901 8.544C466.108 8.5892 466.293 8.61538 466.527 8.60322C467.11 8.57474 467.699 8.54623 468.288 8.52155C468.381 8.51745 468.502 8.53618 468.594 8.55118C469.292 8.66361 469.292 8.66743 469.868 8.63706C470.62 8.60043 470.648 8.5908 471.155 8.70572C471.504 8.78485 471.823 8.72852 472.157 8.7237C472.542 8.79699 472.962 8.86255 473.312 8.94549C473.725 9.04352 474.158 9.02501 474.627 8.99497C474.975 8.97292 475.316 8.96426 475.601 9.04167C475.872 9.11339 476.199 9.12006 476.568 9.09986C476.902 9.08167 477.243 9.04436 477.591 9.08531C477.684 9.09648 477.826 9.1247 477.82 9.1419C477.813 9.16865 477.721 9.20711 477.629 9.21884C476.976 9.29907 476.259 9.29932 475.57 9.33767C475.478 9.34367 475.357 9.32303 475.264 9.30804C475.065 9.27428 474.872 9.23478 474.68 9.19908C474.332 9.21159 473.976 9.21646 473.636 9.2404C473.373 9.25837 473.174 9.25708 472.981 9.21184C472.803 9.17038 472.611 9.11941 472.397 9.10669C472.184 9.09397 471.936 9.12335 471.701 9.13551C471.467 9.14767 471.197 9.14275 471.013 9.17385C470.828 9.20494 470.716 9.27211 470.596 9.32592C470.462 9.3855 470.277 9.40516 470.007 9.4117C469.759 9.41818 469.56 9.41113 469.374 9.35824C469.296 9.33557 469.189 9.3187 469.082 9.30375C468.982 9.29069 468.868 9.27003 468.776 9.27412C467.718 9.32122 466.667 9.37213 465.609 9.42113C465.083 9.44562 465.09 9.44558 463.994 9.33625C463.895 9.32701 463.774 9.31401 463.674 9.31813C463.085 9.34281 462.503 9.3713 461.913 9.3998C461.317 9.42832 461.324 9.42448 460.306 9.30728C460.121 9.28493 459.851 9.31629 459.631 9.31313C459.169 9.30498 458.939 9.14532 458.4 9.17749C457.938 9.20561 457.455 9.21278 456.994 9.24854C456.575 9.28034 456.332 9.21426 456.047 9.16358C455.948 9.1467 455.84 9.10884 455.755 9.11291C454.697 9.1581 453.646 9.20899 452.239 9.21895C451.891 9.22 452.048 9.25962 452.276 9.2723C452.603 9.29231 452.709 9.25191 452.53 9.17608C452.402 9.12302 452.216 9.09683 452.067 9.11065C451.989 9.11852 451.89 9.1551 452.239 9.21895C452.61 9.29038 452.589 9.33052 452.654 9.35324C452.811 9.40812 453.032 9.43037 453.259 9.42205C453.614 9.40761 453.962 9.38748 454.317 9.37496C454.416 9.37084 454.537 9.38384 454.63 9.39883C455.413 9.51483 455.421 9.52245 456.251 9.47413C456.514 9.45998 456.706 9.4594 456.912 9.49505C457.197 9.54382 457.405 9.62718 457.838 9.59915C458.413 9.56115 459.002 9.53839 459.592 9.51562C459.684 9.51152 459.784 9.54558 459.891 9.56053C460.183 9.60547 460.397 9.69073 460.83 9.65315C461.164 9.62351 461.526 9.61477 461.881 9.60797C461.973 9.60578 462.116 9.6359 462.159 9.66059C462.245 9.70424 462.139 9.75611 461.898 9.79311C461.799 9.80868 461.664 9.80526 461.55 9.81133C461.082 9.83374 460.613 9.85805 460.144 9.87664C459.896 9.88694 459.662 9.91629 459.634 9.98701C459.614 10.0348 459.87 10.076 460.112 10.0715C460.467 10.0647 460.822 10.0483 461.163 10.0225C461.766 9.97867 462.292 9.98853 462.784 10.1073C463.134 10.1903 463.112 10.1598 463.485 10.4068C463.578 10.4696 463.856 10.4744 464.097 10.4699C464.68 10.4586 464.95 10.4864 464.901 10.5458C464.838 10.6185 464.633 10.642 464.37 10.6523C463.901 10.669 463.433 10.6953 462.964 10.7177C462.85 10.7237 462.723 10.7356 462.616 10.7321C462.509 10.7286 462.41 10.706 462.317 10.6891C462.117 10.6534 461.946 10.5985 461.733 10.5858C461.519 10.5731 461.271 10.6025 461.037 10.6146C460.802 10.6249 460.554 10.6543 460.341 10.6416C460.127 10.6288 459.949 10.5721 459.756 10.5383C459.664 10.5214 459.55 10.495 459.457 10.4972C458.989 10.5139 458.52 10.5401 458.051 10.5607C457.476 10.5872 457.476 10.5872 456.778 10.4709C456.579 10.4372 456.373 10.4397 456.11 10.4558C455.542 10.488 455.535 10.4823 454.496 10.3747C454.396 10.3636 454.275 10.3506 454.175 10.3566C453.117 10.4037 452.066 10.4546 451.016 10.5036C450.114 10.5464 450.114 10.5464 449.619 10.7388C449.252 10.8812 449.245 10.8812 449.608 10.945C449.9 10.9975 450.164 11.075 450.485 11.1027C450.783 11.1285 451.152 11.0415 451.48 11.1283C451.644 11.1717 451.858 11.2188 452.064 11.2258C452.391 11.2344 452.738 11.178 453.052 11.261C453.209 11.3026 453.445 11.3458 453.644 11.3471C453.992 11.3499 454.347 11.3182 454.695 11.3038C454.801 11.2997 454.922 11.2993 455.021 11.3086C455.128 11.3197 455.221 11.3423 455.314 11.3611C455.599 11.4252 455.905 11.4548 456.274 11.4212C456.877 11.366 457.417 11.3911 457.888 11.5118C457.952 11.5288 458.109 11.5303 458.208 11.5223C458.464 11.5025 458.684 11.4999 458.876 11.5356C458.955 11.5506 459.069 11.577 459.055 11.5942C459.034 11.6229 458.949 11.6613 458.857 11.6712C458.19 11.7381 457.473 11.7479 456.784 11.7843C456.692 11.7884 456.578 11.7639 456.485 11.747C456.285 11.7133 456.114 11.6565 455.901 11.6438C455.687 11.6311 455.439 11.6566 455.205 11.6669C454.97 11.6772 454.722 11.7065 454.509 11.6957C454.295 11.683 454.096 11.6359 453.924 11.5944C453.725 11.5473 453.533 11.5421 453.27 11.562C452.929 11.5879 452.574 11.5927 452.226 11.6072C452.034 11.5715 451.841 11.5319 451.642 11.4982C451.549 11.4813 451.435 11.4606 451.336 11.4628C450.867 11.4795 450.398 11.5038 449.93 11.5262C449.461 11.5487 449.461 11.5487 448.664 11.4327C448.571 11.4196 448.45 11.4047 448.35 11.4088C447.761 11.4335 447.179 11.4639 446.589 11.4886C446.362 11.4988 446.156 11.4727 445.97 11.4217C445.792 11.3707 445.578 11.3427 445.358 11.3529C444.421 11.3958 443.483 11.4369 442.546 11.4874C442.17 11.5076 441.85 11.4914 441.593 11.4235C441.293 11.3461 440.96 11.3662 440.612 11.3825C439.824 11.4231 439.816 11.4212 439.31 11.3253C439.211 11.3065 439.111 11.2706 439.018 11.2728C438.202 11.3039 437.378 11.3331 436.569 11.3813C436.143 11.4074 435.914 11.3413 435.629 11.2925C435.529 11.2756 435.422 11.2397 435.337 11.2438C434.748 11.2665 434.158 11.2874 433.583 11.3273C433.008 11.3672 432.785 11.1904 432.352 11.1936C431.762 11.1973 431.18 11.2429 430.598 11.2714C430.129 11.2938 429.66 11.3162 429.192 11.3386C428.723 11.361 428.254 11.3796 427.786 11.4059C427.537 11.42 427.352 11.4033 427.146 11.3562C426.882 11.294 426.568 11.2454 426.283 11.189C425.849 11.1082 425.849 11.1082 425.323 11.1327C425.21 11.1387 425.089 11.1429 424.975 11.149C424.116 11.1936 424.116 11.1898 423.02 11.0728C422.97 11.0672 422.842 11.0886 422.793 11.104C422.644 11.1541 422.51 11.208 422.376 11.2599C422.184 11.2299 421.949 11.2135 421.821 11.1699C421.456 11.047 420.89 11.2186 420.519 11.0975C420.383 11.0521 420.148 11.0127 419.935 11.0019C419.714 10.9911 419.466 11.0186 419.239 11.0307C418.65 11.0611 418.649 11.0592 418.148 11.2306C417.893 11.3154 417.523 11.3012 417.19 11.3213C416.842 11.3434 416.508 11.3558 416.216 11.2785C415.952 11.2086 415.632 11.1924 415.255 11.2164C414.794 11.2465 414.318 11.2651 413.849 11.2837C413.75 11.2878 413.629 11.2786 413.529 11.2675C412.44 11.1581 412.44 11.1562 411.915 11.1826C411.681 11.1948 411.439 11.1993 411.212 11.2172C410.829 11.2489 410.537 11.2097 410.259 11.1494C410.166 11.1306 410.059 11.0947 409.967 11.0968C409.498 11.1078 409.036 11.1264 408.575 11.1449C408.22 11.1594 407.864 11.1681 407.524 11.1958C406.956 11.2415 406.677 11.1182 406.285 11.0621C405.703 11.0887 405.113 11.1076 404.531 11.1437C404.262 11.1598 404.084 11.1546 403.877 11.1095C403.613 11.053 403.371 10.9888 402.945 11.0187C402.377 11.0586 401.78 11.0738 401.198 11.0984C400.806 11.0404 400.52 10.921 399.96 10.9666C399.619 10.9944 399.257 11.0012 398.909 11.0175C398.44 11.0399 397.971 11.0604 397.503 11.0848C396.999 11.1092 397.006 11.1034 396.229 10.9931C395.781 10.9277 395.32 11.0035 394.865 11.0163C394.51 11.0269 394.334 11.1153 394.421 11.2277C394.508 11.34 394.317 11.4284 393.991 11.4447C393.174 11.4834 392.35 11.5241 391.534 11.559C391.434 11.5631 391.313 11.5501 391.221 11.537C390.345 11.4194 390.345 11.4213 389.955 11.4397C389.372 11.47 388.776 11.4871 388.201 11.5251C387.803 11.5511 387.511 11.5119 387.254 11.4478C387.055 11.3988 386.87 11.3879 386.614 11.4001C383.802 11.5365 380.99 11.6633 378.186 11.8034C377.767 11.8238 377.524 11.7692 377.239 11.7185C377.14 11.7016 377.047 11.6656 376.947 11.6659C376.713 11.6666 376.478 11.6845 376.244 11.6967C375.193 11.7457 374.142 11.8042 373.084 11.8417C372.637 11.8583 372.517 11.9465 372.326 12.0196C372.178 12.0754 372.008 12.0989 371.745 12.1073C371.49 12.1157 371.305 12.1067 371.105 12.0577C370.848 11.9935 370.556 11.9543 370.159 11.9822C369.697 12.0142 369.228 12.029 368.753 12.0514C368.511 12.0617 368.327 12.0966 368.25 12.1655C368.236 12.177 368.386 12.2052 368.471 12.2222C368.756 12.2786 369.027 12.3446 369.348 12.3837C369.675 12.4228 370.03 12.3759 370.37 12.3634C370.491 12.3592 370.605 12.3474 370.718 12.349C370.825 12.3506 370.953 12.3598 371.032 12.3767C371.402 12.4615 371.794 12.5195 372.305 12.4664C372.746 12.4899 372.976 12.6476 373.536 12.604C373.877 12.5781 374.232 12.5656 374.587 12.555C374.68 12.5528 374.78 12.5869 374.879 12.6037C375.164 12.6506 375.393 12.7263 375.819 12.6925C376.273 12.6568 376.756 12.6496 377.218 12.6215C377.473 12.6055 377.658 12.6183 377.858 12.6673C378.114 12.7295 378.407 12.7764 378.804 12.7446C379.145 12.7169 379.507 12.71 379.855 12.6918C380.309 12.6694 380.309 12.6714 381.121 12.7873C381.214 12.8004 381.335 12.8153 381.434 12.8111C382.024 12.7865 382.606 12.7561 383.195 12.7314C383.422 12.7212 383.643 12.7453 383.8 12.8002C383.865 12.8229 383.844 12.8612 383.866 12.8936C382.694 12.9486 381.522 12.9961 380.358 13.0626C379.918 13.0887 379.718 13.011 379.426 12.968C379.326 12.953 379.219 12.9209 379.126 12.925C378.303 12.96 377.486 12.9968 376.67 13.0412C376.414 13.0554 376.222 13.0483 376.029 12.9935C375.537 12.848 374.941 12.93 374.387 12.9526C373.961 12.9692 373.827 13.0288 373.879 13.1546C373.945 13.3033 374.201 13.3484 374.855 13.3197C375.089 13.3094 375.323 13.2954 375.558 13.287C375.785 13.2787 375.991 13.3029 376.177 13.3539C376.355 13.4049 376.569 13.431 376.789 13.4227C377.258 13.4041 377.734 13.3855 378.188 13.3555C378.564 13.3314 378.877 13.3496 379.141 13.4194C379.434 13.4968 379.775 13.4786 380.115 13.4604C380.911 13.4198 380.918 13.4217 381.416 13.5156C381.516 13.5344 381.616 13.5704 381.709 13.5682C382.525 13.5371 383.349 13.5098 384.151 13.4616C384.57 13.4374 384.813 13.4978 385.091 13.5466C385.191 13.5634 385.291 13.6013 385.383 13.5972C385.972 13.5745 386.562 13.5517 387.137 13.5137C387.406 13.4957 387.57 13.5066 387.791 13.5518C388.319 13.6628 388.333 13.659 389.078 13.6204C389.305 13.6083 389.554 13.5866 389.767 13.6012C389.981 13.6158 390.152 13.6707 390.352 13.7044C390.444 13.7194 390.558 13.7401 390.658 13.736C391.126 13.7193 391.595 13.695 392.064 13.6726C392.504 13.6502 392.504 13.6521 393.33 13.768C393.665 13.8166 394.012 13.7736 394.346 13.7573C394.708 13.739 395.035 13.7381 395.313 13.8117C395.591 13.8853 395.925 13.8804 396.28 13.8641C396.614 13.8478 396.954 13.8048 397.296 13.8553C398.08 13.9713 398.08 13.9732 398.563 13.9489C399.266 13.9143 399.961 13.8817 400.672 13.8509C400.764 13.8468 400.885 13.8693 400.978 13.8843C401.177 13.9181 401.349 13.9748 401.562 13.9875C401.775 14.0022 402.024 13.9785 402.251 13.9664C402.982 13.9279 403.032 13.9144 403.524 14.0389C403.938 14.1408 404.447 13.9903 404.833 14.1075C405.054 14.1737 405.353 14.2262 405.765 14.1925C406.105 14.1648 406.46 14.1561 406.815 14.1397C407.376 14.1132 407.376 14.1151 408.089 14.2275C408.181 14.2425 408.302 14.2612 408.395 14.2571C408.863 14.2405 409.339 14.2257 409.794 14.1899C410.326 14.1482 410.668 14.2198 411.067 14.2892C411.38 14.3436 411.749 14.2967 412.083 14.2766C412.445 14.2564 412.772 14.2611 413.043 14.3348C413.329 14.4103 413.662 14.3997 414.018 14.3834C414.351 14.369 414.692 14.3241 415.033 14.3765C415.767 14.4926 415.767 14.4926 416.3 14.4681C416.768 14.4457 417.237 14.4214 417.706 14.4047C417.798 14.4006 417.912 14.4251 418.005 14.442C418.204 14.4758 418.376 14.5325 418.589 14.5452C418.802 14.558 419.051 14.5324 419.285 14.5221C419.519 14.5119 419.768 14.4825 419.981 14.4933C420.194 14.5041 420.394 14.5513 420.565 14.5927C420.765 14.6418 420.95 14.6469 421.219 14.627C421.56 14.6012 421.915 14.5944 422.263 14.58C422.456 14.6157 422.655 14.6513 422.841 14.6909C423.033 14.7323 423.239 14.7279 423.502 14.7137C424.375 14.6653 424.382 14.671 425.116 14.7871C425.451 14.8396 425.798 14.7946 426.132 14.7802C426.487 14.7639 426.821 14.7553 427.099 14.8308C427.37 14.9025 427.704 14.911 428.059 14.887C428.287 14.8711 428.528 14.8608 428.762 14.8544C428.869 14.8522 428.997 14.8594 429.075 14.8745C429.453 14.9535 429.824 15.0249 430.342 14.9718C430.797 14.9857 431.026 15.1416 431.573 15.1094C432.035 15.0813 432.518 15.0741 432.972 15.0383C433.391 15.0065 433.69 15.0591 433.904 15.1253C434.29 15.2425 434.827 15.0805 435.213 15.1958C435.434 15.2619 435.719 15.3145 436.145 15.2846C436.613 15.2526 436.763 15.2923 436.9 15.4121C436.979 15.4806 436.966 15.536 436.825 15.5899C436.683 15.6457 436.527 15.6366 436.299 15.5743C436.035 15.5045 435.722 15.492 435.345 15.5084C434.976 15.5248 434.747 15.4263 434.441 15.389C434.135 15.3498 433.774 15.4177 433.453 15.3672C432.698 15.2492 432.698 15.2492 432.187 15.2736C431.839 15.2899 431.477 15.2987 431.136 15.3264C430.731 15.3601 430.467 15.3017 430.19 15.2491C430.09 15.2303 429.99 15.1943 429.904 15.1965C429.088 15.2276 428.264 15.2568 427.455 15.307C427.029 15.3331 426.8 15.265 426.515 15.2182C426.416 15.2013 426.308 15.1672 426.223 15.1713C425.52 15.2002 424.824 15.2366 424.121 15.2712C423.987 15.3231 423.839 15.3732 423.712 15.4289C423.577 15.4866 423.393 15.512 423.123 15.5109C422.676 15.5122 422.236 15.5938 421.787 15.4939C421.324 15.3922 421.288 15.3981 420.841 15.4242C420.273 15.4584 419.669 15.4526 419.137 15.5286C419.045 15.5423 418.946 15.5788 418.946 15.6056C418.939 15.6228 419.089 15.6471 419.182 15.6621C419.495 15.707 419.856 15.6391 420.17 15.6859C420.376 15.7158 420.548 15.7611 420.754 15.7929C420.84 15.806 420.967 15.8037 421.081 15.8015C421.202 15.7992 421.315 15.7855 421.429 15.7871C421.536 15.7887 421.65 15.7998 421.735 15.8167C422.127 15.8881 422.54 15.9536 422.89 16.0385C423.232 16.1215 423.551 16.0632 423.892 16.0584C425.258 16.1879 425.258 16.1898 426.174 16.145C426.401 16.1348 426.636 16.1227 426.87 16.1239C426.97 16.1236 427.063 16.1576 427.162 16.1764C427.447 16.2328 427.718 16.2836 428.116 16.2518C428.456 16.2241 428.819 16.2172 429.167 16.199C429.635 16.1766 429.635 16.1766 430.433 16.2945C430.632 16.3244 430.845 16.32 431.101 16.3039C431.321 16.2899 431.549 16.3178 431.706 16.3727C431.77 16.3954 431.75 16.4337 431.771 16.4661C431.068 16.4987 430.358 16.5219 429.677 16.5697C429.237 16.5997 429.036 16.5182 428.744 16.4752C428.645 16.4602 428.538 16.4281 428.445 16.4322C427.749 16.4629 427.054 16.4975 426.358 16.5377C426.273 16.5418 426.167 16.586 426.16 16.6128C426.147 16.6625 426.325 16.7096 426.581 16.707C426.922 16.704 427.255 16.6706 427.562 16.7479C427.819 16.8159 428.139 16.8455 428.515 16.8138C428.742 16.7959 428.984 16.7952 429.211 16.7792C429.814 16.7316 430.361 16.7395 430.818 16.8679C431.167 16.9012 431.508 16.8678 431.841 16.8496C432.09 16.8355 432.331 16.8214 432.509 16.8571C432.887 16.9323 433.258 17.0076 433.776 16.9545C434.338 17.0062 434.766 17.1176 435.236 17.2078C435.457 17.251 435.628 17.2753 435.883 17.2459C435.99 17.2342 436.118 17.2338 436.231 17.2277C436.466 17.2174 436.714 17.188 436.927 17.1989C437.141 17.2116 437.319 17.2664 437.512 17.3002C437.604 17.3171 437.711 17.3454 437.804 17.3432C438.159 17.3326 438.507 17.3125 438.854 17.2961C439.202 17.2817 439.55 17.2673 439.898 17.2529C440.19 17.3017 440.49 17.3504 440.782 17.3992C441.25 17.3768 441.719 17.3543 442.181 17.3339C442.699 17.3094 442.699 17.3113 443.447 17.4274C443.782 17.4798 444.136 17.4444 444.456 17.4186C444.988 17.3769 445.345 17.4484 445.722 17.5236C445.801 17.5387 445.943 17.5478 446.035 17.5399C446.404 17.512 446.724 17.5321 446.995 17.6019C447.188 17.6509 447.38 17.6733 447.615 17.663C448.431 17.6243 449.248 17.5836 450.064 17.5487C450.164 17.5446 450.278 17.5615 450.37 17.5764C451.097 17.6907 451.104 17.6964 451.636 17.6643C452.112 17.6361 452.553 17.6233 452.931 17.7272C453.009 17.7498 453.131 17.7819 453.216 17.7798C453.798 17.7589 454.388 17.7362 454.963 17.702C455.225 17.6859 455.41 17.6911 455.617 17.7344C455.881 17.7889 456.116 17.855 456.549 17.8289C457.749 17.7547 457.756 17.7661 459.179 17.8935C459.279 17.9028 459.414 17.8871 459.527 17.8791C459.769 17.8593 459.947 17.8855 460.16 17.9288C460.638 18.0266 460.652 18.0208 461.107 17.9985C461.455 17.9802 461.817 17.9753 462.158 17.9456C462.683 17.9021 463.032 17.9755 463.424 18.0449C463.737 18.0993 464.099 18.0524 464.433 18.0342C464.795 18.0141 465.122 18.0188 465.393 18.0905C465.578 18.1396 465.778 18.1657 466.012 18.1555C466.829 18.1187 467.645 18.078 468.462 18.0412C468.561 18.0371 468.682 18.052 468.775 18.0651C469.587 18.181 469.587 18.1867 470.389 18.1404C470.645 18.1263 470.858 18.1218 471.05 18.1613C471.236 18.1989 471.435 18.2346 471.628 18.2703C471.976 18.2559 472.331 18.251 472.672 18.2271C472.934 18.2091 473.119 18.2162 473.326 18.2556C473.596 18.3064 473.825 18.3954 474.251 18.3502C474.471 18.3285 474.727 18.3335 474.947 18.3137C475.209 18.2881 475.387 18.3029 475.594 18.3519C475.851 18.4103 476.114 18.4706 476.526 18.4388C476.98 18.4031 477.463 18.3959 477.925 18.3678C478.18 18.3517 478.358 18.3665 478.565 18.4155C478.822 18.4777 479.114 18.5169 479.512 18.4909C480.321 18.4407 480.328 18.4502 481.118 18.5681C481.318 18.5981 481.531 18.5936 481.787 18.5776C482.007 18.5636 482.235 18.5915 482.392 18.6464C482.542 18.707 482.528 18.7452 482.543 18.7776ZM418.962 1.75192C418.728 1.76217 418.493 1.77433 418.15 1.60928C418.128 1.58071 418.142 1.54632 418.092 1.52165C417.977 1.47045 417.799 1.43472 417.586 1.42964C417.202 1.42316 416.741 1.48944 416.749 1.53905C416.757 1.58102 416.878 1.61692 417.113 1.65058C417.213 1.66364 417.291 1.68631 417.384 1.70131C417.655 1.7444 417.869 1.82967 418.259 1.78459C418.186 1.66645 418.223 1.72552 418.259 1.78459C418.225 1.85723 418.332 1.90846 418.588 1.92868C418.659 1.9342 418.766 1.93005 418.823 1.91842C419.042 1.87576 419.077 1.8184 418.911 1.66809C418.883 1.69299 418.905 1.73682 418.969 1.74808C419.033 1.75934 419.189 1.74934 419.267 1.73574C419.466 1.69887 419.565 1.65084 419.514 1.6109C419.486 1.58999 419.35 1.56367 419.265 1.56393C419.116 1.56438 418.981 1.60678 418.962 1.75192ZM476.756 23.7165C476.238 23.7543 475.641 23.7427 475.123 23.8188C475.031 23.8324 474.939 23.867 474.933 23.8938C474.926 23.911 475.068 23.9354 475.154 23.9485C475.346 23.9784 475.559 23.9683 475.808 23.958C476.184 23.9435 476.406 24.0306 476.698 24.0736C476.79 24.0867 476.911 24.0959 477.01 24.0918C477.586 24.0671 478.154 24.0406 478.729 24.0122C478.828 24.0061 478.935 23.9924 479.02 23.975C479.303 23.9188 479.274 23.8826 478.996 23.8415C478.69 23.7966 478.447 23.7209 478.134 23.6856C477.686 23.6354 477.232 23.7055 476.756 23.7165ZM436.425 25.2315C436.077 25.2479 435.736 25.2642 435.388 25.2805C435.274 25.2865 435.153 25.2888 435.047 25.2968C434.827 25.3108 434.664 25.3514 434.559 25.4147C434.723 25.4638 434.922 25.4919 435.142 25.4855C435.49 25.473 435.831 25.4471 436.179 25.4404C436.556 25.4316 436.777 25.5168 437.069 25.5599C437.162 25.5729 437.275 25.5745 437.382 25.5761C437.908 25.5821 438.226 25.4819 438.125 25.3429C438.052 25.2343 437.781 25.1702 437.454 25.1845C437.113 25.1989 436.766 25.2152 436.425 25.2315ZM479.143 20.8878C479.228 20.8551 479.32 20.8319 479.362 20.8031C479.488 20.7054 479.437 20.633 479.202 20.5574C478.916 20.4647 478.569 20.5287 478.249 20.5392C478.171 20.5414 478.087 20.5817 478.044 20.6067C478.016 20.6239 478.017 20.6602 478.06 20.6696C478.409 20.7449 478.78 20.8144 479.143 20.8878ZM417.416 15.4346C417.075 15.4509 416.727 15.4634 416.386 15.4854C416.301 15.4914 416.224 15.5279 416.174 15.5528C416.083 15.5989 416.183 15.6616 416.474 15.6665C416.808 15.6731 417.156 15.6396 417.504 15.6233C417.944 15.6029 418.206 15.5314 418.042 15.4708C417.885 15.4121 417.671 15.4013 417.416 15.4346ZM43.3226 12.4819C43.5498 12.4716 43.7842 12.4633 44.0113 12.4492C44.2243 12.4352 44.3872 12.3928 44.4928 12.3294C44.3144 12.2803 44.115 12.2542 43.8948 12.2606C43.5468 12.2731 43.206 12.2894 42.8653 12.3095C42.6523 12.3216 42.4469 12.3642 42.3982 12.4293C42.3492 12.4791 42.8255 12.5063 43.3226 12.4819ZM387.3 11.1517C387.392 11.1687 387.485 11.2027 387.577 11.2025C387.805 11.2018 388.039 11.1896 388.252 11.1699C388.344 11.162 388.415 11.1274 388.457 11.1005C388.485 11.0833 388.478 11.0528 388.435 11.0376C388.227 10.9466 387.404 10.9815 387.27 11.0869C387.256 11.1061 387.292 11.1308 387.3 11.1517ZM364.722 0.766083C364.744 0.796562 364.751 0.827079 364.78 0.857536C364.838 0.914632 364.995 0.956166 365.223 0.984115C365.4 0.935857 365.491 0.882137 365.483 0.824891C365.476 0.79437 365.454 0.763872 365.425 0.733415C365.367 0.676319 365.21 0.634809 364.982 0.60686C364.806 0.653209 364.721 0.706907 364.722 0.766083ZM495.633 25.3854C495.57 25.4104 495.506 25.4354 495.436 25.4585C495.628 25.5133 495.806 25.5299 495.941 25.499C496.026 25.4796 496.075 25.4508 496.139 25.4258C495.946 25.371 495.775 25.3563 495.633 25.3854ZM491.218 25.6583C491.31 25.6752 491.396 25.6978 491.496 25.709C491.659 25.7276 491.808 25.6947 491.921 25.6256C491.828 25.6087 491.742 25.5861 491.643 25.5749C491.479 25.5563 491.33 25.5892 491.218 25.6583ZM494.012 25.3005C493.963 25.3465 494.063 25.3844 494.326 25.416C494.39 25.391 494.475 25.3678 494.517 25.341C494.588 25.2969 494.466 25.2572 494.21 25.2274C494.139 25.2505 494.076 25.2755 494.012 25.3005ZM478.981 23.2879C478.932 23.3339 479.032 23.3717 479.295 23.4034C479.359 23.3784 479.444 23.3552 479.486 23.3284C479.556 23.2842 479.435 23.2445 479.179 23.2148C479.108 23.2379 479.044 23.2629 478.981 23.2879ZM458.339 9.842C458.275 9.86701 458.212 9.89202 458.141 9.91514C458.334 9.96992 458.511 9.98656 458.646 9.95561C458.731 9.93626 458.78 9.90748 458.844 9.88247C458.651 9.82769 458.48 9.81294 458.339 9.842ZM438.653 2.73491C438.824 2.74776 438.966 2.72062 439.086 2.64963C438.993 2.63272 438.907 2.61007 438.808 2.59892C438.644 2.58032 438.495 2.61323 438.383 2.68229C438.475 2.7011 438.568 2.71799 438.653 2.73491ZM428.251 2.31764C428.188 2.34264 428.124 2.36765 428.053 2.39077C428.246 2.44556 428.424 2.46219 428.558 2.43125C428.643 2.4119 428.693 2.38312 428.756 2.35811C428.564 2.30333 428.393 2.29048 428.251 2.31764ZM357.73 0.785233C357.666 0.810242 357.603 0.835251 357.532 0.858372C357.725 0.913153 357.903 0.929792 358.037 0.898843C358.122 0.879497 358.172 0.850713 358.235 0.825704C358.042 0.770924 357.872 0.758081 357.73 0.785233ZM6.95813 17.3734C6.86549 17.3565 6.77294 17.3396 6.68738 17.3208C6.48211 17.373 6.41891 17.4209 6.53315 17.4568C6.60455 17.4795 6.71126 17.4926 6.80389 17.5095C7.01627 17.4573 7.06529 17.4113 6.95813 17.3734Z" fill="#FFE492"/>
<path d="M48.021 10.3232C47.2044 10.3619 46.3951 10.4101 45.5783 10.4355C45.145 10.4483 44.9901 10.5308 44.8136 10.6077C44.6724 10.6692 44.5093 10.6888 44.2465 10.701C42.031 10.8012 39.8226 10.9071 37.6142 11.0111C37.3367 10.9871 37.2011 10.9475 37.2643 10.8995C37.2994 10.8708 37.3841 10.8305 37.4693 10.8264C38.9817 10.7512 40.4869 10.6741 42.0067 10.6142C42.4399 10.5976 42.5595 10.5133 42.7787 10.4439C42.8494 10.4208 42.9058 10.3863 42.998 10.3726C43.0901 10.3571 43.2251 10.3586 43.3459 10.3544C45.7886 10.2383 48.2313 10.124 50.674 10.0079C50.9515 10.0319 51.0871 10.0715 51.0239 10.1194C50.9888 10.1482 50.9041 10.1885 50.8189 10.1926C49.8816 10.2355 48.9512 10.2784 48.021 10.3232Z" fill="#FFE492"/>
<path d="M495.725 19.471C495.356 19.495 494.888 19.5289 494.502 19.4193C494.317 19.3664 494.118 19.3499 493.876 19.3621C493.528 19.3822 493.173 19.3985 492.818 19.411C492.726 19.4132 492.605 19.3926 492.512 19.3757C492.313 19.3419 492.141 19.2852 491.928 19.2706C491.714 19.2559 491.459 19.2987 491.239 19.2898C490.947 19.2773 490.826 19.2262 490.903 19.1782C490.945 19.1514 491.03 19.1129 491.122 19.1069C492.436 19.0323 492.443 19.0323 492.813 19.0999C493.098 19.1525 493.362 19.2109 493.767 19.1772C494.107 19.1495 494.47 19.1426 494.818 19.1244C495.3 19.1001 495.301 19.102 496.084 19.2199C496.283 19.2498 496.497 19.2473 496.752 19.2293C496.972 19.2153 497.186 19.2452 497.364 19.2962C497.252 19.3614 497.089 19.4039 496.869 19.416C496.514 19.4362 496.166 19.4506 495.725 19.471Z" fill="#FFE492"/>
<path d="M482.64 18.9139C483.534 18.8711 484.436 18.8341 485.331 18.7855C485.7 18.7653 485.992 18.7854 486.248 18.8496C486.527 18.9194 486.839 18.9127 487.18 18.8983C487.393 18.8901 487.6 18.92 487.743 18.973C487.8 18.9939 487.786 19.0321 487.808 19.0626C487.027 19.0993 486.239 19.138 485.45 19.1709C485.358 19.175 485.244 19.1563 485.159 19.1413C484.966 19.1094 484.802 19.0526 484.596 19.0417C484.155 19.0163 483.715 19.0692 483.268 19.0801C483.054 19.0846 482.848 19.0566 482.705 19.0054C482.648 18.9808 482.661 18.9444 482.64 18.9139Z" fill="#FFE492"/>
<path d="M158.796 3.16299C159.726 3.11819 160.656 3.07532 161.586 3.03052C161.864 3.05641 161.992 3.09419 161.936 3.14209C161.901 3.17083 161.816 3.21117 161.731 3.21524C159.871 3.30675 158.01 3.39442 156.157 3.48208C155.879 3.4562 155.751 3.41841 155.807 3.37052C155.842 3.34178 155.927 3.30144 156.012 3.29736C156.935 3.25068 157.865 3.20778 158.796 3.16299Z" fill="#FFE492"/>
<path d="M15.3854 14.2055C14.9664 14.2107 14.5272 14.2829 14.0576 14.2307C13.9652 14.2214 13.8368 14.1911 13.8437 14.1739C13.8574 14.1451 13.9421 14.1084 14.0343 14.0967C14.4384 14.0475 14.9427 14.0403 15.1466 13.9056C15.245 13.8363 15.4293 13.8128 15.6777 13.7986C15.9402 13.7825 16.1249 13.7877 16.3315 13.8273C16.6022 13.8781 16.831 13.9732 17.2564 13.9221C17.2782 13.9527 17.3283 13.987 17.3075 14.0158C17.2866 14.0446 17.1948 14.0717 17.1099 14.093C17.0321 14.1124 16.9257 14.13 16.8263 14.136C16.3579 14.1604 15.8894 14.181 15.3854 14.2055Z" fill="#FFE492"/>
<path d="M385.101 12.9149C385.449 12.8985 385.812 12.8898 386.152 12.862C386.422 12.8402 386.592 12.853 386.806 12.8982C387.17 12.9774 387.191 12.9697 388.079 12.9785C388.179 12.9801 388.3 13.0084 388.357 13.033C388.393 13.0463 388.344 13.0828 388.302 13.102C388.238 13.1271 388.146 13.1598 388.061 13.1601C387.5 13.1675 386.933 13.282 386.384 13.1537C386.106 13.0896 385.8 13.0599 385.424 13.0897C385.197 13.1076 384.955 13.116 384.721 13.1243C384.494 13.1326 384.259 13.1123 384.116 13.0554C383.909 12.972 384.029 12.9391 384.398 12.9438C384.633 12.9469 384.867 12.9251 385.101 12.9149Z" fill="#FFE492"/>
<path d="M514.051 25.8603C514.498 25.8398 514.945 25.8154 515.399 25.7987C515.491 25.7946 515.605 25.8153 515.691 25.8285C516.033 25.8849 515.984 25.9827 516 26.0689C516.008 26.1589 515.221 26.2341 514.886 26.1738C514.516 26.106 514.181 26.0285 513.67 26.0722C513.472 26.0881 513.237 26.0543 513.108 25.9992C512.915 25.9193 513.021 25.8864 513.383 25.8911C513.597 25.8942 513.823 25.8725 514.051 25.8603Z" fill="#FFE492"/>
<path d="M288.133 0.226298C288.595 0.203868 289.056 0.169983 289.518 0.166672C289.788 0.163941 289.923 0.22661 289.86 0.272688C289.825 0.301473 289.74 0.341881 289.655 0.345963C288.732 0.394646 287.809 0.435689 286.886 0.480548C286.616 0.454601 286.481 0.414868 286.544 0.368791C286.579 0.340006 286.664 0.30151 286.749 0.295516C287.21 0.26735 287.672 0.248728 288.133 0.226298Z" fill="#FFE492"/>
<path d="M505.141 19.6193C505.589 19.5989 506.043 19.5688 506.49 19.5579C506.725 19.5533 506.91 19.5968 506.939 19.6464C506.954 19.6693 506.841 19.7098 506.748 19.7196C506.11 19.7866 505.421 19.7963 504.754 19.8309C504.541 19.8411 504.313 19.8112 504.184 19.758C503.991 19.6764 504.097 19.6455 504.46 19.6501C504.687 19.6513 504.914 19.6296 505.141 19.6193Z" fill="#FFE492"/>
<path d="M396.852 13.145C397.079 13.1347 397.313 13.1091 397.534 13.1161C397.768 13.1249 397.918 13.1801 397.99 13.2355C398.069 13.2985 398.063 13.358 397.993 13.4119C397.88 13.5042 397.767 13.5008 397.503 13.4402C397.097 13.3456 397.069 13.3572 396.266 13.3635C396.174 13.3637 396.06 13.3353 395.989 13.3106C395.881 13.2726 395.937 13.213 396.185 13.1777C396.37 13.1522 396.625 13.1553 396.852 13.145Z" fill="#FFE492"/>
<path d="M488.477 19.0293C488.81 19.013 489.144 18.9871 489.478 18.9861C489.712 18.9834 489.897 19.0269 489.919 19.0747C489.927 19.0976 489.821 19.1362 489.736 19.1479C489.332 19.2008 488.877 19.2061 488.437 19.2246C488.231 19.2329 488.003 19.203 487.875 19.1498C487.682 19.07 487.795 19.0333 488.143 19.0437C488.25 19.0472 488.363 19.0354 488.477 19.0293Z" fill="#FFE492"/>
<path d="M435.871 16.7965C435.374 16.821 434.905 16.7937 434.939 16.7439C434.988 16.6786 435.194 16.6359 435.406 16.6238C435.747 16.6036 436.088 16.5872 436.436 16.5747C436.656 16.5664 436.855 16.5945 437.034 16.6437C436.928 16.7053 436.765 16.7498 436.552 16.7638C436.332 16.7779 436.098 16.7862 435.871 16.7965Z" fill="#FFE492"/>
<path d="M432.605 16.5592C432.939 16.5429 433.272 16.517 433.606 16.516C433.84 16.5134 434.026 16.5568 434.048 16.6046C434.055 16.6275 433.949 16.6661 433.864 16.6779C433.46 16.7308 433.006 16.736 432.565 16.7546C432.36 16.7628 432.132 16.7329 432.003 16.6797C431.81 16.5999 431.923 16.5632 432.271 16.5737C432.378 16.5772 432.492 16.5653 432.605 16.5592Z" fill="#FFE492"/>
<path d="M392.813 13.1396C393.147 13.1232 393.48 13.0973 393.814 13.0944C394.048 13.0918 394.234 13.1352 394.256 13.183C394.263 13.206 394.157 13.2426 394.072 13.2563C393.668 13.3092 393.213 13.3144 392.773 13.333C392.567 13.3413 392.34 13.3113 392.211 13.2581C392.018 13.1783 392.131 13.1416 392.479 13.152C392.586 13.1555 392.699 13.1437 392.813 13.1396Z" fill="#FFE492"/>
<path d="M390.943 13.031C391.298 13.0146 391.412 13.0047 391.526 13.0043C391.739 13.0037 391.959 13.026 392.088 13.0811C392.281 13.1609 392.168 13.1842 391.82 13.1891C391.372 13.1943 390.932 13.2358 390.485 13.2448C390.251 13.2494 390.065 13.204 390.05 13.1562C390.043 13.1333 390.149 13.0927 390.234 13.0848C390.532 13.0552 390.858 13.037 390.943 13.031Z" fill="#FFE492"/>
<path d="M429.59 1.61609C429.363 1.62636 429.122 1.65391 428.909 1.64498C428.624 1.63245 428.51 1.58109 428.58 1.533C428.622 1.50606 428.7 1.46752 428.785 1.46152C429.239 1.43332 429.701 1.41466 430.155 1.39412C430.425 1.42202 430.547 1.46187 430.476 1.50996C430.434 1.5369 430.356 1.57353 430.271 1.58145C430.051 1.60127 429.817 1.60582 429.59 1.61609Z" fill="#FFE492"/>
<path d="M153.698 3.40285C153.918 3.40026 154.117 3.42456 154.288 3.47194C154.182 3.53358 154.027 3.57429 153.814 3.59219C153.708 3.60018 153.587 3.60628 153.473 3.60855C153.253 3.61305 153.054 3.58684 152.883 3.53946C152.988 3.47782 153.151 3.43708 153.357 3.41921C153.463 3.41122 153.584 3.40894 153.698 3.40285Z" fill="#FFE492"/>
<path d="M502.706 19.6171C502.698 19.5615 503.13 19.497 503.521 19.4977C503.727 19.499 503.94 19.5252 504.062 19.5766C504.248 19.6545 504.142 19.6855 503.793 19.6808C503.58 19.6776 503.354 19.7109 503.14 19.7058C502.899 19.7046 502.756 19.6629 502.706 19.6171Z" fill="#FFE492"/>
<path d="M398.91 13.3718C398.902 13.3508 398.866 13.3259 398.887 13.3067C399.02 13.2008 399.837 13.1657 400.051 13.2571C400.087 13.2743 400.101 13.303 400.073 13.3203C400.031 13.3473 399.954 13.382 399.868 13.39C399.649 13.4098 399.422 13.4201 399.194 13.4227C399.095 13.423 399.002 13.3907 398.91 13.3718Z" fill="#FFE492"/>
<path d="M17.9111 13.8915C17.0738 13.9343 17.0595 13.9305 17.2072 13.8342C17.3408 13.7476 17.5886 13.6951 17.9508 13.694C18.0573 13.6936 18.1708 13.6895 18.2632 13.6968C18.3628 13.7061 18.5052 13.7248 18.5269 13.7478C18.5702 13.7917 18.4501 13.84 18.2375 13.8732C18.1454 13.8889 18.0247 13.8854 17.9111 13.8915Z" fill="#FFE492"/>
<path d="M164.196 3.10541C163.948 3.13877 163.735 3.12792 163.578 3.06704C163.421 3.00616 163.668 2.93253 164.101 2.91395C164.214 2.90977 164.335 2.89407 164.441 2.90141C164.548 2.90684 164.655 2.9295 164.719 2.95231C164.833 2.99031 164.763 3.04232 164.537 3.08711C164.445 3.10465 164.31 3.10122 164.196 3.10541Z" fill="#FFE492"/>
<path d="M501.225 19.4771C501.288 19.4519 501.351 19.4267 501.422 19.4035C501.684 19.4353 501.798 19.4734 501.728 19.5178C501.686 19.5448 501.601 19.5681 501.538 19.5933C501.276 19.5614 501.169 19.5214 501.225 19.4771Z" fill="#FFE492"/>
<path d="M29.3617 35.7671C29.3613 35.7441 29.4599 35.7073 29.5377 35.6994C29.6863 35.6855 29.8707 35.7118 29.9991 35.7651C30.1773 35.8414 30.0718 35.882 29.7456 35.8619C29.5188 35.8472 29.3623 35.8093 29.3617 35.7671Z" fill="#FFE492"/>
<path d="M401.783 11.5747C401.875 11.5917 401.968 11.6087 402.053 11.6276C401.933 11.6989 401.785 11.7301 401.629 11.7114C401.53 11.7002 401.444 11.6774 401.352 11.6604C401.471 11.5891 401.613 11.5618 401.783 11.5747Z" fill="#FFE492"/>
<path d="M399.326 11.4942C399.467 11.465 399.637 11.4798 399.837 11.5348C399.773 11.56 399.717 11.5889 399.639 11.6083C399.505 11.6394 399.328 11.6246 399.136 11.5677C399.192 11.5445 399.255 11.5193 399.326 11.4942Z" fill="#FFE492"/>
<path d="M397.441 11.5832C397.534 11.6002 397.626 11.6172 397.711 11.6361C397.592 11.7074 397.451 11.7385 397.288 11.7199C397.188 11.7087 397.103 11.6859 397.011 11.6689C397.13 11.5976 397.271 11.5684 397.441 11.5832Z" fill="#FFE492"/>
<path d="M396.05 11.4842C396.157 11.5223 396.101 11.5686 395.896 11.6211C395.804 11.6041 395.698 11.591 395.627 11.5681C395.513 11.532 395.569 11.4838 395.78 11.4313C395.865 11.4502 395.958 11.4672 396.05 11.4842Z" fill="#FFE492"/>
</svg>
