<svg width="627" height="330" viewBox="0 0 627 330" fill="none" xmlns="http://www.w3.org/2000/svg">
<path d="M560.746 260.97C560.746 124.275 449.932 13.4615 313.237 13.4615C176.542 13.4615 65.7282 124.275 65.7282 260.97" stroke="#A7CEFC" stroke-width="1.65051" stroke-dasharray="12.38 12.38"/>
<line x1="64.3869" y1="259.732" x2="560.746" y2="259.732" stroke="#A7CEFC" stroke-width="2.47577" stroke-dasharray="12.38 12.38"/>
<line x1="165.335" y1="61.7048" x2="269.302" y2="206.588" stroke="#A7CEFC" stroke-width="2.47577" stroke-dasharray="12.38 12.38"/>
<line x1="479.529" y1="77.3589" x2="376.587" y2="207.408" stroke="#A7CEFC" stroke-width="2.47577" stroke-dasharray="12.38 12.38"/>
<rect x="267.522" y="205.865" width="110.211" height="110.211" rx="7.01468" stroke="#A7CEFC" stroke-width="2.47577" stroke-dasharray="12.38 12.38"/>
<g filter="url(#filter0_d_9_10217)">
<rect x="289.09" y="227.432" width="67.0756" height="67.0756" rx="8.25257" fill="white"/>
</g>
<g filter="url(#filter1_d_9_10217)">
<rect x="32.1904" y="227.432" width="67.0756" height="67.0756" rx="8.25257" fill="white"/>
</g>
<path d="M64.2235 263.553C63.9015 263.553 63.5796 263.43 63.3343 263.184C62.8432 262.693 62.8432 261.897 63.3343 261.406L71.4846 253.256C71.9751 252.765 72.7725 252.765 73.263 253.256C73.7541 253.747 73.7541 254.543 73.263 255.034L65.1127 263.184C64.8674 263.43 64.5455 263.553 64.2235 263.553Z" fill="#FFE492"/>
<path d="M64.223 263.553C63.901 263.553 63.5797 263.43 63.3338 263.185L59.225 259.076C58.7339 258.585 58.7339 257.789 59.225 257.298C59.7155 256.807 60.5122 256.807 61.0034 257.298L65.1121 261.406C65.6033 261.897 65.6033 262.693 65.1121 263.185C64.8669 263.43 64.5449 263.553 64.223 263.553Z" fill="#FFE492"/>
<path d="M65.7267 276.649C65.5959 276.649 65.4632 276.628 65.3324 276.585C57.2934 273.934 51.8924 266.464 51.8924 257.998C51.8924 257.304 52.4558 256.741 53.1501 256.741C53.8443 256.741 54.4077 257.304 54.4077 257.998C54.4077 265.376 59.1145 271.885 66.1204 274.196C66.78 274.414 67.1384 275.125 66.9209 275.785C66.7467 276.314 66.2549 276.649 65.7267 276.649Z" fill="#FFE492"/>
<path d="M53.1501 259.256C52.4558 259.256 51.8924 258.693 51.8924 257.998V249.101C51.8924 248.407 52.4558 247.843 53.1501 247.843C53.8443 247.843 54.4077 248.407 54.4077 249.101V257.998C54.4077 258.693 53.8443 259.256 53.1501 259.256Z" fill="#FFE492"/>
<path d="M53.1507 250.359C52.5332 250.359 51.9943 249.904 51.9062 249.274C51.8106 248.586 52.2904 247.951 52.979 247.856C57.2274 247.265 61.328 245.996 65.1677 244.082C65.7896 243.773 66.5448 244.025 66.8542 244.647C67.1642 245.269 66.9108 246.023 66.2895 246.333C62.2053 248.368 57.8437 249.718 53.3249 250.347C53.2664 250.355 53.2079 250.359 53.1507 250.359Z" fill="#FFE492"/>
<path d="M65.7277 276.649C65.2001 276.649 64.7077 276.314 64.5335 275.785C64.316 275.125 64.6744 274.414 65.334 274.197C72.3399 271.886 77.0467 265.377 77.0467 257.998C77.0467 257.304 77.6101 256.741 78.3044 256.741C78.9986 256.741 79.562 257.304 79.562 257.998C79.562 266.464 74.161 273.934 66.1213 276.586C65.9905 276.629 65.8585 276.649 65.7277 276.649Z" fill="#FFE492"/>
<path d="M78.3051 259.256C77.6109 259.256 77.0474 258.693 77.0474 257.998V249.101C77.0474 248.407 77.6109 247.843 78.3051 247.843C78.9993 247.843 79.5628 248.407 79.5628 249.101V257.998C79.5628 258.693 78.9993 259.256 78.3051 259.256Z" fill="#FFE492"/>
<path d="M78.3064 250.359C78.2485 250.359 78.1901 250.355 78.1316 250.347C73.6128 249.718 69.2512 248.368 65.1669 246.333C64.5456 246.023 64.2922 245.269 64.6022 244.647C64.9116 244.025 65.6669 243.773 66.2888 244.082C70.1284 245.995 74.229 247.265 78.4774 247.856C79.1654 247.951 79.6458 248.587 79.5502 249.274C79.4634 249.904 78.9245 250.359 78.3064 250.359Z" fill="#FFE492"/>
<g filter="url(#filter2_d_9_10217)">
<rect x="527.208" y="227.432" width="67.0756" height="67.0756" rx="8.25257" fill="white"/>
</g>
<g clip-path="url(#clip0_9_10217)">
<path d="M572.064 255.625H569.231V249.161C569.231 244.577 565.423 240.848 560.742 240.848C556.061 240.848 552.253 244.577 552.253 249.161V255.625H549.426C546.826 255.625 544.71 257.741 544.71 260.341V276.377C544.71 278.977 546.826 281.093 549.426 281.093H572.064C574.665 281.093 576.78 278.977 576.78 276.377V260.341C576.78 257.741 574.665 255.625 572.064 255.625ZM555.397 249.161C555.397 246.311 557.795 243.992 560.742 243.992C563.69 243.992 566.087 246.311 566.087 249.161V255.625H555.397V249.161ZM573.636 276.377C573.636 277.243 572.931 277.949 572.064 277.949H549.426C548.559 277.949 547.854 277.243 547.854 276.377V260.341C547.854 259.475 548.559 258.769 549.426 258.769H572.064C572.931 258.769 573.636 259.475 573.636 260.341V276.377Z" fill="#4F9CF9"/>
<path d="M560.745 263.328C559.139 263.328 557.837 264.63 557.837 266.237C557.837 267.262 558.368 268.163 559.17 268.681V272.132C559.17 273 559.874 273.704 560.743 273.704C561.611 273.704 562.315 273 562.315 272.132V268.685C563.12 268.167 563.654 267.265 563.654 266.237C563.654 264.63 562.352 263.328 560.745 263.328Z" fill="#4F9CF9"/>
</g>
<g filter="url(#filter3_d_9_10217)">
<rect x="444.705" y="28.8888" width="67.0756" height="67.0756" rx="8.25257" fill="white"/>
</g>
<g clip-path="url(#clip1_9_10217)">
<path d="M471.885 42.3039C463.773 42.3039 458.12 45.1206 458.12 47.6487C458.12 50.1767 463.773 52.9935 471.885 52.9935C479.996 52.9935 485.649 50.1767 485.649 47.6487C485.649 45.1207 479.996 42.3039 471.885 42.3039Z" fill="#FFE492"/>
<path d="M458.12 72.2054V77.2045C458.12 79.7325 463.773 82.5493 471.885 82.5493C475.52 82.5493 478.951 81.9767 481.547 80.9369C483.238 80.2592 484.49 79.4187 485.142 78.5453C483.915 77.5849 482.497 76.204 481.262 74.2988C478.544 75.1691 475.332 75.6257 471.885 75.6257C467.547 75.6257 463.49 74.8785 460.459 73.5216C459.576 73.1258 458.794 72.6848 458.12 72.2054V72.2054Z" fill="#FFE492"/>
<path d="M458.12 62.3761L458.12 67.3069C458.12 69.8349 463.773 72.6516 471.885 72.6516C474.761 72.6516 477.521 72.2909 479.834 71.6234C478.995 69.6847 478.453 67.5447 478.214 65.2288C476.236 65.6008 474.081 65.795 471.885 65.795C467.519 65.795 463.442 65.0393 460.406 63.6671C459.544 63.2775 458.78 62.845 458.12 62.3761Z" fill="#FFE492"/>
<path d="M458.12 52.5426V57.4768C458.12 60.0048 463.773 62.8216 471.885 62.8216C474.054 62.8216 476.169 62.6172 478.073 62.2265C478.075 61.7592 478.215 60.5432 479.341 60.2341C481.115 59.7471 482.356 58.5779 482.466 56.9741C482.511 56.3138 483.338 55.3886 483.953 55.3978H485.649V52.5426C484.989 53.0116 484.226 53.4442 483.364 53.8342C480.323 55.2098 476.246 55.9674 471.885 55.9674C467.523 55.9674 463.446 55.2098 460.405 53.8342C459.543 53.4442 458.78 53.0116 458.12 52.5426V52.5426Z" fill="#FFE492"/>
<path d="M494.149 58.3717H485.277C484.781 60.4341 483.195 62.1261 481.05 62.8638C481.217 72.7636 486.908 76.5385 489.416 77.722C489.56 77.7896 489.73 77.7824 489.871 77.7028C492.39 76.2836 498.1 72.0591 498.366 62.8604C496.226 62.1209 494.644 60.431 494.149 58.3717ZM489.182 71.2638C488.58 71.883 487.543 71.849 486.983 71.1917L484.156 67.8745L486.42 65.9459L488.188 68.0197L493.118 62.9485L495.251 65.0212L489.182 71.2638Z" fill="#FFE492"/>
</g>
<g filter="url(#filter4_d_9_10217)">
<rect x="130.791" y="28.8888" width="67.0756" height="67.0756" rx="8.25257" fill="white"/>
</g>
<g clip-path="url(#clip2_9_10217)">
<path d="M179.317 46.0972C174.259 41.0396 166.03 41.0396 160.972 46.0972C157.518 49.5515 156.319 54.6434 157.814 59.2621L143.21 73.8655C142.989 74.0866 142.865 74.3865 142.865 74.6993V81.3701C142.865 82.0214 143.393 82.5493 144.044 82.5493H150.715C151.028 82.5493 151.328 82.4251 151.549 82.2039L153.217 80.5359C153.472 80.2811 153.596 79.9238 153.554 79.5658L153.346 77.775L155.829 77.541C156.393 77.4879 156.839 77.0415 156.892 76.4777L157.126 73.9948L158.917 74.2029C159.252 74.242 159.586 74.136 159.838 73.9122C160.089 73.6885 160.233 73.3681 160.233 73.0315V70.8355H162.389C162.699 70.8355 162.997 70.7131 163.218 70.4949L166.148 67.599C170.767 69.0965 175.862 67.8972 179.317 64.4418C184.375 59.3842 184.375 51.1547 179.317 46.0972ZM177.649 62.7742C174.673 65.7505 170.208 66.6795 166.275 65.1413C165.841 64.9716 165.348 65.0733 165.017 65.4008L161.904 68.4771H159.054C158.402 68.4771 157.874 69.005 157.874 69.6563V71.7073L156.202 71.5129C155.886 71.4764 155.57 71.5682 155.323 71.7677C155.077 71.9672 154.921 72.2577 154.891 72.5735L154.636 75.2845L151.925 75.54C151.609 75.5698 151.319 75.7255 151.119 75.9721C150.919 76.2186 150.828 76.5352 150.864 76.8502L151.146 79.2715L150.227 80.191H145.223V75.1879L160.009 60.4027C160.34 60.0714 160.444 59.5755 160.273 59.1393C158.735 55.2061 159.664 50.7415 162.64 47.765C166.778 43.627 173.511 43.627 177.649 47.765C181.787 51.903 181.787 58.6361 177.649 62.7742Z" fill="#4F9CF9"/>
<path d="M175.981 49.4326C174.601 48.0531 172.357 48.0532 170.978 49.4326C169.598 50.8119 169.598 53.0563 170.978 54.4356C172.357 55.815 174.601 55.8151 175.981 54.4356C177.36 53.0563 177.36 50.8119 175.981 49.4326ZM174.313 52.768C173.853 53.2277 173.105 53.2278 172.645 52.768C172.186 52.3082 172.186 51.5602 172.645 51.1003C173.106 50.6394 173.852 50.6394 174.313 51.1003C174.774 51.5613 174.774 52.307 174.313 52.768Z" fill="#4F9CF9"/>
</g>
<circle cx="315.249" cy="13.4614" r="10.7321" fill="#A7CEFC"/>
<circle cx="234.088" cy="159.686" r="10.7321" fill="#A7CEFC"/>
<circle cx="464.157" cy="260.97" r="10.7321" fill="#A7CEFC"/>
<g clip-path="url(#clip3_9_10217)">
<path d="M300.444 247.195V254.691C300.444 256.974 303.295 258.191 305.037 256.593L313.353 249.097C315.175 247.461 313.987 244.569 311.492 244.569H303.176C301.671 244.569 300.444 245.749 300.444 247.195Z" fill="#5986EF"/>
<path d="M339.806 244.569H331.49C329.035 244.569 327.807 247.461 329.629 249.097L337.945 256.593C339.688 258.153 342.539 256.974 342.539 254.691V247.195C342.539 245.749 341.311 244.569 339.806 244.569Z" fill="#5986EF"/>
<path d="M323.372 262.871L337.945 276.037C339.687 277.597 342.539 276.417 342.539 274.134V266.562C342.539 265.839 342.222 265.154 341.667 264.66L323.372 248.108C322.303 247.157 320.679 247.157 319.61 248.108L301.315 264.66C300.76 265.154 300.444 265.839 300.444 266.562V274.134C300.444 276.417 303.295 277.635 305.037 276.037L319.61 262.871C320.679 261.92 322.303 261.92 323.372 262.871Z" fill="#5986EF"/>
</g>
<defs>
<filter id="filter0_d_9_10217" x="256.9" y="198.544" width="131.456" height="131.456" filterUnits="userSpaceOnUse" color-interpolation-filters="sRGB">
<feFlood flood-opacity="0" result="BackgroundImageFix"/>
<feColorMatrix in="SourceAlpha" type="matrix" values="0 0 0 0 0 0 0 0 0 0 0 0 0 0 0 0 0 0 127 0" result="hardAlpha"/>
<feMorphology radius="9.07783" operator="erode" in="SourceAlpha" result="effect1_dropShadow_9_10217"/>
<feOffset dy="3.30103"/>
<feGaussianBlur stdDeviation="20.6314"/>
<feComposite in2="hardAlpha" operator="out"/>
<feColorMatrix type="matrix" values="0 0 0 0 0 0 0 0 0 0 0 0 0 0 0 0 0 0 0.2 0"/>
<feBlend mode="normal" in2="BackgroundImageFix" result="effect1_dropShadow_9_10217"/>
<feBlend mode="normal" in="SourceGraphic" in2="effect1_dropShadow_9_10217" result="shape"/>
</filter>
<filter id="filter1_d_9_10217" x="3.71995e-05" y="198.544" width="131.456" height="131.456" filterUnits="userSpaceOnUse" color-interpolation-filters="sRGB">
<feFlood flood-opacity="0" result="BackgroundImageFix"/>
<feColorMatrix in="SourceAlpha" type="matrix" values="0 0 0 0 0 0 0 0 0 0 0 0 0 0 0 0 0 0 127 0" result="hardAlpha"/>
<feMorphology radius="9.07783" operator="erode" in="SourceAlpha" result="effect1_dropShadow_9_10217"/>
<feOffset dy="3.30103"/>
<feGaussianBlur stdDeviation="20.6314"/>
<feComposite in2="hardAlpha" operator="out"/>
<feColorMatrix type="matrix" values="0 0 0 0 0 0 0 0 0 0 0 0 0 0 0 0 0 0 0.2 0"/>
<feBlend mode="normal" in2="BackgroundImageFix" result="effect1_dropShadow_9_10217"/>
<feBlend mode="normal" in="SourceGraphic" in2="effect1_dropShadow_9_10217" result="shape"/>
</filter>
<filter id="filter2_d_9_10217" x="495.018" y="198.544" width="131.456" height="131.456" filterUnits="userSpaceOnUse" color-interpolation-filters="sRGB">
<feFlood flood-opacity="0" result="BackgroundImageFix"/>
<feColorMatrix in="SourceAlpha" type="matrix" values="0 0 0 0 0 0 0 0 0 0 0 0 0 0 0 0 0 0 127 0" result="hardAlpha"/>
<feMorphology radius="9.07783" operator="erode" in="SourceAlpha" result="effect1_dropShadow_9_10217"/>
<feOffset dy="3.30103"/>
<feGaussianBlur stdDeviation="20.6314"/>
<feComposite in2="hardAlpha" operator="out"/>
<feColorMatrix type="matrix" values="0 0 0 0 0 0 0 0 0 0 0 0 0 0 0 0 0 0 0.2 0"/>
<feBlend mode="normal" in2="BackgroundImageFix" result="effect1_dropShadow_9_10217"/>
<feBlend mode="normal" in="SourceGraphic" in2="effect1_dropShadow_9_10217" result="shape"/>
</filter>
<filter id="filter3_d_9_10217" x="412.515" y="3.9584e-05" width="131.456" height="131.456" filterUnits="userSpaceOnUse" color-interpolation-filters="sRGB">
<feFlood flood-opacity="0" result="BackgroundImageFix"/>
<feColorMatrix in="SourceAlpha" type="matrix" values="0 0 0 0 0 0 0 0 0 0 0 0 0 0 0 0 0 0 127 0" result="hardAlpha"/>
<feMorphology radius="9.07783" operator="erode" in="SourceAlpha" result="effect1_dropShadow_9_10217"/>
<feOffset dy="3.30103"/>
<feGaussianBlur stdDeviation="20.6314"/>
<feComposite in2="hardAlpha" operator="out"/>
<feColorMatrix type="matrix" values="0 0 0 0 0 0 0 0 0 0 0 0 0 0 0 0 0 0 0.2 0"/>
<feBlend mode="normal" in2="BackgroundImageFix" result="effect1_dropShadow_9_10217"/>
<feBlend mode="normal" in="SourceGraphic" in2="effect1_dropShadow_9_10217" result="shape"/>
</filter>
<filter id="filter4_d_9_10217" x="98.6011" y="3.9584e-05" width="131.456" height="131.456" filterUnits="userSpaceOnUse" color-interpolation-filters="sRGB">
<feFlood flood-opacity="0" result="BackgroundImageFix"/>
<feColorMatrix in="SourceAlpha" type="matrix" values="0 0 0 0 0 0 0 0 0 0 0 0 0 0 0 0 0 0 127 0" result="hardAlpha"/>
<feMorphology radius="9.07783" operator="erode" in="SourceAlpha" result="effect1_dropShadow_9_10217"/>
<feOffset dy="3.30103"/>
<feGaussianBlur stdDeviation="20.6314"/>
<feComposite in2="hardAlpha" operator="out"/>
<feColorMatrix type="matrix" values="0 0 0 0 0 0 0 0 0 0 0 0 0 0 0 0 0 0 0.2 0"/>
<feBlend mode="normal" in2="BackgroundImageFix" result="effect1_dropShadow_9_10217"/>
<feBlend mode="normal" in="SourceGraphic" in2="effect1_dropShadow_9_10217" result="shape"/>
</filter>
<clipPath id="clip0_9_10217">
<rect width="40.2387" height="40.2387" fill="white" transform="translate(540.623 240.848)"/>
</clipPath>
<clipPath id="clip1_9_10217">
<rect width="40.2387" height="40.2387" fill="white" transform="translate(458.12 42.3039)"/>
</clipPath>
<clipPath id="clip2_9_10217">
<rect width="40.2387" height="40.2387" fill="white" transform="translate(142.865 42.3039)"/>
</clipPath>
<clipPath id="clip3_9_10217">
<rect width="42.0881" height="32.185" fill="white" transform="translate(300.443 244.569)"/>
</clipPath>
</defs>
</svg>
