<svg width="299" height="29" viewBox="0 0 299 29" fill="none" xmlns="http://www.w3.org/2000/svg">
<path d="M281.316 18.6017C280.906 18.62 280.492 18.6325 280.09 18.6598C279.829 18.6769 279.717 18.6268 279.543 18.6006C279.485 18.5915 279.423 18.5733 279.369 18.5755C278.963 18.5938 278.557 18.6143 278.151 18.6348C278.027 18.6792 277.948 18.7384 277.758 18.7601C277.572 18.7806 277.352 18.7806 277.145 18.7908C276.871 18.8034 276.598 18.8159 276.325 18.8273C276.188 18.833 276.076 18.8546 276.031 18.8957C276.022 18.9025 276.113 18.9196 276.163 18.9298C276.329 18.964 276.49 19.0027 276.673 19.0289C276.847 19.054 277.062 19.013 277.248 19.0449C277.667 19.1166 277.671 19.1155 277.99 19.1018C278.263 19.0893 278.537 19.0756 278.81 19.0665C278.864 19.0643 278.926 19.0813 278.984 19.0904C279.158 19.1155 279.27 19.1725 279.527 19.1508C279.721 19.1337 279.937 19.1303 280.14 19.1212C280.31 19.1542 280.467 19.1918 280.649 19.218C280.819 19.2431 280.869 19.2625 280.778 19.2955C280.695 19.3263 280.579 19.3388 280.426 19.3411C280.289 19.3422 280.152 19.3525 280.016 19.3582C279.945 19.3616 279.879 19.3639 279.813 19.3673C279.552 19.3798 279.552 19.3798 279.075 19.3069C278.889 19.2784 278.678 19.3183 278.499 19.2909C278.379 19.2727 278.276 19.2454 278.16 19.226C278.11 19.218 278.031 19.2169 277.969 19.2192C277.762 19.2272 277.555 19.2328 277.356 19.2477C277.215 19.2579 277.132 19.2898 277.149 19.3217C277.153 19.3342 277.253 19.3525 277.311 19.3536C277.443 19.3559 277.584 19.3399 277.712 19.3479C277.837 19.3559 277.965 19.3787 278.056 19.4037C278.243 19.4561 278.454 19.4094 278.632 19.4231C278.818 19.4379 278.972 19.4835 279.15 19.5108C279.195 19.5177 279.282 19.5063 279.353 19.5028C279.556 19.4949 279.759 19.488 279.962 19.4801C280.132 19.5131 280.314 19.5427 280.467 19.5803C280.745 19.6487 281.043 19.6749 281.403 19.6418C281.606 19.6236 281.805 19.6304 281.967 19.6749C282.132 19.7204 282.323 19.7159 282.534 19.7068C282.729 19.6976 282.928 19.6726 283.126 19.7045C283.557 19.7751 283.561 19.7785 284.071 19.7512C284.224 19.7432 284.34 19.7409 284.456 19.7671C284.564 19.7911 284.68 19.8116 284.792 19.8343C284.995 19.8264 285.202 19.8184 285.405 19.8093C285.666 19.7968 285.811 19.8127 285.873 19.8765C285.91 19.9152 285.927 19.9505 286.018 19.9767C286.125 20.0086 286.241 20.0075 286.399 19.9984C286.548 19.9904 286.656 19.9779 286.718 19.9369C286.743 19.9198 286.792 19.9038 286.838 19.8902C286.875 19.8799 286.933 19.864 286.966 19.8662C287.029 19.8708 287.111 19.8833 287.132 19.8981C287.335 20.036 287.335 20.0371 287.542 20.077C287.77 20.1214 288.006 20.1613 288.213 20.2114C288.4 20.2558 288.586 20.2365 288.789 20.2365C288.942 20.2365 289.042 20.2661 289.029 20.2957C289.021 20.3128 288.963 20.3379 288.913 20.3401C288.507 20.3629 288.097 20.3823 287.687 20.3982C287.637 20.4005 287.575 20.38 287.517 20.3698C287.401 20.3493 287.298 20.3174 287.174 20.3105C287.049 20.3037 286.904 20.3208 286.768 20.3265C286.631 20.3322 286.486 20.347 286.362 20.3379C286.237 20.3288 286.138 20.2957 286.022 20.2741C285.968 20.2638 285.894 20.249 285.848 20.2524C285.546 20.2798 285.322 20.2422 285.106 20.1921C285.061 20.1818 284.982 20.175 284.924 20.1772C284.444 20.1966 283.967 20.2194 283.487 20.241C283.292 20.2501 283.135 20.2103 283.093 20.1431C283.073 20.1055 283.031 20.0679 283.031 20.0303C283.031 19.9619 282.803 19.9243 282.638 19.9323C282.364 19.9437 282.087 19.9528 281.817 19.9699C281.598 19.9836 281.412 19.9699 281.262 19.9289C281.088 19.8822 280.89 19.8913 280.691 19.9038C280.542 19.913 280.5 19.9505 280.508 20.0451C280.517 20.1214 280.446 20.1453 280.177 20.1579C279.837 20.1738 279.494 20.1898 279.15 20.2023C279.096 20.2046 279.034 20.1852 278.98 20.175C278.864 20.1545 278.76 20.1214 278.636 20.1146C278.512 20.1066 278.367 20.1237 278.23 20.1305C278.093 20.1362 277.948 20.1522 277.824 20.1442C277.7 20.1362 277.596 20.1021 277.484 20.0804C277.431 20.0702 277.364 20.0553 277.311 20.0576C277.037 20.0667 276.764 20.0804 276.49 20.0929C276.184 20.1066 276.184 20.1066 275.749 20.036C275.55 20.0041 275.351 20.0292 275.157 20.0383C274.949 20.0474 274.755 20.0519 274.593 20.0064C274.485 19.9767 274.365 19.9585 274.237 19.9642C273.893 19.9779 273.553 19.995 273.21 20.0086C273.152 20.0109 273.073 20.0052 273.027 19.995C272.808 19.9471 272.592 19.9095 272.286 19.9335C272.021 19.954 271.735 19.9551 271.47 19.9745C271.325 19.9847 271.259 20.0212 271.288 20.0497C271.304 20.0645 271.391 20.0816 271.449 20.0816C271.582 20.0827 271.727 20.0656 271.851 20.0724C272.108 20.0861 272.236 20.1818 272.572 20.1556C272.771 20.1396 272.978 20.134 273.185 20.1294C273.239 20.1283 273.297 20.1499 273.355 20.1613C273.52 20.1921 273.665 20.2319 273.906 20.2114C274.104 20.1955 274.316 20.1909 274.519 20.1818C274.842 20.167 274.842 20.1681 275.26 20.2376C275.459 20.2707 275.658 20.2445 275.852 20.2365C275.997 20.2308 276.134 20.2194 276.25 20.2353C276.428 20.2593 276.557 20.3139 276.776 20.3105C276.983 20.3071 277.186 20.2912 277.393 20.2855C277.522 20.282 277.642 20.3003 277.746 20.331C277.853 20.3618 277.969 20.3755 278.11 20.3686C278.313 20.3595 278.52 20.3481 278.727 20.3424C278.785 20.3413 278.852 20.3515 278.905 20.3607C279.021 20.3812 279.133 20.4051 279.245 20.4267C279.448 20.4199 279.655 20.4176 279.854 20.4039C280.007 20.3937 280.115 20.3983 280.239 20.421C280.397 20.4518 280.525 20.5065 280.782 20.4803C280.91 20.4677 281.059 20.4712 281.188 20.4598C281.345 20.445 281.453 20.4506 281.565 20.4848C281.776 20.5498 282.041 20.5509 282.315 20.5258C282.613 20.4985 282.837 20.5304 283.06 20.5805C283.296 20.6329 283.296 20.6318 283.479 20.7582C283.532 20.7947 283.686 20.8118 283.814 20.8049C284.029 20.7936 284.216 20.7992 284.373 20.8425C284.539 20.8892 284.738 20.8835 284.941 20.871C285.21 20.8539 285.479 20.8391 285.699 20.9052C285.807 20.9371 285.923 20.9451 286.068 20.9371C286.478 20.9166 286.892 20.9041 287.294 20.879C287.538 20.863 287.679 20.8995 287.845 20.9303C288.068 20.9724 288.313 21.01 288.313 21.1C288.313 21.1148 288.371 21.1319 288.42 21.1433C288.528 21.1672 288.644 21.1877 288.756 21.2105C288.922 21.2447 289.083 21.2731 289.311 21.2549C289.51 21.2401 289.721 21.2356 289.924 21.2253C290.127 21.215 290.313 21.2094 290.496 21.2526C290.707 21.3016 290.931 21.3483 291.171 21.3848C291.341 21.411 291.564 21.3666 291.747 21.4019C291.859 21.4235 291.966 21.4486 292.086 21.4668C292.136 21.4748 292.215 21.4691 292.281 21.4668C292.418 21.4623 292.559 21.4588 292.691 21.4475C292.844 21.4349 292.96 21.4372 293.076 21.4634C293.184 21.4873 293.292 21.5204 293.416 21.5272C293.603 21.5374 293.81 21.4919 293.996 21.5443C294.091 21.5705 294.211 21.5955 294.336 21.6035C294.46 21.6115 294.605 21.5944 294.737 21.5955C294.795 21.5955 294.866 21.6138 294.899 21.6286C294.92 21.6366 294.891 21.6582 294.862 21.6696C294.824 21.6833 294.771 21.7015 294.717 21.7038C294.307 21.7243 293.897 21.7414 293.486 21.7607C293.242 21.7721 293.242 21.7721 292.749 21.7004C292.633 21.6833 292.505 21.6867 292.36 21.6946C292.165 21.7049 291.966 21.7243 291.763 21.7038C291.498 21.6263 291.171 21.6195 290.823 21.6491C290.678 21.6616 290.545 21.6616 290.438 21.64C290.21 21.5967 289.97 21.5568 289.767 21.5056C289.609 21.4657 289.535 21.4623 289.468 21.5169C289.448 21.534 289.427 21.5523 289.431 21.5682C289.456 21.6252 289.501 21.681 289.526 21.7379C289.535 21.7539 289.502 21.7721 289.481 21.7892C289.415 21.8371 289.328 21.8336 289.183 21.7938C289.038 21.7539 288.864 21.7277 288.632 21.7459C288.433 21.7619 288.217 21.7596 288.019 21.7767C287.712 21.8017 287.497 21.7653 287.277 21.7163C287.232 21.706 287.153 21.7004 287.095 21.7026C286.478 21.7288 285.865 21.7584 285.247 21.7847C285.115 21.7903 284.995 21.7733 284.891 21.7425C284.783 21.7117 284.663 21.6958 284.531 21.7015C283.984 21.7254 283.437 21.7471 282.89 21.7767C282.667 21.7892 282.489 21.7744 282.335 21.7345C282.219 21.7049 282.112 21.6958 281.967 21.6992C281.809 21.7026 281.697 21.714 281.619 21.7471C281.544 21.779 281.598 21.7983 281.764 21.8234C281.942 21.8507 282.107 21.886 282.277 21.9179C282.414 21.9134 282.551 21.9043 282.683 21.9054C282.741 21.9054 282.795 21.9259 282.853 21.9373C283.019 21.9703 283.172 22.0034 283.408 21.9851C283.607 21.9692 283.818 21.9658 284.021 21.9555C284.303 21.943 284.303 21.943 284.758 22.0148C284.874 22.033 284.999 22.0319 285.148 22.0216C285.276 22.0136 285.409 22.0296 285.5 22.0637C285.537 22.0774 285.525 22.1002 285.446 22.1754C285.446 22.2312 285.533 22.2062 285.562 22.1697C285.608 22.1173 285.521 22.1002 285.355 22.1287C285.239 22.1492 285.181 22.1788 285.21 22.2027C285.227 22.2153 285.305 22.2312 285.446 22.1754C285.811 22.107 286.088 22.0991 286.353 22.0808C286.511 22.0706 286.61 22.0751 286.734 22.1048C286.884 22.1401 287.033 22.1777 287.277 22.1595C287.542 22.1389 287.824 22.1367 288.093 22.1196C288.342 22.1036 288.47 22.1537 288.628 22.1834C288.818 22.2187 289.029 22.1788 289.203 22.1993C289.385 22.2198 289.514 22.2699 289.725 22.2791C290.032 22.2483 290.226 22.3053 290.458 22.3429C290.641 22.3713 290.856 22.3463 291.051 22.3337C291.27 22.3201 291.453 22.3326 291.606 22.3736C291.78 22.4203 291.975 22.4101 292.173 22.3998C292.637 22.377 292.654 22.3736 292.923 22.4363C293.118 22.4818 293.304 22.4613 293.499 22.4556C293.669 22.4864 293.834 22.5194 294.013 22.5468C294.058 22.5536 294.145 22.5422 294.216 22.5388C294.419 22.5297 294.626 22.5206 294.829 22.5115C294.965 22.5058 295.11 22.4887 295.235 22.4955C295.359 22.5035 295.462 22.5365 295.574 22.5582C295.686 22.5798 295.802 22.6015 295.91 22.6242C296.076 22.6584 296.233 22.6869 296.465 22.6698C296.664 22.655 296.871 22.6504 297.078 22.6402C297.339 22.6277 297.331 22.6311 297.815 22.6994C298.076 22.737 298.345 22.6915 298.611 22.6869C298.743 22.6846 298.872 22.6972 298.963 22.7302C299 22.7439 298.988 22.7666 299 22.786C298.317 22.8168 297.629 22.843 296.954 22.8806C296.693 22.8954 296.556 22.8544 296.415 22.8202C296.183 22.7655 295.877 22.8452 295.657 22.7746C295.525 22.7325 295.334 22.7085 295.106 22.729C294.974 22.7404 294.833 22.7393 294.696 22.7495C294.348 22.7746 294.029 22.7758 293.752 22.6971C293.656 22.6698 293.52 22.655 293.42 22.6288C293.304 22.6003 293.192 22.5844 293.056 22.5901C292.438 22.6174 291.825 22.6447 291.212 22.6744C291.158 22.6766 291.105 22.6937 291.059 22.7063C290.943 22.7382 290.98 22.7632 291.167 22.7837C291.229 22.7906 291.279 22.8054 291.337 22.8168C291.448 22.8384 291.552 22.8726 291.676 22.8806C291.8 22.8885 291.946 22.8726 292.082 22.8669C292.219 22.8612 292.364 22.8441 292.488 22.8509C292.612 22.8589 292.716 22.892 292.832 22.9125C292.886 22.9227 292.952 22.9398 293.006 22.9387C293.279 22.9318 293.549 22.9193 293.822 22.909C293.992 22.9398 294.137 22.9842 294.34 22.9945C294.468 23.0013 294.605 22.9888 294.737 22.9911C294.795 22.9922 294.87 23.0093 294.899 23.0241C294.916 23.0332 294.862 23.056 294.82 23.0674C294.663 23.1107 294.448 23.1027 294.253 23.1164C294.042 23.1312 293.851 23.1266 293.689 23.0822C293.582 23.0526 293.462 23.0366 293.329 23.0423C292.985 23.0571 292.646 23.0742 292.302 23.0868C292.244 23.089 292.173 23.0788 292.119 23.0708C291.685 23.0013 291.685 22.999 291.378 23.0138C290.926 23.0355 290.927 23.0355 290.624 22.9751C290.566 22.9637 290.504 22.9421 290.454 22.9432C289.974 22.9614 289.497 22.9797 289.021 23.0059C288.864 23.0138 288.756 23.0138 288.64 22.9842C288.541 22.9592 288.424 22.9307 288.3 22.9238C288.172 22.917 288.031 22.9341 287.894 22.9398C287.758 22.9455 287.613 22.9603 287.492 22.9512C287.368 22.9421 287.26 22.9102 287.153 22.8874C287.041 22.8635 286.921 22.8646 286.768 22.8737C286.295 22.8999 286.291 22.8965 285.823 22.8259C285.769 22.8179 285.699 22.8088 285.641 22.8111C285.297 22.8247 284.957 22.8418 284.614 22.8555C284.481 22.8612 284.353 22.8464 284.261 22.8133C284.224 22.7997 284.237 22.7769 284.212 22.7325C284.183 22.7222 284.216 22.7404 284.224 22.7575C284.286 22.7552 284.361 22.7575 284.406 22.7484C284.522 22.7268 284.58 22.6983 284.551 22.6744C284.535 22.6618 284.456 22.6459 284.406 22.6459C284.315 22.6459 284.237 22.6709 284.212 22.7325C283.951 22.77 283.673 22.778 283.404 22.7963C283.247 22.8076 283.147 22.802 283.023 22.7723C282.874 22.7359 282.72 22.7006 282.476 22.7188C282.211 22.7393 281.929 22.7427 281.656 22.7587C281.341 22.7769 281.204 22.6744 280.939 22.6766C280.666 22.6789 280.392 22.6983 280.119 22.712C279.879 22.7233 279.879 22.7233 279.382 22.6493C279.199 22.622 278.984 22.6618 278.806 22.6333C278.686 22.6151 278.582 22.5878 278.466 22.5684C278.417 22.5604 278.338 22.5604 278.276 22.5627C277.932 22.5764 277.584 22.5855 277.253 22.6106C276.876 22.6402 276.59 22.6083 276.321 22.5411C275.981 22.5536 275.637 22.5604 275.302 22.5821C275.057 22.598 274.916 22.5604 274.751 22.5297C274.693 22.5194 274.643 22.5023 274.581 22.4978C274.519 22.4932 274.444 22.5023 274.378 22.5058C274.104 22.5183 273.823 22.524 273.558 22.5445C273.23 22.5707 273.106 22.4773 272.853 22.4659C272.684 22.5217 272.592 22.598 272.257 22.6037C271.983 22.6083 271.71 22.6265 271.437 22.639C271.3 22.6447 271.163 22.6516 271.027 22.6573C270.807 22.6675 270.704 22.712 270.749 22.7803C270.774 22.8179 270.795 22.8555 270.815 22.8931C270.857 22.9603 270.753 23.0173 270.579 23.0252C270.099 23.0469 269.622 23.0697 269.142 23.089C269.013 23.0947 268.889 23.0754 268.786 23.0446C268.678 23.0138 268.558 23.0002 268.425 23.0059C267.945 23.0275 267.468 23.0503 266.988 23.0697C266.934 23.0719 266.864 23.0605 266.81 23.0514C266.694 23.0309 266.582 23.007 266.47 22.9854C266.197 22.9956 265.927 23.0024 265.658 23.0161C265.223 23.0366 265.223 23.0378 264.904 22.9751C264.846 22.9637 264.788 22.9421 264.734 22.9432C264.527 22.9478 264.324 22.9592 264.117 22.9694C263.508 22.999 263.508 22.999 263.33 22.9649C263.169 22.933 263.023 22.8942 262.779 22.9125C262.514 22.933 262.232 22.9398 261.959 22.9512C261.756 22.9592 261.553 22.9683 261.35 22.9706C261.296 22.9717 261.238 22.95 261.18 22.9387C261.014 22.9033 260.853 22.8749 260.625 22.8942C260.493 22.9056 260.352 22.9079 260.215 22.9136C259.859 22.9295 259.859 22.9295 259.275 22.8612C259.217 22.8543 259.146 22.8464 259.088 22.8498C258.608 22.8703 258.131 22.8931 257.651 22.9125C257.593 22.9147 257.523 22.9079 257.465 22.9022C256.81 22.8361 256.81 22.8361 256.114 22.868C255.849 22.8794 255.841 22.884 255.563 22.8236C255.439 22.7974 255.335 22.7849 255.19 22.7928C254.644 22.8202 254.093 22.8384 253.55 22.8703C253.306 22.884 253.165 22.8498 252.999 22.819C252.941 22.8088 252.879 22.786 252.829 22.7871C252.282 22.8088 251.736 22.835 251.189 22.8566C251.139 22.8589 251.077 22.8361 251.019 22.8259C250.907 22.8054 250.799 22.7746 250.675 22.7678C250.547 22.7609 250.406 22.778 250.265 22.7837C249.921 22.7985 249.921 22.7974 249.524 22.7302C249.47 22.7211 249.399 22.7085 249.345 22.7108C248.799 22.7336 248.248 22.753 247.705 22.786C247.394 22.8042 247.183 22.7712 246.964 22.7233C246.918 22.7131 246.839 22.7085 246.781 22.7108C246.164 22.737 245.551 22.7666 244.934 22.7928C244.805 22.7985 244.681 22.7792 244.578 22.7495C244.412 22.7028 244.217 22.7085 244.01 22.7188C243.534 22.7427 243.53 22.7416 243.248 22.6869C243.19 22.6755 243.14 22.6607 243.078 22.655C243.02 22.6493 242.946 22.6527 242.883 22.655C242.61 22.6664 242.337 22.6789 242.063 22.6914C241.79 22.704 241.512 22.7108 241.243 22.7302C240.912 22.7541 240.754 22.6801 240.522 22.6459C240.183 22.6607 239.835 22.6698 239.499 22.6937C239.242 22.712 239.122 22.6618 238.952 22.6356C238.894 22.6265 238.832 22.6071 238.778 22.6094C238.161 22.6345 237.544 22.6618 236.931 22.6926C236.782 22.6994 236.682 22.6903 236.558 22.663C236.28 22.6014 236.268 22.6037 235.804 22.6265C235.601 22.6368 235.406 22.6459 235.232 22.5992C235.079 22.557 234.893 22.5468 234.673 22.5604C234.404 22.5775 234.126 22.5866 233.853 22.598C233.58 22.6106 233.306 22.6276 233.033 22.6333C232.813 22.639 232.681 22.5855 232.507 22.5582C232.453 22.5502 232.378 22.549 232.316 22.5513C232.043 22.5616 231.761 22.5695 231.496 22.5889C231.173 22.6128 230.995 22.5502 230.767 22.5137C230.717 22.5058 230.634 22.5103 230.572 22.5137C230.092 22.5342 229.615 22.557 229.135 22.5787C228.965 22.5479 228.791 22.5183 228.621 22.4875C228.348 22.4989 228.074 22.5115 227.801 22.5228C227.594 22.532 227.383 22.5354 227.188 22.5525C226.935 22.5753 226.811 22.5217 226.641 22.4955C226.583 22.4864 226.521 22.467 226.467 22.4693C226.123 22.4818 225.78 22.4955 225.44 22.5149C225.117 22.5342 224.988 22.4317 224.723 22.4328C224.45 22.434 224.168 22.4488 223.903 22.4693C223.597 22.4932 223.381 22.4568 223.162 22.4078C223.116 22.3975 223.037 22.3918 222.979 22.3941C222.636 22.4078 222.296 22.4249 221.952 22.4385C221.894 22.4408 221.824 22.4351 221.766 22.4283C221.111 22.3611 221.111 22.3599 220.825 22.3736C220.622 22.3827 220.415 22.3941 220.208 22.3998C220.15 22.4021 220.08 22.3918 220.026 22.3827C219.595 22.3132 219.595 22.3121 219.284 22.3258C219.011 22.3383 218.737 22.3508 218.464 22.3634C218.294 22.3326 218.12 22.303 217.95 22.2722C217.611 22.287 217.263 22.2984 216.927 22.3189C216.77 22.328 216.666 22.3246 216.546 22.2961C216.397 22.262 216.248 22.2221 215.999 22.2415C215.734 22.262 215.453 22.2643 215.183 22.2813C214.86 22.3018 214.728 22.1982 214.467 22.1993C214.193 22.2005 213.912 22.2153 213.647 22.2358C213.34 22.2597 213.125 22.2232 212.905 22.1743C212.86 22.164 212.781 22.1583 212.723 22.1606C211.969 22.1936 211.219 22.2267 210.465 22.262C210.001 22.2836 210.001 22.2848 209.119 22.2221C209.057 22.2175 208.99 22.213 208.928 22.2153C208.655 22.2255 208.373 22.2335 208.108 22.2529C207.785 22.2768 207.607 22.2153 207.379 22.1777C207.329 22.1697 207.251 22.1742 207.184 22.1765C206.977 22.1845 206.774 22.1948 206.567 22.2039C206.294 22.2164 206.02 22.2289 205.747 22.2415C205.577 22.2119 205.403 22.1811 205.233 22.1515C204.894 22.1663 204.546 22.1743 204.21 22.1982C203.953 22.2164 203.833 22.1686 203.663 22.1412C203.605 22.1321 203.543 22.1127 203.489 22.1139C202.872 22.1389 202.255 22.1651 201.642 22.197C201.389 22.2107 201.273 22.1594 201.103 22.1332C201.045 22.1253 200.979 22.1105 200.925 22.1127C200.515 22.1287 200.105 22.1481 199.695 22.1674C199.463 22.1788 199.463 22.1788 198.958 22.1082C198.9 22.1002 198.834 22.0922 198.776 22.0945C197.475 22.1515 196.178 22.2118 194.877 22.2688C194.745 22.2745 194.625 22.2574 194.521 22.2267C194.414 22.1959 194.293 22.18 194.161 22.1856C193.614 22.2096 193.063 22.2312 192.521 22.2608C192.297 22.2734 192.119 22.2585 191.965 22.2187C191.849 22.1891 191.742 22.1777 191.597 22.1845C191.323 22.1982 191.05 22.2096 190.777 22.2221C190.503 22.2346 190.23 22.2472 189.956 22.2597C189.683 22.2722 189.405 22.2791 189.136 22.2984C188.805 22.3224 188.643 22.2517 188.415 22.2164C188.005 22.2335 187.595 22.2506 187.189 22.2688C186.642 22.2927 186.096 22.3189 185.549 22.3417C185.499 22.344 185.437 22.3235 185.379 22.3132C185.209 22.2848 185.085 22.2449 184.832 22.2574C183.606 22.3178 182.372 22.3691 181.141 22.4283C180.885 22.4408 180.773 22.3918 180.599 22.3656C180.541 22.3577 180.475 22.3417 180.421 22.344C179.737 22.3725 179.054 22.4044 178.37 22.4351C178.093 22.4477 178.093 22.4477 177.629 22.377C177.575 22.3691 177.504 22.3588 177.446 22.3611C176.556 22.3998 175.669 22.4408 174.779 22.4807C174.646 22.4864 174.526 22.4704 174.418 22.4397C174.315 22.4089 174.191 22.3918 174.062 22.3975C173.242 22.434 172.418 22.4693 171.602 22.5092C171.382 22.5206 171.2 22.5103 171.042 22.4693C170.93 22.4397 170.819 22.4272 170.678 22.434C169.448 22.4898 168.217 22.5434 166.987 22.6026C166.751 22.614 166.585 22.5923 166.436 22.5547C166.316 22.5251 166.212 22.5194 166.063 22.524C165.906 22.5297 165.811 22.5422 165.724 22.5764C165.612 22.6208 165.541 22.6766 165.276 22.6801C165.003 22.6835 164.725 22.6972 164.456 22.7165C164.199 22.7359 164.079 22.6846 163.917 22.6539C163.797 22.6322 163.686 22.6288 163.532 22.639C163.391 22.6482 163.304 22.6675 163.222 22.704C163.039 22.7814 163.023 22.7814 162.799 22.7325C162.679 22.7063 162.571 22.6857 162.439 22.6903C161.892 22.7131 161.345 22.7382 160.798 22.7644C160.483 22.7792 160.479 22.7814 160.243 22.7245C160.127 22.696 160.015 22.6823 159.879 22.6892C158.375 22.7575 156.871 22.8236 155.368 22.8954C155.136 22.9068 154.978 22.8828 154.813 22.8487C154.759 22.8373 154.705 22.8213 154.643 22.8168C154.581 22.8122 154.51 22.8168 154.444 22.819C153.35 22.868 152.253 22.9147 151.163 22.9694C150.915 22.9819 150.782 22.9455 150.612 22.9159C150.554 22.9056 150.504 22.8897 150.442 22.8851C150.38 22.8817 150.306 22.8897 150.239 22.8931C149.146 22.9421 148.048 22.9888 146.959 23.0435C146.698 23.056 146.586 23.0081 146.416 22.9831C146.358 22.974 146.296 22.9569 146.242 22.9592C145.898 22.9717 145.559 22.9888 145.215 23.0036C144.395 23.0412 143.574 23.0765 142.754 23.1152C142.439 23.13 142.303 23.0286 142.037 23.0332C141.694 23.0389 141.354 23.0617 141.01 23.0776C140.737 23.0902 140.463 23.1016 140.19 23.1152C139.921 23.1278 139.921 23.1278 139.25 23.0617C139.192 23.056 139.121 23.048 139.063 23.0503C138.106 23.0924 137.145 23.1346 136.193 23.1802C135.973 23.1904 135.791 23.1847 135.633 23.1426C135.522 23.113 135.406 23.0981 135.269 23.105C133.832 23.1699 132.398 23.2349 130.961 23.2986C130.907 23.3009 130.837 23.2895 130.783 23.2804C130.667 23.2599 130.555 23.236 130.443 23.2143C130.36 23.2405 130.253 23.2645 130.199 23.2941C130.124 23.334 130.025 23.3454 129.867 23.3522C129.71 23.359 129.61 23.3567 129.486 23.3271C129.337 23.2907 129.184 23.2622 128.939 23.2736C127.436 23.3453 125.932 23.4103 124.428 23.4809C124.18 23.4923 124.064 23.4422 123.89 23.416C123.832 23.408 123.766 23.3955 123.712 23.3978C123.094 23.424 122.481 23.4524 121.864 23.4798C120.153 23.5572 118.443 23.6313 116.736 23.7133C116.425 23.7281 116.214 23.6996 115.994 23.6507C115.949 23.6404 115.87 23.6347 115.812 23.637C113.418 23.7441 111.024 23.8523 108.633 23.9605C108.505 23.9662 108.381 23.948 108.277 23.9184C108.17 23.8876 108.049 23.8728 107.917 23.8785C106.823 23.9275 105.73 23.9765 104.636 24.0266C104.363 24.0391 104.359 24.0403 104.077 23.9856C104.019 23.9742 103.957 23.9525 103.911 23.9548C103.816 23.9605 103.725 23.989 103.659 24.0277C103.592 24.0687 103.489 24.0801 103.335 24.0881C103.178 24.0961 103.074 24.0927 102.954 24.0653C102.801 24.0311 102.66 23.9981 102.412 24.0095C99.2676 24.1553 96.1235 24.2954 92.9795 24.4401C92.7268 24.4515 92.6108 24.4037 92.4368 24.3775C92.3788 24.3695 92.3209 24.3581 92.2587 24.3558C92.1924 24.3535 92.122 24.3604 92.0557 24.3638C86.9275 24.595 81.7993 24.8274 76.671 25.0587C76.3645 25.0724 76.3686 25.0724 76.0331 25.1772C75.9917 25.1897 75.9378 25.2068 75.8798 25.2091C74.3098 25.282 72.7358 25.3526 71.1617 25.4232C70.4782 25.454 69.7947 25.4859 69.1112 25.5155C68.8668 25.5258 68.8668 25.5258 68.2828 25.6488C68.2331 25.6591 68.175 25.6727 68.117 25.675C65.383 25.7992 62.6491 25.9234 59.911 26.0452C59.6956 26.0544 59.5216 26.0749 59.4222 26.1295C59.3518 26.1683 59.2607 26.1911 59.124 26.1979C57.2102 26.2845 55.2965 26.3722 53.3785 26.4565C53.1507 26.4667 53.014 26.4986 52.9021 26.5465C52.8648 26.5624 52.8317 26.5807 52.7778 26.5921C52.7281 26.6023 52.6536 26.6057 52.5914 26.6091C50.9511 26.6832 49.3107 26.7595 47.6662 26.8302C47.4218 26.8404 47.3223 26.8826 47.2022 26.927C47.1608 26.9418 47.1318 26.9623 47.0779 26.9726C47.0241 26.9817 46.9454 26.9817 46.8791 26.9839C45.5121 27.0455 44.1452 27.1081 42.7782 27.1696C42.5131 27.1639 42.4551 27.23 42.3266 27.2699C42.2811 27.2836 42.248 27.3018 42.1942 27.3109C42.1362 27.32 42.0615 27.3189 41.9911 27.3211C40.8975 27.3701 39.804 27.4225 38.7062 27.4681C38.4535 27.4784 38.4038 27.5364 38.2671 27.5763C38.2215 27.5888 38.176 27.6082 38.1222 27.6116C37.4387 27.6447 36.7552 27.6754 36.0717 27.705C35.8439 27.7153 35.8439 27.7142 35.4421 27.8269C35.3965 27.8395 35.3426 27.8532 35.2846 27.8566C34.2615 27.9044 33.2342 27.95 32.2069 27.9967C32.0743 28.0024 31.9832 28.0297 31.9169 28.0685C31.8507 28.1072 31.7554 28.1323 31.6228 28.1379C30.8027 28.1755 29.9824 28.2143 29.1622 28.2484C28.9344 28.2576 28.7853 28.286 28.6859 28.3373C28.6113 28.376 28.5202 28.3954 28.3752 28.4022C27.555 28.4387 26.7348 28.4786 25.9105 28.5105C25.6703 28.5196 25.5459 28.5583 25.4465 28.6062C25.3678 28.6449 25.2767 28.6586 25.1234 28.6654C23.6197 28.7315 22.1119 28.7975 20.6124 28.8704C20.3597 28.883 20.2313 28.8431 20.0656 28.8146C19.8295 28.7748 19.61 28.7315 19.61 28.6426C19.61 28.6289 19.5396 28.613 19.4898 28.6016C19.1212 28.5162 19.1212 28.5162 19.0632 28.425C19.03 28.3692 18.9928 28.3122 18.9638 28.2553C18.9099 28.1619 18.7773 28.138 18.3962 28.155C18.2595 28.1607 18.1228 28.1687 17.9861 28.1733C17.7831 28.1812 17.6299 28.1436 17.5926 28.0753C17.5719 28.0377 17.5471 28.0001 17.5264 27.9625C17.7335 27.9534 17.7293 27.9523 18.0938 27.8144C18.2471 27.7563 18.2472 27.7563 17.953 27.6982C17.8412 27.6766 17.7335 27.6526 17.6133 27.6321C17.5595 27.623 17.4891 27.6173 17.4311 27.6196C17.0873 27.6333 16.7476 27.6492 16.4079 27.6652C15.8612 27.6902 15.8611 27.6902 15.306 27.574C15.2604 27.5649 15.19 27.5478 15.1983 27.5387C15.2439 27.4966 15.3557 27.4783 15.4965 27.4738C15.7037 27.467 15.9066 27.4556 16.1096 27.4464C16.2463 27.4408 16.383 27.4339 16.5197 27.4282C16.6481 27.3849 16.7807 27.3428 16.9009 27.2984C17.0914 27.23 17.0913 27.2277 16.8304 27.1799C16.6647 27.148 16.4866 27.1195 16.3167 27.0899C16.1138 27.099 15.9066 27.1092 15.7037 27.1172C15.4468 27.1275 15.3433 27.1058 15.277 27.0318C15.219 26.9668 15.2894 26.911 15.4883 26.8974C15.6912 26.8837 15.8819 26.8746 15.9854 26.8165C16.0848 26.7607 16.2588 26.739 16.4742 26.7345C16.6109 26.731 16.7476 26.7231 16.8843 26.7162C17.0624 26.7071 17.1577 26.649 17.1204 26.5841C17.0997 26.5419 17.0583 26.5066 16.8967 26.4975C16.1801 26.4576 16.1718 26.4588 15.8155 26.3813C15.7824 26.3745 15.7576 26.354 15.77 26.3437C15.7907 26.3266 15.8363 26.3016 15.886 26.2981C16.3624 26.2731 16.8387 26.2503 17.3151 26.2332C17.4725 26.2275 17.5885 26.2195 17.6424 26.1774C17.7169 26.1193 17.6838 26.0657 17.5388 26.0259C17.4932 26.0133 17.4186 25.9974 17.3689 25.9985C16.8221 26.019 16.2795 26.0452 15.7327 26.0657C15.683 26.068 15.5919 26.0487 15.5712 26.0339C15.5298 26.0065 15.5919 25.9701 15.7368 25.9575C15.9274 25.9404 16.1221 25.9393 16.2505 25.8823C16.4286 25.8015 16.6481 25.7274 16.847 25.6499C16.8801 25.6363 16.934 25.6101 16.9216 25.6078C16.818 25.5827 16.6979 25.5634 16.5902 25.5394C16.4079 25.4996 16.4079 25.4437 16.4493 25.3902C16.4825 25.3469 16.6067 25.3298 16.76 25.3298C16.8263 25.3298 16.9091 25.3298 16.963 25.3196C17.1038 25.2945 17.1494 25.2626 17.079 25.2387C17.0375 25.225 16.963 25.2057 16.9133 25.2079C16.0268 25.2455 15.1362 25.282 14.2538 25.3287C13.9929 25.3424 13.8728 25.2991 13.7154 25.2683C13.5953 25.2444 13.4834 25.2353 13.3342 25.2524C13.1934 25.2683 13.0568 25.2592 12.9698 25.2216C12.8993 25.1909 13.0236 25.1646 13.3591 25.135C13.4213 25.1293 13.4917 25.1259 13.5372 25.1145C14.0177 24.9915 14.0177 24.9903 14.3491 24.9744C14.6722 24.9596 14.6723 24.9585 14.8421 24.8924C14.9208 24.8616 15.0077 24.8309 15.0823 24.799C15.1113 24.7864 15.1611 24.7636 15.1445 24.7568C15.0534 24.7215 14.9291 24.7135 14.7841 24.7215C14.461 24.7409 14.0799 24.7249 13.9101 24.8331C13.8438 24.8742 13.7402 24.8855 13.5911 24.8924C12.0916 24.9585 10.592 25.0291 9.08832 25.0929C8.84392 25.1031 8.73214 25.1453 8.63687 25.192C8.55402 25.2307 8.46287 25.2421 8.30546 25.2489C8.14805 25.2558 8.02372 25.2592 7.93259 25.2216C7.87874 25.1988 7.92431 25.1669 8.04858 25.135C8.22671 25.0895 8.19355 25.0325 8.13556 24.979C8.09413 24.9436 7.96573 24.9186 7.82903 24.9209C7.62605 24.9254 7.43141 24.9379 7.26158 24.8924C7.16216 24.8662 7.03786 24.8479 6.92602 24.8252C6.71062 24.7784 6.49521 24.7306 6.19281 24.7614C5.9857 24.75 5.84071 24.709 5.67502 24.6771C5.39748 24.6247 5.37263 24.6167 5.57146 24.5609C5.79515 24.4982 5.62114 24.4162 5.74541 24.3547C5.87796 24.2886 6.06029 24.2305 6.22184 24.169C6.26326 24.153 6.30056 24.1382 6.34198 24.1223C6.24671 24.0995 6.15974 24.071 6.04789 24.0551C5.90291 24.0346 5.82834 24.0095 5.83663 23.9389C5.80763 23.9286 5.81997 23.9548 5.85311 23.9617C5.89039 23.9685 5.98159 23.9628 6.02716 23.9548C6.14315 23.9332 6.20108 23.9047 6.17208 23.8808C6.15551 23.8682 6.07687 23.8523 6.02716 23.8523C5.93603 23.8523 5.85733 23.8774 5.83248 23.9389C5.36854 23.9856 4.88795 24.0084 4.40743 24.0266C4.35772 24.0289 4.29562 24.0061 4.23763 23.9947C4.04708 23.956 4.04706 23.9571 3.48784 23.9457C3.42984 23.9446 3.35118 23.9286 3.32218 23.9127C3.20206 23.8432 3.20623 23.7669 3.14824 23.6928C3.25594 23.645 3.36355 23.5983 3.4754 23.5515C3.69909 23.457 3.98912 23.3738 4.1631 23.2702C4.12581 23.2143 4.0761 23.1585 4.25836 23.113C4.77616 23.056 4.77205 23.056 4.91289 23.0013C5.3147 22.8464 5.71234 22.6903 6.13072 22.5377C6.24256 22.4978 6.24258 22.4761 6.04375 22.4591C5.98161 22.4545 5.91524 22.4534 5.84897 22.4556C5.64185 22.4636 5.43473 22.4841 5.23176 22.4796C5.02878 22.4761 4.87966 22.426 4.71396 22.3953C4.54412 22.3634 4.3743 22.3303 4.20446 22.2973C4.00977 22.3007 3.81511 22.3326 3.62042 22.2813C3.4713 22.2415 3.2849 22.213 3.11507 22.1799C3.24348 22.0934 3.48377 22.0273 3.67018 21.951C3.84002 21.8815 3.84407 21.8826 4.29973 21.8291C4.51513 21.804 4.58969 21.6753 4.40743 21.6377C4.18789 21.5921 3.95596 21.55 3.73227 21.5067C3.53758 21.5101 3.33879 21.5409 3.15238 21.4896C3.0074 21.4509 2.84167 21.4247 2.60142 21.4395C2.19547 21.4645 1.78124 21.4771 1.37115 21.4976C1.23031 21.5044 1.07699 21.4999 1.01486 21.4611C0.973435 21.4338 1.09357 21.3962 1.23027 21.3882C1.43739 21.3768 1.62377 21.3632 1.72733 21.3062C1.82675 21.2492 2.00899 21.2321 2.2244 21.2242C2.28239 21.2219 2.34872 21.2082 2.37771 21.1945C2.52684 21.1285 2.69254 21.0715 3.01151 21.0738C3.14406 21.051 3.21444 21.0225 3.17301 20.9952C3.14816 20.9804 3.06122 20.961 3.01151 20.9633C2.66769 20.9747 2.32389 20.9861 1.98835 21.0066C1.83095 21.0157 1.71075 21.018 1.61134 20.9838C1.54091 20.961 1.57819 20.9302 1.71075 20.8972C1.82673 20.8687 1.85991 20.8357 1.85162 20.797C1.83091 20.707 1.70662 20.6808 1.30895 20.6865C1.02313 20.691 0.952703 20.6762 0.890568 20.5987C0.873998 20.5805 0.832647 20.5555 0.861644 20.5429C1.03977 20.4655 1.15576 20.3698 1.49129 20.3333C1.62385 20.3196 1.76463 20.3196 1.84748 20.29C1.93033 20.2604 2.00492 20.2262 2.09191 20.1977C2.19962 20.1636 2.27411 20.1317 2.2244 20.11C2.14155 20.0713 2.00904 20.0679 1.85577 20.0816C1.72322 20.093 1.58238 20.0941 1.44568 20.1009C1.20128 20.1134 1.00249 20.0838 0.973496 20.0337C0.894791 19.9016 0.81192 19.7706 0.741499 19.6384C0.733215 19.6225 0.75387 19.6019 0.787009 19.5883C0.902995 19.5404 1.02731 19.4949 1.14744 19.4482C1.28828 19.3946 1.51201 19.4049 1.70256 19.3946C1.97181 19.3798 1.97172 19.3809 2.3321 19.2716C2.47294 19.2283 2.71735 19.2454 2.86234 19.2066C2.9079 19.1941 2.97832 19.1736 2.9659 19.1622C2.94933 19.1474 2.86652 19.136 2.80439 19.1292C2.7464 19.1223 2.67599 19.1189 2.61386 19.1224C1.85995 19.1554 1.1102 19.1907 0.356288 19.2226C0.227875 19.2283 0.0870301 19.2032 0.0414641 19.1679C-0.00410191 19.1349 0.00828473 19.095 0 19.0574C0.120129 19.0107 0.256774 18.9674 0.360333 18.9173C0.439038 18.8786 0.530186 18.8615 0.687596 18.8592C0.894714 18.8558 1.09771 18.8421 1.32968 18.8318C1.76049 18.6655 2.18298 18.4912 2.64693 18.3249C2.83333 18.2577 2.78784 18.1893 2.82512 18.1176C2.8624 18.0515 3.13992 18.0618 3.32633 18.0424C3.47546 18.0264 3.5251 17.99 3.46711 17.9649C3.43397 17.9501 3.35944 17.933 3.30145 17.933C3.16475 17.933 3.02806 17.9433 2.89136 17.949C2.75466 17.9547 2.59726 17.9513 2.48542 17.9706C2.37772 17.9889 2.30726 18.0276 2.23684 18.0606C2.15813 18.0971 2.05464 18.1096 1.89724 18.1119C1.69426 18.1142 1.4913 18.1244 1.28832 18.1324C1.06463 18.088 0.832611 18.0447 0.617208 17.998C0.575785 17.9889 0.567455 17.9627 0.571598 17.9456C0.579882 17.9011 0.517763 17.8738 0.381065 17.8521C0.265079 17.8339 0.169796 17.8077 0.062095 17.7849C0.144942 17.7542 0.236107 17.7246 0.302384 17.6915C0.447367 17.622 0.629651 17.5719 0.944471 17.5742C1.06874 17.5298 1.16813 17.4751 1.32968 17.4443C1.48295 17.4147 1.74393 17.4443 1.85992 17.3771C1.91791 17.3441 2.00495 17.3065 2.11679 17.2928C2.29491 17.2712 2.52688 17.2826 2.63044 17.2188C2.69258 17.1823 2.78367 17.1493 2.9038 17.1401C3.0405 17.1299 3.1813 17.1276 3.28072 17.106C3.33457 17.0946 3.39257 17.0764 3.39257 17.0604C3.39257 17.0502 3.30979 17.0342 3.2518 17.0274C3.19795 17.0194 3.12744 17.0137 3.06531 17.016C2.85819 17.0228 2.65522 17.0353 2.4481 17.0422C2.39011 17.0445 2.32385 17.0365 2.26171 17.0296C2.07945 17.0114 2.09185 16.9886 2.23684 16.9476C2.38182 16.9078 2.48543 16.8565 2.60556 16.8098C2.73812 16.8018 2.90379 16.8052 2.99492 16.7836C3.14819 16.7483 3.25586 16.697 3.38013 16.6526C3.51683 16.6457 3.65766 16.6435 3.78608 16.6309C3.83993 16.6264 3.8648 16.6013 3.91037 16.5865C3.99321 16.558 4.06369 16.517 4.17554 16.5033C4.3578 16.4828 4.58148 16.4908 4.68918 16.4281C4.75132 16.3917 4.84656 16.353 4.96254 16.3507C5.28565 16.3461 5.42235 16.2835 5.58804 16.2242C5.71232 16.1798 5.97744 16.2026 6.11413 16.1582C6.20527 16.1297 6.27158 16.0944 6.36272 16.067C6.4 16.0556 6.47867 16.0499 6.54081 16.0465C6.88048 16.0294 7.22429 16.0169 7.56396 15.9987C7.61781 15.9953 7.66756 15.9782 7.70898 15.9645C7.79597 15.9349 7.84976 15.8939 7.95747 15.8745C8.06517 15.8551 8.21841 15.8551 8.35097 15.8494C8.77763 15.8324 8.8108 15.8369 9.00549 15.7401C9.16291 15.6615 9.54819 15.7173 9.67661 15.6307C9.75117 15.5806 9.88781 15.5396 10.1322 15.5339C10.476 15.5259 10.8157 15.5043 11.1595 15.4895C11.466 15.4758 11.4619 15.4758 11.7933 15.3698C11.9424 15.322 12.162 15.3288 12.3567 15.3197C12.5638 15.3106 12.7544 15.2969 12.8538 15.24C12.9532 15.1842 13.1354 15.1659 13.3467 15.1579C13.5414 15.15 13.761 15.1557 13.9142 15.1101C14.287 15.0007 14.2829 14.9996 14.5439 14.9882C14.954 14.97 15.3641 14.9518 15.7742 14.9324C16.0476 14.9199 16.3334 14.9176 16.5902 14.8925C16.7766 14.8743 16.8594 14.8105 16.9795 14.7661C17.3192 14.749 17.6589 14.7319 17.9986 14.7159C18.4749 14.6932 18.9554 14.6727 19.4359 14.651C19.6431 14.6077 19.6721 14.512 20.0201 14.5075C20.2272 14.5052 20.4302 14.4904 20.6373 14.4813C20.9811 14.4653 21.3208 14.4448 21.6646 14.4368C21.9256 14.4311 21.971 14.3696 22.1077 14.3309C22.1533 14.3172 22.1948 14.2979 22.2486 14.2944C22.7871 14.2625 23.3422 14.2557 23.8682 14.209C23.9221 14.2044 23.9718 14.1805 23.9842 14.1634C23.9925 14.1543 23.9221 14.1372 23.8765 14.1293C23.8227 14.1201 23.7523 14.111 23.6943 14.1133C21.9835 14.1896 20.2728 14.2671 18.562 14.3434C18.3217 14.3548 18.3217 14.3537 17.7376 14.479C17.6879 14.4892 17.6299 14.5006 17.5677 14.504C17.2943 14.5177 17.0168 14.5257 16.7475 14.5428C16.528 14.5565 16.3458 14.5428 16.1884 14.5018C16.0765 14.4721 15.9605 14.463 15.8197 14.4653C15.6623 14.4687 15.5588 14.4813 15.4676 14.512C15.3475 14.5542 15.2853 14.6089 15.0327 14.6202C13.8687 14.6692 12.7046 14.7239 11.5447 14.7763C11.3832 14.7604 11.3045 14.7364 11.3459 14.708C11.3707 14.6909 11.4205 14.6681 11.4702 14.6658C11.9466 14.6419 12.4271 14.6214 12.9034 14.5986C12.9697 14.5952 13.0608 14.5975 13.0981 14.5861C13.2804 14.5348 13.3467 14.4516 13.6905 14.4459C13.8894 14.4425 14.0923 14.4254 14.2829 14.4095C14.3367 14.4049 14.3864 14.381 14.3989 14.3639C14.403 14.3548 14.3367 14.3377 14.287 14.3297C14.1047 14.2967 13.8935 14.3366 13.7113 14.3138C13.6491 14.3058 13.5621 14.2944 13.5497 14.2808C13.5414 14.2682 13.6118 14.2477 13.6615 14.2352C13.7071 14.2238 13.7692 14.2136 13.8313 14.2101C14.3781 14.1839 14.925 14.1566 15.4718 14.1361C15.6955 14.1281 15.8528 14.0996 15.9522 14.0472C16.0268 14.0085 16.1179 13.988 16.2588 13.9823C17.2157 13.9401 18.1725 13.8934 19.1336 13.8547C19.3738 13.8456 19.4981 13.808 19.5975 13.759C19.6763 13.7203 19.7674 13.7066 19.9207 13.6998C21.2918 13.6405 22.6546 13.5745 24.0257 13.5175C24.2784 13.5073 24.353 13.4583 24.4814 13.4161C24.527 13.4013 24.5559 13.3831 24.6139 13.374C24.6719 13.3649 24.7464 13.366 24.8169 13.3637C25.9105 13.3147 27.0041 13.2623 28.1018 13.2168C28.3587 13.2065 28.4083 13.1495 28.5408 13.1097C28.5864 13.0971 28.6279 13.0766 28.6817 13.0732C29.5019 13.0345 30.3221 12.998 31.1423 12.9604C31.6891 12.9354 32.2358 12.9103 32.7826 12.8864C33.0519 12.875 33.0519 12.8739 33.4164 12.7656C33.4578 12.7531 33.5159 12.7383 33.5697 12.7349C35.1438 12.662 36.7137 12.5925 38.2878 12.5207C38.4204 12.515 38.5157 12.4888 38.5819 12.4501C38.6482 12.4113 38.7436 12.3851 38.872 12.3794C40.1023 12.3225 41.3325 12.2667 42.5669 12.2131C42.7906 12.204 42.948 12.1767 43.0474 12.1254C43.122 12.0867 43.2131 12.0662 43.3539 12.0605C44.5842 12.0058 45.8146 11.9477 47.049 11.8953C47.2851 11.885 47.4011 11.8463 47.517 11.8007C47.5585 11.7848 47.5916 11.7586 47.6413 11.7563C48.2544 11.7244 48.8633 11.6914 49.4805 11.6697C49.7373 11.6606 49.8244 11.6128 49.9279 11.5672C50.0108 11.5307 50.1061 11.5182 50.2635 11.5137C50.6073 11.5034 50.947 11.484 51.2825 11.4647C51.3322 11.4613 51.3943 11.4362 51.3985 11.4203C51.4068 11.3906 51.3115 11.3701 51.1541 11.3599C49.5137 11.4339 47.8692 11.508 46.2288 11.582C45.9596 11.5945 45.9596 11.5945 45.595 11.7028C45.5536 11.7153 45.4956 11.7301 45.4376 11.7335C43.8635 11.8053 42.2936 11.8759 40.7195 11.9477C40.5869 11.9534 40.4916 11.9796 40.4254 12.0183C40.3591 12.0571 40.2637 12.0833 40.1353 12.089C38.6316 12.1573 37.128 12.2268 35.6202 12.2917C35.3965 12.3009 35.2391 12.327 35.1397 12.3794C35.0651 12.4182 34.974 12.4387 34.8332 12.4444C33.3958 12.5082 31.9625 12.5754 30.5209 12.6369C30.3759 12.6426 30.2683 12.6096 30.2766 12.5788C30.2807 12.5629 30.3428 12.5367 30.3925 12.5344C31.1422 12.4968 31.8879 12.4581 32.6418 12.4296C32.8945 12.4205 32.969 12.3703 33.0974 12.3282C33.1389 12.3134 33.172 12.294 33.2259 12.286C33.2839 12.2769 33.3584 12.2781 33.4289 12.2758C35.2059 12.1949 36.9831 12.1129 38.7643 12.0366C39.0211 12.0252 39.0707 11.9693 39.2033 11.9295C39.2489 11.9158 39.2903 11.8953 39.3442 11.893C39.891 11.8657 40.4377 11.8418 40.9845 11.8178C41.9414 11.7745 42.8983 11.7312 43.8593 11.688C44.1368 11.6754 44.1369 11.6754 44.4931 11.5683C44.5345 11.5558 44.5926 11.5399 44.6464 11.5376C47.1774 11.4225 49.7084 11.3075 52.2394 11.1936C52.372 11.1879 52.4672 11.1617 52.5335 11.1229C52.5998 11.0853 52.695 11.058 52.8234 11.0512C56.245 10.8962 59.6625 10.7413 63.0841 10.5886C63.3078 10.5784 63.4651 10.5545 63.5646 10.5009C63.635 10.4622 63.7302 10.4417 63.8711 10.4348C67.6324 10.2651 71.3936 10.0954 75.159 9.92449C77.69 9.81057 80.221 9.69437 82.752 9.58273C82.984 9.57247 83.1082 9.53715 83.2242 9.49045C83.2615 9.4745 83.2988 9.44829 83.3485 9.44602C83.8911 9.41754 84.4338 9.39134 84.9764 9.36514C85.1462 9.3959 85.3161 9.42552 85.4859 9.45628C85.6143 9.41299 85.7387 9.36856 85.8671 9.32527C86.6873 9.29223 87.495 9.24097 88.3235 9.22502C88.3773 9.22388 88.4353 9.24553 88.4933 9.25692C88.8785 9.32869 89.0981 9.32299 89.3425 9.2273C89.4295 9.19312 89.504 9.16236 89.6366 9.15667C90.0467 9.13616 90.461 9.12249 90.8669 9.09857C91.0865 9.08604 91.2687 9.09743 91.4261 9.13844C91.5379 9.16806 91.654 9.18059 91.7907 9.17376C92.5446 9.13958 93.2943 9.10654 94.0482 9.07009C94.1021 9.06781 94.1517 9.04844 94.1932 9.03477C94.2802 9.00515 94.3548 8.97326 94.4376 8.9425C94.5494 8.96187 94.6737 8.97668 94.7649 9.00174C94.8809 9.03136 94.9885 9.03135 95.1459 9.02338C98.1533 8.88554 101.165 8.75111 104.172 8.61213C104.429 8.60074 104.541 8.64859 104.715 8.67365C104.773 8.68276 104.831 8.69415 104.893 8.69643C104.959 8.69871 105.03 8.69188 105.096 8.68846C107.353 8.58593 109.611 8.48454 111.869 8.38201C112.167 8.36834 112.167 8.36834 112.61 8.43897C112.664 8.44808 112.734 8.45834 112.792 8.45492C113.82 8.41049 114.847 8.36265 115.87 8.31708C116.003 8.31139 116.115 8.32961 116.235 8.35581C116.471 8.40707 116.487 8.40708 116.661 8.33189C116.744 8.29658 116.831 8.27492 116.968 8.26467C117.117 8.25328 117.237 8.25671 117.353 8.27721C117.519 8.30569 117.639 8.35353 117.892 8.341C118.985 8.28746 120.083 8.24303 121.172 8.18835C121.421 8.17582 121.554 8.21455 121.719 8.24303C121.777 8.25328 121.831 8.26923 121.893 8.27265C121.955 8.27607 122.03 8.26809 122.096 8.26467C123.463 8.20315 124.834 8.14279 126.197 8.07671C126.454 8.06418 126.566 8.11316 126.74 8.13822C126.798 8.14733 126.864 8.16329 126.918 8.16101C127.738 8.1257 128.562 8.08809 129.383 8.0505C129.677 8.03683 129.677 8.03797 130.124 8.10746C130.178 8.11657 130.248 8.12569 130.306 8.12341C131.263 8.08126 132.224 8.03797 133.181 7.99468C133.475 7.98101 133.475 7.98101 134.324 8.04025C134.387 8.04481 134.453 8.05165 134.515 8.04937C135.609 8.00039 136.706 7.95254 137.8 7.90013C138.019 7.88988 138.202 7.89899 138.359 7.94C138.471 7.96962 138.587 7.98216 138.724 7.97532C139.954 7.9195 141.188 7.86596 142.414 7.80672C142.651 7.79533 142.804 7.82039 142.97 7.85342C143.023 7.86481 143.077 7.88077 143.139 7.88532C143.202 7.88988 143.272 7.88532 143.338 7.8819C144.569 7.82608 145.803 7.77368 147.029 7.7133C147.278 7.70077 147.41 7.7395 147.576 7.76798C147.634 7.77823 147.696 7.79874 147.746 7.7976C148.226 7.77824 148.707 7.76115 149.183 7.73267C149.44 7.71673 149.552 7.76912 149.726 7.79418C149.784 7.80216 149.85 7.81925 149.904 7.81697C150.931 7.77254 151.959 7.72584 152.982 7.678C153.127 7.67116 153.234 7.6814 153.35 7.71102C153.504 7.75089 153.682 7.76684 153.905 7.75431C154.382 7.72811 154.862 7.70989 155.343 7.68824C155.624 7.67571 155.624 7.67572 156.486 7.73495C156.548 7.73951 156.614 7.74634 156.677 7.74406C157.497 7.70761 158.321 7.6723 159.137 7.63242C159.357 7.62103 159.539 7.63128 159.696 7.67229C159.808 7.70191 159.92 7.71445 160.061 7.70762C160.815 7.67344 161.565 7.63926 162.319 7.60508C162.592 7.59255 162.865 7.5709 163.139 7.5709C163.338 7.57204 163.483 7.62672 163.661 7.65406C163.71 7.66204 163.793 7.65293 163.86 7.65066C164.816 7.60737 165.777 7.56749 166.73 7.5185C166.979 7.50597 167.111 7.5447 167.277 7.57318C167.335 7.58344 167.397 7.60394 167.447 7.6028C167.791 7.59027 168.13 7.57318 168.474 7.55837C168.884 7.54015 169.298 7.52648 169.704 7.50141C170.036 7.48091 170.16 7.58002 170.425 7.58343C170.628 7.58685 170.835 7.56749 171.038 7.55837C171.448 7.54015 171.858 7.51964 172.268 7.50369C172.413 7.498 172.525 7.47976 172.571 7.43875C172.579 7.43078 172.509 7.4137 172.463 7.40344C171.912 7.28725 171.912 7.28724 171.357 7.3123C171.013 7.32825 170.674 7.3442 170.33 7.35787C170.272 7.36015 170.206 7.35104 170.148 7.3442C169.982 7.32484 169.998 7.30206 170.139 7.26105C170.28 7.22003 170.388 7.16991 170.508 7.12321C170.678 7.15283 170.844 7.18243 171.013 7.21205C171.15 7.20636 171.287 7.19953 171.423 7.19384C172.107 7.16422 172.79 7.13346 173.474 7.10612C173.524 7.10384 173.586 7.12663 173.644 7.13802C173.809 7.17105 173.959 7.19953 174.199 7.18699C174.812 7.15396 175.429 7.13004 176.042 7.10156C176.311 7.08902 176.311 7.08903 176.784 7.15966C176.838 7.16763 176.908 7.17674 176.966 7.17447C177.583 7.14826 178.196 7.11979 178.813 7.09245C178.946 7.08675 179.074 7.10156 179.17 7.1346C179.207 7.14827 179.199 7.17105 179.356 7.35787C179.845 7.50939 180.18 7.49345 180.52 7.47978C180.665 7.47408 180.793 7.46838 180.889 7.44559C180.938 7.43306 181.001 7.41483 181.001 7.40002C181.001 7.38863 180.91 7.3704 180.852 7.36812C180.441 7.34534 180.052 7.39319 179.65 7.40344C179.464 7.408 179.302 7.36813 179.269 7.3032C179.261 7.28497 179.248 7.2656 179.236 7.24738C179.223 7.22915 179.215 7.20978 179.203 7.19156C179.041 7.18586 178.946 7.20636 178.876 7.2451C178.818 7.27699 178.735 7.31345 178.623 7.33053C178.511 7.34876 178.358 7.34535 178.221 7.35105C178.089 7.35674 177.944 7.37155 177.819 7.36358C177.695 7.35446 177.596 7.32142 177.48 7.30091C177.426 7.29066 177.359 7.27586 177.306 7.27814C176.829 7.2975 176.357 7.31686 175.885 7.34192C175.636 7.35559 175.512 7.30776 175.355 7.27814C175.23 7.25535 175.106 7.26104 175.085 7.31344C175.031 7.43876 175.222 7.49116 175.645 7.46723C175.992 7.44673 176.307 7.44332 176.581 7.52079C176.618 7.53104 176.705 7.53559 176.759 7.53331C177.098 7.51964 177.434 7.50255 177.774 7.48888C177.836 7.48661 177.902 7.49116 177.96 7.49571C178.805 7.55723 178.805 7.55837 179.091 7.5447C179.228 7.53787 179.36 7.53217 179.348 7.35901C179.609 7.17333 180.023 7.1608 180.425 7.13346C180.686 7.11637 180.798 7.16649 180.967 7.1927C181.025 7.20181 181.088 7.22003 181.141 7.21776C182.032 7.18016 182.918 7.14028 183.805 7.09813C183.954 7.0913 184.062 7.09814 184.178 7.12775C184.327 7.16535 184.493 7.18928 184.729 7.17561C185.201 7.14827 185.681 7.13118 186.162 7.1084C186.406 7.09701 186.406 7.09699 186.899 7.16762C186.953 7.1756 187.024 7.18471 187.082 7.18243C187.562 7.16307 188.039 7.13915 188.515 7.11865C188.647 7.11295 188.768 7.1289 188.871 7.15966C188.975 7.19041 189.099 7.20636 189.227 7.20066C189.708 7.18016 190.184 7.15738 190.661 7.13688C190.719 7.1346 190.789 7.14257 190.843 7.15055C191.348 7.22118 191.348 7.22117 191.58 7.20977C191.92 7.19269 192.268 7.18472 192.603 7.16194C192.931 7.13915 193.1 7.20522 193.324 7.24167C193.937 7.21547 194.554 7.19383 195.163 7.16194C195.412 7.14827 195.544 7.18586 195.71 7.21547C195.768 7.22573 195.826 7.24737 195.88 7.24624C196.087 7.24168 196.29 7.22915 196.493 7.22004C196.696 7.21092 196.903 7.20181 197.106 7.1927C197.338 7.22573 197.491 7.3032 197.823 7.277C198.022 7.26105 198.233 7.25763 198.436 7.24852C198.639 7.2394 198.846 7.23029 199.049 7.22118C199.186 7.21548 199.326 7.21206 199.459 7.20181C199.703 7.18472 199.824 7.24054 199.997 7.26561C200.055 7.27358 200.122 7.28724 200.176 7.28496C200.586 7.26902 201 7.25535 201.402 7.22914C201.712 7.20864 201.924 7.24282 202.143 7.29067C202.189 7.30092 202.267 7.30661 202.325 7.30434C202.806 7.28497 203.282 7.26104 203.759 7.24053C203.887 7.23484 204.011 7.25306 204.115 7.28268C204.223 7.31344 204.343 7.32826 204.475 7.32257C204.952 7.30206 205.432 7.27927 205.909 7.25876C205.967 7.25649 206.037 7.2656 206.091 7.27472C206.555 7.34535 206.555 7.34649 206.828 7.33282C206.895 7.3294 206.965 7.32711 207.031 7.32369C207.371 7.30774 207.723 7.30206 208.054 7.27472C208.435 7.24396 208.713 7.28269 208.982 7.34763C209.322 7.33396 209.67 7.32598 210.001 7.3032C210.25 7.28611 210.382 7.32939 210.548 7.35787C210.606 7.36813 210.668 7.38863 210.718 7.38635C211.198 7.36699 211.679 7.34991 212.151 7.32143C212.408 7.30548 212.52 7.35673 212.694 7.38293C212.752 7.39205 212.814 7.408 212.868 7.40573C213.141 7.39661 213.415 7.38293 213.688 7.3704C214.007 7.35559 214.007 7.35673 214.429 7.42622C214.628 7.45926 214.827 7.43306 215.022 7.42508C215.229 7.41597 215.424 7.40914 215.589 7.45584C215.693 7.48546 215.817 7.50369 215.946 7.49913C216.219 7.48888 216.497 7.47863 216.766 7.46155C216.981 7.44787 217.168 7.45698 217.325 7.49913C217.437 7.52875 217.553 7.54357 217.69 7.53674C218.303 7.5094 218.92 7.4809 219.533 7.4547C219.587 7.45242 219.661 7.46268 219.711 7.47293C219.827 7.49344 219.939 7.51622 220.051 7.539C220.32 7.52875 220.597 7.5242 220.863 7.50826C221.144 7.49231 221.401 7.48661 221.621 7.54927C221.666 7.56294 221.732 7.58229 221.786 7.58115C221.993 7.5766 222.196 7.56521 222.399 7.55609C222.602 7.54698 222.809 7.53787 223.012 7.52875C223.249 7.55723 223.398 7.63925 223.729 7.61305C223.928 7.5971 224.139 7.59369 224.342 7.58457C224.545 7.57546 224.752 7.56521 224.955 7.55723C225.022 7.55496 225.096 7.54926 225.154 7.55381C225.216 7.55837 225.27 7.57432 225.324 7.58571C225.49 7.61875 225.643 7.65179 225.879 7.63242C226.078 7.61648 226.289 7.61306 226.492 7.6028C226.77 7.59027 226.77 7.59028 227.229 7.66204C227.416 7.69166 227.627 7.65293 227.805 7.678C227.925 7.69508 228.029 7.72356 228.145 7.74292C228.195 7.7509 228.273 7.75431 228.331 7.75203C228.605 7.74178 228.882 7.73153 229.151 7.71444C229.371 7.70077 229.553 7.71444 229.707 7.75545C229.818 7.78507 229.93 7.79761 230.071 7.79077C230.754 7.75888 231.438 7.73153 232.117 7.69621C232.349 7.68368 232.536 7.70305 232.664 7.74406C232.884 7.81469 233.194 7.73153 233.422 7.78849C233.563 7.82381 233.704 7.86482 233.961 7.84773C234.433 7.81811 234.913 7.80216 235.39 7.78165C235.56 7.81241 235.73 7.84318 235.903 7.87393C236.177 7.8614 236.45 7.84886 236.724 7.83747C236.927 7.82836 237.134 7.81811 237.337 7.81013C237.403 7.80785 237.473 7.8033 237.536 7.80899C237.598 7.81469 237.647 7.8295 237.705 7.84089C237.991 7.89671 237.991 7.89786 238.463 7.87507C238.666 7.86482 238.861 7.85799 239.031 7.90355C239.188 7.9457 239.375 7.95367 239.59 7.94114C239.996 7.91836 240.406 7.90127 240.821 7.88532C240.949 7.87963 241.069 7.89899 241.177 7.92861C241.338 7.97532 241.537 7.97076 241.74 7.95823C242.009 7.94228 242.274 7.92634 242.502 7.99013C242.548 8.0038 242.618 8.02316 242.668 8.02202C243.008 8.01291 243.351 8.00608 243.683 7.98443C244.014 7.96279 244.176 8.03342 244.404 8.06759C244.743 8.05278 245.087 8.03797 245.427 8.02316C245.493 8.01974 245.572 8.0095 245.63 8.01519C245.874 8.03912 246.015 8.12455 246.351 8.09835C246.545 8.08354 246.756 8.07899 246.959 8.07557C247.013 8.07443 247.084 8.09379 247.121 8.1086C247.142 8.11657 247.121 8.13822 247.096 8.14961C247.022 8.18151 246.93 8.21114 246.864 8.24417C246.856 8.24873 246.935 8.26923 246.98 8.27834C247.092 8.29885 247.22 8.29544 247.37 8.28632C247.498 8.27835 247.631 8.2943 247.722 8.32847C247.759 8.34214 247.746 8.36492 247.668 8.44011C247.668 8.49593 247.755 8.47086 247.784 8.43441C247.829 8.38201 247.742 8.36492 247.577 8.3934C247.461 8.4139 247.403 8.44353 247.432 8.46745C247.448 8.47998 247.527 8.49593 247.668 8.44011C248.032 8.37176 248.306 8.35923 248.579 8.3467C248.65 8.34328 248.732 8.33188 248.782 8.33872C248.96 8.36606 249.126 8.3991 249.3 8.42986C249.499 8.42303 249.685 8.40593 249.88 8.45036C250.153 8.51301 250.166 8.50732 250.431 8.49479C250.567 8.48795 250.704 8.48227 250.841 8.47657C250.978 8.47088 251.085 8.48796 251.205 8.51416C251.45 8.5677 251.47 8.5677 251.632 8.49479C251.727 8.45036 251.794 8.43556 251.914 8.45606C252.311 8.52555 252.316 8.53011 252.655 8.5096C252.937 8.49251 253.202 8.48796 253.409 8.55289C253.55 8.59846 253.596 8.58821 253.707 8.54036C254.006 8.41391 254.142 8.41618 254.701 8.50732C254.962 8.55061 255.232 8.50391 255.497 8.49821C255.721 8.49365 255.878 8.52099 255.895 8.59276C255.907 8.63719 255.944 8.66909 256.093 8.6839C256.151 8.6896 256.222 8.69757 256.28 8.69529C256.624 8.68162 256.963 8.66567 257.307 8.64972C257.481 8.64174 257.576 8.58821 257.543 8.51758C257.506 8.44239 257.572 8.41504 257.821 8.3934C257.97 8.38087 258.09 8.38316 258.21 8.40366C258.343 8.42645 258.305 8.44695 258.189 8.48796C257.912 8.58821 257.945 8.64972 258.301 8.71921C258.426 8.74313 258.525 8.76478 258.554 8.8001C258.57 8.81833 258.554 8.84225 258.591 8.85592C258.794 8.93225 259.076 8.98124 259.391 9.01769C259.693 8.98693 259.9 9.03819 260.132 9.0792C260.314 9.11109 260.53 9.08376 260.725 9.07237C260.944 9.05984 261.126 9.06895 261.284 9.1111C261.396 9.14072 261.512 9.15438 261.648 9.14869C261.922 9.13616 262.199 9.12819 262.468 9.10996C262.7 9.09401 262.874 9.1168 263.019 9.15553C263.202 9.20451 263.405 9.17147 263.595 9.17831C263.852 9.18628 263.98 9.28767 264.316 9.26033C264.515 9.24438 264.722 9.23868 264.929 9.23413C264.983 9.23299 265.049 9.25236 265.095 9.26603C265.314 9.32868 265.571 9.32526 265.853 9.30704C266.047 9.29451 266.238 9.28312 266.429 9.32641C266.743 9.39932 267.091 9.46312 267.423 9.53033C267.468 9.58273 267.435 9.64424 267.671 9.67499C267.796 9.69094 267.912 9.71488 268.007 9.74108C268.123 9.77184 268.23 9.77981 268.38 9.77184C268.649 9.75589 268.931 9.75246 269.196 9.73195C269.44 9.71373 269.593 9.75133 269.742 9.78665C269.863 9.81513 269.974 9.82879 270.119 9.80829C270.269 9.78892 270.376 9.80145 270.496 9.8322C270.666 9.87435 270.679 9.8698 271.242 9.88234C271.3 9.88348 271.37 9.90055 271.404 9.91536C271.42 9.92334 271.383 9.94613 271.354 9.95753C271.317 9.9712 271.259 9.98714 271.205 9.99055C270.592 10.0202 269.974 10.0464 269.361 10.076C269.299 10.0794 269.233 10.0874 269.187 10.0988C269.138 10.1113 269.076 10.1284 269.076 10.1443C269.076 10.1557 269.158 10.1694 269.216 10.1774C269.399 10.2036 269.614 10.1637 269.792 10.1933C269.912 10.2127 270.012 10.24 270.132 10.2583C270.182 10.2662 270.26 10.2651 270.322 10.2628C270.53 10.2548 270.733 10.2435 270.94 10.2366C270.998 10.2355 271.064 10.2469 271.118 10.256C271.515 10.3243 271.515 10.3243 271.859 10.3095C271.996 10.3038 272.141 10.2867 272.269 10.2936C272.394 10.3004 272.501 10.3312 272.613 10.3505C272.845 10.3916 273.065 10.4314 273.081 10.5203C273.089 10.5545 273.226 10.5841 273.363 10.5864C273.495 10.5886 273.636 10.5761 273.773 10.5693C274.096 10.5556 274.096 10.5556 274.514 10.6251C274.63 10.6445 274.755 10.6467 274.904 10.6353C274.962 10.6308 275.032 10.6353 275.094 10.641C275.297 10.6581 275.297 10.6798 275.165 10.7208C274.978 10.7812 274.995 10.7869 275.517 10.8381C275.716 10.8575 275.869 10.8939 276.035 10.9258C276.304 10.9771 276.3 10.9771 276.122 11.0443C276.08 11.0591 276.043 11.0751 276.002 11.091C275.881 11.1354 275.786 11.1833 275.538 11.1878C275.264 11.1924 274.991 11.2106 274.717 11.2232C274.452 11.2357 274.382 11.263 274.407 11.3405C274.436 11.4339 274.49 11.4442 274.966 11.443C275.103 11.443 275.223 11.4521 275.326 11.4829C275.277 11.5194 275.186 11.5478 275.053 11.5547C274.713 11.5718 274.369 11.5866 274.03 11.6014C273.756 11.6139 273.483 11.6264 273.21 11.639C273.04 11.6469 272.932 11.7062 272.978 11.7723C273.002 11.8099 273.023 11.8474 273.044 11.885C273.089 11.9602 273.176 11.9796 273.454 11.9762C273.524 11.975 273.591 11.9659 273.657 11.9682C273.926 11.9762 274.055 12.0707 274.378 12.0514C274.647 12.0354 274.929 12.032 275.194 12.0115C275.438 11.9933 275.575 12.0343 275.745 12.065C275.803 12.0753 275.865 12.0969 275.915 12.0958C276.258 12.0833 276.602 12.0707 276.938 12.0491C277.095 12.04 277.19 12.0468 277.315 12.0741C277.613 12.1402 277.621 12.1368 278.064 12.1163C278.388 12.1003 278.392 12.1026 278.806 12.1721C278.922 12.1915 279.046 12.1915 279.195 12.1824C279.39 12.171 279.593 12.1527 279.796 12.1698C279.858 12.1744 279.937 12.1881 279.958 12.2029C279.97 12.2131 279.912 12.2382 279.862 12.2462C279.498 12.3054 279.071 12.2952 278.673 12.3191C278.549 12.3259 278.425 12.3043 278.321 12.2735C278.214 12.2427 278.098 12.2302 277.957 12.2359C277.683 12.2484 277.406 12.2564 277.137 12.2746C276.905 12.2906 276.743 12.2644 276.581 12.2291C276.528 12.2177 276.466 12.196 276.412 12.1972C275.799 12.22 275.181 12.2427 274.572 12.2746C274.328 12.2883 274.187 12.2519 274.022 12.2211C273.964 12.2109 273.906 12.1892 273.852 12.1903C273.645 12.1949 273.442 12.2074 273.235 12.2165C272.481 12.2507 271.731 12.2849 270.977 12.3168C270.927 12.3191 270.865 12.2951 270.807 12.2849C270.695 12.2644 270.579 12.245 270.463 12.2257C270.256 12.2348 270.053 12.2462 269.846 12.253C269.697 12.2576 269.564 12.2735 269.544 12.3168C269.531 12.3453 269.668 12.3715 269.813 12.3692C269.954 12.3669 270.095 12.3532 270.211 12.3681C270.786 12.441 270.786 12.4421 271.147 12.4273C271.462 12.4136 271.428 12.4022 271.706 12.4649C271.826 12.4922 271.934 12.5082 272.07 12.5013C272.41 12.4854 272.754 12.4694 273.098 12.4558C273.152 12.4535 273.222 12.4649 273.276 12.474C273.682 12.5424 273.682 12.5446 274.017 12.5275C274.456 12.507 274.473 12.5013 274.767 12.5708C274.97 12.6187 275.157 12.5856 275.351 12.5834C275.575 12.6278 275.819 12.6677 276.022 12.7178C276.263 12.777 276.515 12.7668 276.789 12.7497C276.992 12.7372 277.19 12.7326 277.356 12.7793C277.514 12.8226 277.704 12.8272 277.919 12.8158C278.114 12.8055 278.313 12.7839 278.516 12.8089C278.57 12.8158 278.653 12.8329 278.649 12.8431C278.644 12.8591 278.591 12.8818 278.537 12.8887C278.156 12.9354 277.737 12.9342 277.335 12.9559C277.282 12.9593 277.211 12.9468 277.157 12.9377C277.041 12.9171 276.929 12.8932 276.818 12.8716C276.615 12.8784 276.408 12.8807 276.209 12.8944C276.055 12.9046 275.939 12.9035 275.828 12.8761C275.724 12.8511 275.612 12.8203 275.488 12.8123C275.364 12.8044 275.219 12.8215 275.082 12.8283C274.945 12.8351 274.788 12.8317 274.68 12.8499C274.572 12.8682 274.506 12.908 274.436 12.9399C274.357 12.9752 274.249 12.9866 274.092 12.9901C273.947 12.9935 273.831 12.9889 273.723 12.957C273.678 12.9434 273.616 12.9331 273.553 12.924C273.495 12.916 273.429 12.9035 273.375 12.9058C272.758 12.932 272.145 12.9604 271.528 12.9878C271.221 13.0015 271.225 13.0014 270.587 12.9342C270.53 12.9285 270.459 12.9206 270.401 12.9228C270.057 12.9365 269.718 12.9525 269.374 12.9684C269.026 12.9844 269.03 12.9821 268.438 12.9103C268.33 12.8966 268.173 12.9149 268.044 12.9126C267.775 12.9069 267.642 12.8112 267.328 12.8294C267.058 12.8454 266.776 12.8488 266.507 12.8693C266.263 12.8875 266.122 12.8477 265.956 12.8169C265.898 12.8067 265.836 12.7839 265.786 12.7861C265.169 12.8112 264.556 12.8397 263.736 12.8431C263.533 12.8431 263.624 12.867 263.757 12.875C263.947 12.8875 264.009 12.8636 263.906 12.818C263.831 12.7861 263.724 12.7702 263.637 12.7782C263.591 12.7827 263.533 12.8044 263.736 12.8431C263.951 12.8864 263.939 12.9103 263.976 12.924C264.067 12.957 264.196 12.9707 264.328 12.9661C264.536 12.9582 264.739 12.9468 264.946 12.9399C265.004 12.9377 265.074 12.9456 265.128 12.9547C265.584 13.0254 265.588 13.0299 266.072 13.0026C266.226 12.9946 266.337 12.9946 266.458 13.0163C266.623 13.0459 266.743 13.096 266.996 13.0801C267.332 13.0584 267.675 13.0459 268.019 13.0334C268.073 13.0311 268.131 13.0516 268.193 13.0607C268.363 13.088 268.487 13.1393 268.74 13.1177C268.935 13.1006 269.146 13.096 269.353 13.0926C269.407 13.0914 269.49 13.1097 269.515 13.1245C269.564 13.1507 269.502 13.1814 269.361 13.2031C269.303 13.2122 269.225 13.2099 269.158 13.2133C268.885 13.2259 268.612 13.2395 268.338 13.2498C268.193 13.2555 268.057 13.2726 268.04 13.3147C268.028 13.3432 268.177 13.3683 268.317 13.366C268.525 13.3626 268.732 13.3535 268.931 13.3387C269.283 13.3136 269.589 13.3204 269.875 13.3922C270.078 13.4423 270.066 13.4241 270.281 13.5722C270.335 13.6098 270.496 13.6132 270.637 13.6109C270.977 13.6052 271.134 13.6223 271.105 13.6576C271.068 13.7009 270.948 13.7146 270.795 13.7203C270.521 13.7294 270.248 13.7442 269.974 13.7567C269.908 13.7602 269.834 13.767 269.771 13.7647C269.709 13.7624 269.651 13.7488 269.597 13.7385C269.482 13.7169 269.382 13.6838 269.258 13.6758C269.134 13.6679 268.989 13.685 268.852 13.6918C268.715 13.6975 268.57 13.7146 268.446 13.7066C268.322 13.6986 268.218 13.6645 268.106 13.644C268.052 13.6337 267.986 13.6178 267.932 13.6189C267.659 13.628 267.385 13.6428 267.112 13.6542C266.777 13.669 266.777 13.669 266.371 13.5984C266.255 13.5779 266.135 13.579 265.981 13.5881C265.65 13.6064 265.646 13.6029 265.041 13.5369C264.983 13.53 264.912 13.5221 264.854 13.5255C264.237 13.5517 263.624 13.5802 263.011 13.6075C262.485 13.6314 262.485 13.6314 262.195 13.7454C261.98 13.8297 261.975 13.8296 262.187 13.8684C262.357 13.9003 262.51 13.947 262.696 13.9641C262.87 13.98 263.086 13.9288 263.276 13.9812C263.372 14.0074 263.496 14.0358 263.616 14.0404C263.806 14.0461 264.009 14.0131 264.192 14.0632C264.283 14.0882 264.42 14.1145 264.536 14.1156C264.739 14.1179 264.946 14.0996 265.149 14.0917C265.211 14.0894 265.281 14.0894 265.339 14.0951C265.401 14.1019 265.455 14.1156 265.509 14.127C265.675 14.1657 265.853 14.1839 266.068 14.1646C266.42 14.1327 266.735 14.1486 267.009 14.2215C267.046 14.2318 267.137 14.2329 267.195 14.2284C267.344 14.217 267.472 14.2158 267.584 14.2375C267.63 14.2466 267.696 14.2625 267.688 14.2728C267.675 14.2899 267.626 14.3127 267.572 14.3184C267.182 14.3571 266.764 14.3617 266.362 14.3822C266.308 14.3844 266.242 14.3696 266.188 14.3594C266.072 14.3389 265.973 14.3047 265.849 14.2967C265.724 14.2887 265.579 14.3036 265.443 14.3092C265.306 14.3149 265.161 14.332 265.037 14.3252C264.912 14.3172 264.796 14.2887 264.697 14.2637C264.581 14.2352 264.469 14.2318 264.316 14.2432C264.117 14.258 263.91 14.2603 263.707 14.2682C263.595 14.2466 263.483 14.2227 263.367 14.2022C263.314 14.1919 263.247 14.1794 263.189 14.1805C262.916 14.1896 262.642 14.2033 262.369 14.2158C262.096 14.2284 262.096 14.2284 261.632 14.1577C261.578 14.1498 261.507 14.1407 261.449 14.1429C261.106 14.1566 260.766 14.1737 260.422 14.1873C260.29 14.193 260.169 14.1771 260.062 14.1463C259.958 14.1156 259.834 14.0985 259.705 14.1042C259.159 14.1281 258.612 14.1509 258.065 14.1794C257.846 14.1908 257.659 14.1805 257.51 14.1395C257.336 14.0928 257.141 14.1042 256.938 14.1133C256.479 14.1361 256.474 14.1349 256.18 14.0768C256.122 14.0655 256.064 14.0438 256.011 14.0449C255.534 14.062 255.054 14.078 254.581 14.1053C254.333 14.1201 254.2 14.0803 254.035 14.0506C253.977 14.0404 253.915 14.0188 253.865 14.021C253.521 14.0336 253.177 14.045 252.842 14.0677C252.506 14.0905 252.378 13.9846 252.125 13.9857C251.781 13.9869 251.441 14.0131 251.102 14.029C250.828 14.0415 250.555 14.0541 250.282 14.0666C250.008 14.0791 249.735 14.0894 249.461 14.1042C249.316 14.1122 249.209 14.1019 249.089 14.0734C248.935 14.0358 248.753 14.0062 248.587 13.9721C248.335 13.9231 248.335 13.9231 248.028 13.9367C247.962 13.9401 247.891 13.9424 247.825 13.9458C247.324 13.9709 247.324 13.9686 246.686 13.8969C246.657 13.8934 246.582 13.906 246.553 13.9151C246.466 13.9447 246.388 13.9766 246.309 14.0074C246.197 13.9891 246.061 13.9789 245.986 13.9527C245.775 13.8786 245.443 13.98 245.228 13.9071C245.149 13.8798 245.013 13.8558 244.888 13.849C244.76 13.8422 244.615 13.8581 244.482 13.865C244.138 13.882 244.138 13.8809 243.844 13.9823C243.695 14.0324 243.48 14.0233 243.285 14.0347C243.082 14.0472 242.887 14.0541 242.718 14.0074C242.564 13.9652 242.378 13.955 242.158 13.9686C241.889 13.9857 241.612 13.996 241.338 14.0062C241.28 14.0085 241.21 14.0028 241.152 13.996C240.518 13.9288 240.518 13.9276 240.211 13.9424C240.075 13.9493 239.934 13.9515 239.801 13.9618C239.578 13.98 239.408 13.9561 239.246 13.9196C239.193 13.9082 239.13 13.8866 239.077 13.8878C238.803 13.8934 238.534 13.9037 238.265 13.914C238.057 13.9219 237.85 13.9265 237.652 13.9424C237.32 13.9686 237.159 13.8946 236.931 13.8604C236.591 13.8752 236.247 13.8855 235.908 13.906C235.75 13.9151 235.647 13.9117 235.527 13.8843C235.373 13.8502 235.232 13.8114 234.984 13.8285C234.652 13.8513 234.305 13.8593 233.965 13.8729C233.737 13.8376 233.571 13.7658 233.244 13.792C233.045 13.808 232.834 13.8114 232.631 13.8205C232.358 13.8331 232.084 13.8445 231.811 13.8581C231.517 13.8718 231.521 13.8684 231.069 13.8012C230.808 13.7613 230.539 13.8057 230.274 13.8126C230.067 13.8183 229.963 13.8707 230.013 13.9379C230.063 14.0051 229.951 14.0575 229.76 14.0666C229.284 14.0882 228.803 14.111 228.327 14.1304C228.269 14.1327 228.199 14.1247 228.145 14.1167C227.635 14.0449 227.635 14.0461 227.407 14.0564C227.068 14.0734 226.72 14.0825 226.384 14.1042C226.152 14.119 225.982 14.0951 225.833 14.0564C225.717 14.0267 225.61 14.0199 225.461 14.0267C223.82 14.1031 222.18 14.1737 220.544 14.2523C220.299 14.2637 220.158 14.2306 219.993 14.1999C219.935 14.1896 219.881 14.168 219.823 14.168C219.686 14.168 219.549 14.1782 219.413 14.1851C218.8 14.2124 218.187 14.2455 217.569 14.266C217.308 14.2751 217.238 14.3275 217.126 14.3708C217.039 14.4038 216.94 14.4175 216.787 14.422C216.637 14.4266 216.53 14.4209 216.414 14.3913C216.265 14.3525 216.095 14.3286 215.863 14.3446C215.594 14.3628 215.32 14.3708 215.042 14.3833C214.902 14.389 214.794 14.4095 214.748 14.4505C214.74 14.4573 214.827 14.4744 214.877 14.4847C215.043 14.5189 215.2 14.5587 215.386 14.5827C215.577 14.6066 215.784 14.5792 215.983 14.5724C216.053 14.5701 216.12 14.5633 216.186 14.5644C216.248 14.5656 216.323 14.5713 216.368 14.5815C216.584 14.6328 216.811 14.6681 217.11 14.6373C217.366 14.6521 217.499 14.7467 217.826 14.7216C218.025 14.7068 218.232 14.7 218.439 14.6943C218.493 14.6932 218.551 14.7137 218.609 14.7239C218.775 14.7524 218.907 14.798 219.156 14.7786C219.421 14.7581 219.703 14.7547 219.972 14.7387C220.121 14.7296 220.229 14.7376 220.345 14.7672C220.494 14.8048 220.664 14.8333 220.896 14.815C221.095 14.7991 221.306 14.7957 221.509 14.7854C221.774 14.7729 221.774 14.774 222.246 14.8447C222.3 14.8526 222.37 14.8618 222.428 14.8595C222.772 14.8458 223.112 14.8287 223.456 14.815C223.588 14.8093 223.717 14.8242 223.808 14.8572C223.845 14.8709 223.833 14.8937 223.845 14.913C223.162 14.9438 222.478 14.97 221.799 15.0076C221.542 15.0224 221.426 14.9757 221.256 14.9495C221.198 14.9404 221.136 14.921 221.082 14.9233C220.602 14.9426 220.125 14.9631 219.649 14.9882C219.5 14.9962 219.388 14.9916 219.276 14.9586C218.99 14.8709 218.642 14.9187 218.319 14.9312C218.071 14.9404 217.992 14.9757 218.021 15.0509C218.058 15.1397 218.207 15.1671 218.588 15.1511C218.725 15.1454 218.862 15.1374 218.998 15.1329C219.131 15.1283 219.251 15.1431 219.359 15.1739C219.462 15.2047 219.587 15.2206 219.715 15.216C219.988 15.2058 220.266 15.1955 220.531 15.1785C220.751 15.1648 220.933 15.1762 221.086 15.2183C221.256 15.265 221.455 15.2548 221.654 15.2445C222.118 15.2217 222.122 15.2229 222.412 15.2798C222.47 15.2912 222.528 15.3129 222.582 15.3117C223.058 15.2947 223.539 15.2798 224.007 15.2525C224.251 15.2388 224.392 15.2753 224.553 15.3049C224.611 15.3152 224.669 15.3379 224.723 15.3357C225.067 15.3231 225.411 15.3106 225.746 15.289C225.904 15.2787 225.999 15.2855 226.127 15.3129C226.434 15.3801 226.442 15.3778 226.877 15.3562C227.01 15.3493 227.155 15.3368 227.279 15.3459C227.403 15.355 227.503 15.3881 227.619 15.4086C227.673 15.4177 227.739 15.4302 227.797 15.4279C228.07 15.4188 228.344 15.4052 228.617 15.3926C228.874 15.3801 228.874 15.3812 229.354 15.4519C229.549 15.4815 229.752 15.4564 229.947 15.4473C230.158 15.4371 230.349 15.4371 230.51 15.4815C230.672 15.5259 230.866 15.5236 231.074 15.5145C231.268 15.5054 231.467 15.4803 231.666 15.5111C232.122 15.5817 232.122 15.5829 232.403 15.5692C232.813 15.5498 233.219 15.5316 233.633 15.5145C233.687 15.5122 233.758 15.5259 233.812 15.535C233.928 15.5555 234.027 15.5897 234.151 15.5977C234.276 15.6068 234.421 15.5931 234.553 15.5863C234.98 15.5646 235.009 15.5567 235.295 15.6319C235.535 15.6934 235.833 15.6045 236.057 15.6751C236.185 15.715 236.359 15.7469 236.599 15.7275C236.798 15.7116 237.005 15.707 237.212 15.6979C237.54 15.6831 237.54 15.6843 237.954 15.7526C238.008 15.7617 238.078 15.7731 238.132 15.7708C238.405 15.7617 238.683 15.7537 238.948 15.7332C239.259 15.7093 239.458 15.7526 239.69 15.7948C239.872 15.8278 240.087 15.8005 240.282 15.7891C240.493 15.7777 240.684 15.7811 240.841 15.8255C241.007 15.8711 241.202 15.8654 241.409 15.8563C241.603 15.8483 241.802 15.8221 242.001 15.854C242.428 15.9246 242.428 15.9246 242.738 15.911C243.012 15.8984 243.285 15.8848 243.559 15.8756C243.612 15.8734 243.679 15.8882 243.733 15.8984C243.848 15.9189 243.948 15.9531 244.072 15.9611C244.196 15.9691 244.341 15.9542 244.478 15.9486C244.615 15.9429 244.76 15.9258 244.884 15.9326C245.008 15.9394 245.124 15.9679 245.224 15.993C245.34 16.0226 245.447 16.026 245.605 16.0146C245.804 15.9998 246.011 15.9964 246.214 15.9884C246.326 16.0101 246.442 16.0317 246.549 16.0556C246.661 16.0807 246.781 16.0784 246.935 16.0704C247.444 16.0431 247.448 16.0465 247.875 16.1172C248.07 16.149 248.273 16.1228 248.467 16.1149C248.674 16.1058 248.869 16.1012 249.031 16.1468C249.188 16.1901 249.383 16.1958 249.59 16.1821C249.722 16.173 249.863 16.1673 250 16.1639C250.062 16.1627 250.137 16.1673 250.182 16.1764C250.402 16.2242 250.617 16.2675 250.92 16.2368C251.185 16.2459 251.317 16.3393 251.636 16.3211C251.905 16.3051 252.187 16.3017 252.452 16.2812C252.697 16.263 252.871 16.2949 252.995 16.3347C253.219 16.4054 253.533 16.3097 253.757 16.3792C253.886 16.419 254.051 16.4509 254.3 16.4339C254.573 16.4156 254.66 16.4395 254.739 16.5113C254.784 16.5523 254.776 16.5854 254.693 16.6173C254.61 16.6503 254.519 16.6446 254.387 16.607C254.233 16.5649 254.051 16.5569 253.832 16.566C253.616 16.5751 253.484 16.5159 253.306 16.4931C253.127 16.4692 252.916 16.509 252.73 16.4783C252.291 16.4065 252.291 16.4065 251.992 16.4202C251.789 16.4293 251.578 16.4339 251.379 16.4498C251.143 16.4692 250.99 16.4338 250.828 16.402C250.77 16.3906 250.712 16.3689 250.663 16.3701C250.186 16.3871 249.706 16.4031 249.234 16.4316C248.985 16.4464 248.853 16.4054 248.687 16.3769C248.629 16.3666 248.567 16.3461 248.517 16.3484C248.107 16.3644 247.701 16.3849 247.291 16.4042C247.212 16.435 247.125 16.4646 247.051 16.4976C246.972 16.5318 246.864 16.5466 246.707 16.5455C246.446 16.5455 246.189 16.5933 245.928 16.533C245.659 16.4714 245.638 16.4749 245.377 16.4897C245.046 16.509 244.694 16.5045 244.383 16.5489C244.329 16.5569 244.271 16.5785 244.271 16.5945C244.267 16.6047 244.354 16.6195 244.408 16.6286C244.59 16.656 244.801 16.6161 244.984 16.6446C245.104 16.6628 245.203 16.6902 245.323 16.7095C245.373 16.7175 245.447 16.7164 245.514 16.7152C245.584 16.7141 245.65 16.7061 245.717 16.7073C245.779 16.7084 245.845 16.7152 245.895 16.7255C246.123 16.7688 246.363 16.8086 246.566 16.8599C246.765 16.91 246.951 16.8759 247.15 16.8736C247.945 16.9533 247.945 16.9545 248.48 16.9294C248.612 16.9237 248.749 16.9169 248.886 16.918C248.944 16.918 248.997 16.9385 249.055 16.9499C249.221 16.9841 249.379 17.0148 249.611 16.9966C249.809 16.9807 250.021 16.9772 250.224 16.967C250.497 16.9545 250.497 16.9545 250.961 17.0262C251.077 17.0445 251.201 17.0422 251.35 17.0331C251.479 17.0251 251.611 17.0422 251.702 17.0752C251.74 17.0889 251.727 17.1117 251.74 17.131C251.33 17.1493 250.915 17.1618 250.518 17.1891C250.261 17.2062 250.145 17.1572 249.975 17.131C249.917 17.1219 249.855 17.1026 249.801 17.1048C249.395 17.1219 248.989 17.1413 248.583 17.1641C248.534 17.1663 248.471 17.1925 248.467 17.2085C248.459 17.2381 248.563 17.2666 248.712 17.2655C248.91 17.2643 249.105 17.2449 249.283 17.2917C249.432 17.3327 249.619 17.3509 249.838 17.3327C249.971 17.3224 250.112 17.3224 250.244 17.3133C250.597 17.286 250.915 17.2917 251.18 17.3691C251.383 17.3896 251.582 17.3703 251.777 17.36C251.922 17.352 252.063 17.3441 252.166 17.3657C252.386 17.4113 252.601 17.4568 252.904 17.4261C253.231 17.458 253.48 17.5252 253.753 17.5799C253.881 17.6061 253.981 17.6209 254.13 17.6038C254.192 17.597 254.267 17.597 254.333 17.5935C254.47 17.5878 254.615 17.5708 254.739 17.5776C254.863 17.5856 254.967 17.6186 255.079 17.6391C255.132 17.6494 255.194 17.6665 255.248 17.6653C255.455 17.6596 255.658 17.6482 255.861 17.6391C256.064 17.6311 256.267 17.6232 256.47 17.6152C256.64 17.6448 256.814 17.6744 256.984 17.7041C257.257 17.6915 257.531 17.679 257.8 17.6676C258.102 17.6539 258.102 17.6551 258.537 17.7257C258.732 17.7576 258.939 17.7371 259.126 17.7223C259.436 17.6984 259.643 17.7416 259.863 17.7872C259.909 17.7963 259.991 17.802 260.045 17.7975C260.261 17.7815 260.447 17.794 260.604 17.8362C260.716 17.8658 260.828 17.8795 260.965 17.8738C261.441 17.8522 261.917 17.8294 262.394 17.81C262.452 17.8077 262.518 17.818 262.572 17.8271C262.994 17.8966 262.999 17.9 263.309 17.8818C263.587 17.8658 263.844 17.859 264.063 17.9216C264.109 17.9353 264.179 17.9547 264.229 17.9535C264.569 17.9421 264.912 17.9296 265.248 17.9102C265.401 17.9011 265.509 17.9046 265.629 17.9308C265.782 17.9638 265.919 18.0037 266.172 17.9889C266.872 17.9467 266.876 17.9535 267.704 18.0321C267.762 18.0378 267.841 18.0287 267.907 18.0242C268.048 18.0128 268.152 18.0287 268.276 18.0549C268.554 18.1142 268.562 18.1107 268.827 18.0982C269.03 18.088 269.241 18.0857 269.44 18.0686C269.747 18.0435 269.95 18.088 270.177 18.1301C270.36 18.1632 270.571 18.1358 270.766 18.1256C270.977 18.1142 271.167 18.1176 271.325 18.1609C271.433 18.1905 271.548 18.2064 271.685 18.2007C272.162 18.1802 272.638 18.1574 273.114 18.1369C273.172 18.1347 273.243 18.1438 273.297 18.1518C273.769 18.2224 273.769 18.2258 274.237 18.1996C274.386 18.1916 274.51 18.1894 274.622 18.2133C274.73 18.2361 274.846 18.2577 274.958 18.2793C275.161 18.2714 275.368 18.2691 275.567 18.2554C275.72 18.2452 275.828 18.2497 275.948 18.2737C276.105 18.3044 276.238 18.3579 276.486 18.3317C276.615 18.3192 276.764 18.3226 276.892 18.3112C277.045 18.2964 277.149 18.3055 277.269 18.3352C277.418 18.3705 277.571 18.4069 277.812 18.3887C278.077 18.3682 278.359 18.3648 278.628 18.3488C278.777 18.3397 278.881 18.3488 279.001 18.3785C279.15 18.416 279.32 18.44 279.552 18.4252C280.024 18.3967 280.028 18.4024 280.488 18.4741C280.604 18.4924 280.728 18.4901 280.877 18.481C281.006 18.473 281.138 18.4901 281.229 18.5231C281.316 18.5596 281.308 18.5824 281.316 18.6017ZM244.404 8.32733C244.267 8.33303 244.13 8.33986 243.931 8.24075C243.919 8.22366 243.927 8.20316 243.898 8.18835C243.832 8.15759 243.728 8.13595 243.604 8.13253C243.38 8.12798 243.111 8.1667 243.115 8.19632C243.119 8.22138 243.19 8.24302 243.327 8.26353C243.385 8.2715 243.43 8.28518 243.484 8.29429C243.641 8.32049 243.766 8.37176 243.994 8.34556C243.952 8.27493 243.973 8.31025 243.994 8.34556C243.973 8.38885 244.035 8.41961 244.184 8.43214C244.225 8.43556 244.288 8.43328 244.321 8.42644C244.449 8.40138 244.47 8.36721 244.375 8.27721C244.358 8.29202 244.37 8.31822 244.408 8.32505C244.445 8.33189 244.536 8.3262 244.582 8.31822C244.698 8.29658 244.756 8.2681 244.727 8.24417C244.71 8.23164 244.631 8.21569 244.582 8.21569C244.495 8.21569 244.416 8.24075 244.404 8.32733ZM277.899 21.5386C277.596 21.5602 277.248 21.5523 276.946 21.5967C276.892 21.6047 276.838 21.6252 276.834 21.6411C276.83 21.6514 276.913 21.6662 276.963 21.6742C277.074 21.6924 277.199 21.6867 277.344 21.681C277.563 21.673 277.692 21.7254 277.862 21.7516C277.915 21.7596 277.986 21.7653 278.044 21.763C278.379 21.7493 278.711 21.7345 279.046 21.7186C279.104 21.7152 279.166 21.7072 279.216 21.6969C279.382 21.6639 279.365 21.6423 279.204 21.6172C279.026 21.5899 278.885 21.5443 278.702 21.5226C278.441 21.4919 278.176 21.5329 277.899 21.5386ZM254.374 22.3702C254.171 22.3793 253.972 22.3884 253.769 22.3975C253.703 22.401 253.633 22.4021 253.571 22.4066C253.442 22.4146 253.347 22.4385 253.285 22.4761C253.38 22.5058 253.496 22.5228 253.625 22.5194C253.827 22.5126 254.026 22.4978 254.229 22.4944C254.449 22.4898 254.577 22.5411 254.747 22.5673C254.801 22.5753 254.867 22.5764 254.929 22.5775C255.236 22.5821 255.422 22.5228 255.364 22.4397C255.323 22.3748 255.165 22.336 254.975 22.344C254.776 22.352 254.573 22.3611 254.374 22.3702ZM279.315 19.8548C279.365 19.8355 279.419 19.8218 279.444 19.8047C279.518 19.7466 279.489 19.7033 279.353 19.6578C279.187 19.6019 278.984 19.6395 278.798 19.6452C278.752 19.6464 278.702 19.6703 278.678 19.6851C278.661 19.6954 278.661 19.717 278.686 19.7227C278.889 19.7683 279.104 19.8104 279.315 19.8548ZM243.38 16.4897C243.182 16.4988 242.979 16.5056 242.78 16.5182C242.73 16.5216 242.685 16.5432 242.656 16.558C242.602 16.5854 242.66 16.623 242.829 16.6264C243.024 16.6309 243.227 16.6116 243.43 16.6025C243.687 16.5911 243.84 16.5489 243.745 16.5124C243.654 16.4771 243.53 16.4703 243.38 16.4897ZM25.3305 14.0552C25.4631 14.0495 25.5998 14.045 25.7323 14.037C25.8566 14.029 25.9519 14.0039 26.0141 13.9664C25.9105 13.9367 25.7945 13.9208 25.6661 13.9242C25.4631 13.931 25.2643 13.9401 25.0654 13.9515C24.9412 13.9584 24.8211 13.9834 24.7921 14.0222C24.7631 14.0518 25.0406 14.0689 25.3305 14.0552ZM225.862 13.8798C225.916 13.89 225.97 13.9105 226.024 13.9105C226.156 13.9105 226.293 13.9037 226.418 13.8923C226.471 13.8877 226.513 13.8672 226.538 13.8513C226.554 13.841 226.55 13.8228 226.525 13.8137C226.405 13.759 225.925 13.7784 225.846 13.841C225.838 13.8524 225.858 13.8672 225.862 13.8798ZM212.793 7.64153C212.806 7.65976 212.81 7.67798 212.826 7.69621C212.86 7.73039 212.951 7.75546 213.083 7.77254C213.187 7.74406 213.241 7.71217 213.236 7.678C213.232 7.65977 213.22 7.64153 213.203 7.6233C213.17 7.58913 213.079 7.56407 212.947 7.54698C212.843 7.57433 212.793 7.60622 212.793 7.64153ZM288.888 22.5684C288.851 22.5832 288.814 22.598 288.772 22.6117C288.884 22.6447 288.988 22.655 289.067 22.6368C289.116 22.6254 289.145 22.6083 289.183 22.5935C289.071 22.5604 288.971 22.5513 288.888 22.5684ZM286.312 22.7233C286.366 22.7336 286.415 22.7473 286.473 22.7541C286.569 22.7655 286.656 22.7461 286.722 22.7051C286.668 22.6949 286.618 22.6812 286.56 22.6744C286.465 22.663 286.378 22.6823 286.312 22.7233ZM287.944 22.5149C287.915 22.5422 287.973 22.565 288.126 22.5844C288.164 22.5696 288.213 22.5559 288.238 22.5399C288.28 22.5137 288.209 22.4898 288.06 22.4716C288.019 22.4853 287.981 22.5001 287.944 22.5149ZM279.199 21.2868C279.17 21.3142 279.228 21.3369 279.382 21.3563C279.419 21.3415 279.469 21.3278 279.494 21.3119C279.535 21.2857 279.465 21.2618 279.315 21.2435C279.274 21.2572 279.237 21.272 279.199 21.2868ZM267.286 13.2259C267.249 13.2407 267.211 13.2555 267.17 13.2692C267.282 13.3022 267.385 13.3124 267.464 13.2942C267.514 13.2828 267.543 13.2657 267.58 13.2509C267.468 13.2179 267.369 13.2088 267.286 13.2259ZM255.874 8.94933C255.973 8.9573 256.056 8.94136 256.127 8.89921C256.073 8.88896 256.023 8.87528 255.965 8.86845C255.87 8.85706 255.783 8.87643 255.716 8.91744C255.77 8.92883 255.824 8.93907 255.874 8.94933ZM249.814 8.68162C249.776 8.69643 249.739 8.71124 249.698 8.72491C249.809 8.75795 249.913 8.7682 249.992 8.74997C250.041 8.73858 250.07 8.72149 250.108 8.70668C249.996 8.67364 249.896 8.66567 249.814 8.68162ZM208.717 7.64039C208.68 7.6552 208.643 7.67001 208.601 7.68368C208.713 7.71672 208.817 7.72697 208.895 7.70874C208.945 7.69735 208.974 7.68026 209.011 7.66545C208.899 7.63241 208.8 7.62444 208.717 7.64039ZM4.08846 16.9089C4.03461 16.8986 3.98081 16.8884 3.9311 16.877C3.81097 16.9078 3.7737 16.9362 3.83998 16.9579C3.8814 16.9715 3.94349 16.9795 3.99734 16.9898C4.12161 16.959 4.1506 16.9317 4.08846 16.9089Z" fill="#FFE492"/>
<path d="M23.6889 5.66406C23.2125 5.6857 22.7403 5.71304 22.2639 5.72671C22.0112 5.73354 21.9202 5.78253 21.8166 5.8281C21.7337 5.86455 21.6385 5.87594 21.4852 5.88278C20.1928 5.9386 18.9045 5.99784 17.6162 6.05594C17.4546 6.04113 17.3759 6.01721 17.4132 5.98873C17.4339 5.97164 17.4836 5.94772 17.5334 5.94544C18.4157 5.90329 19.2938 5.85999 20.1803 5.82696C20.433 5.81784 20.5034 5.76772 20.6318 5.72671C20.6733 5.71304 20.7064 5.69253 20.7603 5.68456C20.8141 5.67544 20.8928 5.67659 20.9632 5.67431C22.3882 5.60937 23.8132 5.54558 25.2382 5.48065C25.3997 5.49546 25.4784 5.51938 25.4412 5.54786C25.4205 5.56495 25.3707 5.58887 25.321 5.59115C24.7742 5.61507 24.2315 5.639 23.6889 5.66406Z" fill="#FFE492"/>
<path d="M283.814 11.7304C283.599 11.7441 283.325 11.7635 283.102 11.6974C282.994 11.6655 282.878 11.6553 282.737 11.6621C282.534 11.6735 282.327 11.6826 282.12 11.6894C282.066 11.6906 281.996 11.678 281.942 11.6678C281.826 11.6473 281.726 11.6131 281.602 11.604C281.478 11.5949 281.329 11.6199 281.2 11.6142C281.03 11.6063 280.96 11.5755 281.006 11.547C281.03 11.5311 281.08 11.5083 281.134 11.5049C281.9 11.4627 281.904 11.4627 282.12 11.5037C282.286 11.5356 282.439 11.571 282.675 11.5516C282.874 11.5356 283.085 11.5322 283.288 11.522C283.57 11.5083 283.57 11.5094 284.025 11.5812C284.141 11.5994 284.266 11.5983 284.415 11.588C284.543 11.5801 284.667 11.5983 284.771 11.6291C284.705 11.6678 284.609 11.6929 284.481 11.6997C284.274 11.7111 284.071 11.7191 283.814 11.7304Z" fill="#FFE492"/>
<path d="M277.058 11.3794C277.58 11.3555 278.106 11.335 278.628 11.3076C278.843 11.2962 279.013 11.3088 279.162 11.3475C279.324 11.3896 279.506 11.3862 279.705 11.3783C279.829 11.3737 279.949 11.3919 280.032 11.4238C280.065 11.4363 280.057 11.4591 280.069 11.4774C279.614 11.4979 279.154 11.5195 278.694 11.5377C278.64 11.54 278.574 11.5286 278.524 11.5195C278.412 11.5001 278.317 11.466 278.197 11.4591C277.94 11.4432 277.683 11.4739 277.422 11.4796C277.298 11.4819 277.178 11.4648 277.095 11.4341C277.062 11.4193 277.07 11.3976 277.058 11.3794Z" fill="#FFE492"/>
<path d="M87.3476 1.58482C87.8903 1.55976 88.4329 1.53584 88.9756 1.51078C89.1371 1.52673 89.2117 1.54951 89.1785 1.57799C89.1578 1.59508 89.1081 1.619 89.0584 1.62128C87.9731 1.67254 86.8878 1.72152 85.8067 1.77051C85.6451 1.75456 85.5706 1.73178 85.6037 1.7033C85.6244 1.68621 85.6742 1.66229 85.7239 1.66001C86.2624 1.63381 86.805 1.60988 87.3476 1.58482Z" fill="#FFE492"/>
<path d="M3.8779 7.91505C3.6335 7.91733 3.37672 7.95948 3.10333 7.92758C3.04948 7.92189 2.97489 7.90365 2.97904 7.8934C2.98732 7.87631 3.03704 7.85466 3.09089 7.84783C3.327 7.81935 3.62114 7.81593 3.74127 7.73619C3.79926 7.69518 3.90696 7.68152 4.05194 7.67354C4.20521 7.66443 4.31288 7.66784 4.43301 7.69176C4.59042 7.72252 4.72299 7.77948 4.97154 7.74986C4.98396 7.76809 5.01289 7.78859 5.00046 7.80568C4.98803 7.82277 4.93427 7.83872 4.88456 7.85125C4.839 7.86264 4.7768 7.87289 4.71881 7.87631C4.44541 7.88998 4.172 7.90138 3.8779 7.91505Z" fill="#FFE492"/>
<path d="M219.991 7.68619C220.194 7.67708 220.405 7.67252 220.604 7.65657C220.762 7.64404 220.861 7.65201 220.985 7.67935C221.196 7.7272 221.209 7.72265 221.727 7.72948C221.785 7.73062 221.855 7.7477 221.888 7.76251C221.909 7.77048 221.88 7.79214 221.855 7.80353C221.818 7.81834 221.764 7.8377 221.714 7.8377C221.387 7.84112 221.056 7.90834 220.737 7.83087C220.575 7.79214 220.397 7.7739 220.177 7.79099C220.045 7.80124 219.904 7.8058 219.767 7.81036C219.635 7.81492 219.498 7.80239 219.415 7.76821C219.295 7.71809 219.366 7.69872 219.581 7.70214C219.718 7.70442 219.854 7.69189 219.991 7.68619Z" fill="#FFE492"/>
<path d="M294.712 15.5386C294.973 15.5272 295.233 15.5136 295.499 15.5044C295.552 15.5022 295.619 15.5147 295.669 15.5227C295.867 15.5568 295.838 15.6149 295.847 15.6662C295.851 15.7197 295.391 15.763 295.196 15.7266C294.981 15.6856 294.786 15.6389 294.488 15.6639C294.372 15.673 294.235 15.6525 294.161 15.6195C294.049 15.5717 294.111 15.5523 294.322 15.5557C294.447 15.558 294.579 15.5454 294.712 15.5386Z" fill="#FFE492"/>
<path d="M162.593 0.0330525C162.862 0.0205214 163.132 0.00116449 163.401 2.52921e-05C163.558 -0.0011139 163.637 0.0364723 163.6 0.063813C163.579 0.080901 163.529 0.104825 163.48 0.107103C162.941 0.134444 162.403 0.157232 161.864 0.182294C161.707 0.166345 161.628 0.142426 161.665 0.115085C161.686 0.0979972 161.736 0.0752128 161.785 0.0717952C162.055 0.0558464 162.324 0.0455837 162.593 0.0330525Z" fill="#FFE492"/>
<path d="M289.474 11.8304C289.735 11.819 290 11.8019 290.261 11.7962C290.398 11.7939 290.506 11.8201 290.522 11.8498C290.531 11.8634 290.464 11.8874 290.411 11.8931C290.038 11.9318 289.636 11.9363 289.247 11.9557C289.122 11.9614 288.99 11.9432 288.915 11.9113C288.803 11.8623 288.865 11.8441 289.077 11.8475C289.209 11.8486 289.342 11.8361 289.474 11.8304Z" fill="#FFE492"/>
<path d="M226.449 7.83984C226.582 7.83415 226.718 7.81934 226.847 7.82389C226.983 7.82959 227.071 7.86263 227.112 7.89566C227.158 7.93326 227.153 7.96858 227.112 8.00047C227.046 8.05515 226.979 8.05288 226.826 8.01642C226.59 7.95946 226.573 7.96629 226.105 7.96857C226.051 7.96857 225.985 7.95148 225.944 7.93667C225.882 7.91389 225.915 7.87858 226.06 7.85807C226.167 7.84326 226.317 7.84554 226.449 7.83984Z" fill="#FFE492"/>
<path d="M280.087 11.4567C280.281 11.4476 280.476 11.4328 280.671 11.4328C280.808 11.4317 280.915 11.4579 280.928 11.4863C280.932 11.5 280.87 11.5228 280.82 11.5296C280.584 11.5604 280.319 11.5627 280.062 11.5729C279.942 11.5775 279.809 11.5592 279.735 11.5273C279.623 11.4795 279.689 11.4579 279.892 11.4647C279.954 11.467 280.021 11.4601 280.087 11.4567Z" fill="#FFE492"/>
<path d="M248.751 10.0591C248.461 10.0728 248.188 10.0557 248.209 10.0261C248.238 9.98734 248.358 9.96227 248.482 9.95543C248.681 9.94404 248.88 9.93493 249.083 9.92809C249.211 9.92354 249.327 9.94063 249.431 9.97024C249.368 10.0067 249.273 10.0329 249.149 10.0409C249.02 10.0488 248.884 10.0534 248.751 10.0591Z" fill="#FFE492"/>
<path d="M247.302 9.9134C247.497 9.90428 247.692 9.88948 247.886 9.88948C248.023 9.88834 248.131 9.91454 248.143 9.94302C248.147 9.95669 248.085 9.97947 248.035 9.98631C247.799 10.0171 247.534 10.0193 247.277 10.0296C247.157 10.0342 247.025 10.0159 246.95 9.98403C246.838 9.93618 246.905 9.91454 247.108 9.92138C247.17 9.92366 247.236 9.91681 247.302 9.9134Z" fill="#FFE492"/>
<path d="M223.697 7.83102C223.892 7.8219 224.087 7.80708 224.281 7.80594C224.418 7.80481 224.526 7.83102 224.538 7.8595C224.542 7.87317 224.48 7.89481 224.431 7.90279C224.194 7.93355 223.929 7.93582 223.672 7.94608C223.552 7.95063 223.42 7.9324 223.345 7.90051C223.233 7.85266 223.3 7.83101 223.503 7.83785C223.565 7.84012 223.631 7.8333 223.697 7.83102Z" fill="#FFE492"/>
<path d="M222.502 7.76347C222.709 7.75435 222.775 7.74866 222.842 7.74866C222.966 7.74866 223.094 7.76233 223.169 7.79537C223.281 7.84322 223.214 7.85689 223.011 7.85917C222.75 7.86145 222.494 7.88537 222.233 7.88993C222.096 7.89221 221.988 7.86486 221.98 7.83638C221.976 7.82271 222.038 7.79879 222.088 7.79423C222.262 7.77714 222.452 7.76689 222.502 7.76347Z" fill="#FFE492"/>
<path d="M246.185 1.0617C246.052 1.0674 245.912 1.08335 245.787 1.07765C245.622 1.06968 245.555 1.03892 245.597 1.01044C245.622 0.994494 245.667 0.97171 245.717 0.968293C245.982 0.952344 246.251 0.942082 246.516 0.93069C246.674 0.947778 246.744 0.9717 246.703 1.00018C246.678 1.01613 246.632 1.03777 246.583 1.04233C246.454 1.05372 246.317 1.056 246.185 1.0617Z" fill="#FFE492"/>
<path d="M84.761 1.71905C84.8895 1.71791 85.0054 1.73272 85.1048 1.7612C85.0427 1.79765 84.9516 1.82158 84.8273 1.83183C84.7651 1.83639 84.6947 1.8398 84.6285 1.84094C84.5 1.84322 84.384 1.82727 84.2846 1.79879C84.3467 1.76233 84.442 1.73841 84.5621 1.72816C84.6242 1.7236 84.6948 1.72247 84.761 1.71905Z" fill="#FFE492"/>
<path d="M287.549 11.8262C287.545 11.7932 287.798 11.7556 288.025 11.7567C288.145 11.7579 288.27 11.7738 288.34 11.8046C288.448 11.8513 288.386 11.8695 288.183 11.8661C288.058 11.8638 287.926 11.8832 287.802 11.8797C287.661 11.8786 287.578 11.8535 287.549 11.8262Z" fill="#FFE492"/>
<path d="M227.242 7.97767C227.238 7.96513 227.217 7.95033 227.229 7.93894C227.308 7.87628 227.784 7.85692 227.909 7.9116C227.929 7.92185 227.938 7.93893 227.921 7.94919C227.896 7.96513 227.851 7.98564 227.801 7.99019C227.673 8.00159 227.54 8.00729 227.407 8.00843C227.349 8.00843 227.296 7.98906 227.242 7.97767Z" fill="#FFE492"/>
<path d="M6.05398 7.73274C5.56518 7.75666 5.5569 7.75438 5.64389 7.69742C5.72259 7.64615 5.86759 7.6154 6.07885 7.6154C6.14099 7.6154 6.20724 7.61312 6.26109 7.61768C6.31909 7.62337 6.40198 7.63475 6.41441 7.64842C6.43926 7.67463 6.36878 7.70311 6.24451 7.72247C6.19066 7.73159 6.12025 7.72932 6.05398 7.73274Z" fill="#FFE492"/>
<path d="M91.2292 1.55817C91.0843 1.57753 90.96 1.5707 90.8689 1.53425C90.7778 1.49779 90.9228 1.4545 91.1754 1.44425C91.2417 1.44197 91.3121 1.43286 91.3743 1.43742C91.4364 1.44084 91.4986 1.4545 91.5359 1.46817C91.6021 1.49095 91.5607 1.52172 91.4282 1.54792C91.3743 1.55817 91.2955 1.55589 91.2292 1.55817Z" fill="#FFE492"/>
<path d="M287.558 11.7405C287.595 11.7257 287.632 11.7109 287.674 11.6972C287.827 11.7166 287.893 11.7394 287.852 11.7656C287.827 11.7815 287.777 11.7952 287.74 11.81C287.587 11.7907 287.524 11.7667 287.558 11.7405Z" fill="#FFE492"/>
<path d="M12.1585 20.7016C12.1585 20.6879 12.2165 20.6663 12.2621 20.6617C12.3491 20.6537 12.4568 20.6697 12.5313 20.7016C12.6349 20.7471 12.5728 20.7711 12.3823 20.7585C12.2497 20.7494 12.1585 20.7266 12.1585 20.7016Z" fill="#FFE492"/>
<path d="M228.789 6.91733C228.843 6.92758 228.897 6.93784 228.947 6.94923C228.876 6.99138 228.789 7.0096 228.698 6.9982C228.64 6.99137 228.591 6.9777 228.537 6.96744C228.607 6.92529 228.69 6.90935 228.789 6.91733Z" fill="#FFE492"/>
<path d="M227.337 6.86604C227.42 6.84895 227.519 6.85808 227.635 6.89111C227.598 6.90592 227.565 6.92301 227.519 6.9344C227.441 6.95263 227.337 6.9435 227.225 6.90933C227.258 6.89566 227.296 6.88085 227.337 6.86604Z" fill="#FFE492"/>
<path d="M226.167 6.91626C226.22 6.92651 226.274 6.93677 226.324 6.94816C226.254 6.99031 226.171 7.00853 226.075 6.99714C226.017 6.9903 225.968 6.97663 225.914 6.96638C225.984 6.92423 226.067 6.90715 226.167 6.91626Z" fill="#FFE492"/>
<path d="M226.196 6.85598C226.258 6.87877 226.225 6.90611 226.105 6.93686C226.051 6.92661 225.989 6.91865 225.947 6.90498C225.881 6.88333 225.914 6.85484 226.039 6.82408C226.088 6.83548 226.142 6.84573 226.196 6.85598Z" fill="#FFE492"/>
</svg>
